<svg id="etFlyBg3S1Z1" xmlns="http://www.w3.org/2000/svg" xmlns:xlink="http://www.w3.org/1999/xlink" viewBox="0 0 895.46 589.73" shape-rendering="geometricPrecision" text-rendering="geometricPrecision"><g id="etFlyBg3S1Z2"><g id="etFlyBg3S1Z3"><rect id="etFlyBg3S1Z4" width="895.46" height="589.73" rx="0" ry="0" fill="none" stroke="none" stroke-width="1"/><path id="etFlyBg3S1Z5" d="M687,365.39C685.15,365.96,684.37,367.8,683.73,369.49C682.53,372.62,682.31,376.09,681.91,379.38Q681.16,385.46,680.43,391.52C671.964611,392.540957,663.833712,395.438017,656.63,400L656.54,399.89Q652.44,395.57,648.34,391.24C646.63,389.43,644.53,386.03,641.99,385.35C639.82,384.76,636.84,386.26,634.9,387.03C632.285533,388.063758,629.790938,389.378115,627.46,390.95C623.69,393.49,619.69,396.39,621.88,401.29C623.35,404.6,626.03,407.65,628.05,410.63Q631.34,415.51,634.64,420.36C634.791695,420.591814,635.032759,420.750311,635.305712,420.797699C635.578665,420.845087,635.859046,420.777118,636.08,420.61C631.08,426.99,626.5,433.69,624.17,441.45C620.17,441.45,616.17,441.45,612.17,441.67C608.89,441.84,604.85,441.56,601.7,442.53C599.77,443.13,599.25,443.98,598.7,445.85C597.59,449.28,597.16,453.11,596.41,456.63C595.41,461.51,594.41,465.12,599.8,467.04C606.99,469.6,614.74,471.11,622.12,473.11C622.219128,473.12868,622.320872,473.12868,622.42,473.11C623.33,481.11,626.16,488.35,629.89,495.47C624.58,499.47,618.75,503.93,614.81,509.33C611.05,514.51,615.23,518.82,618.65,522.9C621.48,526.25,624.79,531.9,629.73,529.9C636.88,526.9,643.66,522.46,649.91,517.96C650.352863,517.666584,650.489004,517.078102,650.22,516.62C657.272432,522.069936,665.089813,526.450365,673.42,529.62C673.2,536.89,672.34,544.57,673.03,551.76C673.48,556.46,681.3,556.3,684.84,556.66C688.99,557.09,696.34,558.3,698.69,553.66C700.13,550.8,700.05,546.57,700.53,543.44C701.14,539.44,701.77,535.44,702.39,531.44C710.026604,529.813324,717.45169,527.317046,724.52,524L724.52,524C730.07,528.52,735.52,534,741.57,537.84C746.04,540.68,751.02,535.48,754.26,532.71C757.87,529.62,763.93,525.24,762.03,519.8C760.95,516.68,758.42,513.89,756.45,511.29C754.48,508.69,752.58,506.36,750.56,503.96C756.224597,497.760928,759.923847,490.021386,761.19,481.72C767.98,481.02,774.81,480.39,781.55,479.35C787.55,478.43,786.55,472.12,786.94,467.18C787.17,463.87,787.83,460.12,787.39,456.83C787.386934,455.329,786.385821,454.013251,784.94,453.61C781.68,452.56,777.25,453.08,773.85,452.88L761.71,452.15C760.983053,443.606042,757.974961,435.414084,753,428.43C758,423.22,763.13,417.89,767.32,412.06C770.84,407.15,765.75,402.06,762.69,398.18C759.63,394.3,755.98,389.35,750.57,391.56C744.34,394.12,738.47,399.03,733.16,403.32C726.55487,397.474138,718.326976,393.776991,709.57,392.72C709.17,385.82,708.92,378.86,708.22,371.99C707.56,365.63,702.47,366.08,697.07,365.68C694.06,365.46,689.89,364.51,687,365.39ZM645.25,493.39C632.49,474.18,632.14,448.25,645.6,429.32C652.88,419.07,663.42,412.23,675.46,408.83C688.2,405.24,702.92,404.02,715.19,409.83C737.98,420.65,750.97,447.13,748.01,471.78C747.800028,471.898901,747.658997,472.110449,747.63,472.35C743.27,493.47,726.72,511.42,705.63,516.55C683.11,522,658.05,512.72,645.21,493.38Z" fill="rgb(56,142,60)" stroke="none" stroke-width="1"/><path id="etFlyBg3S1Z6" d="M665.43,441.15C655.34,452.66,653.95,468.67,663.25,481.15C671.68,492.44,686.76,497.69,700.45,494.7C715.97,491.3,727.09,477.29,728.61,461.79C728.711692,461.104873,728.463982,460.414287,727.95,459.95C729.2,446.87,721.05,434.69,708.61,429.95C693.71,424.23,675.86,429.26,665.43,441.15ZM710.63,436.69C707.57,437.16,705.74,441.18,707.86,444.13C709.200074,445.888063,711.180521,447.045421,713.37,447.35C715.7,447.5,717.24,445.25,718.66,443.64C721.45209,447.244563,723.02777,451.642462,723.16,456.2C719.45,455.56,715.5,457.56,714.83,461.54C714.45,463.82,715.16,466.31,717.51,467.1C719.090019,467.61113,720.753336,467.814802,722.41,467.7C720.854443,472.844586,718.059249,477.528424,714.27,481.34L714.27,481.34C713.27,479.21,711.52,477.24,709.07,477.34C708.786727,477.118806,708.412624,477.051467,708.07,477.16C705.47812,477.912325,703.24912,479.583185,701.8,481.86C701.561758,482.220894,701.561758,482.689106,701.8,483.05C701.507189,483.578179,701.442194,484.202855,701.62,484.78C702.113683,486.121696,702.883633,487.344758,703.88,488.37C701.010449,489.541522,697.97216,490.24708,694.88,490.46L694.55,490.46C694.857639,488.381179,693.977666,486.304751,692.27,485.08C690.27,483.53,687.68,483.58,685.27,483.87C684.163048,483.91355,683.198978,484.638594,682.85,485.69C682.526259,486.664324,682.305062,487.669767,682.19,488.69C678.240175,487.325026,674.587888,485.217154,671.43,482.48C672.94,481.37,674.79,480.19,674.76,478.16C674.73,476.13,672.87,473.86,671.89,472.16C671.490218,471.501992,670.814535,471.059843,670.051507,470.956941C669.288479,470.854039,668.519808,471.101402,667.96,471.63L664.78,474.11C663.525471,471.69372,662.658237,469.095393,662.21,466.41C661.821739,464.126454,661.771199,461.798243,662.06,459.5C663.598361,459.935281,665.221508,459.976548,666.78,459.62C667.859077,459.320477,668.614664,458.349589,668.64,457.23C668.654385,456.344017,668.89537,455.476471,669.34,454.71C669.723184,454.038572,669.779727,453.229181,669.493621,452.510996C669.207515,451.792812,668.609906,451.244019,667.87,451.02L665,450.3C666.565534,447.490885,668.551874,444.937983,670.89,442.73C671.51,443.65,672.13,444.58,672.74,445.51C673.137248,446.171091,673.813354,446.615877,674.577698,446.718957C675.342042,446.822036,676.111819,446.572242,676.67,446.04C676.87,445.84,677.09,445.66,677.3,445.47C677.562254,445.408631,677.81468,445.311026,678.05,445.18C678.487493,444.970282,678.840282,444.617493,679.05,444.18C679.799618,443.705704,680.585373,443.291093,681.4,442.94C682.5898,442.247876,683.00022,440.726645,682.32,439.53C681.623303,438.401497,680.797761,437.357823,679.86,436.42C682.415202,435.105057,685.117433,434.098014,687.91,433.42L687.91,435.83C687.915163,437.204094,689.016165,438.322854,690.39,438.35C691.993966,438.274177,693.596563,438.525965,695.1,439.09C696.423703,439.450677,697.792715,438.686164,698.18,437.37C698.659747,435.883362,698.909299,434.332093,698.92,432.77C703.043615,433.291795,707.02331,434.624024,710.63,436.69Z" fill="rgb(56,142,60)" stroke="none" stroke-width="1"/><path id="etFlyBg3S1Z7" d="M709.38,20.41C707.29,21.05,706.38,23.14,705.67,25.06C704.32,28.61,704.06,32.53,703.61,36.27C703.04,40.85,702.49,45.44,701.93,50.03C692.354573,51.169922,683.154269,54.432562,675,59.58C666.845731,64.727438,675,59.5,674.9,59.47C671.81,56.19,668.71,52.93,665.61,49.65C663.67,47.65,661.29,43.76,658.41,42.98C655.95,42.32,652.58,43.98,650.41,44.88C647.457286,46.061966,644.638198,47.553635,642,49.33C637.74,52.21,633.2,55.49,635.68,61.05C637.35,64.8,640.38,68.25,642.68,71.63Q646.42,77.15,650.15,82.63C650.324022,82.889248,650.59598,83.06659,650.903391,83.121283C651.210803,83.175976,651.527239,83.103317,651.78,82.92C646.12,90.15,640.92,97.74,638.28,106.54C633.77,106.54,629.28,106.54,624.73,106.79C621.02,106.97,616.43,106.66,612.86,107.79C610.68,108.46,610.09,109.42,609.41,111.54C608.16,115.43,607.67,119.76,606.82,123.76C605.65,129.29,604.49,133.38,610.66,135.56C618.8,138.46,627.59,140.17,635.95,142.43C636.062119,142.453462,636.177881,142.453462,636.29,142.43C637.29,151.55,640.53,159.7,644.76,167.76C638.76,172.28,632.14,177.35,627.67,183.48C623.41,189.34,628.15,194.23,632.02,198.84C635.23,202.65,639.02,209.06,644.57,206.74C652.68,203.39,660.36,198.31,667.44,193.2C667.921163,192.857217,668.071293,192.209511,667.79,191.69C675.753455,197.874462,684.585045,202.851287,694,206.46C693.75,214.7,692.77,223.46,693.56,231.56C694.07,236.88,702.93,236.7,706.93,237.11C711.63,237.59,719.93,238.97,722.63,233.68C724.26,230.45,724.17,225.68,724.71,222.11Q725.76,215.31,726.82,208.5C735.474267,206.696323,743.892756,203.904699,751.91,200.18L751.91,200.18C758.2,205.29,764.37,211.52,771.23,215.86C776.3,219.08,781.94,213.19,785.6,210.05C789.7,206.54,796.6,201.58,794.42,195.42C793.18,191.88,790.33,188.72,788.09,185.77C785.85,182.82,783.71,180.19,781.41,177.47C787.814077,170.437625,791.989962,161.664786,793.41,152.26C801.11,151.48,808.84,150.75,816.48,149.58C823.31,148.58,822.17,141.38,822.59,135.79C822.85,132.04,823.59,127.79,823.1,124.06C822.86,122.18,822.16,121,820.32,120.41C816.63,119.22,811.6,119.81,807.75,119.58L794,118.76C793.181624,109.033285,789.758379,99.706584,784.09,91.76C789.69,85.85,795.57,79.81,800.31,73.21C804.31,67.65,798.54,61.84,795.07,57.48C791.6,53.12,787.46,47.48,781.34,49.98C774.27,52.88,767.62,58.45,761.61,63.3C754.119279,56.68171,744.793735,52.496724,734.87,51.3C734.42,43.48,734.14,35.6,733.34,27.81C732.6,20.6,726.83,21.11,720.71,20.66C717.43,20.49,712.69,19.42,709.38,20.41ZM715.57,66.31C715.57,67.8,715.46,69.56,715.48,70.01C715.48,71.39,715.56,72.77,715.61,74.15C711.159685,74.203859,706.726574,74.713181,702.38,75.67C702.384678,75.623451,702.384678,75.576549,702.38,75.53C701.65,73.23,700.93,70.93,700.2,68.63C705.242798,67.394293,710.387139,66.617789,715.57,66.31ZM696.3,69.63L698.02,69.17L700.21,76.1L700.21,76.17C695.472795,77.38452,690.90212,79.174505,686.6,81.5C686.596235,81.470118,686.596235,81.439882,686.6,81.41L683.1,74.92C687.300738,72.695244,691.725455,70.922005,696.3,69.63ZM681.12,76L684.64,82.53L684.64,82.59C681.128016,84.690314,677.861167,87.175669,674.9,90L670,84.23C673.376943,81.067088,677.108407,78.305402,681.12,76ZM662.47,92.84C664.261719,90.325387,666.251376,87.957863,668.42,85.76L673.32,91.51C672.43,92.42,671.56,93.36,670.73,94.35C669.429838,95.891246,668.2211,97.507349,667.11,99.19Q663.84,97.47,660.68,95.52C661.26,94.61,661.84,93.72,662.47,92.84ZM653.74,110.84C655.123908,106.137617,657.067841,101.618559,659.53,97.38Q662.66,99.32,665.93,101.04C663.533388,105.037166,661.686748,109.339265,660.44,113.83C658.24,112.8,656,111.81,653.74,110.87ZM651.18,127.41C651.299317,122.543176,651.970272,117.705588,653.18,112.99C655.45,113.93,657.7,114.93,659.91,115.99C659.016502,119.867224,658.5537,123.831226,658.53,127.81ZM651.18,129.63L658.56,130.05C658.69153,133.921359,659.224383,137.768624,660.15,141.53L652.54,142.34C651.665601,138.168564,651.200065,133.921801,651.15,129.66ZM664.85,114.14C666.084807,110.173694,667.804476,106.374973,669.97,102.83C681.53,84.5,703.47,76.23,724.54,79C730.06853,79.649406,735.478209,81.07336,740.61,83.23C747.068361,86.914244,752.631364,91.982075,756.9,98.07C762.9,109.63,767.64,122.54,767.6,135.66C767.594131,135.766586,767.594131,135.873414,767.6,135.98C764.43,155.44,750.11,172.58,731.08,178.28C710.76722,184.384103,688.76885,177.851373,675.08,161.65C664.16,148.51,660,130.31,664.82,114.17ZM653,144.53L660.7,143.71C661.859393,147.752668,663.465988,151.653439,665.49,155.34L658.49,159.29C656.077486,154.606739,654.234369,149.651474,653,144.53ZM662.08,165.44C661.17,164.07,660.33,162.67,659.53,161.24L666.59,157.24L666.59,157.24C668.752812,160.844575,671.308408,164.198375,674.21,167.24C672.21,169.24,670.14,171.12,668.02,172.97C665.835478,170.625739,663.845563,168.107409,662.07,165.44ZM669.57,174.58C671.7,172.73,673.78,170.82,675.78,168.83C678.907553,171.848182,682.370054,174.498741,686.1,176.73C684.637753,179.18396,682.964779,181.506049,681.1,183.67C676.912024,181.100378,673.039034,178.049644,669.56,174.58ZM683.07,184.81C684.930491,182.621379,686.603085,180.279747,688.07,177.81C690.73687,179.268606,693.515651,180.512537,696.38,181.53C695.665557,184.285967,694.635407,186.950263,693.31,189.47C689.766261,188.212886,686.337,186.653827,683.06,184.81ZM695.38,190.2C696.690709,187.671248,697.716979,185.004956,698.44,182.25C702.101438,183.390378,705.866268,184.16746,709.68,184.57Q709.23,188.82,708.5,193.03C704.039271,192.530794,699.640313,191.582656,695.37,190.2ZM710.7,193.2Q711.42,188.98,711.87,184.73C716.122222,185.026549,720.394098,184.858893,724.61,184.23L725.94,184L725.94,189.15C725.94,190,725.94,190.85,725.94,191.7L725.94,192.58C720.901307,193.408634,715.781443,193.630215,710.69,193.24ZM745.34,185.87C740.661001,188.441149,735.665093,190.387738,730.48,191.66C729.71,191.84,728.94,192.01,728.16,192.17C728.16,191.72,728.16,191.28,728.16,190.87Q728.16,187.26,728.16,183.64C728.16,183.64,728.16,183.59,728.16,183.56C732.737399,182.549632,737.164354,180.949609,741.33,178.8C742.508573,181.2538,743.844698,183.628762,745.33,185.91ZM747.26,184.77C745.784258,182.520977,744.448397,180.18322,743.26,177.77C747.27148,175.495751,750.989182,172.73854,754.33,169.56C754.377799,169.639776,754.434862,169.713622,754.5,169.78L759.66,175.18C755.928361,178.880469,751.761198,182.114133,747.25,184.81ZM761.26,173.58L756.12,168.2C756.055015,168.137404,755.984755,168.080527,755.91,168.03C758.824748,165.055707,761.415901,161.780732,763.64,158.26Q766.35,161,768.86,163.94C766.608597,167.391815,764.04806,170.631814,761.21,173.62ZM765.11,156.58C765.179989,156.355324,765.179989,156.114676,765.11,155.89C766.380825,153.661568,767.506498,151.353437,768.48,148.98Q771.57,150.91,774.84,152.54C773.480742,155.816997,771.862277,158.980361,770,162Q767.64,159.24,765.06,156.63ZM779.01,134.58C778.96,136.71,778.82,138.83,778.57,140.94C778.331153,141.082227,778.169422,141.324823,778.13,141.6C777.498365,144.628198,776.646092,147.606142,775.58,150.51Q772.33,148.87,769.24,146.92C770.670671,143.009246,771.676458,138.955923,772.24,134.83C774.485052,134.593482,776.743828,134.513289,779,134.59ZM779.01,132.37C776.723385,132.291614,774.434094,132.378507,772.16,132.63L771.97,132.63C771.777832,128.999002,771.286162,125.390073,770.5,121.84L777.68,119.44C778.516516,123.703634,778.958384,128.035279,779,132.38ZM777.22,117.31L770,119.73C769.00876,115.839299,767.772971,112.015032,766.3,108.28L772.95,105.21C773.055047,105.156386,773.152556,105.089138,773.24,105.01C774.919227,108.988035,776.241108,113.107617,777.19,117.32ZM772.43,103.18C772.224563,103.155722,772.016459,103.190406,771.83,103.28L765.47,106.22C764.34,103.46,763.12,100.74,761.85,98.05C761.025918,96.305387,760.114771,94.603245,759.12,92.95L763.39,88.43C766.989736,92.960165,770.015991,97.917715,772.4,103.19ZM761.94,86.72L757.85,91C756.196957,88.554466,754.172633,86.381692,751.85,84.56C750.320043,83.38807,748.698126,82.341349,747,81.43C748.07,79.62,749.15,77.81,750.22,75.99C754.555862,79.067617,758.492666,82.671875,761.94,86.72ZM741.32,70.72C743.760604,71.893058,746.119292,73.229426,748.38,74.72L745,80.42C741.9835,78.985311,738.852661,77.804556,735.64,76.89C734.72,76.61,733.78,76.37,732.84,76.14C733.71,73.59,734.57,71.05,735.43,68.5C737.443787,69.114613,739.411956,69.869802,741.32,70.76ZM733.32,67.85L730.7,75.6C726.46365,74.695898,722.150877,74.196982,717.82,74.11L717.58,66.53L717.58,66.19C722.880295,66.019248,728.178395,66.59147,733.32,67.89Z" fill="rgb(56,142,60)" stroke="none" stroke-width="1"/><path id="etFlyBg3S1Z8" d="M709.27,130.42C709.133782,130.8602,709.106331,131.326865,709.19,131.78C708.910331,132.031969,708.821902,132.433922,708.97,132.78C709.89,135.22,713.41,136.16,715.13,133.96C715.883676,132.904428,716.020572,131.528186,715.489605,130.344829C714.958638,129.161473,713.839574,128.348775,712.55,128.21C711.092064,128.1538,709.765419,129.047668,709.27,130.42ZM712.27,131.94C712.01,131.88,711.68,131.64,711.92,131.42C712.16,131.2,712.53,131.42,712.42,131.71C712.372192,131.801221,712.303699,131.879988,712.22,131.94Z" fill="rgb(56,142,60)" stroke="none" stroke-width="1"/><path id="etFlyBg3S1Z9" d="M808.58,216.79C806.67,216.5,805.17,217.79,803.86,219.08C801.43,221.4,799.74,224.42,797.96,227.23L791.4,237.55C783.341071,234.828033,774.77679,233.936418,766.33,234.94C766.333032,234.89672,766.333032,234.85328,766.33,234.81Q764.5,229.14,762.65,223.46C761.89,221.1,761.45,217.13,759.45,215.46C757.74,213.99,754.45,214.06,752.33,213.92C749.525959,213.728129,746.709361,213.842134,743.93,214.26C739.43,214.94,734.57,215.83,734.44,221.19C734.34,224.82,735.44,228.72,735.99,232.28Q736.87,238.09,737.75,243.9C737.788563,244.173073,737.938187,244.418097,738.163492,244.577136C738.388797,244.736175,738.66978,244.795108,738.94,244.74C731.69,248.35,724.67,252.43,719.23,258.43C715.65,256.68,712.02,255.01,708.34,253.48C705.34,252.22,701.77,250.23,698.51,249.76C696.51,249.47,695.68,250.01,694.33,251.44C691.86,254.06,689.82,257.32,687.63,260.19C684.63,264.19,682.13,266.97,686.21,271.04C691.59,276.45,697.94,281.15,703.74,286.12C703.814421,286.191062,703.903025,286.245587,704,286.28C701.36,293.94,700.82,301.65,701.13,309.68C694.62,310.99,687.43,312.52,681.55,315.68C675.92,318.73,677.84,324.42,679.18,329.57C680.29,333.82,680.84,340.35,686.18,340.63C693.91,341.04,701.96,339.9,709.54,338.53C710.065026,338.452582,710.438133,337.978515,710.39,337.45C714.412743,345.407263,719.584842,352.729068,725.74,359.18C722.41,365.64,718.33,372.18,715.86,379C714.25,383.43,721.38,386.65,724.41,388.5C727.97,390.67,734.09,394.93,738.21,391.73C740.74,389.73,742.49,385.92,744.27,383.3C746.54,379.96,748.83,376.61,751.11,373.3C758.69093,375.144515,766.45827,376.114174,774.26,376.19C782.06173,376.265826,774.26,376.19,774.26,376.25C777.33,382.71,779.88,390.02,783.69,396.07C786.51,400.56,793.24,398.01,797.35,396.91C801.94,395.67,809.3,394.32,809.93,388.6C810.29,385.31,809.21,381.71,808.55,378.51C807.89,375.31,807.18,372.4,806.39,369.36C814.169816,366.198705,820.83995,360.805535,825.56,353.86C831.99,356.15,838.42,358.51,844.95,360.48C850.79,362.25,852.6,356.11,855.05,351.81C856.69,348.93,858.89,345.81,859.92,342.66C860.575123,341.291825,860.235392,339.654568,859.09,338.66C856.6,336.31,852.37,334.88,849.39,333.23L838.75,327.35C841.777532,319.298331,842.585714,310.581019,841.09,302.11C847.8,299.53,854.77,296.95,861.09,293.5C866.39,290.58,864,283.76,862.89,278.98C861.78,274.2,860.63,268.11,854.8,267.78C848.07,267.41,840.66,269.32,834.02,270.91C830.577367,262.788978,824.741436,255.910045,817.29,251.19C819.9,244.78,822.67,238.4,824.99,231.9C827.13,225.9,822.34,224.08,817.64,221.4C815,219.9,811.6,217.25,808.58,216.79ZM715.82,314.35C712.57,291.53,723.41,267.97,743.7,256.67C754.7,250.56,767.15,248.91,779.47,251.03C792.47,253.27,806.34,258.5,814.9,269.03C830.82,288.6,831.16,318.09,817.9,339.03C817.657592,339.058299,817.439044,339.189428,817.3,339.39C804.3,356.58,781.62,365.66,760.36,361.21C737.71,356.5,719.09,337.34,715.82,314.35Z" fill="rgb(0,188,212)" stroke="none" stroke-width="1"/><path id="etFlyBg3S1Z10" d="M790.9,284.19L786.9,286.66C784.61711,285.064769,782.100502,283.833453,779.44,283.01C779.76,281.52,780.03,279.86,778.44,279.18C777.215175,278.847549,775.957736,278.649712,774.69,278.59L770.07,277.94C769.392972,277.823607,768.746114,278.26666,768.61,278.94C768.538509,279.916051,768.616064,280.897298,768.84,281.85C765.640699,282.125218,762.517319,282.975509,759.62,284.36C759.20773,283.280323,758.211925,282.53347,757.06,282.44C754.7,282.21,753.6,284.66,751.52,284.99C751.135142,285.025571,750.787426,285.234461,750.575286,285.557537C750.363146,285.880613,750.309671,286.28271,750.43,286.65C750.867693,287.804835,751.392539,288.924728,752,290L751.34,290.73C749.47474,292.941668,748.024748,295.472376,747.06,298.2C746.054799,297.684285,744.956582,297.37488,743.83,297.29C743.1,297.29,742.21,297.74,742.35,298.62C742.567271,299.640082,742.334015,300.704309,741.71,301.54C741.421713,301.879759,741.334313,302.346515,741.480138,302.767562C741.625964,303.188608,741.983329,303.501325,742.42,303.59C743.592071,303.759872,744.715927,304.171952,745.72,304.8C745.547405,307.539899,745.8244,310.289575,746.54,312.94C744.974117,313.122199,743.816378,314.485273,743.89,316.06C744.067992,317.369226,744.495737,318.632092,745.15,319.78L747.26,324.56C747.392884,324.922002,747.683046,325.204021,748.048683,325.326548C748.414321,325.449076,748.815824,325.398839,749.14,325.19L750.8,324.08C751.165035,324.00723,751.485634,323.791096,751.69,323.48L752.1,323.21C752.798529,324.00017,753.546713,324.745013,754.34,325.44C755.810969,326.72161,757.437017,327.813481,759.18,328.69L757.88,330.06C757.626064,330.354242,757.522134,330.749209,757.598358,331.130328C757.674582,331.511447,757.922428,331.836059,758.27,332.01L764.94,334.83C765.342819,335.017802,765.814784,334.979493,766.182041,334.729184C766.549299,334.478874,766.757518,334.053594,766.73,333.61C766.694518,332.72629,766.812948,331.84314,767.08,331C772.301231,331.573973,777.574189,330.559808,782.21,328.09L785.14,333.44C785.357542,333.76749,785.715483,333.974664,786.107814,334.000165C786.500145,334.025667,786.881894,333.866572,787.14,333.57L791.55,329.49C791.923858,329.064506,791.964891,328.440806,791.65,327.97C790.65,326.67,789.83,325.32,789,323.97C792.144885,321.084454,794.505346,317.447417,795.86,313.4C797.033732,313.6586,798.247033,313.68239,799.43,313.47C800.103551,313.382858,800.601049,312.798839,800.58,312.12C800.677642,310.059366,800.461849,307.995851,799.94,306C799.757764,305.458582,799.229221,305.111725,798.66,305.16C798.13,305.26,797.66,305.31,797.08,305.37C797.019937,301.686636,796.065911,298.073007,794.3,294.84L795.85,293.98C796.324737,293.664849,796.526255,293.068521,796.34,292.53C795.322104,289.791485,794.091689,287.136732,792.66,284.59C792.482675,284.300089,792.195759,284.094101,791.864367,284.018784C791.532976,283.943468,791.185212,284.005211,790.9,284.19ZM767.44,287C771.389195,286.409327,775.424087,286.85382,779.15,288.29L774.76,294.83C772.747408,294.105848,770.597149,293.846039,768.47,294.07C768.267621,291.694941,767.923676,289.334078,767.44,287ZM754,295.43C754.08,295.31,754.15,295.18,754.24,295.07C756.883256,291.435308,760.673668,288.796815,765,287.58C765.483545,289.889396,765.817573,292.227587,766,294.58C765.229946,294.79316,764.480337,295.074263,763.76,295.42C762.193476,296.178006,760.849884,297.328672,759.86,298.76C757.973795,297.535821,756.017068,296.423892,754,295.43ZM752.71,297.58C754.780725,298.579978,756.784875,299.712323,758.71,300.97C758.031971,302.764881,757.838821,304.706725,758.15,306.6C758.15,306.8,758.15,307,758.2,307.2L750.67,307.65C750.420021,304.169052,751.129046,300.68618,752.72,297.58ZM751,310.13L758.65,309.68C759.299269,311.949918,760.603703,313.977878,762.4,315.51Q760.14,318.72,758.19,322.12C754.453255,319.097264,751.906336,314.850038,751,310.13ZM760.24,323.58Q762.17,320.15,764.44,316.92C764.848198,317.143897,765.268887,317.344226,765.7,317.52C767.037537,318.063145,768.457887,318.374269,769.9,318.44C770.49,321,771.07,323.56,771.66,326.12C767.682876,326.515776,763.683666,325.625505,760.25,323.58ZM787.08,317.77C786.735213,317.9255,786.433258,318.16226,786.2,318.46C783.106966,322.175501,778.856895,324.745966,774.13,325.76Q773.28,322.01,772.41,318.28C775.601359,317.752858,778.466678,316.015759,780.41,313.43ZM789.08,316.15L781.62,311.29C782.37645,309.68079,782.778838,307.928012,782.8,306.15C782.802834,305.333947,782.722418,304.519732,782.56,303.72C785.56,303.04,788.48,302.3,791.41,301.47C792.70486,306.468476,791.87995,311.779737,789.13,316.15ZM782.66,290C786.281293,292.043194,789.101821,295.255071,790.66,299.11C787.76,299.93,784.83,300.67,781.89,301.34C780.886184,299.065343,779.179241,297.172634,777.02,295.94L781.44,289.37C781.85,289.56,782.26,289.76,782.66,290ZM771.75,281.78L771.31,281.78C771.188069,281.408913,771.101025,281.027259,771.05,280.64L771.35,280.69C771.273848,281.096229,771.427608,281.51138,771.75,281.77ZM789.88,288C789.637391,288.187057,789.481994,288.465327,789.45,288.77L788.97,288.35L789.88,287.8C789.869994,287.866291,789.869994,287.933709,789.88,288Z" fill="rgb(0,188,212)" stroke="none" stroke-width="1"/></g></g><script><![CDATA[!function(t,n){"object"==typeof exports&&"undefined"!=typeof module?module.exports=n():"function"==typeof define&&define.amd?define(n):(t="undefined"!=typeof globalThis?globalThis:t||self).__SVGATOR_PLAYER__=n()}(this,(function(){"use strict";function t(n){return(t="function"==typeof Symbol&&"symbol"==typeof Symbol.iterator?function(t){return typeof t}:function(t){return t&&"function"==typeof Symbol&&t.constructor===Symbol&&t!==Symbol.prototype?"symbol":typeof t})(n)}function n(t,n){if(!(t instanceof n))throw new TypeError("Cannot call a class as a function")}function r(t,n){for(var r=0;r<n.length;r++){var e=n[r];e.enumerable=e.enumerable||!1,e.configurable=!0,"value"in e&&(e.writable=!0),Object.defineProperty(t,e.key,e)}}function e(t,n,e){return n&&r(t.prototype,n),e&&r(t,e),t}function i(t){return(i=Object.setPrototypeOf?Object.getPrototypeOf:function(t){return t.__proto__||Object.getPrototypeOf(t)})(t)}function o(t,n){return(o=Object.setPrototypeOf||function(t,n){return t.__proto__=n,t})(t,n)}function u(t,n){return!n||"object"!=typeof n&&"function"!=typeof n?function(t){if(void 0===t)throw new ReferenceError("this hasn't been initialised - super() hasn't been called");return t}(t):n}function a(t){var n=function(){if("undefined"==typeof Reflect||!Reflect.construct)return!1;if(Reflect.construct.sham)return!1;if("function"==typeof Proxy)return!0;try{return Boolean.prototype.valueOf.call(Reflect.construct(Boolean,[],(function(){}))),!0}catch(t){return!1}}();return function(){var r,e=i(t);if(n){var o=i(this).constructor;r=Reflect.construct(e,arguments,o)}else r=e.apply(this,arguments);return u(this,r)}}function l(t,n,r){return(l="undefined"!=typeof Reflect&&Reflect.get?Reflect.get:function(t,n,r){var e=function(t,n){for(;!Object.prototype.hasOwnProperty.call(t,n)&&null!==(t=i(t)););return t}(t,n);if(e){var o=Object.getOwnPropertyDescriptor(e,n);return o.get?o.get.call(r):o.value}})(t,n,r||t)}var f=s(Math.pow(10,-6));function s(t){var n=arguments.length>1&&void 0!==arguments[1]?arguments[1]:6;if(Number.isInteger(t))return t;var r=Math.pow(10,n);return Math.round((+t+Number.EPSILON)*r)/r}function c(t,n){var r=arguments.length>2&&void 0!==arguments[2]?arguments[2]:f;return Math.abs(t-n)<r}var h=Math.PI/180;function v(t){return t}function y(t,n,r){var e=1-r;return 3*r*e*(t*e+n*r)+r*r*r}function d(){var t=arguments.length>0&&void 0!==arguments[0]?arguments[0]:0,n=arguments.length>1&&void 0!==arguments[1]?arguments[1]:0,r=arguments.length>2&&void 0!==arguments[2]?arguments[2]:1,e=arguments.length>3&&void 0!==arguments[3]?arguments[3]:1;return t<0||t>1||r<0||r>1?null:c(t,n)&&c(r,e)?v:function(i){if(i<=0)return t>0?i*n/t:0===n&&r>0?i*e/r:0;if(i>=1)return r<1?1+(i-1)*(e-1)/(r-1):1===r&&t<1?1+(i-1)*(n-1)/(t-1):1;for(var o,u=0,a=1;u<a;){var l=y(t,r,o=(u+a)/2);if(c(i,l))break;l<i?u=o:a=o}return y(n,e,o)}}function g(){return 1}function p(t){return 1===t?1:0}function m(){var t=arguments.length>0&&void 0!==arguments[0]?arguments[0]:1,n=arguments.length>1&&void 0!==arguments[1]?arguments[1]:0;if(1===t){if(0===n)return p;if(1===n)return g}var r=1/t;return function(t){return t>=1?1:(t+=n*r)-t%r}}function b(t,n,r){return t>=.5?r:n}function w(t,n,r){return 0===t||n===r?n:t*(r-n)+n}function x(t,n,r){var e=w(t,n,r);return e<=0?0:e}function k(t,n,r){return 0===t?n:1===t?r:{x:w(t,n.x,r.x),y:w(t,n.y,r.y)}}function A(t,n,r){var e=function(t,n,r){return Math.round(w(t,n,r))}(t,n,r);return e<=0?0:e>=255?255:e}function S(t,n,r){return 0===t?n:1===t?r:{r:A(t,n.r,r.r),g:A(t,n.g,r.g),b:A(t,n.b,r.b),a:w(t,null==n.a?1:n.a,null==r.a?1:r.a)}}function _(t,n,r){if(0===t)return n;if(1===t)return r;var e=n.length;if(e!==r.length)return b(t,n,r);for(var i=[],o=0;o<e;o++)i.push(S(t,n[o],r[o]));return i}function O(t,n){for(var r=[],e=0;e<t;e++)r.push(n);return r}function M(t,n){if(--n<=0)return t;var r=(t=Object.assign([],t)).length;do{for(var e=0;e<r;e++)t.push(t[e])}while(--n>0);return t}var j,P=function(){function t(r){n(this,t),this.list=r,this.length=r.length}return e(t,[{key:"setAttribute",value:function(t,n){for(var r=this.list,e=0;e<this.length;e++)r[e].setAttribute(t,n)}},{key:"removeAttribute",value:function(t){for(var n=this.list,r=0;r<this.length;r++)n[r].removeAttribute(t)}},{key:"style",value:function(t,n){for(var r=this.list,e=0;e<this.length;e++)r[e].style[t]=n}}]),t}(),I=/-./g,E=function(t,n){return n.toUpperCase()};function F(t){return"function"==typeof t?t:b}function N(t){return t?"function"==typeof t?t:Array.isArray(t)?function(t){var n=arguments.length>1&&void 0!==arguments[1]?arguments[1]:v;if(!Array.isArray(t))return n;switch(t.length){case 1:return m(t[0])||n;case 2:return m(t[0],t[1])||n;case 4:return d(t[0],t[1],t[2],t[3])||n}return n}(t,null):function(t,n){var r=arguments.length>2&&void 0!==arguments[2]?arguments[2]:v;switch(t){case"linear":return v;case"steps":return m(n.steps||1,n.jump||0)||r;case"bezier":case"cubic-bezier":return d(n.x1||0,n.y1||0,n.x2||0,n.y2||0)||r}return r}(t.type,t.value,null):null}function B(t,n,r){var e=arguments.length>3&&void 0!==arguments[3]&&arguments[3],i=n.length-1;if(t<=n[0].t)return e?[0,0,n[0].v]:n[0].v;if(t>=n[i].t)return e?[i,1,n[i].v]:n[i].v;var o,u=n[0],a=null;for(o=1;o<=i;o++){if(!(t>n[o].t)){a=n[o];break}u=n[o]}return null==a?e?[i,1,n[i].v]:n[i].v:u.t===a.t?e?[o,1,a.v]:a.v:(t=(t-u.t)/(a.t-u.t),u.e&&(t=u.e(t)),e?[o,t,r(t,u.v,a.v)]:r(t,u.v,a.v))}function R(t,n){var r=arguments.length>2&&void 0!==arguments[2]?arguments[2]:null;return t&&t.length?"function"!=typeof n?null:("function"!=typeof r&&(r=null),function(e){var i=B(e,t,n);return null!=i&&r&&(i=r(i)),i}):null}function q(t,n){return t.t-n.t}function T(n,r,e,i,o){var u,a="@"===e[0],l="#"===e[0],f=j[e],s=b;switch(a?(u=e.substr(1),e=u.replace(I,E)):l&&(e=e.substr(1)),t(f)){case"function":if(s=f(i,o,B,N,e,a,r,n),l)return s;break;case"string":s=R(i,F(f));break;case"object":if((s=R(i,F(f.i),f.f))&&"function"==typeof f.u)return f.u(r,s,e,a,n)}return s?function(t,n,r){var e=arguments.length>3&&void 0!==arguments[3]&&arguments[3];if(e)return t instanceof P?function(e){return t.style(n,r(e))}:function(e){return t.style[n]=r(e)};if(Array.isArray(n)){var i=n.length;return function(e){var o=r(e);if(null==o)for(var u=0;u<i;u++)t[u].removeAttribute(n);else for(var a=0;a<i;a++)t[a].setAttribute(n,o)}}return function(e){var i=r(e);null==i?t.removeAttribute(n):t.setAttribute(n,i)}}(r,e,s,a):null}function L(n,r,e,i){if(!i||"object"!==t(i))return null;var o=null,u=null;return Array.isArray(i)?u=function(t){if(!t||!t.length)return null;for(var n=0;n<t.length;n++)t[n].e&&(t[n].e=N(t[n].e));return t.sort(q)}(i):(u=i.keys,o=i.data||null),u?T(n,r,e,u,o):null}function C(t,n,r){if(!r)return null;var e=[];for(var i in r)if(r.hasOwnProperty(i)){var o=L(t,n,i,r[i]);o&&e.push(o)}return e.length?e:null}function z(t,n){if(!n.duration||n.duration<0)return null;var r=function(t,n){if(!n)return null;var r=[];if(Array.isArray(n))for(var e=n.length,i=0;i<e;i++){var o=n[i];if(2===o.length){var u=null;if("string"==typeof o[0])u=t.getElementById(o[0]);else if(Array.isArray(o[0])){u=[];for(var a=0;a<o[0].length;a++)if("string"==typeof o[0][a]){var l=t.getElementById(o[0][a]);l&&u.push(l)}u=u.length?1===u.length?u[0]:new P(u):null}if(u){var f=C(t,u,o[1]);f&&(r=r.concat(f))}}}else for(var s in n)if(n.hasOwnProperty(s)){var c=t.getElementById(s);if(c){var h=C(t,c,n[s]);h&&(r=r.concat(h))}}return r.length?r:null}(t,n.elements);return r?function(t,n){var r=arguments.length>2&&void 0!==arguments[2]?arguments[2]:1/0,e=arguments.length>3&&void 0!==arguments[3]?arguments[3]:1,i=arguments.length>4&&void 0!==arguments[4]&&arguments[4],o=arguments.length>5&&void 0!==arguments[5]?arguments[5]:1,u=t.length,a=e>0?n:0;i&&r%2==0&&(a=n-a);var l=null;return function(f,s){var c=f%n,h=1+(f-c)/n;s*=e,i&&h%2==0&&(s=-s);var v=!1;if(h>r)c=a,v=!0,-1===o&&(c=e>0?0:n);else if(s<0&&(c=n-c),c===l)return!1;l=c;for(var y=0;y<u;y++)t[y](c);return v}}(r,n.duration,n.iterations||1/0,n.direction||1,!!n.alternate,n.fill||1):null}Number.isInteger||(Number.isInteger=function(t){return"number"==typeof t&&isFinite(t)&&Math.floor(t)===t}),Number.EPSILON||(Number.EPSILON=2220446049250313e-31);var D=function(){function t(r,e){var i=arguments.length>2&&void 0!==arguments[2]?arguments[2]:{};n(this,t),this._id=0,this._running=!1,this._rollingBack=!1,this._animations=r,this.duration=e.duration,this.alternate=e.alternate,this.fill=e.fill,this.iterations=e.iterations,this.direction=i.direction||1,this.speed=i.speed||1,this.fps=i.fps||100,this.offset=i.offset||0,this.rollbackStartOffset=0}return e(t,[{key:"_rollback",value:function(){var t=this,n=1/0,r=null;this.rollbackStartOffset=this.offset,this._rollingBack||(this._rollingBack=!0,this._running=!0);this._id=window.requestAnimationFrame((function e(i){if(t._rollingBack){null==r&&(r=i);var o=i-r,u=t.rollbackStartOffset-o,a=Math.round(u*t.speed);if(a>t.duration&&n!=1/0){var l=!!t.alternate&&a/t.duration%2>1,f=a%t.duration;a=(f+=l?t.duration:0)||t.duration}var s=t.fps?1e3/t.fps:0,c=Math.max(0,a);if(c<n-s){t.offset=c,n=c;for(var h=t._animations,v=h.length,y=0;y<v;y++)h[y](c,t.direction)}var d=!1;if(t.iterations>0&&-1===t.fill){var g=t.iterations*t.duration,p=g==a;a=p?0:a,t.offset=p?0:t.offset,d=a>g}a>0&&t.offset>=a&&!d?t._id=window.requestAnimationFrame(e):t.stop()}}))}},{key:"_start",value:function(){var t=this,n=arguments.length>0&&void 0!==arguments[0]?arguments[0]:0,r=-1/0,e=null,i={},o=function o(u){t._running=!0,null==e&&(e=u);var a=Math.round((u-e+n)*t.speed),l=t.fps?1e3/t.fps:0;if(a>r+l&&!t._rollingBack){t.offset=a,r=a;for(var f=t._animations,s=f.length,c=0,h=0;h<s;h++)i[h]?c++:(i[h]=f[h](a,t.direction),i[h]&&c++);if(c===s)return void t._stop()}t._id=window.requestAnimationFrame(o)};this._id=window.requestAnimationFrame(o)}},{key:"_stop",value:function(){this._id&&window.cancelAnimationFrame(this._id),this._running=!1,this._rollingBack=!1}},{key:"play",value:function(){!this._rollingBack&&this._running||(this._rollingBack=!1,this.rollbackStartOffset>this.duration&&(this.offset=this.rollbackStartOffset-(this.rollbackStartOffset-this.offset)%this.duration,this.rollbackStartOffset=0),this._start(this.offset))}},{key:"stop",value:function(){this._stop(),this.offset=0,this.rollbackStartOffset=0;var t=this.direction,n=this._animations;window.requestAnimationFrame((function(){for(var r=0;r<n.length;r++)n[r](0,t)}))}},{key:"reachedToEnd",value:function(){return this.iterations>0&&this.offset>=this.iterations*this.duration}},{key:"restart",value:function(){this._stop(),this.offset=0,this._start()}},{key:"pause",value:function(){this._stop()}},{key:"reverse",value:function(){this.direction=-this.direction}}],[{key:"build",value:function(n,r){return(n=function(t,n){if(j=n,!t||!t.root||!Array.isArray(t.animations))return null;for(var r=document.getElementsByTagName("svg"),e=!1,i=0;i<r.length;i++)if(r[i].id===t.root&&!r[i].svgatorAnimation){(e=r[i]).svgatorAnimation=!0;break}if(!e)return null;var o=t.animations.map((function(t){return z(e,t)})).filter((function(t){return!!t}));return o.length?{element:e,animations:o,animationSettings:t.animationSettings,options:t.options||void 0}:null}(n,r))?{el:n.element,options:n.options||{},player:new t(n.animations,n.animationSettings,n.options)}:null}}]),t}();function Q(t){return s(t)+""}function U(t){var n=arguments.length>1&&void 0!==arguments[1]?arguments[1]:" ";return t&&t.length?t.map(Q).join(n):""}function V(t){return t?null==t.a||t.a>=1?"rgb("+t.r+","+t.g+","+t.b+")":"rgba("+t.r+","+t.g+","+t.b+","+t.a+")":"transparent"}!function(){for(var t=0,n=["ms","moz","webkit","o"],r=0;r<n.length&&!window.requestAnimationFrame;++r)window.requestAnimationFrame=window[n[r]+"RequestAnimationFrame"],window.cancelAnimationFrame=window[n[r]+"CancelAnimationFrame"]||window[n[r]+"CancelRequestAnimationFrame"];window.requestAnimationFrame||(window.requestAnimationFrame=function(n){var r=Date.now(),e=Math.max(0,16-(r-t)),i=window.setTimeout((function(){n(r+e)}),e);return t=r+e,i},window.cancelAnimationFrame=window.clearTimeout)}();var G={f:null,i:function(t,n,r){return 0===t?n:1===t?r:{x:x(t,n.x,r.x),y:x(t,n.y,r.y)}},u:function(t,n){return function(r){var e=n(r);t.setAttribute("rx",Q(e.x)),t.setAttribute("ry",Q(e.y))}}},H={f:null,i:function(t,n,r){return 0===t?n:1===t?r:{width:x(t,n.width,r.width),height:x(t,n.height,r.height)}},u:function(t,n){return function(r){var e=n(r);t.setAttribute("width",Q(e.width)),t.setAttribute("height",Q(e.height))}}},Y=Math.sin,Z=Math.cos,J=Math.acos,K=Math.asin,W=Math.tan,X=Math.atan2,$=Math.PI/180,tt=180/Math.PI,nt=Math.sqrt,rt=function(){function t(){var r=arguments.length>0&&void 0!==arguments[0]?arguments[0]:1,e=arguments.length>1&&void 0!==arguments[1]?arguments[1]:0,i=arguments.length>2&&void 0!==arguments[2]?arguments[2]:0,o=arguments.length>3&&void 0!==arguments[3]?arguments[3]:1,u=arguments.length>4&&void 0!==arguments[4]?arguments[4]:0,a=arguments.length>5&&void 0!==arguments[5]?arguments[5]:0;n(this,t),this.m=[r,e,i,o,u,a],this.i=null,this.w=null,this.s=null}return e(t,[{key:"determinant",get:function(){var t=this.m;return t[0]*t[3]-t[1]*t[2]}},{key:"isIdentity",get:function(){if(null===this.i){var t=this.m;this.i=1===t[0]&&0===t[1]&&0===t[2]&&1===t[3]&&0===t[4]&&0===t[5]}return this.i}},{key:"point",value:function(t,n){var r=this.m;return{x:r[0]*t+r[2]*n+r[4],y:r[1]*t+r[3]*n+r[5]}}},{key:"translateSelf",value:function(){var t=arguments.length>0&&void 0!==arguments[0]?arguments[0]:0,n=arguments.length>1&&void 0!==arguments[1]?arguments[1]:0;if(!t&&!n)return this;var r=this.m;return r[4]+=r[0]*t+r[2]*n,r[5]+=r[1]*t+r[3]*n,this.w=this.s=this.i=null,this}},{key:"rotateSelf",value:function(){var t=arguments.length>0&&void 0!==arguments[0]?arguments[0]:0;if(t%=360){var n=Y(t*=$),r=Z(t),e=this.m,i=e[0],o=e[1];e[0]=i*r+e[2]*n,e[1]=o*r+e[3]*n,e[2]=e[2]*r-i*n,e[3]=e[3]*r-o*n,this.w=this.s=this.i=null}return this}},{key:"scaleSelf",value:function(){var t=arguments.length>0&&void 0!==arguments[0]?arguments[0]:1,n=arguments.length>1&&void 0!==arguments[1]?arguments[1]:1;if(1!==t||1!==n){var r=this.m;r[0]*=t,r[1]*=t,r[2]*=n,r[3]*=n,this.w=this.s=this.i=null}return this}},{key:"skewSelf",value:function(t,n){if(n%=360,(t%=360)||n){var r=this.m,e=r[0],i=r[1],o=r[2],u=r[3];t&&(t=W(t*$),r[2]+=e*t,r[3]+=i*t),n&&(n=W(n*$),r[0]+=o*n,r[1]+=u*n),this.w=this.s=this.i=null}return this}},{key:"resetSelf",value:function(){var t=arguments.length>0&&void 0!==arguments[0]?arguments[0]:1,n=arguments.length>1&&void 0!==arguments[1]?arguments[1]:0,r=arguments.length>2&&void 0!==arguments[2]?arguments[2]:0,e=arguments.length>3&&void 0!==arguments[3]?arguments[3]:1,i=arguments.length>4&&void 0!==arguments[4]?arguments[4]:0,o=arguments.length>5&&void 0!==arguments[5]?arguments[5]:0,u=this.m;return u[0]=t,u[1]=n,u[2]=r,u[3]=e,u[4]=i,u[5]=o,this.w=this.s=this.i=null,this}},{key:"recomposeSelf",value:function(){var t=arguments.length>0&&void 0!==arguments[0]?arguments[0]:null,n=arguments.length>1&&void 0!==arguments[1]?arguments[1]:null,r=arguments.length>2&&void 0!==arguments[2]?arguments[2]:null,e=arguments.length>3&&void 0!==arguments[3]?arguments[3]:null,i=arguments.length>4&&void 0!==arguments[4]?arguments[4]:null;return this.isIdentity||this.resetSelf(),t&&(t.x||t.y)&&this.translateSelf(t.x,t.y),n&&this.rotateSelf(n),r&&(r.x&&this.skewSelf(r.x,0),r.y&&this.skewSelf(0,r.y)),!e||1===e.x&&1===e.y||this.scaleSelf(e.x,e.y),i&&(i.x||i.y)&&this.translateSelf(i.x,i.y),this}},{key:"decompose",value:function(){var t=arguments.length>0&&void 0!==arguments[0]?arguments[0]:0,n=arguments.length>1&&void 0!==arguments[1]?arguments[1]:0,r=this.m,e=r[0]*r[0]+r[1]*r[1],i=[[r[0],r[1]],[r[2],r[3]]],o=nt(e);if(0===o)return{origin:{x:s(r[4]),y:s(r[5])},translate:{x:s(t),y:s(n)},scale:{x:0,y:0},skew:{x:0,y:0},rotate:0};i[0][0]/=o,i[0][1]/=o;var u=r[0]*r[3]-r[1]*r[2]<0;u&&(o=-o);var a=i[0][0]*i[1][0]+i[0][1]*i[1][1];i[1][0]-=i[0][0]*a,i[1][1]-=i[0][1]*a;var l=nt(i[1][0]*i[1][0]+i[1][1]*i[1][1]);if(0===l)return{origin:{x:s(r[4]),y:s(r[5])},translate:{x:s(t),y:s(n)},scale:{x:s(o),y:0},skew:{x:0,y:0},rotate:0};i[1][0]/=l,i[1][1]/=l,a/=l;var f=0;return i[1][1]<0?(f=J(i[1][1])*tt,i[0][1]<0&&(f=360-f)):f=K(i[0][1])*tt,u&&(f=-f),a=X(a,nt(i[0][0]*i[0][0]+i[0][1]*i[0][1]))*tt,u&&(a=-a),{origin:{x:s(r[4]),y:s(r[5])},translate:{x:s(t),y:s(n)},scale:{x:s(o),y:s(l)},skew:{x:s(a),y:0},rotate:s(f)}}},{key:"toString",value:function(){return null===this.s&&(this.s="matrix("+this.m.map((function(t){return s(t)})).join(" ")+")"),this.s}}]),t}();Object.freeze({M:2,L:2,Z:0,H:1,V:1,C:6,Q:4,T:2,S:4,A:7});var et={},it=null;function ot(n){var r=function(){if(it)return it;if("object"!==("undefined"==typeof document?"undefined":t(document))||!document.createElementNS)return{};var n=document.createElementNS("http://www.w3.org/2000/svg","svg");return n&&n.style?(n.style.position="absolute",n.style.opacity="0.01",n.style.zIndex="-9999",n.style.left="-9999px",n.style.width="1px",n.style.height="1px",it={svg:n}):{}}().svg;if(!r)return function(t){return null};var e=document.createElementNS(r.namespaceURI,"path");e.setAttributeNS(null,"d",n),e.setAttributeNS(null,"fill","none"),e.setAttributeNS(null,"stroke","none"),r.appendChild(e);var i=e.getTotalLength();return function(t){var n=e.getPointAtLength(i*t);return{x:n.x,y:n.y}}}function ut(t){return et[t]?et[t]:et[t]=ot(t)}function at(t,n,r,e){if(!t||!e)return!1;var i=["M",t.x,t.y];if(n&&r&&(i.push("C"),i.push(n.x),i.push(n.y),i.push(r.x),i.push(r.y)),n?!r:r){var o=n||r;i.push("Q"),i.push(o.x),i.push(o.y)}return n||r||i.push("L"),i.push(e.x),i.push(e.y),i.join(" ")}function lt(t,n,r,e){var i=arguments.length>4&&void 0!==arguments[4]?arguments[4]:1,o=at(t,n,r,e),u=ut(o);try{return u(i)}catch(t){return null}}function ft(t,n,r,e){var i=1-e;return i*i*t+2*i*e*n+e*e*r}function st(t,n,r,e){return 2*(1-e)*(n-t)+2*e*(r-n)}function ct(t,n,r,e){var i=arguments.length>4&&void 0!==arguments[4]&&arguments[4],o=lt(t,n,null,r,e);return o||(o={x:ft(t.x,n.x,r.x,e),y:ft(t.y,n.y,r.y,e)}),i&&(o.a=ht(t,n,r,e)),o}function ht(t,n,r,e){return Math.atan2(st(t.y,n.y,r.y,e),st(t.x,n.x,r.x,e))}function vt(t,n,r,e,i){var o=i*i;return i*o*(e-t+3*(n-r))+3*o*(t+r-2*n)+3*i*(n-t)+t}function yt(t,n,r,e,i){var o=1-i;return 3*(o*o*(n-t)+2*o*i*(r-n)+i*i*(e-r))}function dt(t,n,r,e,i){var o=arguments.length>5&&void 0!==arguments[5]&&arguments[5],u=lt(t,n,r,e,i);return u||(u={x:vt(t.x,n.x,r.x,e.x,i),y:vt(t.y,n.y,r.y,e.y,i)}),o&&(u.a=gt(t,n,r,e,i)),u}function gt(t,n,r,e,i){return Math.atan2(yt(t.y,n.y,r.y,e.y,i),yt(t.x,n.x,r.x,e.x,i))}function pt(t,n,r){return t+(n-t)*r}function mt(t,n,r){var e=arguments.length>3&&void 0!==arguments[3]&&arguments[3],i={x:pt(t.x,n.x,r),y:pt(t.y,n.y,r)};return e&&(i.a=bt(t,n)),i}function bt(t,n){return Math.atan2(n.y-t.y,n.x-t.x)}function wt(t,n,r){var e=arguments.length>3&&void 0!==arguments[3]&&arguments[3];if(kt(n)){if(At(r))return ct(n,r.start,r,t,e)}else if(kt(r)){if(n.end)return ct(n,n.end,r,t,e)}else{if(n.end)return r.start?dt(n,n.end,r.start,r,t,e):ct(n,n.end,r,t,e);if(r.start)return ct(n,r.start,r,t,e)}return mt(n,r,t,e)}function xt(t,n,r){var e=wt(t,n,r,!0);return e.a=function(t){var n=arguments.length>1&&void 0!==arguments[1]&&arguments[1];return n?t+Math.PI:t}(e.a)/h,e}function kt(t){return!t.type||"corner"===t.type}function At(t){return null!=t.start&&!kt(t)}var St=new rt;var _t={f:Q,i:w},Ot={f:Q,i:function(t,n,r){var e=w(t,n,r);return e<=0?0:e>=1?1:e}};function Mt(t,n,r,e,i,o,u,a){return n=function(t,n,r){for(var e,i,o,u=t.length-1,a={},l=0;l<=u;l++)(e=t[l]).e&&(e.e=n(e.e)),e.v&&"g"===(i=e.v).t&&i.r&&(o=r.getElementById(i.r))&&(a[i.r]=o.querySelectorAll("stop"));return a}(t,e,a),function(e){var i,o=r(e,t,jt);return o?"c"===o.t?V(o.v):"g"===o.t?(n[o.r]&&function(t,n){for(var r=0,e=t.length;r<e;r++)t[r].setAttribute("stop-color",V(n[r]))}(n[o.r],o.v),(i=o.r)?"url(#"+i+")":"none"):"none":"none"}}function jt(t,n,r){if(0===t)return n;if(1===t)return r;if(n&&r){var e=n.t;if(e===r.t)switch(n.t){case"c":return{t:e,v:S(t,n.v,r.v)};case"g":if(n.r===r.r)return{t:e,v:_(t,n.v,r.v),r:n.r}}}return b(t,n,r)}var Pt={fill:Mt,"fill-opacity":Ot,stroke:Mt,"stroke-opacity":Ot,"stroke-width":_t,"stroke-dashoffset":{f:Q,i:w},"stroke-dasharray":{f:function(t){var n=arguments.length>1&&void 0!==arguments[1]?arguments[1]:" ";return t&&t.length>0&&(t=t.map((function(t){return s(t,4)}))),U(t,n)},i:function(t,n,r){var e,i,o,u=n.length,a=r.length;if(u!==a)if(0===u)n=O(u=a,0);else if(0===a)a=u,r=O(u,0);else{var l=(o=(e=u)*(i=a)/function(t,n){for(var r;n;)r=n,n=t%n,t=r;return t||1}(e,i))<0?-o:o;n=M(n,Math.floor(l/u)),r=M(r,Math.floor(l/a)),u=a=l}for(var f=[],c=0;c<u;c++)f.push(s(x(t,n[c],r[c])));return f}},opacity:Ot,transform:function(n,r,e,i){if(!(n=function(n,r){if(!n||"object"!==t(n))return null;var e=!1;for(var i in n)n.hasOwnProperty(i)&&(n[i]&&n[i].length?(n[i].forEach((function(t){t.e&&(t.e=r(t.e))})),e=!0):delete n[i]);return e?n:null}(n,i)))return null;var o=function(t,i,o){var u=arguments.length>3&&void 0!==arguments[3]?arguments[3]:null;return n[t]?e(i,n[t],o):r&&r[t]?r[t]:u};return r&&r.a&&n.o?function(t){var r=e(t,n.o,xt);return St.recomposeSelf(r,o("r",t,w,0)+r.a,o("k",t,k),o("s",t,k),o("t",t,k)).toString()}:function(t){return St.recomposeSelf(o("o",t,wt,null),o("r",t,w,0),o("k",t,k),o("s",t,k),o("t",t,k)).toString()}},r:_t,"#size":H,"#radius":G,_:function(t,n){if(Array.isArray(t))for(var r=0;r<t.length;r++)this[t[r]]=n;else this[t]=n}};return function(t){!function(t,n){if("function"!=typeof n&&null!==n)throw new TypeError("Super expression must either be null or a function");t.prototype=Object.create(n&&n.prototype,{constructor:{value:t,writable:!0,configurable:!0}}),n&&o(t,n)}(u,t);var r=a(u);function u(){return n(this,u),r.apply(this,arguments)}return e(u,null,[{key:"build",value:function(t){var n=l(i(u),"build",this).call(this,t,Pt);if(!n)return null;n.el,n.options;var r=n.player;return function(t,n,r){t.play()}(r),r}}]),u}(D)}));
__SVGATOR_PLAYER__.build({"root":"etFlyBg3S1Z1","animations":[{"duration":10000,"direction":1,"iterations":0,"fill":1,"alternate":false,"speed":1,"elements":{"etFlyBg3S1Z5":{"transform":{"data":{"o":{"x":691.578369,"y":461.074524,"type":"corner"},"t":{"x":-691.578369,"y":-461.074524}},"keys":{"r":[{"t":0,"v":0},{"t":10000,"v":360.458471}]}}},"etFlyBg3S1Z6":{"transform":{"data":{"o":{"x":692.819885,"y":461.55777,"type":"corner"},"t":{"x":-692.819885,"y":-461.55777}},"keys":{"r":[{"t":0,"v":0},{"t":10000,"v":360.458471}]}}},"etFlyBg3S1Z7":{"transform":{"data":{"o":{"x":714.576569,"y":128.814295,"type":"corner"},"t":{"x":-714.576569,"y":-128.814295}},"keys":{"r":[{"t":0,"v":0},{"t":10000,"v":360.458471}]}}},"etFlyBg3S1Z9":{"transform":{"data":{"o":{"x":771.073547,"y":306.23085,"type":"corner"},"t":{"x":-771.073547,"y":-306.23085}},"keys":{"r":[{"t":0,"v":0},{"t":10000,"v":-359.945549}]}}},"etFlyBg3S1Z10":{"transform":{"data":{"o":{"x":771.006805,"y":306.434845,"type":"corner"},"t":{"x":-771.006805,"y":-306.434845}},"keys":{"r":[{"t":0,"v":0},{"t":10000,"v":-359.945549}]}}}}}],"options":{"start":"load","hover":null,"click":null,"scroll":null,"font":"embed","exportedIds":"unique","svgFormat":"animated","title":"engranajes_home"},"animationSettings":{"duration":10000,"direction":1,"iterations":0,"fill":1,"alternate":false,"speed":1}})]]></script></svg>