<svg id="eakJ2FjNTPB1" xmlns="http://www.w3.org/2000/svg" xmlns:xlink="http://www.w3.org/1999/xlink" viewBox="0 0 1671.23 122.05" shape-rendering="geometricPrecision" text-rendering="geometricPrecision"><g id="eakJ2FjNTPB2"><g id="eakJ2FjNTPB3"><path id="eakJ2FjNTPB4" d="M13.45,102.37L13.45,74.37Q13.45,67.05,6.25,67.05C4.622508,67.107612,3.041509,66.501201,1.87,65.37C0.711884,64.252884,0.079885,62.698313,0.13,61.09C0.090907,59.457915,0.724136,57.881461,1.881359,56.729912C3.038581,55.578363,4.618127,54.952888,6.25,55Q13.45,55,13.45,47.68L13.45,19.68Q13.45,0.13,33,0.13C34.632001,0.080007,36.206338,0.735981,37.32,1.93C38.4366,3.134893,39.039299,4.72774,39,6.37C39.053957,7.979088,38.446886,9.540129,37.32,10.69C36.170778,11.817891,34.609289,12.425137,33,12.37C28.11,12.37,25.68,14.81,25.68,19.69L25.68,47.69C25.68,53.21,24.39,57.69,21.84,61.13C24.39,64.41,25.68,68.85,25.68,74.45L25.68,102.45C25.68,107.32,28.11,109.77,33,109.77C34.621398,109.712249,36.191276,110.344561,37.32,111.51C38.42541,112.665531,39.029279,114.211148,39,115.81C39.042901,117.435001,38.438598,119.010505,37.32,120.19C36.185632,121.347022,34.619632,121.977772,33,121.93Q13.44,121.93,13.45,102.37Z" transform="matrix(1 0 0 1 648.336847 3.10262)" fill="rgb(56,142,60)" stroke="rgb(29,29,27)" stroke-width="0.25" stroke-miterlimit="10"/><path id="eakJ2FjNTPB5" d="M174.54,34.45Q181,41.29,181,53.53L181,87.85C181.051866,89.476527,180.446284,91.055366,179.32,92.23C177.563378,94.037826,174.881431,94.590684,172.553064,93.624941C170.224697,92.659198,168.721388,90.370409,168.76,87.85L168.76,53.53Q168.76,46.21,165.1,42.43C162.515212,39.852909,158.966097,38.481165,155.32,38.65C151.409941,38.524036,147.64009,40.113073,145,43C142.285834,46.00632,140.850867,49.95248,141,54L141,87.85C141.051866,89.476527,140.446284,91.055366,139.32,92.23C137.563378,94.037826,134.881431,94.590684,132.553064,93.624941C130.224697,92.659198,128.721388,90.370409,128.76,87.85L128.76,53.53Q128.76,46.21,125.1,42.43C122.515212,39.852909,118.966097,38.481165,115.32,38.65C111.392724,38.525194,107.604922,40.112568,104.94,43C102.225834,46.00632,100.790867,49.95248,100.94,54L100.94,87.85C100.991866,89.476527,100.386284,91.055366,99.26,92.23C97.503378,94.037826,94.821431,94.590684,92.493064,93.624941C90.164697,92.659198,88.661388,90.370409,88.7,87.85L88.7,34.45C88.620042,32.790468,89.244698,31.174353,90.42,30C91.594634,28.873716,93.173473,28.268134,94.8,28.32C96.406904,28.278715,97.963177,28.883932,99.12,30C100.26047,31.125597,100.907821,32.65766,100.92,34.26C103.043581,32.150766,105.575222,30.497033,108.36,29.4C111.33849,28.221449,114.516951,27.630581,117.72,27.66C121.529963,27.595129,125.300615,28.438384,128.72,30.12C131.941364,31.730866,134.695774,34.140975,136.72,37.12C139.140767,34.124578,142.220863,31.728947,145.72,30.12C149.484687,28.403721,153.582943,27.543087,157.72,27.6Q168.12,27.61,174.54,34.45Z" transform="matrix(1 0 0 1 612.737075 3.618574)" fill="rgb(56,142,60)" stroke="rgb(29,29,27)" stroke-width="0.25" stroke-miterlimit="10"/><path id="eakJ2FjNTPB6" d="M203,15.19C201.483298,13.732677,200.636437,11.71324,200.66,9.61C200.628101,7.496379,201.47563,5.464482,203,4C204.470438,2.50237,206.481171,1.658686,208.58,1.658686C210.678829,1.658686,212.689562,2.50237,214.16,4C215.676702,5.457323,216.523563,7.47676,216.5,9.58C216.523563,11.68324,215.676702,13.702677,214.16,15.16C212.689562,16.65763,210.678829,17.501314,208.58,17.501314C206.481171,17.501314,204.470438,16.65763,203,15.16ZM204.2,92.11C203.040832,90.952403,202.411202,89.367473,202.46,87.73L202.46,34.33C202.388142,32.670885,203.020012,31.058527,204.2,29.89C205.947031,28.051291,208.650739,27.487856,210.9868,28.475676C213.32286,29.463496,214.802116,31.795727,214.7,34.33L214.7,87.73C214.746529,89.3594,214.133584,90.938635,213,92.11C210.517403,94.42928,206.662597,94.42928,204.18,92.11Z" opacity="0" fill="rgb(56,142,60)" stroke="rgb(29,29,27)" stroke-width="0.25" stroke-miterlimit="10"/><path id="eakJ2FjNTPB7" d="M284.22,32C289.163301,34.771488,293.241094,38.859666,296,43.81C298.902885,49.09984,300.371498,55.05703,300.26,61.09L300.26,87C300.331771,93.02113,298.887435,98.963538,296.06,104.28C293.33567,109.395919,289.243481,113.654289,284.24,116.58C279.016156,119.61836,273.062459,121.174204,267.02,121.08C261.474662,121.126976,255.98624,119.959662,250.94,117.66C246.05937,115.442269,241.780235,112.088909,238.46,107.88C237.653137,106.941232,237.187879,105.75694,237.14,104.52C237.190602,102.745128,238.139942,101.117689,239.66,100.2C240.646389,99.527755,241.806602,99.15607,243,99.13C244.955163,99.107496,246.795754,100.050238,247.92,101.65C250.065517,104.433577,252.869691,106.639803,256.08,108.07C259.600064,109.594362,263.404536,110.351165,267.24,110.29C270.989156,110.33024,274.679416,109.355845,277.92,107.47C281.209563,105.489421,283.871998,102.618983,285.6,99.19C287.606938,95.15678,288.595732,90.693473,288.48,86.19L288.48,80.29C286.154523,84.528099,282.762622,88.085459,278.64,90.61C274.47784,93.114823,269.697192,94.40352,264.84,94.33C259.246475,94.420252,253.739141,92.944702,248.94,90.07C244.255302,87.236017,240.463802,83.139533,238,78.25C235.334379,72.928495,233.996289,67.040899,234.1,61.09C233.988954,55.064468,235.43565,49.112346,238.3,43.81C241.036113,38.842516,245.119491,34.748739,250.08,32C255.330122,29.106551,261.246221,27.63787,267.24,27.74C273.176061,27.642748,279.032859,29.112122,284.22,32ZM278.22,80.66C281.441693,78.75673,284.061829,75.984098,285.78,72.66C287.622324,69.082141,288.549935,65.103723,288.48,61.08C288.544991,57.03763,287.617931,53.04097,285.78,49.44C284.066307,46.112727,281.445115,43.338979,278.22,41.44C271.393336,37.584836,263.046664,37.584836,256.22,41.44C252.986587,43.347571,250.348084,46.117653,248.6,49.44C246.724002,53.029236,245.77523,57.030582,245.84,61.08C245.770308,65.110816,246.719658,69.093959,248.6,72.66C250.352812,75.978949,252.990211,78.747872,256.22,80.66C263.046664,84.515164,271.393336,84.515164,278.22,80.66Z" opacity="0" fill="rgb(56,142,60)" stroke="rgb(29,29,27)" stroke-width="0.25" stroke-miterlimit="10"/><path id="eakJ2FjNTPB8" d="M377,29.77C378.146573,30.956109,378.754199,32.561977,378.68,34.21L378.68,87.73C378.731866,89.356527,378.126284,90.935366,377,92.11C375.243378,93.917826,372.561431,94.470684,370.233064,93.504941C367.904697,92.539198,366.401388,90.250409,366.44,87.73L366.44,86.41C363.840626,88.995846,360.735988,91.017946,357.32,92.35C353.72847,93.763441,349.899561,94.47627,346.04,94.45C340.854894,94.531937,335.734218,93.293063,331.16,90.85C326.757386,88.447504,323.166017,84.793494,320.84,80.35Q317.12,73.45,317.12,63.73L317.12,34.21C317.12,30.830017,319.860017,28.09,323.24,28.09C326.619983,28.09,329.36,30.830017,329.36,34.21L329.36,63.73Q329.36,73.45,334.58,78.43Q339.8,83.41,348.44,83.43C351.61364,83.483723,354.75633,82.799041,357.62,81.43C360.231331,80.197261,362.467784,78.292135,364.1,75.91C365.654302,73.608101,366.470528,70.887347,366.44,68.11L366.44,34.21C366.368142,32.550885,367.000012,30.938527,368.18,29.77C370.693656,27.530848,374.486344,27.530848,377,29.77Z" opacity="0" fill="rgb(56,142,60)" stroke="rgb(29,29,27)" stroke-width="0.25" stroke-miterlimit="10"/><path id="eakJ2FjNTPB9" d="M457.68,63.79C456.604481,64.81052,455.161349,65.351694,453.68,65.29L408.08,65.29C408.804411,70.614141,411.529016,75.46265,415.7,78.85C422.197685,83.926661,430.822493,85.371655,438.62,82.69C440.920593,81.962963,443.088549,80.868854,445.04,79.45C446.179238,78.558186,447.593727,78.091404,449.04,78.13C450.348997,78.057198,451.636483,78.48636,452.64,79.33C453.952572,80.282472,454.750159,81.789024,454.8,83.41C454.799112,84.854778,454.079321,86.204387,452.88,87.01C449.83095,89.343427,446.400033,91.12994,442.74,92.29C433.115071,95.645521,422.527504,94.841127,413.52,90.07C408.436947,87.343243,404.217987,83.248982,401.34,78.25C398.385621,73.020707,396.886951,67.095088,397,61.09C396.90215,55.092321,398.326526,49.167744,401.14,43.87C403.777854,38.915091,407.755946,34.801854,412.62,32C417.720428,29.112999,423.500002,27.642212,429.36,27.74C434.969028,27.585148,440.510042,28.998106,445.36,31.82C449.835613,34.535319,453.422066,38.497098,455.68,43.22C458.160875,48.466984,459.393059,54.217173,459.28,60.02C459.3094,61.447471,458.727142,62.819417,457.68,63.79ZM415.14,42.85C411.418372,46.198588,408.978726,50.738451,408.24,55.69L448.24,55.69Q447.16,47.69,442.24,42.85Q437.32,38.01,429.4,38.05Q420.6,38.05,415.14,42.85Z" opacity="0" fill="rgb(56,142,60)" stroke="rgb(29,29,27)" stroke-width="0.25" stroke-miterlimit="10"/><path id="eakJ2FjNTPB10" d="M481.14,91C478.296348,89.017812,476.070813,86.272293,474.72,83.08C473.15614,79.464839,472.378951,75.558441,472.44,71.62L472.44,6.13C472.44,2.816292,475.126292,0.13,478.44,0.13C481.753708,0.13,484.44,2.816292,484.44,6.13L484.44,71.65C484.335838,74.205858,484.915801,76.743196,486.12,79Q487.8,81.88,490.44,81.88L493.44,81.88C494.925042,81.832725,496.354185,82.448356,497.34,83.56C498.368651,84.758303,498.904681,86.302068,498.84,87.88C498.854698,89.611759,497.998014,91.234951,496.56,92.2C494.83365,93.381986,492.770214,93.971538,490.68,93.88L490.44,93.88C487.117458,93.90014,483.869661,92.894371,481.14,91Z" opacity="0" fill="rgb(56,142,60)" stroke="rgb(29,29,27)" stroke-width="0.25" stroke-miterlimit="10"/><path id="eakJ2FjNTPB11" d="M592.5,32.11C597.450759,34.990011,601.54989,39.130547,604.38,44.11C607.327015,49.28584,608.839058,55.154502,608.76,61.11L608.76,87.85C608.76,91.229983,606.019983,93.97,602.64,93.97C599.260017,93.97,596.52,91.229983,596.52,87.85L596.52,83.41C590.864446,90.385295,582.339668,94.40475,573.36,94.33C567.836047,94.392867,562.407004,92.891733,557.7,90C553.015834,87.094282,549.212739,82.966195,546.7,78.06C543.980197,72.811737,542.605762,66.97039,542.7,61.06C542.619898,55.112026,544.110015,49.24814,547.02,44.06C549.830094,39.045156,553.959305,34.895196,558.96,32.06C564.089974,29.12537,569.910327,27.613321,575.82,27.68C581.677133,27.630426,587.439307,29.160787,592.5,32.11ZM586.62,80.59C589.835985,78.660576,592.469242,75.896003,594.24,72.59C596.112936,69.049947,597.062244,65.094496,597,61.09C597.050668,57.080413,596.102133,53.121312,594.24,49.57C591.494963,44.530246,586.82063,40.821608,581.288725,39.294395C575.756821,37.767182,569.841854,38.552394,564.9,41.47C561.656172,43.427749,559.002424,46.226624,557.22,49.57C555.315533,53.107665,554.344936,57.072658,554.4,61.09C554.340042,65.08881,555.31125,69.035636,557.22,72.55C559.022082,75.852875,561.673399,78.614663,564.9,80.55C571.60952,84.469527,579.91048,84.469527,586.62,80.55Z" transform="matrix(1 0 0 1 269.196518 0.346876)" fill="rgb(56,142,60)" stroke="rgb(29,29,27)" stroke-width="0.25" stroke-miterlimit="10"/><path id="eakJ2FjNTPB12" d="M669.11,29.41Q672.71,31.33,672.71,34.21C672.727796,34.613686,672.687381,35.017832,672.59,35.41Q671.51,39.25,667.79,39.25C667.187066,39.220274,666.588006,39.136606,666,39C663.427746,38.504495,660.818775,38.223529,658.2,38.16Q649.56,38.16,644.28,42.16C640.859183,44.611683,638.880364,48.60305,639,52.81L639,87.81C639.105608,89.429968,638.566413,91.025985,637.5,92.25C636.279464,93.368568,634.650984,93.933108,633,93.81C631.380032,93.915608,629.784015,93.376413,628.56,92.31C627.441432,91.089464,626.876892,89.460984,627,87.81L627,34.21C626.893668,32.579315,627.457062,30.975807,628.56,29.77C629.765807,28.667062,631.369315,28.103668,633,28.21Q639,28.21,639,34.21L639,36.49C641.437261,33.662276,644.469648,31.408474,647.88,29.89C651.42268,28.285152,655.27084,27.466395,659.16,27.49Q665.51,27.49,669.11,29.41Z" opacity="0" fill="rgb(56,142,60)" stroke="rgb(29,29,27)" stroke-width="0.25" stroke-miterlimit="10"/><path id="eakJ2FjNTPB13" d="M771.17,34.45Q777.59,41.29,777.59,53.53L777.59,87.85C777.641866,89.476527,777.036284,91.055366,775.91,92.23C774.153378,94.037826,771.471431,94.590684,769.143064,93.624941C766.814697,92.659198,765.311388,90.370409,765.35,87.85L765.35,53.53Q765.35,46.21,761.69,42.43C759.105212,39.852909,755.556097,38.481165,751.91,38.65C748.020654,38.541676,744.27627,40.129207,741.65,43C738.935834,46.00632,737.500867,49.95248,737.65,54L737.65,87.85C737.709897,89.472238,737.11535,91.050492,736,92.23C734.243378,94.037826,731.561431,94.590684,729.233064,93.624941C726.904697,92.659198,725.401388,90.370409,725.44,87.85L725.44,53.53Q725.44,46.21,721.78,42.43C719.195212,39.852909,715.646097,38.481165,712,38.65C708.05549,38.510494,704.246464,40.09911,701.57,43C698.855834,46.00632,697.420867,49.95248,697.57,54L697.57,87.85C697.621866,89.476527,697.016284,91.055366,695.89,92.23C694.133378,94.037826,691.451431,94.590684,689.123064,93.624941C686.794697,92.659198,685.291388,90.370409,685.33,87.85L685.33,34.45C685.250042,32.790468,685.874698,31.174353,687.05,30C688.224634,28.873716,689.803473,28.268134,691.43,28.32C693.036904,28.278715,694.593177,28.883932,695.75,30C696.89047,31.125597,697.537821,32.65766,697.55,34.26C699.671892,32.131648,702.207362,30.460621,705,29.35C707.97849,28.171449,711.156951,27.580581,714.36,27.61C718.169963,27.545129,721.940615,28.388384,725.36,30.07C728.581364,31.680866,731.335774,34.090975,733.36,37.07C735.780767,34.074578,738.860863,31.678947,742.36,30.07C746.124687,28.353721,750.222943,27.493087,754.36,27.55Q764.75,27.61,771.17,34.45Z" opacity="0" fill="rgb(56,142,60)" stroke="rgb(29,29,27)" stroke-width="0.25" stroke-miterlimit="10"/><path id="eakJ2FjNTPB14" d="M844.37,32.11C849.324898,34.98466,853.425282,39.126462,856.25,44.11C859.197015,49.28584,860.709058,55.154502,860.63,61.11L860.63,87.85C860.63,91.229983,857.889983,93.97,854.51,93.97C851.130017,93.97,848.39,91.229983,848.39,87.85L848.39,83.41C838.855415,94.896111,822.36093,97.69618,809.57,90C804.885834,87.094282,801.082739,82.966195,798.57,78.06C795.854522,72.810136,794.480348,66.969894,794.57,61.06C794.489898,55.112026,795.980015,49.24814,798.89,44.06C801.702959,39.04732,805.831483,34.89805,810.83,32.06C815.960526,29.126726,821.780504,27.614774,827.69,27.68C833.547133,27.630426,839.309307,29.160787,844.37,32.11ZM838.49,80.59C841.705985,78.660576,844.339242,75.896003,846.11,72.59C847.980863,69.063557,848.930252,65.121528,848.87,61.13C848.92702,57.119706,847.978116,53.159063,846.11,49.61C843.364963,44.570246,838.69063,40.861608,833.158725,39.334395C827.626821,37.807182,821.711854,38.592394,816.77,41.51C813.528992,43.471251,810.876072,46.269253,809.09,49.61C807.185533,53.147665,806.214936,57.112658,806.27,61.13C806.210042,65.12881,807.18125,69.075636,809.09,72.59C810.894831,75.890861,813.545524,78.651999,816.77,80.59C823.47952,84.509527,831.78048,84.509527,838.49,80.59Z" opacity="0" fill="rgb(56,142,60)" stroke="rgb(29,29,27)" stroke-width="0.25" stroke-miterlimit="10"/><path id="eakJ2FjNTPB15" d="M887.39,91.81C883.183009,90.482894,879.328034,88.227324,876.11,85.21C875.098865,84.238451,874.534292,82.89216,874.55,81.49C874.520317,79.627574,875.420245,77.872714,876.95,76.81C878.136084,75.818217,879.607123,75.229801,881.15,75.13C882.901092,75.19748,884.548498,75.97783,885.71,77.29C887.638028,79.237875,889.974141,80.733807,892.55,81.67C895.637376,82.919043,898.939601,83.55095,902.27,83.53Q909.11,83.53,912.89,81.25Q916.67,78.97,916.67,75.13Q916.67,71.41,912.95,68.95Q909.23,66.49,900.35,64.81Q877.35,60.37,877.35,45.81C877.239042,42.161868,878.478193,38.601089,880.83,35.81C883.278351,33.002849,886.424329,30.891733,889.95,29.69C893.80258,28.327942,897.863919,27.651052,901.95,27.69C906.736252,27.610189,911.491994,28.466223,915.95,30.21C919.753605,31.671132,923.120291,34.080826,925.73,37.21C926.682253,38.268689,927.23413,39.627156,927.29,41.05C927.232511,42.53203,926.494536,43.904662,925.29,44.77C924.306824,45.456285,923.128438,45.806995,921.93,45.77C919.8272,45.761277,917.808114,44.945051,916.29,43.49C914.467268,41.757967,912.30026,40.429141,909.93,39.59C907.289509,38.771394,904.533741,38.386397,901.77,38.45C898.644244,38.330909,895.536007,38.969024,892.71,40.31Q889.17,42.17,889.17,45.53C889.12432,46.958358,889.545611,48.362662,890.37,49.53C891.603882,50.908799,893.1754,51.942692,894.93,52.53C898.085433,53.710596,901.337732,54.614012,904.65,55.23Q917.73,57.87,923.19,62.55C926.771313,65.539698,928.783682,70.006715,928.65,74.67C928.680053,78.229413,927.634401,81.714923,925.65,84.67C923.452432,87.829453,920.38996,90.287764,916.83,91.75C912.394695,93.578182,907.625627,94.457053,902.83,94.33C897.577455,94.374415,892.355846,93.522184,887.39,91.81Z" opacity="0" fill="rgb(56,142,60)" stroke="rgb(29,29,27)" stroke-width="0.25" stroke-miterlimit="10"/><path id="eakJ2FjNTPB16" d="M1040.27,1.81C1041.43484,2.987738,1042.060954,4.594644,1042,6.25L1042,61C1042.079058,66.955498,1040.567015,72.82416,1037.62,78C1031.771566,88.254989,1020.804048,94.512836,1009,94.33C1003.078186,94.419366,997.24009,92.924455,992.09,90C987.091483,87.16195,982.962959,83.01268,980.15,78C977.240015,72.81186,975.749898,66.947974,975.83,61C975.740348,55.090106,977.114522,49.249864,979.83,44C982.342739,39.093805,986.145834,34.965718,990.83,32.06C1003.599168,24.239686,1020.182731,27.059148,1029.65,38.66L1029.65,6.25C1029.578142,4.590885,1030.210012,2.978527,1031.39,1.81C1033.903656,-0.429152,1037.696344,-0.429152,1040.21,1.81ZM1019.81,80.59C1023.042921,78.637619,1025.678502,75.836016,1027.43,72.49C1029.293243,68.949888,1030.242,65.00017,1030.19,61C1030.250252,57.008472,1029.300863,53.066443,1027.43,49.54C1024.66159,44.523587,1019.979749,40.842066,1014.451936,39.334824C1008.924124,37.827581,1003.02155,38.623099,998.09,41.54C994.865524,43.478001,992.214831,46.239139,990.41,49.54C988.50125,53.054364,987.530042,57.00119,987.59,61C987.534936,65.017342,988.505533,68.982335,990.41,72.52C992.196072,75.860747,994.848992,78.658749,998.09,80.62C1004.79952,84.539527,1013.10048,84.539527,1019.81,80.62Z" transform="matrix(1 0 0 1 -82.451141 -0.521791)" fill="rgb(0,188,212)" stroke="rgb(29,29,27)" stroke-width="0.25" stroke-miterlimit="10"/><path id="eakJ2FjNTPB17" d="M1120.91,63.79C1119.834481,64.81052,1118.391349,65.351694,1116.91,65.29L1071.31,65.29C1072.052352,70.62458,1074.802873,75.474654,1079,78.85C1085.497685,83.926661,1094.122493,85.371655,1101.92,82.69C1104.220593,81.962963,1106.388549,80.868854,1108.34,79.45C1109.479238,78.558186,1110.893727,78.091404,1112.34,78.13C1113.648997,78.057198,1114.936483,78.48636,1115.94,79.33C1117.252572,80.282472,1118.050159,81.789024,1118.1,83.41C1118.099112,84.854778,1117.379321,86.204387,1116.18,87.01C1113.118842,89.347514,1109.674068,91.134194,1106,92.29C1096.375071,95.645521,1085.787504,94.841127,1076.78,90.07C1071.696947,87.343243,1067.477987,83.248982,1064.6,78.25C1061.631673,73.024626,1060.11913,67.09877,1060.22,61.09C1060.12215,55.092321,1061.546526,49.167744,1064.36,43.87C1067.000567,38.913749,1070.982258,34.800375,1075.85,32C1080.950428,29.112999,1086.730002,27.642212,1092.59,27.74C1098.199028,27.585148,1103.740042,28.998106,1108.59,31.82C1113.065613,34.535319,1116.652066,38.497098,1118.91,43.22C1121.390875,48.466984,1122.623059,54.217173,1122.51,60.02C1122.5394,61.447471,1121.957142,62.819417,1120.91,63.79ZM1078.37,42.85C1074.648372,46.198588,1072.208726,50.738451,1071.47,55.69L1111.47,55.69Q1110.39,47.69,1105.47,42.85Q1100.55,38.01,1092.63,38.05Q1083.83,38.05,1078.37,42.85Z" opacity="0" fill="rgb(0,188,212)" stroke="rgb(29,29,27)" stroke-width="0.25" stroke-miterlimit="10"/><path id="eakJ2FjNTPB18" d="M1188.59,31C1189.146513,31.834469,1189.439189,32.817024,1189.43,33.82C1189.410453,34.616379,1189.204985,35.397158,1188.83,36.1L1163.39,89.74Q1161.59,93.74,1157.87,93.74C1156.684582,93.788257,1155.512582,93.474329,1154.51,92.84C1153.466312,92.037136,1152.641053,90.984931,1152.11,89.78L1126.67,36.14C1126.342552,35.4677,1126.178109,34.727709,1126.19,33.98Q1126.19,30.74,1129.55,29.06C1130.324522,28.646872,1131.192408,28.440233,1132.07,28.46C1133.043844,28.463955,1133.998138,28.733647,1134.83,29.24C1135.69837,29.769759,1136.393408,30.541251,1136.83,31.46L1157.71,76.46L1178.35,31.46C1178.807696,30.523485,1179.540337,29.748979,1180.45,29.24C1181.344625,28.726637,1182.35855,28.457637,1183.39,28.46C1184.344307,28.440946,1185.289732,28.646473,1186.15,29.06C1187.129438,29.464596,1187.975074,30.136946,1188.59,31Z" opacity="0" fill="rgb(0,188,212)" stroke="rgb(29,29,27)" stroke-width="0.25" stroke-miterlimit="10"/><path id="eakJ2FjNTPB19" d="M1256.39,63.79C1255.314481,64.81052,1253.871349,65.351694,1252.39,65.29L1206.79,65.29C1207.514411,70.614141,1210.239016,75.46265,1214.41,78.85C1220.907685,83.926661,1229.532493,85.371655,1237.33,82.69C1239.630593,81.962963,1241.798549,80.868854,1243.75,79.45C1244.889238,78.558186,1246.303727,78.091404,1247.75,78.13C1249.058997,78.057198,1250.346483,78.48636,1251.35,79.33C1252.662572,80.282472,1253.460159,81.789024,1253.51,83.41C1253.509112,84.854778,1252.789321,86.204387,1251.59,87.01C1248.54095,89.343427,1245.110033,91.12994,1241.45,92.29C1231.825071,95.645521,1221.237504,94.841127,1212.23,90.07C1207.146947,87.343243,1202.927987,83.248982,1200.05,78.25C1197.081673,73.024626,1195.56913,67.09877,1195.67,61.09C1195.57215,55.092321,1196.996526,49.167744,1199.81,43.87C1202.458705,38.90972,1206.451192,34.795934,1211.33,32C1216.430428,29.112999,1222.210002,27.642212,1228.07,27.74C1233.679028,27.585148,1239.220042,28.998106,1244.07,31.82C1248.545613,34.535319,1252.132066,38.497098,1254.39,43.22C1256.871302,48.460082,1258.106841,54.203113,1258,60C1258.032605,61.435939,1257.446117,62.816553,1256.39,63.79ZM1213.85,42.85C1210.128372,46.198588,1207.688726,50.738451,1206.95,55.69L1246.95,55.69Q1245.87,47.69,1240.95,42.85Q1236.03,38.01,1228.11,38.05Q1219.31,38.05,1213.85,42.85Z" opacity="0" fill="rgb(0,188,212)" stroke="rgb(29,29,27)" stroke-width="0.25" stroke-miterlimit="10"/><path id="eakJ2FjNTPB20" d="M1279.85,91C1277.006348,89.017812,1274.780813,86.272293,1273.43,83.08C1271.86614,79.464839,1271.088951,75.558441,1271.15,71.62L1271.15,6.13C1271.15,2.816292,1273.836292,0.13,1277.15,0.13C1280.463708,0.13,1283.15,2.816292,1283.15,6.13L1283.15,71.65C1283.051206,74.195785,1283.631009,76.722068,1284.83,78.97Q1286.51,81.85,1289.15,81.85L1292.15,81.85C1293.635042,81.802725,1295.064185,82.418356,1296.05,83.53C1297.078651,84.728303,1297.614681,86.272068,1297.55,87.85C1297.564698,89.581759,1296.708014,91.204951,1295.27,92.17C1293.54365,93.351986,1291.480214,93.941538,1289.39,93.85L1289.15,93.85C1285.830684,93.878948,1282.583169,92.883742,1279.85,91Z" opacity="0" fill="rgb(0,188,212)" stroke="rgb(29,29,27)" stroke-width="0.25" stroke-miterlimit="10"/><path id="eakJ2FjNTPB21" d="M1318.55,90.07C1313.595503,87.315556,1309.519194,83.218451,1306.79,78.25C1303.929977,72.989307,1302.482888,67.076915,1302.59,61.09C1302.473038,55.063816,1303.920095,49.110209,1306.79,43.81C1309.520697,38.845237,1313.596867,34.751736,1318.55,32C1323.800122,29.106551,1329.716221,27.63787,1335.71,27.74C1341.652652,27.640639,1347.516438,29.110035,1352.71,32C1357.645044,34.780083,1361.715068,38.870872,1364.47,43.82C1367.368535,49.111536,1368.836858,55.067551,1368.73,61.1C1368.832555,67.086405,1367.385746,72.997654,1364.53,78.26C1361.809682,83.214807,1357.756792,87.309265,1352.83,90.08C1342.116311,95.760167,1329.283689,95.760167,1318.57,90.08ZM1346.69,80.65C1349.911693,78.74673,1352.531829,75.974098,1354.25,72.65C1356.092324,69.072141,1357.019935,65.093723,1356.95,61.07C1357.014991,57.02763,1356.087931,53.03097,1354.25,49.43C1352.536307,46.102727,1349.915115,43.328979,1346.69,41.43C1339.863336,37.574836,1331.516664,37.574836,1324.69,41.43C1321.456587,43.337571,1318.818084,46.107653,1317.07,49.43C1315.194002,53.019236,1314.24523,57.020582,1314.31,61.07C1314.240308,65.100816,1315.189658,69.083959,1317.07,72.65C1318.822812,75.968949,1321.460211,78.737872,1324.69,80.65C1331.516664,84.505164,1339.863336,84.505164,1346.69,80.65Z" opacity="0" fill="rgb(0,188,212)" stroke="rgb(29,29,27)" stroke-width="0.25" stroke-miterlimit="10"/><path id="eakJ2FjNTPB22" d="M1436.8,32.11C1441.798517,34.94805,1445.927041,39.09732,1448.74,44.11C1451.649985,49.29814,1453.140102,55.162026,1453.06,61.11C1453.149652,67.019894,1451.775478,72.860136,1449.06,78.11C1446.523403,83.005517,1442.699493,87.116394,1438,90C1425.230832,97.820314,1408.647269,95.000852,1399.18,83.4L1399.18,115.8C1399.133185,118.263655,1397.640943,120.469047,1395.371408,121.428736C1393.101874,122.388425,1390.480117,121.922667,1388.68,120.24C1387.503191,119.069384,1386.871894,117.458488,1386.94,115.8L1386.94,61.09C1386.860942,55.134502,1388.372985,49.26584,1391.32,44.09C1397.155454,33.815741,1408.125471,27.537304,1419.94,27.71C1425.851332,27.650857,1431.67143,29.169744,1436.8,32.11ZM1430.8,80.59C1434.024476,78.651999,1436.675169,75.890861,1438.48,72.59C1440.38875,69.075636,1441.359958,65.12881,1441.3,61.13C1441.355064,57.112658,1440.384467,53.147665,1438.48,49.61C1436.693928,46.269253,1434.041008,43.471251,1430.8,41.51C1425.876938,38.513312,1419.934549,37.683683,1414.378983,39.217428C1408.823418,40.751173,1404.148334,44.512006,1401.46,49.61C1399.591884,53.159063,1398.64298,57.119706,1398.7,61.13C1398.639748,65.121528,1399.589137,69.063557,1401.46,72.59C1404.22841,77.606413,1408.910251,81.287934,1414.438064,82.795176C1419.965876,84.302419,1425.86845,83.506901,1430.8,80.59Z" opacity="0" fill="rgb(0,188,212)" stroke="rgb(29,29,27)" stroke-width="0.25" stroke-miterlimit="10"/><path id="eakJ2FjNTPB23" d="M1528.66,63.79C1527.584481,64.81052,1526.141349,65.351694,1524.66,65.29L1479.06,65.29C1479.784411,70.614141,1482.509016,75.46265,1486.68,78.85C1493.177685,83.926661,1501.802493,85.371655,1509.6,82.69C1511.900593,81.962963,1514.068549,80.868854,1516.02,79.45C1517.159238,78.558186,1518.573727,78.091404,1520.02,78.13C1521.328997,78.057198,1522.616483,78.48636,1523.62,79.33C1524.932572,80.282472,1525.730159,81.789024,1525.78,83.41C1525.779112,84.854778,1525.059321,86.204387,1523.86,87.01C1520.81095,89.343427,1517.380033,91.12994,1513.72,92.29C1504.095071,95.645521,1493.507504,94.841127,1484.5,90.07C1479.416947,87.343243,1475.197987,83.248982,1472.32,78.25C1469.351673,73.024626,1467.83913,67.09877,1467.94,61.09C1467.84215,55.092321,1469.266526,49.167744,1472.08,43.87C1474.728705,38.90972,1478.721192,34.795934,1483.6,32C1488.700428,29.112999,1494.480002,27.642212,1500.34,27.74C1505.949028,27.585148,1511.490042,28.998106,1516.34,31.82C1520.815613,34.535319,1524.402066,38.497098,1526.66,43.22C1529.140875,48.466984,1530.373059,54.217173,1530.26,60.02C1530.2894,61.447471,1529.707142,62.819417,1528.66,63.79ZM1486.12,42.85C1482.398372,46.198588,1479.958726,50.738451,1479.22,55.69L1519.22,55.69Q1518.14,47.69,1513.22,42.85Q1508.3,38.01,1500.38,38.05Q1491.58,38.05,1486.12,42.85Z" opacity="0" fill="rgb(0,188,212)" stroke="rgb(29,29,27)" stroke-width="0.25" stroke-miterlimit="10"/><path id="eakJ2FjNTPB24" d="M1587.94,29.41Q1591.54,31.33,1591.54,34.21C1591.557796,34.613686,1591.517381,35.017832,1591.42,35.41Q1590.34,39.25,1586.62,39.25C1586.014016,39.224156,1585.411586,39.143832,1584.82,39.01C1582.247746,38.514495,1579.638775,38.233529,1577.02,38.17Q1568.38,38.17,1563.1,42.17C1559.670208,44.627677,1557.690267,48.632558,1557.82,52.85L1557.82,87.85C1557.925608,89.469968,1557.386413,91.065985,1556.32,92.29C1555.099464,93.408568,1553.470984,93.973108,1551.82,93.85C1550.200032,93.955608,1548.604015,93.416413,1547.38,92.35C1546.261432,91.129464,1545.696892,89.500984,1545.82,87.85L1545.82,34.21C1545.713668,32.579315,1546.277062,30.975807,1547.38,29.77C1548.585807,28.667062,1550.189315,28.103668,1551.82,28.21Q1557.82,28.21,1557.82,34.21L1557.82,36.49C1560.257261,33.662276,1563.289648,31.408474,1566.7,29.89C1570.24268,28.285152,1574.09084,27.466395,1577.98,27.49Q1584.34,27.49,1587.94,29.41Z" opacity="0" fill="rgb(0,188,212)" stroke="rgb(29,29,27)" stroke-width="0.25" stroke-miterlimit="10"/><path id="eakJ2FjNTPB25" d="M1633.9,120.19C1632.776624,119.013523,1632.171528,117.435953,1632.22,115.81C1632.162388,114.182508,1632.768799,112.601509,1633.9,111.43C1635.026553,110.261338,1636.597933,109.628421,1638.22,109.69C1643.1,109.69,1645.54,107.24,1645.54,102.37L1645.54,74.37Q1645.54,65.97,1649.38,61.05Q1645.54,55.89,1645.54,47.61L1645.54,19.61Q1645.54,12.29,1638.22,12.29C1636.607771,12.361763,1635.039595,11.752699,1633.898448,10.611552C1632.757301,9.470405,1632.148237,7.902229,1632.22,6.29C1632.175344,4.646831,1632.778783,3.052028,1633.9,1.85C1635.01136,0.652674,1636.587272,-0.003956,1638.22,0.05Q1657.78,0.05,1657.78,19.61L1657.78,47.61Q1657.78,54.93,1664.98,54.93C1666.617221,54.882514,1668.20161,55.512037,1669.359786,56.670214C1670.517963,57.82839,1671.147486,59.412779,1671.1,61.05C1671.156486,62.671176,1670.524373,64.240559,1669.36,65.37C1668.185366,66.496284,1666.606527,67.101866,1664.98,67.05Q1657.78,67.05,1657.78,74.37L1657.78,102.37Q1657.78,121.92,1638.22,121.93C1636.599709,121.981476,1635.032276,121.350148,1633.9,120.19Z" transform="matrix(1 0 0 1 -650.617799 0.331914)" fill="rgb(56,142,60)" stroke="rgb(29,29,27)" stroke-width="0.25" stroke-miterlimit="10"/></g></g><script><![CDATA[!function(t,n){"object"==typeof exports&&"undefined"!=typeof module?module.exports=n():"function"==typeof define&&define.amd?define(n):(t="undefined"!=typeof globalThis?globalThis:t||self).__SVGATOR_PLAYER__=n()}(this,(function(){"use strict";function t(n){return(t="function"==typeof Symbol&&"symbol"==typeof Symbol.iterator?function(t){return typeof t}:function(t){return t&&"function"==typeof Symbol&&t.constructor===Symbol&&t!==Symbol.prototype?"symbol":typeof t})(n)}function n(t,n){if(!(t instanceof n))throw new TypeError("Cannot call a class as a function")}function r(t,n){for(var r=0;r<n.length;r++){var e=n[r];e.enumerable=e.enumerable||!1,e.configurable=!0,"value"in e&&(e.writable=!0),Object.defineProperty(t,e.key,e)}}function e(t,n,e){return n&&r(t.prototype,n),e&&r(t,e),t}function i(t){return(i=Object.setPrototypeOf?Object.getPrototypeOf:function(t){return t.__proto__||Object.getPrototypeOf(t)})(t)}function o(t,n){return(o=Object.setPrototypeOf||function(t,n){return t.__proto__=n,t})(t,n)}function u(t,n){return!n||"object"!=typeof n&&"function"!=typeof n?function(t){if(void 0===t)throw new ReferenceError("this hasn't been initialised - super() hasn't been called");return t}(t):n}function a(t){var n=function(){if("undefined"==typeof Reflect||!Reflect.construct)return!1;if(Reflect.construct.sham)return!1;if("function"==typeof Proxy)return!0;try{return Boolean.prototype.valueOf.call(Reflect.construct(Boolean,[],(function(){}))),!0}catch(t){return!1}}();return function(){var r,e=i(t);if(n){var o=i(this).constructor;r=Reflect.construct(e,arguments,o)}else r=e.apply(this,arguments);return u(this,r)}}function l(t,n,r){return(l="undefined"!=typeof Reflect&&Reflect.get?Reflect.get:function(t,n,r){var e=function(t,n){for(;!Object.prototype.hasOwnProperty.call(t,n)&&null!==(t=i(t)););return t}(t,n);if(e){var o=Object.getOwnPropertyDescriptor(e,n);return o.get?o.get.call(r):o.value}})(t,n,r||t)}var f=s(Math.pow(10,-6));function s(t){var n=arguments.length>1&&void 0!==arguments[1]?arguments[1]:6;if(Number.isInteger(t))return t;var r=Math.pow(10,n);return Math.round((+t+Number.EPSILON)*r)/r}function c(t,n){var r=arguments.length>2&&void 0!==arguments[2]?arguments[2]:f;return Math.abs(t-n)<r}var h=Math.PI/180;function v(t){return t}function y(t,n,r){var e=1-r;return 3*r*e*(t*e+n*r)+r*r*r}function d(){var t=arguments.length>0&&void 0!==arguments[0]?arguments[0]:0,n=arguments.length>1&&void 0!==arguments[1]?arguments[1]:0,r=arguments.length>2&&void 0!==arguments[2]?arguments[2]:1,e=arguments.length>3&&void 0!==arguments[3]?arguments[3]:1;return t<0||t>1||r<0||r>1?null:c(t,n)&&c(r,e)?v:function(i){if(i<=0)return t>0?i*n/t:0===n&&r>0?i*e/r:0;if(i>=1)return r<1?1+(i-1)*(e-1)/(r-1):1===r&&t<1?1+(i-1)*(n-1)/(t-1):1;for(var o,u=0,a=1;u<a;){var l=y(t,r,o=(u+a)/2);if(c(i,l))break;l<i?u=o:a=o}return y(n,e,o)}}function g(){return 1}function p(t){return 1===t?1:0}function m(){var t=arguments.length>0&&void 0!==arguments[0]?arguments[0]:1,n=arguments.length>1&&void 0!==arguments[1]?arguments[1]:0;if(1===t){if(0===n)return p;if(1===n)return g}var r=1/t;return function(t){return t>=1?1:(t+=n*r)-t%r}}function b(t,n,r){return t>=.5?r:n}function w(t,n,r){return 0===t||n===r?n:t*(r-n)+n}function x(t,n,r){var e=w(t,n,r);return e<=0?0:e}function k(t,n,r){return 0===t?n:1===t?r:{x:w(t,n.x,r.x),y:w(t,n.y,r.y)}}function A(t,n,r){var e=function(t,n,r){return Math.round(w(t,n,r))}(t,n,r);return e<=0?0:e>=255?255:e}function S(t,n,r){return 0===t?n:1===t?r:{r:A(t,n.r,r.r),g:A(t,n.g,r.g),b:A(t,n.b,r.b),a:w(t,null==n.a?1:n.a,null==r.a?1:r.a)}}function _(t,n,r){if(0===t)return n;if(1===t)return r;var e=n.length;if(e!==r.length)return b(t,n,r);for(var i=[],o=0;o<e;o++)i.push(S(t,n[o],r[o]));return i}function O(t,n){for(var r=[],e=0;e<t;e++)r.push(n);return r}function M(t,n){if(--n<=0)return t;var r=(t=Object.assign([],t)).length;do{for(var e=0;e<r;e++)t.push(t[e])}while(--n>0);return t}var j,P=function(){function t(r){n(this,t),this.list=r,this.length=r.length}return e(t,[{key:"setAttribute",value:function(t,n){for(var r=this.list,e=0;e<this.length;e++)r[e].setAttribute(t,n)}},{key:"removeAttribute",value:function(t){for(var n=this.list,r=0;r<this.length;r++)n[r].removeAttribute(t)}},{key:"style",value:function(t,n){for(var r=this.list,e=0;e<this.length;e++)r[e].style[t]=n}}]),t}(),I=/-./g,E=function(t,n){return n.toUpperCase()};function F(t){return"function"==typeof t?t:b}function N(t){return t?"function"==typeof t?t:Array.isArray(t)?function(t){var n=arguments.length>1&&void 0!==arguments[1]?arguments[1]:v;if(!Array.isArray(t))return n;switch(t.length){case 1:return m(t[0])||n;case 2:return m(t[0],t[1])||n;case 4:return d(t[0],t[1],t[2],t[3])||n}return n}(t,null):function(t,n){var r=arguments.length>2&&void 0!==arguments[2]?arguments[2]:v;switch(t){case"linear":return v;case"steps":return m(n.steps||1,n.jump||0)||r;case"bezier":case"cubic-bezier":return d(n.x1||0,n.y1||0,n.x2||0,n.y2||0)||r}return r}(t.type,t.value,null):null}function B(t,n,r){var e=arguments.length>3&&void 0!==arguments[3]&&arguments[3],i=n.length-1;if(t<=n[0].t)return e?[0,0,n[0].v]:n[0].v;if(t>=n[i].t)return e?[i,1,n[i].v]:n[i].v;var o,u=n[0],a=null;for(o=1;o<=i;o++){if(!(t>n[o].t)){a=n[o];break}u=n[o]}return null==a?e?[i,1,n[i].v]:n[i].v:u.t===a.t?e?[o,1,a.v]:a.v:(t=(t-u.t)/(a.t-u.t),u.e&&(t=u.e(t)),e?[o,t,r(t,u.v,a.v)]:r(t,u.v,a.v))}function R(t,n){var r=arguments.length>2&&void 0!==arguments[2]?arguments[2]:null;return t&&t.length?"function"!=typeof n?null:("function"!=typeof r&&(r=null),function(e){var i=B(e,t,n);return null!=i&&r&&(i=r(i)),i}):null}function q(t,n){return t.t-n.t}function T(n,r,e,i,o){var u,a="@"===e[0],l="#"===e[0],f=j[e],s=b;switch(a?(u=e.substr(1),e=u.replace(I,E)):l&&(e=e.substr(1)),t(f)){case"function":if(s=f(i,o,B,N,e,a,r,n),l)return s;break;case"string":s=R(i,F(f));break;case"object":if((s=R(i,F(f.i),f.f))&&"function"==typeof f.u)return f.u(r,s,e,a,n)}return s?function(t,n,r){var e=arguments.length>3&&void 0!==arguments[3]&&arguments[3];if(e)return t instanceof P?function(e){return t.style(n,r(e))}:function(e){return t.style[n]=r(e)};if(Array.isArray(n)){var i=n.length;return function(e){var o=r(e);if(null==o)for(var u=0;u<i;u++)t[u].removeAttribute(n);else for(var a=0;a<i;a++)t[a].setAttribute(n,o)}}return function(e){var i=r(e);null==i?t.removeAttribute(n):t.setAttribute(n,i)}}(r,e,s,a):null}function L(n,r,e,i){if(!i||"object"!==t(i))return null;var o=null,u=null;return Array.isArray(i)?u=function(t){if(!t||!t.length)return null;for(var n=0;n<t.length;n++)t[n].e&&(t[n].e=N(t[n].e));return t.sort(q)}(i):(u=i.keys,o=i.data||null),u?T(n,r,e,u,o):null}function C(t,n,r){if(!r)return null;var e=[];for(var i in r)if(r.hasOwnProperty(i)){var o=L(t,n,i,r[i]);o&&e.push(o)}return e.length?e:null}function z(t,n){if(!n.duration||n.duration<0)return null;var r=function(t,n){if(!n)return null;var r=[];if(Array.isArray(n))for(var e=n.length,i=0;i<e;i++){var o=n[i];if(2===o.length){var u=null;if("string"==typeof o[0])u=t.getElementById(o[0]);else if(Array.isArray(o[0])){u=[];for(var a=0;a<o[0].length;a++)if("string"==typeof o[0][a]){var l=t.getElementById(o[0][a]);l&&u.push(l)}u=u.length?1===u.length?u[0]:new P(u):null}if(u){var f=C(t,u,o[1]);f&&(r=r.concat(f))}}}else for(var s in n)if(n.hasOwnProperty(s)){var c=t.getElementById(s);if(c){var h=C(t,c,n[s]);h&&(r=r.concat(h))}}return r.length?r:null}(t,n.elements);return r?function(t,n){var r=arguments.length>2&&void 0!==arguments[2]?arguments[2]:1/0,e=arguments.length>3&&void 0!==arguments[3]?arguments[3]:1,i=arguments.length>4&&void 0!==arguments[4]&&arguments[4],o=arguments.length>5&&void 0!==arguments[5]?arguments[5]:1,u=t.length,a=e>0?n:0;i&&r%2==0&&(a=n-a);var l=null;return function(f,s){var c=f%n,h=1+(f-c)/n;s*=e,i&&h%2==0&&(s=-s);var v=!1;if(h>r)c=a,v=!0,-1===o&&(c=e>0?0:n);else if(s<0&&(c=n-c),c===l)return!1;l=c;for(var y=0;y<u;y++)t[y](c);return v}}(r,n.duration,n.iterations||1/0,n.direction||1,!!n.alternate,n.fill||1):null}Number.isInteger||(Number.isInteger=function(t){return"number"==typeof t&&isFinite(t)&&Math.floor(t)===t}),Number.EPSILON||(Number.EPSILON=2220446049250313e-31);var D=function(){function t(r,e){var i=arguments.length>2&&void 0!==arguments[2]?arguments[2]:{};n(this,t),this._id=0,this._running=!1,this._rollingBack=!1,this._animations=r,this.duration=e.duration,this.alternate=e.alternate,this.fill=e.fill,this.iterations=e.iterations,this.direction=i.direction||1,this.speed=i.speed||1,this.fps=i.fps||100,this.offset=i.offset||0,this.rollbackStartOffset=0}return e(t,[{key:"_rollback",value:function(){var t=this,n=1/0,r=null;this.rollbackStartOffset=this.offset,this._rollingBack||(this._rollingBack=!0,this._running=!0);this._id=window.requestAnimationFrame((function e(i){if(t._rollingBack){null==r&&(r=i);var o=i-r,u=t.rollbackStartOffset-o,a=Math.round(u*t.speed);if(a>t.duration&&n!=1/0){var l=!!t.alternate&&a/t.duration%2>1,f=a%t.duration;a=(f+=l?t.duration:0)||t.duration}var s=t.fps?1e3/t.fps:0,c=Math.max(0,a);if(c<n-s){t.offset=c,n=c;for(var h=t._animations,v=h.length,y=0;y<v;y++)h[y](c,t.direction)}var d=!1;if(t.iterations>0&&-1===t.fill){var g=t.iterations*t.duration,p=g==a;a=p?0:a,t.offset=p?0:t.offset,d=a>g}a>0&&t.offset>=a&&!d?t._id=window.requestAnimationFrame(e):t.stop()}}))}},{key:"_start",value:function(){var t=this,n=arguments.length>0&&void 0!==arguments[0]?arguments[0]:0,r=-1/0,e=null,i={},o=function o(u){t._running=!0,null==e&&(e=u);var a=Math.round((u-e+n)*t.speed),l=t.fps?1e3/t.fps:0;if(a>r+l&&!t._rollingBack){t.offset=a,r=a;for(var f=t._animations,s=f.length,c=0,h=0;h<s;h++)i[h]?c++:(i[h]=f[h](a,t.direction),i[h]&&c++);if(c===s)return void t._stop()}t._id=window.requestAnimationFrame(o)};this._id=window.requestAnimationFrame(o)}},{key:"_stop",value:function(){this._id&&window.cancelAnimationFrame(this._id),this._running=!1,this._rollingBack=!1}},{key:"play",value:function(){!this._rollingBack&&this._running||(this._rollingBack=!1,this.rollbackStartOffset>this.duration&&(this.offset=this.rollbackStartOffset-(this.rollbackStartOffset-this.offset)%this.duration,this.rollbackStartOffset=0),this._start(this.offset))}},{key:"stop",value:function(){this._stop(),this.offset=0,this.rollbackStartOffset=0;var t=this.direction,n=this._animations;window.requestAnimationFrame((function(){for(var r=0;r<n.length;r++)n[r](0,t)}))}},{key:"reachedToEnd",value:function(){return this.iterations>0&&this.offset>=this.iterations*this.duration}},{key:"restart",value:function(){this._stop(),this.offset=0,this._start()}},{key:"pause",value:function(){this._stop()}},{key:"reverse",value:function(){this.direction=-this.direction}}],[{key:"build",value:function(n,r){return(n=function(t,n){if(j=n,!t||!t.root||!Array.isArray(t.animations))return null;for(var r=document.getElementsByTagName("svg"),e=!1,i=0;i<r.length;i++)if(r[i].id===t.root&&!r[i].svgatorAnimation){(e=r[i]).svgatorAnimation=!0;break}if(!e)return null;var o=t.animations.map((function(t){return z(e,t)})).filter((function(t){return!!t}));return o.length?{element:e,animations:o,animationSettings:t.animationSettings,options:t.options||void 0}:null}(n,r))?{el:n.element,options:n.options||{},player:new t(n.animations,n.animationSettings,n.options)}:null}}]),t}();function Q(t){return s(t)+""}function U(t){var n=arguments.length>1&&void 0!==arguments[1]?arguments[1]:" ";return t&&t.length?t.map(Q).join(n):""}function V(t){return t?null==t.a||t.a>=1?"rgb("+t.r+","+t.g+","+t.b+")":"rgba("+t.r+","+t.g+","+t.b+","+t.a+")":"transparent"}!function(){for(var t=0,n=["ms","moz","webkit","o"],r=0;r<n.length&&!window.requestAnimationFrame;++r)window.requestAnimationFrame=window[n[r]+"RequestAnimationFrame"],window.cancelAnimationFrame=window[n[r]+"CancelAnimationFrame"]||window[n[r]+"CancelRequestAnimationFrame"];window.requestAnimationFrame||(window.requestAnimationFrame=function(n){var r=Date.now(),e=Math.max(0,16-(r-t)),i=window.setTimeout((function(){n(r+e)}),e);return t=r+e,i},window.cancelAnimationFrame=window.clearTimeout)}();var G={f:null,i:function(t,n,r){return 0===t?n:1===t?r:{x:x(t,n.x,r.x),y:x(t,n.y,r.y)}},u:function(t,n){return function(r){var e=n(r);t.setAttribute("rx",Q(e.x)),t.setAttribute("ry",Q(e.y))}}},H={f:null,i:function(t,n,r){return 0===t?n:1===t?r:{width:x(t,n.width,r.width),height:x(t,n.height,r.height)}},u:function(t,n){return function(r){var e=n(r);t.setAttribute("width",Q(e.width)),t.setAttribute("height",Q(e.height))}}},Y=Math.sin,Z=Math.cos,J=Math.acos,K=Math.asin,W=Math.tan,X=Math.atan2,$=Math.PI/180,tt=180/Math.PI,nt=Math.sqrt,rt=function(){function t(){var r=arguments.length>0&&void 0!==arguments[0]?arguments[0]:1,e=arguments.length>1&&void 0!==arguments[1]?arguments[1]:0,i=arguments.length>2&&void 0!==arguments[2]?arguments[2]:0,o=arguments.length>3&&void 0!==arguments[3]?arguments[3]:1,u=arguments.length>4&&void 0!==arguments[4]?arguments[4]:0,a=arguments.length>5&&void 0!==arguments[5]?arguments[5]:0;n(this,t),this.m=[r,e,i,o,u,a],this.i=null,this.w=null,this.s=null}return e(t,[{key:"determinant",get:function(){var t=this.m;return t[0]*t[3]-t[1]*t[2]}},{key:"isIdentity",get:function(){if(null===this.i){var t=this.m;this.i=1===t[0]&&0===t[1]&&0===t[2]&&1===t[3]&&0===t[4]&&0===t[5]}return this.i}},{key:"point",value:function(t,n){var r=this.m;return{x:r[0]*t+r[2]*n+r[4],y:r[1]*t+r[3]*n+r[5]}}},{key:"translateSelf",value:function(){var t=arguments.length>0&&void 0!==arguments[0]?arguments[0]:0,n=arguments.length>1&&void 0!==arguments[1]?arguments[1]:0;if(!t&&!n)return this;var r=this.m;return r[4]+=r[0]*t+r[2]*n,r[5]+=r[1]*t+r[3]*n,this.w=this.s=this.i=null,this}},{key:"rotateSelf",value:function(){var t=arguments.length>0&&void 0!==arguments[0]?arguments[0]:0;if(t%=360){var n=Y(t*=$),r=Z(t),e=this.m,i=e[0],o=e[1];e[0]=i*r+e[2]*n,e[1]=o*r+e[3]*n,e[2]=e[2]*r-i*n,e[3]=e[3]*r-o*n,this.w=this.s=this.i=null}return this}},{key:"scaleSelf",value:function(){var t=arguments.length>0&&void 0!==arguments[0]?arguments[0]:1,n=arguments.length>1&&void 0!==arguments[1]?arguments[1]:1;if(1!==t||1!==n){var r=this.m;r[0]*=t,r[1]*=t,r[2]*=n,r[3]*=n,this.w=this.s=this.i=null}return this}},{key:"skewSelf",value:function(t,n){if(n%=360,(t%=360)||n){var r=this.m,e=r[0],i=r[1],o=r[2],u=r[3];t&&(t=W(t*$),r[2]+=e*t,r[3]+=i*t),n&&(n=W(n*$),r[0]+=o*n,r[1]+=u*n),this.w=this.s=this.i=null}return this}},{key:"resetSelf",value:function(){var t=arguments.length>0&&void 0!==arguments[0]?arguments[0]:1,n=arguments.length>1&&void 0!==arguments[1]?arguments[1]:0,r=arguments.length>2&&void 0!==arguments[2]?arguments[2]:0,e=arguments.length>3&&void 0!==arguments[3]?arguments[3]:1,i=arguments.length>4&&void 0!==arguments[4]?arguments[4]:0,o=arguments.length>5&&void 0!==arguments[5]?arguments[5]:0,u=this.m;return u[0]=t,u[1]=n,u[2]=r,u[3]=e,u[4]=i,u[5]=o,this.w=this.s=this.i=null,this}},{key:"recomposeSelf",value:function(){var t=arguments.length>0&&void 0!==arguments[0]?arguments[0]:null,n=arguments.length>1&&void 0!==arguments[1]?arguments[1]:null,r=arguments.length>2&&void 0!==arguments[2]?arguments[2]:null,e=arguments.length>3&&void 0!==arguments[3]?arguments[3]:null,i=arguments.length>4&&void 0!==arguments[4]?arguments[4]:null;return this.isIdentity||this.resetSelf(),t&&(t.x||t.y)&&this.translateSelf(t.x,t.y),n&&this.rotateSelf(n),r&&(r.x&&this.skewSelf(r.x,0),r.y&&this.skewSelf(0,r.y)),!e||1===e.x&&1===e.y||this.scaleSelf(e.x,e.y),i&&(i.x||i.y)&&this.translateSelf(i.x,i.y),this}},{key:"decompose",value:function(){var t=arguments.length>0&&void 0!==arguments[0]?arguments[0]:0,n=arguments.length>1&&void 0!==arguments[1]?arguments[1]:0,r=this.m,e=r[0]*r[0]+r[1]*r[1],i=[[r[0],r[1]],[r[2],r[3]]],o=nt(e);if(0===o)return{origin:{x:s(r[4]),y:s(r[5])},translate:{x:s(t),y:s(n)},scale:{x:0,y:0},skew:{x:0,y:0},rotate:0};i[0][0]/=o,i[0][1]/=o;var u=r[0]*r[3]-r[1]*r[2]<0;u&&(o=-o);var a=i[0][0]*i[1][0]+i[0][1]*i[1][1];i[1][0]-=i[0][0]*a,i[1][1]-=i[0][1]*a;var l=nt(i[1][0]*i[1][0]+i[1][1]*i[1][1]);if(0===l)return{origin:{x:s(r[4]),y:s(r[5])},translate:{x:s(t),y:s(n)},scale:{x:s(o),y:0},skew:{x:0,y:0},rotate:0};i[1][0]/=l,i[1][1]/=l,a/=l;var f=0;return i[1][1]<0?(f=J(i[1][1])*tt,i[0][1]<0&&(f=360-f)):f=K(i[0][1])*tt,u&&(f=-f),a=X(a,nt(i[0][0]*i[0][0]+i[0][1]*i[0][1]))*tt,u&&(a=-a),{origin:{x:s(r[4]),y:s(r[5])},translate:{x:s(t),y:s(n)},scale:{x:s(o),y:s(l)},skew:{x:s(a),y:0},rotate:s(f)}}},{key:"toString",value:function(){return null===this.s&&(this.s="matrix("+this.m.map((function(t){return s(t)})).join(" ")+")"),this.s}}]),t}();Object.freeze({M:2,L:2,Z:0,H:1,V:1,C:6,Q:4,T:2,S:4,A:7});var et={},it=null;function ot(n){var r=function(){if(it)return it;if("object"!==("undefined"==typeof document?"undefined":t(document))||!document.createElementNS)return{};var n=document.createElementNS("http://www.w3.org/2000/svg","svg");return n&&n.style?(n.style.position="absolute",n.style.opacity="0.01",n.style.zIndex="-9999",n.style.left="-9999px",n.style.width="1px",n.style.height="1px",it={svg:n}):{}}().svg;if(!r)return function(t){return null};var e=document.createElementNS(r.namespaceURI,"path");e.setAttributeNS(null,"d",n),e.setAttributeNS(null,"fill","none"),e.setAttributeNS(null,"stroke","none"),r.appendChild(e);var i=e.getTotalLength();return function(t){var n=e.getPointAtLength(i*t);return{x:n.x,y:n.y}}}function ut(t){return et[t]?et[t]:et[t]=ot(t)}function at(t,n,r,e){if(!t||!e)return!1;var i=["M",t.x,t.y];if(n&&r&&(i.push("C"),i.push(n.x),i.push(n.y),i.push(r.x),i.push(r.y)),n?!r:r){var o=n||r;i.push("Q"),i.push(o.x),i.push(o.y)}return n||r||i.push("L"),i.push(e.x),i.push(e.y),i.join(" ")}function lt(t,n,r,e){var i=arguments.length>4&&void 0!==arguments[4]?arguments[4]:1,o=at(t,n,r,e),u=ut(o);try{return u(i)}catch(t){return null}}function ft(t,n,r,e){var i=1-e;return i*i*t+2*i*e*n+e*e*r}function st(t,n,r,e){return 2*(1-e)*(n-t)+2*e*(r-n)}function ct(t,n,r,e){var i=arguments.length>4&&void 0!==arguments[4]&&arguments[4],o=lt(t,n,null,r,e);return o||(o={x:ft(t.x,n.x,r.x,e),y:ft(t.y,n.y,r.y,e)}),i&&(o.a=ht(t,n,r,e)),o}function ht(t,n,r,e){return Math.atan2(st(t.y,n.y,r.y,e),st(t.x,n.x,r.x,e))}function vt(t,n,r,e,i){var o=i*i;return i*o*(e-t+3*(n-r))+3*o*(t+r-2*n)+3*i*(n-t)+t}function yt(t,n,r,e,i){var o=1-i;return 3*(o*o*(n-t)+2*o*i*(r-n)+i*i*(e-r))}function dt(t,n,r,e,i){var o=arguments.length>5&&void 0!==arguments[5]&&arguments[5],u=lt(t,n,r,e,i);return u||(u={x:vt(t.x,n.x,r.x,e.x,i),y:vt(t.y,n.y,r.y,e.y,i)}),o&&(u.a=gt(t,n,r,e,i)),u}function gt(t,n,r,e,i){return Math.atan2(yt(t.y,n.y,r.y,e.y,i),yt(t.x,n.x,r.x,e.x,i))}function pt(t,n,r){return t+(n-t)*r}function mt(t,n,r){var e=arguments.length>3&&void 0!==arguments[3]&&arguments[3],i={x:pt(t.x,n.x,r),y:pt(t.y,n.y,r)};return e&&(i.a=bt(t,n)),i}function bt(t,n){return Math.atan2(n.y-t.y,n.x-t.x)}function wt(t,n,r){var e=arguments.length>3&&void 0!==arguments[3]&&arguments[3];if(kt(n)){if(At(r))return ct(n,r.start,r,t,e)}else if(kt(r)){if(n.end)return ct(n,n.end,r,t,e)}else{if(n.end)return r.start?dt(n,n.end,r.start,r,t,e):ct(n,n.end,r,t,e);if(r.start)return ct(n,r.start,r,t,e)}return mt(n,r,t,e)}function xt(t,n,r){var e=wt(t,n,r,!0);return e.a=function(t){var n=arguments.length>1&&void 0!==arguments[1]&&arguments[1];return n?t+Math.PI:t}(e.a)/h,e}function kt(t){return!t.type||"corner"===t.type}function At(t){return null!=t.start&&!kt(t)}var St=new rt;var _t={f:Q,i:w},Ot={f:Q,i:function(t,n,r){var e=w(t,n,r);return e<=0?0:e>=1?1:e}};function Mt(t,n,r,e,i,o,u,a){return n=function(t,n,r){for(var e,i,o,u=t.length-1,a={},l=0;l<=u;l++)(e=t[l]).e&&(e.e=n(e.e)),e.v&&"g"===(i=e.v).t&&i.r&&(o=r.getElementById(i.r))&&(a[i.r]=o.querySelectorAll("stop"));return a}(t,e,a),function(e){var i,o=r(e,t,jt);return o?"c"===o.t?V(o.v):"g"===o.t?(n[o.r]&&function(t,n){for(var r=0,e=t.length;r<e;r++)t[r].setAttribute("stop-color",V(n[r]))}(n[o.r],o.v),(i=o.r)?"url(#"+i+")":"none"):"none":"none"}}function jt(t,n,r){if(0===t)return n;if(1===t)return r;if(n&&r){var e=n.t;if(e===r.t)switch(n.t){case"c":return{t:e,v:S(t,n.v,r.v)};case"g":if(n.r===r.r)return{t:e,v:_(t,n.v,r.v),r:n.r}}}return b(t,n,r)}var Pt={fill:Mt,"fill-opacity":Ot,stroke:Mt,"stroke-opacity":Ot,"stroke-width":_t,"stroke-dashoffset":{f:Q,i:w},"stroke-dasharray":{f:function(t){var n=arguments.length>1&&void 0!==arguments[1]?arguments[1]:" ";return t&&t.length>0&&(t=t.map((function(t){return s(t,4)}))),U(t,n)},i:function(t,n,r){var e,i,o,u=n.length,a=r.length;if(u!==a)if(0===u)n=O(u=a,0);else if(0===a)a=u,r=O(u,0);else{var l=(o=(e=u)*(i=a)/function(t,n){for(var r;n;)r=n,n=t%n,t=r;return t||1}(e,i))<0?-o:o;n=M(n,Math.floor(l/u)),r=M(r,Math.floor(l/a)),u=a=l}for(var f=[],c=0;c<u;c++)f.push(s(x(t,n[c],r[c])));return f}},opacity:Ot,transform:function(n,r,e,i){if(!(n=function(n,r){if(!n||"object"!==t(n))return null;var e=!1;for(var i in n)n.hasOwnProperty(i)&&(n[i]&&n[i].length?(n[i].forEach((function(t){t.e&&(t.e=r(t.e))})),e=!0):delete n[i]);return e?n:null}(n,i)))return null;var o=function(t,i,o){var u=arguments.length>3&&void 0!==arguments[3]?arguments[3]:null;return n[t]?e(i,n[t],o):r&&r[t]?r[t]:u};return r&&r.a&&n.o?function(t){var r=e(t,n.o,xt);return St.recomposeSelf(r,o("r",t,w,0)+r.a,o("k",t,k),o("s",t,k),o("t",t,k)).toString()}:function(t){return St.recomposeSelf(o("o",t,wt,null),o("r",t,w,0),o("k",t,k),o("s",t,k),o("t",t,k)).toString()}},r:_t,"#size":H,"#radius":G,_:function(t,n){if(Array.isArray(t))for(var r=0;r<t.length;r++)this[t[r]]=n;else this[t]=n}};return function(t){!function(t,n){if("function"!=typeof n&&null!==n)throw new TypeError("Super expression must either be null or a function");t.prototype=Object.create(n&&n.prototype,{constructor:{value:t,writable:!0,configurable:!0}}),n&&o(t,n)}(u,t);var r=a(u);function u(){return n(this,u),r.apply(this,arguments)}return e(u,null,[{key:"build",value:function(t){var n=l(i(u),"build",this).call(this,t,Pt);if(!n)return null;n.el,n.options;var r=n.player;return function(t,n,r){t.play()}(r),r}}]),u}(D)}));
__SVGATOR_PLAYER__.build({"root":"eakJ2FjNTPB1","animations":[{"duration":2000,"direction":1,"iterations":1,"fill":1,"alternate":false,"speed":1,"elements":{"eakJ2FjNTPB4":{"transform":{"data":{"t":{"x":628.771574,"y":-59.458629}},"keys":{"o":[{"t":0,"v":{"x":19.565273,"y":62.561249,"type":"corner"}},{"t":1000,"v":{"x":19.565273,"y":62.561249,"type":"corner"}},{"t":1600,"v":{"x":-628.898833,"y":60.989949,"type":"corner"},"e":[0,0.735,1,0.245]}]}}},"eakJ2FjNTPB5":{"transform":{"data":{"t":{"x":477.888953,"y":-58.942616}},"keys":{"o":[{"t":0,"v":{"x":134.848122,"y":62.56119,"type":"corner"}},{"t":1000,"v":{"x":134.848122,"y":62.56119,"type":"corner"}},{"t":1600,"v":{"x":-477.888952,"y":60.658042,"type":"corner"},"e":[0,0.735,1,0.245]}]}}},"eakJ2FjNTPB6":{"opacity":[{"t":0,"v":0},{"t":1000,"v":0,"e":[0.98,0.015,1,0.065]},{"t":1600,"v":1,"e":[0,0.735,1,0.245]}]},"eakJ2FjNTPB7":{"opacity":[{"t":0,"v":0},{"t":1000,"v":0,"e":[0.98,0.015,1,0.065]},{"t":1600,"v":1,"e":[0,0.735,1,0.245]}]},"eakJ2FjNTPB8":{"opacity":[{"t":0,"v":0},{"t":1000,"v":0,"e":[0.98,0.015,1,0.065]},{"t":1600,"v":1,"e":[0,0.735,1,0.245]}]},"eakJ2FjNTPB9":{"opacity":[{"t":0,"v":0},{"t":1000,"v":0,"e":[0.98,0.015,1,0.065]},{"t":1600,"v":1,"e":[0,0.735,1,0.245]}]},"eakJ2FjNTPB10":{"opacity":[{"t":0,"v":0},{"t":1000,"v":0,"e":[0.98,0.015,1,0.065]},{"t":1600,"v":1,"e":[0,0.735,1,0.245]}]},"eakJ2FjNTPB11":{"transform":{"data":{"t":{"x":-306.53273,"y":-60.658013}},"keys":{"o":[{"t":0,"v":{"x":575.729248,"y":61.004889,"type":"corner"}},{"t":1000,"v":{"x":575.729248,"y":61.004889,"type":"corner"}},{"t":1600,"v":{"x":306.532731,"y":60.658042,"type":"corner"},"e":[0,0.735,1,0.245]}]}}},"eakJ2FjNTPB12":{"opacity":[{"t":0,"v":0},{"t":1000,"v":0,"e":[0.98,0.015,1,0.065]},{"t":1600,"v":1,"e":[0,0.735,1,0.245]}]},"eakJ2FjNTPB13":{"opacity":[{"t":0,"v":0},{"t":1000,"v":0,"e":[0.98,0.015,1,0.065]},{"t":1600,"v":1,"e":[0,0.735,1,0.245]}]},"eakJ2FjNTPB14":{"opacity":[{"t":0,"v":0},{"t":1000,"v":0,"e":[0.98,0.015,1,0.065]},{"t":1600,"v":1,"e":[0,0.735,1,0.245]}]},"eakJ2FjNTPB15":{"opacity":[{"t":0,"v":0},{"t":1000,"v":0,"e":[0.98,0.015,1,0.065]},{"t":1600,"v":1,"e":[0,0.735,1,0.245]}]},"eakJ2FjNTPB16":{"transform":{"data":{"t":{"x":-1091.366089,"y":-47.754064}},"keys":{"o":[{"t":0,"v":{"x":1008.914948,"y":47.232273,"type":"corner"}},{"t":1000,"v":{"x":1008.914948,"y":47.232273,"type":"corner"}},{"t":1600,"v":{"x":1091.366089,"y":47.754072,"type":"corner"},"e":[0,0.735,1,0.245]}]}}},"eakJ2FjNTPB17":{"opacity":[{"t":0,"v":0},{"t":1000,"v":0,"e":[0.98,0.015,1,0.065]},{"t":1600,"v":1,"e":[0,0.735,1,0.245]}]},"eakJ2FjNTPB18":{"opacity":[{"t":0,"v":0},{"t":1000,"v":0,"e":[0.98,0.015,1,0.065]},{"t":1600,"v":1,"e":[0,0.735,1,0.245]}]},"eakJ2FjNTPB19":{"opacity":[{"t":0,"v":0},{"t":1000,"v":0,"e":[0.98,0.015,1,0.065]},{"t":1600,"v":1,"e":[0,0.735,1,0.245]}]},"eakJ2FjNTPB20":{"opacity":[{"t":0,"v":0},{"t":1000,"v":0,"e":[0.98,0.015,1,0.065]},{"t":1600,"v":1,"e":[0,0.735,1,0.245]}]},"eakJ2FjNTPB21":{"opacity":[{"t":0,"v":0},{"t":1000,"v":0,"e":[0.98,0.015,1,0.065]},{"t":1600,"v":1,"e":[0,0.735,1,0.245]}]},"eakJ2FjNTPB22":{"opacity":[{"t":0,"v":0},{"t":1000,"v":0,"e":[0.98,0.015,1,0.065]},{"t":1600,"v":1,"e":[0,0.735,1,0.245]}]},"eakJ2FjNTPB23":{"opacity":[{"t":0,"v":0},{"t":1000,"v":0,"e":[0.98,0.015,1,0.065]},{"t":1600,"v":1,"e":[0,0.735,1,0.245]}]},"eakJ2FjNTPB24":{"opacity":[{"t":0,"v":0},{"t":1000,"v":0,"e":[0.98,0.015,1,0.065]},{"t":1600,"v":1,"e":[0,0.735,1,0.245]}]},"eakJ2FjNTPB25":{"transform":{"data":{"t":{"x":-2302.276735,"y":-60.658015}},"keys":{"o":[{"t":0,"v":{"x":1651.658936,"y":60.989929,"type":"corner"}},{"t":1000,"v":{"x":1651.658936,"y":60.989929,"type":"corner"}},{"t":1600,"v":{"x":2302.276735,"y":60.658042,"type":"corner"},"e":[0,0.735,1,0.245]}]}}}}}],"options":{"start":"load","hover":null,"click":null,"scroll":null,"font":"embed","exportedIds":"unique","svgFormat":"animated","title":"Recurso 5ewq"},"animationSettings":{"duration":2000,"direction":1,"iterations":1,"fill":1,"alternate":false,"speed":1}})]]></script></svg>