<svg xmlns="http://www.w3.org/2000/svg" width="18" height="18" fill="currentColor" viewBox="0 0 384 384">
    <path d="M78,384l-3.92-1.11c-11.4-3.22-18.64-12.73-19.11-24.83a6.88,6.88,0,0,0-1.8-4.06c-7.47-7.78-10.19-16.75-6.74-27.09,3.39-10.16,10.68-16.17,21.28-17.46,9.06-1.1,16.59,2.5,22.73,9.48l54.43-24.35L90.43,270.23c-4.15,4.6-9,7.88-15.17,9a25.68,25.68,0,0,1-27.83-13.6A26,26,0,0,1,53,235.12,7,7,0,0,0,55,230.79c.71-15.3,12.23-26.18,27.36-25.66,13.77.49,24.59,12.65,24,27.26-.09,2.21.68,3,2.47,3.82,27,12,53.89,24.13,80.87,36.1a6.16,6.16,0,0,0,4.49.08q41.18-18.24,82.25-36.7a2.86,2.86,0,0,0,.77-.5c.55-4.2.59-8.12,1.62-11.76a25.48,25.48,0,0,1,27.55-18.2c12.9,1.67,22.1,12.19,22.68,25.75a6,6,0,0,0,1.49,3.81c11,10.6,11.69,26.92,1.37,37.37s-26.2,10.22-37.1-.69c-.35-.35-.72-.68-1.23-1.17l-54.28,24.27,54.27,24.3c8.67-9,18.7-12.26,30.35-7.39a25.46,25.46,0,0,1,7.37,42.14,6.85,6.85,0,0,0-2.4,5.39c-.46,12.2-8,21.16-20.06,24.31a6.39,6.39,0,0,0-1.29.68h-8.25c-.81-.28-1.6-.6-2.42-.82-11.6-3.09-19.78-13.92-19.12-25.83.14-2.6-.57-3.68-2.84-4.69-26.73-11.87-53.41-23.87-80.17-35.69a7.62,7.62,0,0,0-5.5,0c-26.76,11.82-53.43,23.82-80.17,35.67-2.33,1-2.8,2.22-2.77,4.72.11,10.76-4.64,18.91-14.24,24-2.25,1.19-4.84,1.76-7.27,2.62ZM93.14,232c0-8.58-6.31-14.58-13.43-13.84a12.63,12.63,0,0,0-11.36,15.09c1,6.08.72,6.79-4.47,10a12.71,12.71,0,0,0-6.06,13.44,13,13,0,0,0,9.73,9.81,12.72,12.72,0,0,0,13.57-5.77c3.76-5.84,5.49-6.39,11.64-3.64L286.14,343.6c6.16,2.76,6.94,4.47,5.07,11a12.94,12.94,0,0,0,4.2,13.81,12.58,12.58,0,0,0,14.38.89c4.46-2.69,7.16-8,5.81-13.13-1.3-5,.15-8,4.57-10.4a12,12,0,0,0,6-12.72,12.66,12.66,0,0,0-23.08-4.83c-4.33,6.39-5.39,6.69-12.54,3.49L146.9,267.4q-25.07-11.22-50.13-22.47c-4.63-2.09-5.76-4.65-4.45-9.2C92.76,234.19,93,232.6,93.14,232Zm82.92,76.66c-4.52-2.05-8.54-3.7-12.38-5.68a6.1,6.1,0,0,0-5.9,0Q124.92,317.78,92,332.39c-5.24,2.33-7.57,1.53-10.52-3.35-3.22-5.32-8-7.53-13.92-6.46a12.8,12.8,0,0,0-9.75,9.73c-1.06,5.8,1.29,10.73,6.6,13.84,4.48,2.63,5.22,4.27,4.16,9.14a12.66,12.66,0,0,0,20,13.18,12.87,12.87,0,0,0,4.24-14.1c-1.83-6.16-1-8.07,5-10.73l35.48-15.83ZM208,280.51c4.67,2.09,8.71,3.7,12.55,5.69,2.14,1.11,3.81.88,5.9-.06q32.53-14.7,65.15-29.21c5.52-2.47,7.9-1.75,10.92,3.17,3.21,5.23,8.23,7.51,14,6.35a12.91,12.91,0,0,0,9.7-10.28c.88-5.17-1.62-10.17-6.59-13.18-4.44-2.69-5.07-4.13-4-9.2a13.28,13.28,0,0,0-5.85-13.94,12.23,12.23,0,0,0-13.72.56,13,13,0,0,0-4.85,14c1.77,7.05,1.14,8.35-5.62,11.38Z"/>
    <path d="M191.9,238.19c-15.73-1.33-31.4-2.48-47-4-10-1-16.71-8.94-17-19.53-.15-5.36,0-10.72,0-16.09,0-4.56-1.55-6-6-6.16-22.86-.7-39.82-19-38.42-41.68a34.58,34.58,0,0,1,10.08-22.38c2.67-2.74,2.92-5.32,1.85-8.76-5.82-18.74-8-37.74-3.19-57.06C98.81,35.7,116.5,18.82,141.62,9.12c20.89-8.06,42.7-9.54,64.85-7.79C224.73,2.77,242.18,7,257.92,16.71c22,13.56,33.95,33.39,36.15,59.14a110.71,110.71,0,0,1-5.22,43.09c-1.2,3.83-.82,6.56,2,9.77,10.25,11.68,13.13,25.19,6.94,39.58-6.47,15.06-18.54,23-35,24-5.3.33-6.62,1.44-6.69,6.7-.08,6,.17,12-.29,17.95A18.44,18.44,0,0,1,239,234.17C223.32,235.69,207.65,236.86,191.9,238.19Zm-.13-13c14.68-1.19,29.35-2.32,44-3.58,5.38-.47,7.25-2.65,7.27-7.95,0-5.49-.07-11,0-16.47a17.48,17.48,0,0,1,17.25-17.55,34.7,34.7,0,0,0,6.69-.74c9.68-2.36,16.56-8.09,19.68-17.62,3-9.23.7-17.53-5.95-24.45-5.8-6-7.17-12.8-4.56-20.62a100.36,100.36,0,0,0,5.2-32.3C281.3,54.59,268,33.42,240.84,22.58,208.5,9.67,175.4,10,143,22.61c-20.39,8-33.94,22.93-38.7,44.76-3.54,16.22-1.76,32.27,3.26,47.9,2.77,8.64,1.48,15.69-4.9,22.23a22.17,22.17,0,0,0-6.23,19.94c2.28,13.24,12.72,21.67,27.07,22.18,10.07.35,17.3,7.65,17.45,17.72.09,5.49,0,11,0,16.46,0,4.91,1.91,7.3,6.7,7.72C162.3,222.81,177,224,191.77,225.15Z"/>
    <path d="M153.34,167.17c-16.2-.28-28.39-9.95-31.36-25.68-1.62-8.59,1.9-15.94,7.47-22.21,12.91-14.57,38.4-13.42,50.11,2.12,14.45,19.17.12,40.7-17.34,44.67A87.53,87.53,0,0,1,153.34,167.17ZM152.72,122a35,35,0,0,0-5.34.85c-6.31,1.86-10.6,6-12.3,12.35-1.51,5.64,1.06,10.17,5,14,4.1,4,9.26,5.05,14.79,4.89,9.29-.26,17.32-7.26,17.72-15.48.37-7.62-6.64-15-15.55-16.36C155.91,122.07,154.78,122.1,152.72,122Z"/>
    <path d="M230.55,166.9c-17.33,0-30.37-10.81-31.87-27.21-1-11,4.51-19.48,13.52-25.42,16.15-10.65,45-5.65,49.76,20.34,1.82,9.88-2.62,18-9.77,24.57A29.11,29.11,0,0,1,230.55,166.9Zm.3-45.11a55.91,55.91,0,0,0-6.39,1c-6.84,1.88-11.34,6.36-12.76,13.22-1.2,5.79,1.71,10.45,6.08,14,6.06,4.87,13,5.19,20.14,2.85,6.47-2.12,11.5-8.8,11.54-14.69s-5-12.5-11.44-14.76A54.73,54.73,0,0,0,230.85,121.79Z"/>
    <path d="M192,178.54c-2.4,3.56-4.47,6.64-6.56,9.71-2.82,4.15-6.44,5.31-9.75,3.15s-3.87-6-1.17-10.11q5.55-8.43,11.23-16.78c3.6-5.29,8.81-5.36,12.37-.15q5.79,8.47,11.42,17.09c2.57,3.93,2.08,7.64-1.15,9.85s-7,1.19-9.59-2.62C196.63,185.5,194.52,182.28,192,178.54Z"/>
</svg>