<svg xmlns="http://www.w3.org/2000/svg" viewBox="0 0 81.34 45.15"><defs><style>.cls-1{fill:#1d1d1b;}</style></defs><title>Recurso 1ES</title><g id="Capa_2" data-name="Capa 2"><g id="Capa_1-2" data-name="Capa 1"><path class="cls-1" d="M0,.74H36.16v9.33H13.52V17h21v8.9h-21v8.61H36.81v9.89H0Z"/><path class="cls-1" d="M41.73,30l12.84-.8a9.82,9.82,0,0,0,1.69,4.77,7.16,7.16,0,0,0,6,2.65,6.6,6.6,0,0,0,4.45-1.36A3.89,3.89,0,0,0,66.75,29c-1-.89-3.3-1.74-6.91-2.53q-8.88-2-12.66-5.3a10.68,10.68,0,0,1-3.81-8.43,11.43,11.43,0,0,1,2-6.36,12.87,12.87,0,0,1,5.87-4.71Q55.11,0,61.92,0q8.37,0,12.77,3.11T79.91,13l-12.71.74a6.87,6.87,0,0,0-2.13-4.29,6.89,6.89,0,0,0-4.49-1.34,5.36,5.36,0,0,0-3.54,1,3,3,0,0,0-1.19,2.43,2.4,2.4,0,0,0,1,1.87C57.47,14,59,14.55,61.36,15Q70.19,16.95,74,18.9a13.29,13.29,0,0,1,5.57,4.84,12.29,12.29,0,0,1,1.74,6.46A13.87,13.87,0,0,1,79,38a14.53,14.53,0,0,1-6.49,5.37A26.29,26.29,0,0,1,62,45.15q-11.13,0-15.43-4.28A16.94,16.94,0,0,1,41.73,30Z"/></g></g></svg>