<?xml version="1.0" encoding="UTF-8"?><svg id="Capa_2" width="200" height="200" xmlns="http://www.w3.org/2000/svg" viewBox="0 0 235.81 190.66">
    <defs>
        <style>
            .cls-1 {
                letter-spacing: -.02em;
            }

            .cls-2 {
                fill: #fff;
            }

            .cls-3 {
                fill: #c98cd2;
            }

            .cls-4 {
                fill: #ed9996;
            }

            .cls-5 {
                fill: #e2f4f7;
            }

            .cls-6 {
                fill: #fed353;
            }

            .cls-7 {
                fill: #282828;
            }

            .cls-8,
            .cls-9,
            .cls-10 {
                fill: none;
                stroke-linecap: round;
                stroke-linejoin: round;
            }

            .cls-8,
            .cls-10 {
                stroke: #282828;
            }

            .cls-11 {
                fill: #424242;
            }

            .cls-9 {
                stroke: #8e6bb2;
            }

            .cls-12 {
                fill: #351e48;
            }

            .cls-13 {
                fill: #ffd34f;
                font-family: Montserrat-Bold, Montserrat;
                font-size: 11px;
            }

            .cls-10 {
                stroke-width: 2px;
            }

            .cls-14 {
                fill: #ffb1a5;
            }
        </style>
    </defs>
    <g id="OBJECTS">
        <g>
            <path class="cls-5"
                d="M203.02,18.47C188.57,2.43,166.49-2.32,145.81,1c-23.14,3.71-44.51,15.18-68.02,17.04-13.11,1.04-25.97-3.45-39.02-1.82-10.17,1.27-17.01,6.46-22.05,15.17C3.86,53.59-5.21,79.22,3.35,104.63c11.08,32.87,43.46,49.1,76.21,50.44,.45,.39,1.05,.65,1.82,.65,11.96,.01,24.07-1.98,36-2.95,11.76-.95,23.56-2,35.16-4.21,20.64-3.94,41.57-12.35,54.11-30.04,19.88-28.03,19.77-74.03-3.64-100.04Z" />
            <g>
                <g>
                    <g>
                        <path class="cls-14"
                            d="M158.4,107.29s8.61,3.45,13.61,10.87c5,7.42,20.77,36.54,20.77,36.54h-30.78l-3.6-47.4Z" />
                        <path class="cls-4"
                            d="M178.35,128.7l-17.36,12.66,1.01,13.33h5.74c9.28-3.03,14.8-8.67,17.87-13.08-2.32-4.18-4.89-8.79-7.26-12.91Z" />
                        <path class="cls-3"
                            d="M172.71,118.16c-5.45-7.15-14.31-10.87-14.31-10.87l3.46,44.23c8.42-1.81,21.42-9.21,25.16-12.5-5.5-8.62-11.48-17.15-14.31-20.87Z" />
                        <path class="cls-3"
                            d="M141.5,102.18s18.1,3.85,22.03,8.3c4.57,5.18,5.5,44.21,5.5,44.21H87.62s-8.55-31.3-4.89-36.54,20.24-12.7,20.24-12.7l38.53-3.28Z" />
                        <g>
                            <path class="cls-14"
                                d="M107.98,82.73s1.7,17.1,1.21,18.04c-.49,.94-6.23,4.69-6.23,4.69,0,0,12.79,13.59,23.96,12.65,11.17-.94,14.57-15.93,14.57-15.93,0,0-6.13-.89-7.68-1.73-1.55-.84-3.82-12.79-3.82-12.79l-22.02-4.92Z" />
                            <path class="cls-4"
                                d="M132.03,96.38c-1.09-3.76-2.03-8.73-2.03-8.73l-9.34-2.09-12.29,1.24c-.39,.86,9.06,11.94,23.66,9.58Z" />
                        </g>
                        <g>
                            <path class="cls-4"
                                d="M153.63,66.12c0,4.47-2.72,8.09-6.06,8.09s-6.06-3.62-6.06-8.09,2.72-8.09,6.06-8.09,6.06,3.62,6.06,8.09Z" />
                            <path class="cls-14"
                                d="M123.88,93.74h0c-13.68,0-24.77-11.42-24.77-25.5v-10.41c0-14.08,11.09-25.5,24.77-25.5h0c13.68,0,24.77,11.42,24.77,25.5v10.41c0,14.08-11.09,25.5-24.77,25.5Z" />
                            <path class="cls-7"
                                d="M140.98,54.91c-1.61-.49-3.5-.34-4.89,.64-.28,.19-.12,.71,.25,.59,1.47-.5,2.87-.84,4.39-.31,1.28,.44,1.91,1.5,3.02,2.11,.24,.13,.48-.09,.44-.34-.25-1.36-1.98-2.32-3.2-2.7Z" />
                            <path class="cls-7"
                                d="M118.1,56.45c-2.52-3.06-8.2-2.4-10.19,.89-.23,.38,.27,.7,.58,.45,1.59-1.28,2.56-2.22,4.71-2.31,1.65-.07,3.33,.11,4.59,1.28,.21,.19,.48-.09,.3-.3Z" />
                            <path class="cls-4"
                                d="M100.49,58.68l6.16-4s8.76-2.05,16.98-9.19l-5.62,6.6s8.27,1.25,17.95-8.54c0,0,8.29,14.6,11.61,16.22,0,0-.79-23.47-7.6-26.93s-26.71,.54-32.23,6.81c-5.52,6.27-7.25,19.03-7.25,19.03Z" />
                            <g>
                                <ellipse class="cls-7" cx="115.37" cy="67.7" rx="1.38" ry="2.19" />
                                <path class="cls-7"
                                    d="M139.9,66.12c0,1.21-.62,2.19-1.38,2.19s-1.38-.98-1.38-2.19,.62-2.19,1.38-2.19,1.38,.98,1.38,2.19Z" />
                                <path class="cls-10"
                                    d="M128.86,66.89c.44,1.42,.88,2.87,.91,4.36,.04,1.49-.38,3.05-1.45,4.09" />
                                <path class="cls-2" d="M130.72,79.72c0,9.71-15.73,6.37-11.24-3.32l11.24,3.32Z" />
                            </g>
                            <g>
                                <path class="cls-7"
                                    d="M148.64,63.48s-9.4-15.38-11.05-26.84c0,0-4.05,10.33-14.45,12.75,0,0,5.63-7.92,5.91-10.94,0,0-13.78,12.06-23.97,15.38,0,0-7.33,9.05-7.33,13.87,0,0-17.86-28.25,10.55-40.92,27.2-12.13,31.61,3.68,31.61,3.68,0,0,18.75,4.78,8.74,33.02Z" />
                                <path class="cls-11"
                                    d="M139.91,30.45s-4.41-15.8-31.61-3.68c-5.97,2.66-9.89,6.01-12.37,9.64,6.52-5.32,14.53-8.78,22.88-9.86,3.65-.47,7.43-.48,10.94,.62,3.51,1.11,6.75,3.44,8.37,6.74,1.7-.37,3.49,.11,5.02,.93,1.53,.82,2.85,1.98,4.21,3.06,.89,.71,1.82,1.41,2.7,2.15-3.16-7.82-10.15-9.61-10.15-9.61Z" />
                            </g>
                            <path class="cls-14"
                                d="M102.97,68.31c0,4.47-2.72,8.09-6.06,8.09s-6.06-3.62-6.06-8.09,2.72-8.09,6.06-8.09,6.06,3.62,6.06,8.09Z" />
                        </g>
                        <g>
                            <path class="cls-14"
                                d="M190.39,154.69l13.66-30.79s-9.38-13.93-6.62-17.47c2.76-3.54,9.08,5.31,9.08,5.31,0,0,3.26-18.24,6.8-18,3.54,.24,2.31,12.94,2.31,12.94,0,0,7.33-12.64,11.38-10.87,4.05,1.77-5.06,14.16-5.06,14.16,0,0,8.6-7.84,11.63-5.06,3.03,2.78-6.57,10.27-6.57,10.27,0,0,7-4.32,8.7-1.56,1.7,2.76-17.01,16.8-17.01,16.8l-6.92,24.27h-21.38Z" />
                            <path class="cls-8" d="M207.36,112.49l1.86,2.11s5.47-1.12,7.33,3.6" />
                        </g>
                        <path class="cls-14"
                            d="M84.03,116.67s-6.29,6.11-10.38,12.74c-4.09,6.63-14.73,25.29-14.73,25.29h31.92l-6.81-38.02Z" />
                        <path class="cls-4"
                            d="M63.39,146.89c3.32,2.46,8.6,5.55,16.26,7.8h11.18l-3.34-18.68-16.02-2.99c-2.41,4.05-5.54,9.46-8.08,13.87Z" />
                        <path class="cls-3"
                            d="M72.61,128.7c-2.8,3.51-7.9,11.53-11.31,17.47,10.51,4.26,23.17,6.85,29.55,6.54l-6.81-36.03s-6.34,5.64-11.43,12.03Z" />
                    </g>
                    <g>
                        <path class="cls-9" d="M96.24,115.36c5.54,10.83,5.34,24.41-.53,35.07" />
                        <path class="cls-9" d="M164.38,117.28c2.55,8.82,3.81,18.01,3.74,27.18" />
                        <path class="cls-9" d="M174.6,129.71c-.63,5.07-2.03,10.04-4.13,14.69" />
                    </g>
                </g>
                <path class="cls-6"
                    d="M186.17,32.36c-3.73,2.32-7.41,4.83-11.02,7.43-2.01-3.33-4.21-6.49-6.69-9.48,2.38-3.57,4.85-6.82,7.84-9.92,.91-.94-.42-2.15-1.39-1.39-3.27,2.54-5.64,6.03-7.9,9.62-1.14-1.29-2.33-2.56-3.59-3.78-1.41-1.36-3.01-2.96-4.76-4.49,1.9-3.01,4.03-5.86,6.58-8.49,1.05-1.09-.64-2.77-1.66-1.66-2.4,2.62-4.69,5.56-6.64,8.71-3.3-2.62-7.02-4.7-10.85-4.49-.73,.04-.96,1.15-.18,1.34,3.72,.88,6.94,2.77,9.89,5.09-1.85,3.31-3.31,6.82-4.11,10.4-.12,.55,.7,.98,.96,.41,1.5-3.23,3.08-6.39,4.85-9.41,1.95,1.69,3.8,3.52,5.6,5.33,.95,.95,1.85,1.94,2.72,2.94-1.66,2.68-3.34,5.33-5.37,7.61-.48,.54,.23,1.2,.78,.78,2.45-1.9,4.26-4.24,5.98-6.75,2.29,2.83,4.29,5.83,6.13,8.96-2.29,1.69-4.55,3.41-6.75,5.18-.49,.4,.14,1.02,.62,.81,2.53-1.11,4.93-2.49,7.27-3.98,.75,1.35,1.47,2.72,2.16,4.11,.66,1.32,2.65,.16,1.98-1.16-.72-1.43-1.47-2.82-2.24-4.19,3.7-2.46,7.29-5.11,11.04-7.39,1.37-.83,.11-2.99-1.25-2.15Z" />
            </g>
        </g>
        <polygon class="cls-12" points="223.79 180.68 57.63 190.66 57.63 151.75 212 151.75 223.79 180.68" /><text
            class="cls-13" transform="translate(124.16 174.19)">
            <tspan x="0" y="0">EA</tspan>
            <tspan class="cls-1" x="15.81" y="0">S</tspan>
            <tspan x="22.66" y="0">Y</tspan>
        </text>
    </g>
</svg>