<?xml version="1.0" encoding="UTF-8"?><svg id="Capa_2" width="200" height="200" xmlns="http://www.w3.org/2000/svg" viewBox="0 0 194.76 211.62"><defs><style>.cls-1{fill:#fff;}.cls-2{fill:#ed9996;}.cls-3{fill:#e2f4f7;}.cls-4{fill:#fed353;}.cls-5{fill:#935221;}.cls-6{fill:#282828;}.cls-7{fill:#424242;}.cls-8{fill:#351e48;}.cls-9{fill:#ffd34f;font-family:Montserrat-Bold, Montserrat;font-size:11px;}.cls-10{fill:#ffe36e;}.cls-11{fill:#ffb1a5;}.cls-12{fill:#bc2445;}</style></defs><g id="OBJECTS"><g><path class="cls-3" d="M183.81,139.45c-1.2-10.87-6.79-21.8-16.7-27.01-4.91-2.58-10.3-4.13-15.21-6.72-5.31-2.81-6.74-5.99-6.05-11.87,.65-5.52,2.46-10.81,3.51-16.24,1.23-6.34,1.29-13.07,.61-19.48-2.68-25.45-20.17-44.93-43.69-53.91C82.46-4.87,55.6,1.58,34.86,15.34c-10.02,6.65-18.74,15.01-24.15,25.86C5.36,51.91,2.58,63.72,1.1,75.55c-2.94,23.49-.29,48.86,11.72,69.66,.63,1.09,1.3,2.16,1.99,3.2,16.07,34.27,61.63,42.38,97.28,41.61,21.39-.46,44.03-4.98,59.76-20.69,7.87-7.86,13.2-18.57,11.95-29.88Z"/><g><g><path class="cls-2" d="M65.73,126.65c-.53,.33-1.81,1.26-3.19,2.74-9.02,9.67-32.9,39.97-32.69,40.6,.18,.55,13.28,17.21,13.28,17.21,0,0,3.75,.32,15.01-8.94,11.26-9.26,26.43-26.99,26.43-26.99l-18.84-24.62Z"/><path class="cls-4" d="M65.73,126.65c-.53,.33-1.81,1.26-3.19,2.74-4.99,5.36-14.55,17.04-22.04,26.51,7.08,6.12,18.12,16.73,24.18,21.76,10.48-9.6,19.9-26.39,19.9-26.39l-18.84-24.62Z"/><path class="cls-4" d="M62.18,130.13c-1.04-1.06,31.08-24.54,59.44-19.22,37.21,6.98,43.95,74.1,43.95,74.1H90.7s-8.59-34.69-28.52-54.88Z"/><path class="cls-2" d="M96.93,103.13c1.46,.08,11.65,7.25,11.65,7.25,0,0-7.57,21.71-12.59,22.71-5.02,1-18.25-10.9-18.25-10.9l19.18-19.06Z"/><path class="cls-2" d="M57.29,103.23c2.4,4.79,1.48,10.12-2.06,11.89-3.54,1.78-8.36-.67-10.77-5.46-2.4-4.79-1.48-10.12,2.06-11.89,3.54-1.78,8.36,.67,10.77,5.46Z"/><path class="cls-11" d="M103.15,83.48c4.76,13.31,.98,34.81-18.04,43.61-10.27,4.75-23.92-1.89-33.48-18.39-13.65-23.57-5.13-35.55,9.54-42.86,14.68-7.32,35.56-.3,41.98,17.65Z"/><path class="cls-2" d="M90.93,68.08c-1.5-.97-3.09-1.8-4.71-2.5-5.15,1.14-14.76,3.48-23.23,5.65l-.67-2.93s-1.05-.7-2.59-1.72c-5.75,3.08-10.39,6.96-12.91,12.09l-.03,.06c-.21,.42-.4,.85-.57,1.29l-.03,.07c-2.76,6.99-1.73,16.18,5.45,28.59,5.19,8.96,11.59,15.01,17.99,17.91-6.76-9.75-2.24-25.45-1.19-29.74,5.86-2.3,10.1-15.58,10.1-15.58,8.16,4.3,17.47,5.17,17.47,5.17,0,0-3.36-12.37-5.07-18.37Z"/><g><path class="cls-6" d="M104.18,92.05c-.84,.26-19.54-7.61-27.33-17.07,0,0-2.23,11.97-8.35,17.26-6.12,5.29-5.01-8.63-5.01-8.63,0,0-15.75,22.98-28.28,19.09-12.53-3.9,2.12-16.9,2.12-16.9,0,0-20.33,1.46-8.44-9.95,11.9-11.41,42.48-36.15,51.78-17.35,0,0,11.84-6.84,17.55,4.48,5.97,11.83,5.96,29.08,5.96,29.08Z"/><path class="cls-7" d="M79.44,56.42c-10.51-14.75-39.13,8.46-50.54,19.42-11.9,11.41,8.44,9.95,8.44,9.95,0,0-13.49,11.99-3.47,16.39-.28-1-.45-2.03-.45-3.08,.02-3.23,1.64-6.28,3.83-8.65,2.19-2.37,4.91-4.17,7.61-5.94-2.13,.61-4.57,0-6.16-1.54-1.59-1.54-2.27-3.96-1.72-6.11,.6-2.33,2.44-4.1,4.24-5.69,5.61-4.96,11.69-9.52,18.61-12.38,6.17-2.55,13.09-3.66,19.61-2.36Z"/></g><g><path class="cls-6" d="M88.7,97.18c-1.72,.49-3.16,1.61-4.61,2.62-.54,.38-1.14,.76-1.73,1.17,.44-.56,.87-1.12,1.35-1.66,.99-1.13,1.92-2.74,3.16-3.57,.53-.35,.21-1.25-.44-1.05-1.45,.42-2.29,2.22-3.23,3.27-1.46,1.65-2.62,3.34-3.6,5.32-.04,.08-.04,.17-.03,.25-.01,.02-.02,.03-.03,.04-.17,.25,.11,.61,.4,.52,1.69-.54,3.1-1.97,4.56-2.95,1.44-.96,2.88-2.15,4.56-2.63,.85-.24,.49-1.57-.36-1.32Z"/><path class="cls-6" d="M66.61,108.66c-2.15-1.32-4.2-2.63-6.5-3.7-.72-.33-1.17,.72-.43,1.01,1.32,.52,2.62,1.05,3.84,1.78-.65-.14-1.3-.25-1.97-.36-1.68-.26-3.39-.8-5.08-.9-.55-.03-.68,.71-.27,.98,1.29,.84,2.99,.95,4.49,1.13,1.89,.22,3.79,.35,5.68,.56,0,0,.01,0,.02,0,.02,0,.05,0,.07,0,.28,0,.37-.37,.14-.51Z"/><path class="cls-6" d="M85.19,90.05c-2.19,.92-3.71,2.68-5.29,4.39-.6,.65-4.27,6.2-4.68,6.1-.19-.05-.36,.16-.26,.33,.06,.09,.11,.18,.17,.27,.12,.2,.39,.23,.56,.07,3.22-3.1,5.5-8.15,9.83-9.94,.75-.31,.41-1.54-.34-1.23Z"/><path class="cls-6" d="M66.16,103.23c-3.35-.82-6.45-2.27-9.74-3.38-.68-.23-.99,.87-.3,1.08,2.22,.68,4.4,1.54,6.57,2.36,.81,.31,2.85,1.3,3.57,.36,.11-.14,.09-.37-.11-.42Z"/><path class="cls-6" d="M72.76,112.93c-3.58-.82-3.4-5.93-3.72-8.85-.05-.44-.65-.44-.69,0-.28,3.08-.04,9.71,4.26,9.94,.62,.03,.75-.94,.15-1.08Z"/><path class="cls-1" d="M74.34,119.77s.01,.08,.03,.12c.43,1.44,2.61,2.11,3.52,1.27,1.65-1.51,4.95-3.3,7.11-2.44,1.33,.53,2.6-1.3,2.6-2.13,0-6.35-15.01-1.54-13.26,3.17Z"/></g><path class="cls-11" d="M111.27,89.78c.86,5.29-1.61,10.1-5.52,10.73-3.91,.64-7.78-3.13-8.64-8.42-.86-5.29,1.61-10.1,5.52-10.73,3.91-.64,7.78,3.13,8.64,8.42Z"/><g><path class="cls-11" d="M68.23,86.15c-.73-.19-1.92,.16-1.92,.16,0,0,.47-1.85,.24-2.67-.34-1.19-.62-1.41-1.68-2.05-.39-.24-1.39-.17-1.39-.17,0,0-.4-1.07-1.04-1.79-1.14-1.26-4.56,.22-6.31,2.57-.93,1.26-5.11,7.02-4.83,7.99-.64-2.24,1.89-8.87,2.36-11.22,.45-2.22,2.07-4.26-1.29-4.34-2.56-.06-6.87,10.9-7.41,14.76-1.31,9.31-2.09,18.86-4.15,28.03,.47,.75-.05,.98,.52,1.67,4.64,1.94,11.32,4.66,15.78,1.93,4.05-2.48,6.5-7.8,6.66-12.39,.18-5.14,1.04-9.06,3.6-13.7,.9-1.63,2.31-4.71,2.24-6.81-.03-.95-.49-1.74-1.38-1.98Z"/><g><path class="cls-6" d="M65.48,86.86c-4.29,2.34-5.2,7.92-6.83,12.09-.16,.4,.49,.58,.65,.18,1.7-4.35,2.67-8.85,6.38-12.01,.15-.12-.04-.34-.2-.26Z"/><path class="cls-6" d="M62.51,81.62c-5.12,3.14-8.05,10.73-9.04,16.33-.09,.5,.68,.72,.77,.21,1.1-6.17,4.1-11.78,8.53-16.21,.17-.17-.05-.46-.26-.33Z"/></g></g><path class="cls-11" d="M40.82,117.44c-1.32,4.76-11.74,48.05-13.43,56.53-2.7,13.56,16.57,18.75,24.66,7.4,5.8-8.14,4.25-59.9,4.25-59.9l-15.47-4.03Z"/><g><g><path class="cls-11" d="M129.91,113.65c-3.53-1.36-12.57-2.57-13.92,5.94-2.08,13.17,19.01,46.47,19.01,46.47l-50.43,7.28,2.07,13.87s81.57,10.03,77.25-13.02c-5.72-30.46-16.48-53.79-33.98-60.54Z"/><path class="cls-2" d="M155.46,143.97l-27.6,9.77c2.36,4.35,4.51,7.98,5.82,10.15,5.82,.09,15.83-.64,26.65-5.31-1.43-5.21-3.05-10.1-4.87-14.61Z"/><path class="cls-10" d="M129.91,113.65c-3.53-1.36-12.57-2.57-13.92,5.94-1.61,10.19,9.55,34.41,15.18,43.95,7.32-1.53,21.07-5.24,29.17-8.61-6.25-21.27-16.65-35.96-30.43-41.28Z"/></g><g><path class="cls-11" d="M95.44,170.58s-1.57-9.25-6.34-10.03c-8.1-1.33-9.83,.17-9.95,2.89,0,0-8.22-1.25-9.24,2.2-.74,2.51,1.09,3.64,1.09,3.64,0,0-3.09,.21-2.47,3.2,.36,1.74,2.34,2.39,2.34,2.39,0,0-1.44,1.17-1.29,3.7,.15,2.48,2.12,2.79,2.12,2.79,0,0-1.71,2.58,1.06,5.17,2.18,2.04,21.71,1.14,21.71,1.14l.97-17.09Z"/><g><path class="cls-6" d="M87.58,163.95c-.95-.09-1.9-.23-2.85-.36,.6-.68,1.21-1.41,2.17-1.5,.37-.03,.38-.56,0-.58-1.19-.05-1.96,1.16-2.59,2.02-1.49-.19-2.98-.32-4.47-.12-.13,.02-.23,.21-.08,.28,.97,.47,2.2,.29,3.25,.39,1.53,.14,3.04,.42,4.57,.57,.45,.04,.45-.66,0-.7Z"/><path class="cls-6" d="M75.18,169.7c-1.15-.26-2.32-.06-3.47-.4-.18-.05-.35,.2-.19,.33,.94,.77,2.42,.64,3.57,.71,.36,.02,.44-.55,.09-.63Z"/><path class="cls-6" d="M74.13,174.96c-.82-.07-1.8-.17-2.59,.09-.17,.06-.19,.33,0,.37,.81,.18,1.76,.3,2.59,.24,.45-.03,.45-.66,0-.7Z"/><path class="cls-6" d="M74.43,181.3c-.82,.02-1.62-.09-2.44,.02-.2,.03-.19,.36,0,.4,.82,.15,1.61,.32,2.44,.32,.47,0,.47-.74,0-.73Z"/></g></g></g><path class="cls-5" d="M81.27,156.97c-1.95-3.72-4.13-7.33-5.85-11.17-1.8-4.02-3.35-8.15-5.15-12.17-.04-.1-.21-.03-.18,.07,1.42,4.21,2.76,8.41,4.53,12.49,1.21,2.8,2.7,5.46,4.17,8.14-5.9-3.51-11.82-7.17-16.32-12.44-.13-.15-.38,.05-.27,.21,4.28,6.13,10.76,9.95,17.07,13.7,.12,.07,.23,.08,.34,.06,.28,.53,.57,1.05,.85,1.58,.28,.53,1.09,.06,.81-.47Z"/></g><g><path class="cls-12" d="M115.49,63.5c-6.28,2.89,.35,10.73,3.93,6.03,.98-1.29-1.2-2.53-2.17-1.27-1.63,.27-2.16-.36-1.6-1.87,.53-.47,1.14-.76,1.82-.87,.98-.17,2.07,.04,2.89,.61,1.84,1.28,1.94,3.94,.88,5.73-2.34,3.94-9.09,3.24-11.59-.12-4.72-6.34,5.85-12.5,11.22-11.65,1.07,.17,1.43-1.19,.44-1.6-9.57-4.01-21.73,11.01-10.93,17.22,4.84,2.78,12.58,1.35,13.94-4.72,1.15-5.13-3.84-9.77-8.83-7.48Z"/><path class="cls-12" d="M25.37,42.65c-2.91,.79-10.33,4.7-5.61,8.02,.41,.29,1-.29,.71-.71-1.79-2.53,3.11-4.2,4.85-4.74,2.74-.85,5.79-.4,7.61,2.03,2.09,2.79,1.38,8.71-2.65,9.49-1.94,.37-3.79-1.34-4.08-3.17-.34-2.1,.9-3.17,2.77-1.92,1.43,.96,2.77-1.35,1.35-2.31-4.98-3.34-8.52,2.62-5.87,6.99,3.95,6.5,11.72,1.53,12.26-4.53,.56-6.26-5.4-10.77-11.33-9.16Z"/><path class="cls-12" d="M55.97,34.22c-2.72,.36-5.26,1.2-7.87,1.96-1.03-4.06-1.94-8.14-2.33-12.32-.19-2.01-3.35-2.03-3.16,0,.47,4.99,1.56,9.85,2.87,14.69,.22,.81,1.11,1.32,1.93,1.1,2.48-.69,4.9-1.52,7.39-2.15,.41,3.09,.16,6.34-.39,9.38-.05,.3,.35,.41,.45,.12,1.25-3.57,2-7.17,2.54-10.91,.12-.81-.36-2-1.42-1.86Z"/><path class="cls-12" d="M91.98,22.48c-.18-2.08-3.33-2.16-3.3,0,.02,1.96-1.67,3.81-2.47,5.52-.85,1.82-1.47,3.77-2.08,5.7-2.21-.56-4.35-1.26-6.67-1.35-.57-.02-1.24,.56-1.16,1.16,.58,4.32-.43,8.63,.37,13,.1,.55,1.05,.43,.99-.13-.37-3.66-.19-7.84,.67-11.51,2.16,.47,4.23,1.25,6.38,1.83,.8,.21,1.42-.27,1.72-.97,1.27-3.03,2.49-5.98,4.12-8.82,.82-1.43,1.6-2.74,1.45-4.42Z"/><path class="cls-12" d="M116.58,41.43c-2.72,1.14-4.33,3.01-6.58,4.81-.65,.81-1.48,1.33-2.51,1.56-.37-.41-.78-.78-1.2-1.13-.79-.35-1.34-1.03-2.23-1.29-4.04-1.19-6.3,3.77-8.65,6.09-.45,.44,.16,1.31,.7,.9,1.54-1.17,3.03-3.52,4.83-4.23,3.49-1.39,3.65,2.05,6.04,2.78,1.26,.38,2.21-.25,3.22-.94,2.69-1.83,4.47-4.46,7.49-5.93,1.43-.7,.4-3.24-1.1-2.61Z"/><path class="cls-12" d="M21.75,84.95c-2.44,.42-4.85,1.09-7.28,1.62-1.72,.37-4.62,.32-5.77,1.77-.32,.4-.37,1.07,.17,1.34,1.8,.91,4.39-.32,6.24-.78,2.45-.6,5.03-1.27,7.19-2.63,.73-.46,.23-1.47-.56-1.33Z"/><path class="cls-12" d="M21.38,68.36c-1.46-1.19-3.09-2.06-4.87-2.67-1.25-.43-3.42-1.67-4.7-1.24-.43,.14-.83,.65-.64,1.12,.55,1.37,2.22,1.52,3.52,1.89,1.97,.56,3.98,1.05,5.76,2.1,.72,.42,1.61-.64,.92-1.2Z"/></g></g></g><polygon class="cls-8" points="194.76 211.62 41.56 208.51 47.72 173.83 194.18 182.2 194.76 211.62"/><text class="cls-9" transform="translate(96.05 199.18)"><tspan x="0" y="0">LEGEND</tspan></text></g></svg>