<svg id="eflIQXr3q5L1" xmlns="http://www.w3.org/2000/svg" xmlns:xlink="http://www.w3.org/1999/xlink" viewBox="0 0 1671.23 122.05" shape-rendering="geometricPrecision" text-rendering="geometricPrecision"><g><g><path id="eflIQXr3q5L4" d="M13.45,102.37v-28q0-7.32-7.2-7.32c-1.627492.057612-3.208491-.548799-4.38-1.68-1.158116-1.117116-1.790115-2.671687-1.74-4.28-.039093-1.632085.594136-3.208539,1.751359-4.360088s2.736768-1.777024,4.368641-1.729912q7.2,0,7.2-7.32v-28Q13.45,0.13,33,0.13c1.632001-.049993,3.206338.605981,4.32,1.8C38.4366,3.134893,39.039299,4.72774,39,6.37c.053957,1.609088-.553114,3.170129-1.68,4.32-1.149222,1.127891-2.710711,1.735137-4.32,1.68-4.89,0-7.32,2.44-7.32,7.32v28c0,5.52-1.29,10-3.84,13.44c2.55,3.28,3.84,7.72,3.84,13.32v28c0,4.87,2.43,7.32,7.32,7.32c1.621398-.057751,3.191276.574561,4.32,1.74c1.10541,1.155531,1.709279,2.701148,1.68,4.3.042901,1.625001-.561402,3.200505-1.68,4.38-1.134368,1.157022-2.700368,1.787772-4.32,1.74q-19.56,0-19.55-19.56Z" transform="translate(648.336847 3.10262)" fill="#388e3c" stroke="#1d1d1b" stroke-width="0.25" stroke-miterlimit="10"/><path id="eflIQXr3q5L5" d="M174.54,34.45Q181,41.29,181,53.53v34.32c.051866,1.626527-.553716,3.205366-1.68,4.38-1.756622,1.807826-4.438569,2.360684-6.766936,1.394941s-3.831676-3.254532-3.793064-5.774941v-34.32q0-7.32-3.66-11.1c-2.584788-2.577091-6.133903-3.948835-9.78-3.78-3.910059-.125964-7.67991,1.463073-10.32,4.35-2.714166,3.00632-4.149133,6.95248-4,11v33.85c.051866,1.626527-.553716,3.205366-1.68,4.38-1.756622,1.807826-4.438569,2.360684-6.766936,1.394941s-3.831676-3.254532-3.793064-5.774941v-34.32q0-7.32-3.66-11.1c-2.584788-2.577091-6.133903-3.948835-9.78-3.78-3.927276-.124806-7.715078,1.462568-10.38,4.35-2.714166,3.00632-4.149133,6.95248-4,11v33.85c.051866,1.626527-.553716,3.205366-1.68,4.38-1.756622,1.807826-4.438569,2.360684-6.766936,1.394941s-3.831676-3.254532-3.793064-5.774941v-53.4c-.079958-1.659532.544698-3.275647,1.72-4.45c1.174634-1.126284,2.753473-1.731866,4.38-1.68c1.606904-.041285,3.163177.563932,4.32,1.68c1.14047,1.125597,1.787821,2.65766,1.8,4.26c2.123581-2.109234,4.655222-3.762967,7.44-4.86c2.97849-1.178551,6.156951-1.769419,9.36-1.74c3.809963-.064871,7.580615.778384,11,2.46c3.221364,1.610866,5.975774,4.020975,8,7c2.420767-2.995422,5.500863-5.391053,9-7c3.764687-1.716279,7.862943-2.576913,12-2.52q10.4.01,16.82,6.85Z" transform="translate(612.737075 3.618574)" fill="#388e3c" stroke="#1d1d1b" stroke-width="0.25" stroke-miterlimit="10"/><path id="eflIQXr3q5L6" d="M203,15.19c-1.516702-1.457323-2.363563-3.47676-2.34-5.58-.031899-2.113621.81563-4.145518,2.34-5.61c1.470438-1.49763,3.481171-2.341314,5.58-2.341314s4.109562.843684,5.58,2.341314c1.516702,1.457323,2.363563,3.47676,2.34,5.58.023563,2.10324-.823298,4.122677-2.34,5.58-1.470438,1.49763-3.481171,2.341314-5.58,2.341314s-4.109562-.843684-5.58-2.341314Zm1.2,76.92c-1.159168-1.157597-1.788798-2.742527-1.74-4.38v-53.4c-.071858-1.659115.560012-3.271473,1.74-4.44c1.747031-1.838709,4.450739-2.402144,6.7868-1.414324s3.815316,3.320051,3.7132,5.854324v53.4c.046529,1.6294-.566416,3.208635-1.7,4.38-2.482597,2.31928-6.337403,2.31928-8.82,0Z" opacity="0" fill="#388e3c" stroke="#1d1d1b" stroke-width="0.25" stroke-miterlimit="10"/><path id="eflIQXr3q5L7" d="M284.22,32c4.943301,2.771488,9.021094,6.859666,11.78,11.81c2.902885,5.28984,4.371498,11.24703,4.26,17.28v25.91c.071771,6.02113-1.372565,11.963538-4.2,17.28-2.72433,5.115919-6.816519,9.374289-11.82,12.3-5.223844,3.03836-11.177541,4.594204-17.22,4.5-5.545338.046976-11.03376-1.120338-16.08-3.42-4.88063-2.217731-9.159765-5.571091-12.48-9.78-.806863-.938768-1.272121-2.12306-1.32-3.36.050602-1.774872.999942-3.402311,2.52-4.32.986389-.672245,2.146602-1.04393,3.34-1.07c1.955163-.022504,3.795754.920238,4.92,2.52c2.145517,2.783577,4.949691,4.989803,8.16,6.42c3.520064,1.524362,7.324536,2.281165,11.16,2.22c3.749156.04024,7.439416-.934155,10.68-2.82c3.289563-1.980579,5.951998-4.851017,7.68-8.28c2.006938-4.03322,2.995732-8.496527,2.88-13v-5.9c-2.325477,4.238099-5.717378,7.795459-9.84,10.32-4.16216,2.504823-8.942808,3.79352-13.8,3.72-5.593525.090252-11.100859-1.385298-15.9-4.26-4.684698-2.833983-8.476198-6.930467-10.94-11.82-2.665621-5.321505-4.003711-11.209101-3.9-17.16-.111046-6.025532,1.33565-11.977654,4.2-17.28c2.736113-4.967484,6.819491-9.061261,11.78-11.81c5.250122-2.893449,11.166221-4.36213,17.16-4.26c5.936061-.097252,11.792859,1.372122,16.98,4.26Zm-6,48.66c3.221693-1.90327,5.841829-4.675902,7.56-8c1.842324-3.577859,2.769935-7.556277,2.7-11.58.064991-4.04237-.862069-8.03903-2.7-11.64-1.713693-3.327273-4.334885-6.101021-7.56-8-6.826664-3.855164-15.173336-3.855164-22,0-3.233413,1.907571-5.871916,4.677653-7.62,8-1.875998,3.589236-2.82477,7.590582-2.76,11.64-.069692,4.030816.879658,8.013959,2.76,11.58c1.752812,3.318949,4.390211,6.087872,7.62,8c6.826664,3.855164,15.173336,3.855164,22,0Z" opacity="0" fill="#388e3c" stroke="#1d1d1b" stroke-width="0.25" stroke-miterlimit="10"/><path id="eflIQXr3q5L8" d="M377,29.77c1.146573,1.186109,1.754199,2.791977,1.68,4.44v53.52c.051866,1.626527-.553716,3.205366-1.68,4.38-1.756622,1.807826-4.438569,2.360684-6.766936,1.394941s-3.831676-3.254532-3.793064-5.774941v-1.32c-2.599374,2.585846-5.704012,4.607946-9.12,5.94-3.59153,1.413441-7.420439,2.12627-11.28,2.1-5.185106.081937-10.305782-1.156937-14.88-3.6-4.402614-2.402496-7.993983-6.056506-10.32-10.5q-3.72-6.9-3.72-16.62v-29.52c0-3.379983,2.740017-6.12,6.12-6.12s6.12,2.740017,6.12,6.12v29.52q0,9.72,5.22,14.7t13.86,5c3.17364.053723,6.31633-.630959,9.18-2c2.611331-1.232739,4.847784-3.137865,6.48-5.52c1.554302-2.301899,2.370528-5.022653,2.34-7.8v-33.9c-.071858-1.659115.560012-3.271473,1.74-4.44c2.513656-2.239152,6.306344-2.239152,8.82,0Z" opacity="0" fill="#388e3c" stroke="#1d1d1b" stroke-width="0.25" stroke-miterlimit="10"/><path id="eflIQXr3q5L9" d="M457.68,63.79c-1.075519,1.02052-2.518651,1.561694-4,1.5h-45.6c.724411,5.324141,3.449016,10.17265,7.62,13.56c6.497685,5.076661,15.122493,6.521655,22.92,3.84c2.300593-.727037,4.468549-1.821146,6.42-3.24c1.139238-.891814,2.553727-1.358596,4-1.32c1.308997-.072802,2.596483.35636,3.6,1.2c1.312572.952472,2.110159,2.459024,2.16,4.08-.000888,1.444778-.720679,2.794387-1.92,3.6-3.04905,2.333427-6.479967,4.11994-10.14,5.28-9.624929,3.355521-20.212496,2.551127-29.22-2.22-5.083053-2.726757-9.302013-6.821018-12.18-11.82-2.954379-5.229293-4.453049-11.154912-4.34-17.16-.09785-5.997679,1.326526-11.922256,4.14-17.22c2.637854-4.954909,6.615946-9.068146,11.48-11.87c5.100428-2.887001,10.880002-4.357788,16.74-4.26c5.609028-.154852,11.150042,1.258106,16,4.08c4.475613,2.715319,8.062066,6.677098,10.32,11.4c2.480875,5.246984,3.713059,10.997173,3.6,16.8.0294,1.427471-.552858,2.799417-1.6,3.77ZM415.14,42.85c-3.721628,3.348588-6.161274,7.888451-6.9,12.84h40q-1.08-8-6-12.84t-12.84-4.8q-8.8,0-14.26,4.8Z" opacity="0" fill="#388e3c" stroke="#1d1d1b" stroke-width="0.25" stroke-miterlimit="10"/><path id="eflIQXr3q5L10" d="M481.14,91c-2.843652-1.982188-5.069187-4.727707-6.42-7.92-1.56386-3.615161-2.341049-7.521559-2.28-11.46v-65.49c0-3.313708,2.686292-6,6-6s6,2.686292,6,6v65.52c-.104162,2.555858.475801,5.093196,1.68,7.35q1.68,2.88,4.32,2.88h3c1.485042-.047275,2.914185.568356,3.9,1.68c1.028651,1.198303,1.564681,2.742068,1.5,4.32.014698,1.731759-.841986,3.354951-2.28,4.32-1.72635,1.181986-3.789786,1.771538-5.88,1.68h-.24c-3.322542.02014-6.570339-.985629-9.3-2.88Z" opacity="0" fill="#388e3c" stroke="#1d1d1b" stroke-width="0.25" stroke-miterlimit="10"/><path id="eflIQXr3q5L11" d="M592.5,32.11c4.950759,2.880011,9.04989,7.020547,11.88,12c2.947015,5.17584,4.459058,11.044502,4.38,17v26.74c0,3.379983-2.740017,6.12-6.12,6.12s-6.12-2.740017-6.12-6.12v-4.44c-5.655554,6.975295-14.180332,10.99475-23.16,10.92-5.523953.062867-10.952996-1.438267-15.66-4.33-4.684166-2.905718-8.487261-7.033805-11-11.94-2.719803-5.248263-4.094238-11.08961-4-17-.080102-5.947974,1.410015-11.81186,4.32-17c2.810094-5.014844,6.939305-9.164804,11.94-12c5.129974-2.93463,10.950327-4.446679,16.86-4.38c5.857133-.049574,11.619307,1.480787,16.68,4.43Zm-5.88,48.48c3.215985-1.929424,5.849242-4.693997,7.62-8c1.872936-3.540053,2.822244-7.495504,2.76-11.5.050668-4.009587-.897867-7.968688-2.76-11.52-2.745037-5.039754-7.41937-8.748392-12.951275-10.275605s-11.446871-.742001-16.388725,2.175605c-3.243828,1.957749-5.897576,4.756624-7.68,8.1-1.904467,3.537665-2.875064,7.502658-2.82,11.52-.059958,3.99881.91125,7.945636,2.82,11.46c1.802082,3.302875,4.453399,6.064663,7.68,8c6.70952,3.919527,15.01048,3.919527,21.72,0Z" transform="translate(269.196518 0.346876)" fill="#388e3c" stroke="#1d1d1b" stroke-width="0.25" stroke-miterlimit="10"/><path id="eflIQXr3q5L12" d="M669.11,29.41q3.6,1.92,3.6,4.8c.017796.403686-.022619.807832-.12,1.2q-1.08,3.84-4.8,3.84c-.602934-.029726-1.201994-.113394-1.79-.25-2.572254-.495505-5.181225-.776471-7.8-.84q-8.64,0-13.92,4c-3.420817,2.451683-5.399636,6.44305-5.28,10.65v35c.105608,1.619968-.433587,3.215985-1.5,4.44-1.220536,1.118568-2.849016,1.683108-4.5,1.56-1.619968.105608-3.215985-.433587-4.44-1.5-1.118568-1.220536-1.683108-2.849016-1.56-4.5v-53.6c-.106332-1.630685.457062-3.234193,1.56-4.44c1.205807-1.102938,2.809315-1.666332,4.44-1.56q6,0,6,6v2.28c2.437261-2.827724,5.469648-5.081526,8.88-6.6c3.54268-1.604848,7.39084-2.423605,11.28-2.4q6.35,0,9.95,1.92Z" opacity="0" fill="#388e3c" stroke="#1d1d1b" stroke-width="0.25" stroke-miterlimit="10"/><path id="eflIQXr3q5L13" d="M771.17,34.45q6.42,6.84,6.42,19.08v34.32c.051866,1.626527-.553716,3.205366-1.68,4.38-1.756622,1.807826-4.438569,2.360684-6.766936,1.394941s-3.831676-3.254532-3.793064-5.774941v-34.32q0-7.32-3.66-11.1c-2.584788-2.577091-6.133903-3.948835-9.78-3.78-3.889346-.108324-7.63373,1.479207-10.26,4.35-2.714166,3.00632-4.149133,6.95248-4,11v33.85c.059897,1.622238-.53465,3.200492-1.65,4.38-1.756622,1.807826-4.438569,2.360684-6.766936,1.394941s-3.831676-3.254532-3.793064-5.774941v-34.32q0-7.32-3.66-11.1c-2.584788-2.577091-6.133903-3.948835-9.78-3.78-3.94451-.139506-7.753536,1.44911-10.43,4.35-2.714166,3.00632-4.149133,6.95248-4,11v33.85c.051866,1.626527-.553716,3.205366-1.68,4.38-1.756622,1.807826-4.438569,2.360684-6.766936,1.394941s-3.831676-3.254532-3.793064-5.774941v-53.4c-.079958-1.659532.544698-3.275647,1.72-4.45c1.174634-1.126284,2.753473-1.731866,4.38-1.68c1.606904-.041285,3.163177.563932,4.32,1.68c1.14047,1.125597,1.787821,2.65766,1.8,4.26c2.121892-2.128352,4.657362-3.799379,7.45-4.91c2.97849-1.178551,6.156951-1.769419,9.36-1.74c3.809963-.064871,7.580615.778384,11,2.46c3.221364,1.610866,5.975774,4.020975,8,7c2.420767-2.995422,5.500863-5.391053,9-7c3.764687-1.716279,7.862943-2.576913,12-2.52q10.39.06,16.81,6.9Z" opacity="0" fill="#388e3c" stroke="#1d1d1b" stroke-width="0.25" stroke-miterlimit="10"/><path id="eflIQXr3q5L14" d="M844.37,32.11c4.954898,2.87466,9.055282,7.016462,11.88,12c2.947015,5.17584,4.459058,11.044502,4.38,17v26.74c0,3.379983-2.740017,6.12-6.12,6.12s-6.12-2.740017-6.12-6.12v-4.44c-9.534585,11.486111-26.02907,14.28618-38.82,6.59-4.684166-2.905718-8.487261-7.033805-11-11.94-2.715478-5.249864-4.089652-11.090106-4-17-.080102-5.947974,1.410015-11.81186,4.32-17c2.812959-5.01268,6.941483-9.16195,11.94-12c5.130526-2.933274,10.950504-4.445226,16.86-4.38c5.857133-.049574,11.619307,1.480787,16.68,4.43Zm-5.88,48.48c3.215985-1.929424,5.849242-4.693997,7.62-8c1.870863-3.526443,2.820252-7.468472,2.76-11.46.05702-4.010294-.891884-7.970937-2.76-11.52-2.745037-5.039754-7.41937-8.748392-12.951275-10.275605s-11.446871-.742001-16.388725,2.175605c-3.241008,1.961251-5.893928,4.759253-7.68,8.1-1.904467,3.537665-2.875064,7.502658-2.82,11.52-.059958,3.99881.91125,7.945636,2.82,11.46c1.804831,3.300861,4.455524,6.061999,7.68,8c6.70952,3.919527,15.01048,3.919527,21.72,0Z" opacity="0" fill="#388e3c" stroke="#1d1d1b" stroke-width="0.25" stroke-miterlimit="10"/><path id="eflIQXr3q5L15" d="M887.39,91.81c-4.206991-1.327106-8.061966-3.582676-11.28-6.6-1.011135-.971549-1.575708-2.31784-1.56-3.72-.029683-1.862426.870245-3.617286,2.4-4.68c1.186084-.991783,2.657123-1.580199,4.2-1.68c1.751092.06748,3.398498.84783,4.56,2.16c1.928028,1.947875,4.264141,3.443807,6.84,4.38c3.087376,1.249043,6.389601,1.88095,9.72,1.86q6.84,0,10.62-2.28t3.78-6.12q0-3.72-3.72-6.18t-12.6-4.14q-23-4.44-23-19c-.110958-3.648132,1.128193-7.208911,3.48-10c2.448351-2.807151,5.594329-4.918267,9.12-6.12c3.85258-1.362058,7.913919-2.038948,12-2c4.786252-.079811,9.541994.776223,14,2.52c3.803605,1.461132,7.170291,3.870826,9.78,7c.952253,1.058689,1.50413,2.417156,1.56,3.84-.057489,1.48203-.795464,2.854662-2,3.72-.983176.686285-2.161562,1.036995-3.36,1-2.1028-.008723-4.121886-.824949-5.64-2.28-1.822732-1.732033-3.98974-3.060859-6.36-3.9-2.640491-.818606-5.396259-1.203603-8.16-1.14-3.125756-.119091-6.233993.519024-9.06,1.86q-3.54,1.86-3.54,5.22c-.04568,1.428358.375611,2.832662,1.2,4c1.233882,1.378799,2.8054,2.412692,4.56,3c3.155433,1.180596,6.407732,2.084012,9.72,2.7q13.08,2.64,18.54,7.32c3.581313,2.989698,5.593682,7.456715,5.46,12.12.030053,3.559413-1.015599,7.044923-3,10-2.197568,3.159453-5.26004,5.617764-8.82,7.08-4.435305,1.828182-9.204373,2.707053-14,2.58-5.252545.044415-10.474154-.807816-15.44-2.52Z" opacity="0" fill="#388e3c" stroke="#1d1d1b" stroke-width="0.25" stroke-miterlimit="10"/><path id="eflIQXr3q5L16" d="M1040.27,1.81c1.16484,1.177738,1.790954,2.784644,1.73,4.44v54.75c.079058,5.955498-1.432985,11.82416-4.38,17-5.848434,10.254989-16.815952,16.512836-28.62,16.33-5.921814.089366-11.75991-1.405545-16.91-4.33-4.998517-2.83805-9.127041-6.98732-11.94-12-2.909985-5.18814-4.400102-11.052026-4.32-17-.089652-5.909894,1.284522-11.750136,4-17c2.512739-4.906195,6.315834-9.034282,11-11.94c12.769168-7.820314,29.352731-5.000852,38.82,6.6v-32.41c-.071858-1.659115.560012-3.271473,1.74-4.44c2.513656-2.239152,6.306344-2.239152,8.82,0Zm-20.46,78.78c3.232921-1.952381,5.868502-4.753984,7.62-8.1c1.863243-3.540112,2.812-7.48983,2.76-11.49.060252-3.991528-.889137-7.933557-2.76-11.46-2.76841-5.016413-7.450251-8.697934-12.978064-10.205176s-11.430386-.711725-16.361936,2.205176c-3.224476,1.938001-5.875169,4.699139-7.68,8-1.90875,3.514364-2.879958,7.46119-2.82,11.46-.055064,4.017342.915533,7.982335,2.82,11.52c1.786072,3.340747,4.438992,6.138749,7.68,8.1c6.70952,3.919527,15.01048,3.919527,21.72,0Z" transform="translate(-82.451141-.521791)" fill="#00bcd4" stroke="#1d1d1b" stroke-width="0.25" stroke-miterlimit="10"/><path id="eflIQXr3q5L17" d="M1120.91,63.79c-1.075519,1.02052-2.518651,1.561694-4,1.5h-45.6c.742352,5.33458,3.492873,10.184654,7.69,13.56c6.497685,5.076661,15.122493,6.521655,22.92,3.84c2.300593-.727037,4.468549-1.821146,6.42-3.24c1.139238-.891814,2.553727-1.358596,4-1.32c1.308997-.072802,2.596483.35636,3.6,1.2c1.312572.952472,2.110159,2.459024,2.16,4.08-.000888,1.444778-.720679,2.794387-1.92,3.6-3.061158,2.337514-6.505932,4.124194-10.18,5.28-9.624929,3.355521-20.212496,2.551127-29.22-2.22-5.083053-2.726757-9.302013-6.821018-12.18-11.82-2.968327-5.225374-4.48087-11.15123-4.38-17.16-.09785-5.997679,1.326526-11.922256,4.14-17.22c2.640567-4.956251,6.622258-9.069625,11.49-11.87c5.100428-2.887001,10.880002-4.357788,16.74-4.26c5.609028-.154852,11.150042,1.258106,16,4.08c4.475613,2.715319,8.062066,6.677098,10.32,11.4c2.480875,5.246984,3.713059,10.997173,3.6,16.8.0294,1.427471-.552858,2.799417-1.6,3.77Zm-42.54-20.94c-3.721628,3.348588-6.161274,7.888451-6.9,12.84h40q-1.08-8-6-12.84t-12.84-4.8q-8.8,0-14.26,4.8Z" opacity="0" fill="#00bcd4" stroke="#1d1d1b" stroke-width="0.25" stroke-miterlimit="10"/><path id="eflIQXr3q5L18" d="M1188.59,31c.556513.834469.849189,1.817024.84,2.82-.019547.796379-.225015,1.577158-.6,2.28l-25.44,53.64q-1.8,4-5.52,4c-1.185418.048257-2.357418-.265671-3.36-.9-1.043688-.802864-1.868947-1.855069-2.4-3.06l-25.44-53.64c-.327448-.6723-.491891-1.412291-.48-2.16q0-3.24,3.36-4.92c.774522-.413128,1.642408-.619767,2.52-.6.973844.003955,1.928138.273647,2.76.78.86837.529759,1.563408,1.301251,2,2.22l20.88,45l20.64-45c.457696-.936515,1.190337-1.711021,2.1-2.22.894625-.513363,1.90855-.782363,2.94-.78.954307-.019054,1.899732.186473,2.76.6.979438.404596,1.825074,1.076946,2.44,1.94Z" opacity="0" fill="#00bcd4" stroke="#1d1d1b" stroke-width="0.25" stroke-miterlimit="10"/><path id="eflIQXr3q5L19" d="M1256.39,63.79c-1.075519,1.02052-2.518651,1.561694-4,1.5h-45.6c.724411,5.324141,3.449016,10.17265,7.62,13.56c6.497685,5.076661,15.122493,6.521655,22.92,3.84c2.300593-.727037,4.468549-1.821146,6.42-3.24c1.139238-.891814,2.553727-1.358596,4-1.32c1.308997-.072802,2.596483.35636,3.6,1.2c1.312572.952472,2.110159,2.459024,2.16,4.08-.000888,1.444778-.720679,2.794387-1.92,3.6-3.04905,2.333427-6.479967,4.11994-10.14,5.28-9.624929,3.355521-20.212496,2.551127-29.22-2.22-5.083053-2.726757-9.302013-6.821018-12.18-11.82-2.968327-5.225374-4.48087-11.15123-4.38-17.16-.09785-5.997679,1.326526-11.922256,4.14-17.22c2.648705-4.96028,6.641192-9.074066,11.52-11.87c5.100428-2.887001,10.880002-4.357788,16.74-4.26c5.609028-.154852,11.150042,1.258106,16,4.08c4.475613,2.715319,8.062066,6.677098,10.32,11.4c2.481302,5.240082,3.716841,10.983113,3.61,16.78.032605,1.435939-.553883,2.816553-1.61,3.79Zm-42.54-20.94c-3.721628,3.348588-6.161274,7.888451-6.9,12.84h40q-1.08-8-6-12.84t-12.84-4.8q-8.8,0-14.26,4.8Z" opacity="0" fill="#00bcd4" stroke="#1d1d1b" stroke-width="0.25" stroke-miterlimit="10"/><path id="eflIQXr3q5L20" d="M1279.85,91c-2.843652-1.982188-5.069187-4.727707-6.42-7.92-1.56386-3.615161-2.341049-7.521559-2.28-11.46v-65.49c0-3.313708,2.686292-6,6-6s6,2.686292,6,6v65.52c-.098794,2.545785.481009,5.072068,1.68,7.32q1.68,2.88,4.32,2.88h3c1.485042-.047275,2.914185.568356,3.9,1.68c1.028651,1.198303,1.564681,2.742068,1.5,4.32.014698,1.731759-.841986,3.354951-2.28,4.32-1.72635,1.181986-3.789786,1.771538-5.88,1.68h-.24c-3.319316.028948-6.566831-.966258-9.3-2.85Z" opacity="0" fill="#00bcd4" stroke="#1d1d1b" stroke-width="0.25" stroke-miterlimit="10"/><path id="eflIQXr3q5L21" d="M1318.55,90.07c-4.954497-2.754444-9.030806-6.851549-11.76-11.82-2.860023-5.260693-4.307112-11.173085-4.2-17.16-.116962-6.026184,1.330095-11.979791,4.2-17.28c2.730697-4.964763,6.806867-9.058264,11.76-11.81c5.250122-2.893449,11.166221-4.36213,17.16-4.26c5.942652-.099361,11.806438,1.370035,17,4.26c4.935044,2.780083,9.005068,6.870872,11.76,11.82c2.898535,5.291536,4.366858,11.247551,4.26,17.28.102555,5.986405-1.344254,11.897654-4.2,17.16-2.720318,4.954807-6.773208,9.049265-11.7,11.82-10.713689,5.680167-23.546311,5.680167-34.26,0Zm28.14-9.42c3.221693-1.90327,5.841829-4.675902,7.56-8c1.842324-3.577859,2.769935-7.556277,2.7-11.58.064991-4.04237-.862069-8.03903-2.7-11.64-1.713693-3.327273-4.334885-6.101021-7.56-8-6.826664-3.855164-15.173336-3.855164-22,0-3.233413,1.907571-5.871916,4.677653-7.62,8-1.875998,3.589236-2.82477,7.590582-2.76,11.64-.069692,4.030816.879658,8.013959,2.76,11.58c1.752812,3.318949,4.390211,6.087872,7.62,8c6.826664,3.855164,15.173336,3.855164,22,0Z" opacity="0" fill="#00bcd4" stroke="#1d1d1b" stroke-width="0.25" stroke-miterlimit="10"/><path id="eflIQXr3q5L22" d="M1436.8,32.11c4.998517,2.83805,9.127041,6.98732,11.94,12c2.909985,5.18814,4.400102,11.052026,4.32,17c.089652,5.909894-1.284522,11.750136-4,17-2.536597,4.895517-6.360507,9.006394-11.06,11.89-12.769168,7.820314-29.352731,5.000852-38.82-6.6v32.4c-.046815,2.463655-1.539057,4.669047-3.808592,5.628736s-4.891291.493931-6.691408-1.188736c-1.176809-1.170616-1.808106-2.781512-1.74-4.44v-54.71c-.079058-5.955498,1.432985-11.82416,4.38-17c5.835454-10.274259,16.805471-16.552696,28.62-16.38c5.911332-.059143,11.73143,1.459744,16.86,4.4Zm-6,48.48c3.224476-1.938001,5.875169-4.699139,7.68-8c1.90875-3.514364,2.879958-7.46119,2.82-11.46.055064-4.017342-.915533-7.982335-2.82-11.52-1.786072-3.340747-4.438992-6.138749-7.68-8.1-4.923062-2.996688-10.865451-3.826317-16.421017-2.292572s-10.230649,5.294578-12.918983,10.392572c-1.868116,3.549063-2.81702,7.509706-2.76,11.52-.060252,3.991528.889137,7.933557,2.76,11.46c2.76841,5.016413,7.450251,8.697934,12.978064,10.205176s11.430386.711725,16.361936-2.205176Z" opacity="0" fill="#00bcd4" stroke="#1d1d1b" stroke-width="0.25" stroke-miterlimit="10"/><path id="eflIQXr3q5L23" d="M1528.66,63.79c-1.075519,1.02052-2.518651,1.561694-4,1.5h-45.6c.724411,5.324141,3.449016,10.17265,7.62,13.56c6.497685,5.076661,15.122493,6.521655,22.92,3.84c2.300593-.727037,4.468549-1.821146,6.42-3.24c1.139238-.891814,2.553727-1.358596,4-1.32c1.308997-.072802,2.596483.35636,3.6,1.2c1.312572.952472,2.110159,2.459024,2.16,4.08-.000888,1.444778-.720679,2.794387-1.92,3.6-3.04905,2.333427-6.479967,4.11994-10.14,5.28-9.624929,3.355521-20.212496,2.551127-29.22-2.22-5.083053-2.726757-9.302013-6.821018-12.18-11.82-2.968327-5.225374-4.48087-11.15123-4.38-17.16-.09785-5.997679,1.326526-11.922256,4.14-17.22c2.648705-4.96028,6.641192-9.074066,11.52-11.87c5.100428-2.887001,10.880002-4.357788,16.74-4.26c5.609028-.154852,11.150042,1.258106,16,4.08c4.475613,2.715319,8.062066,6.677098,10.32,11.4c2.480875,5.246984,3.713059,10.997173,3.6,16.8.0294,1.427471-.552858,2.799417-1.6,3.77Zm-42.54-20.94c-3.721628,3.348588-6.161274,7.888451-6.9,12.84h40q-1.08-8-6-12.84t-12.84-4.8q-8.8,0-14.26,4.8Z" opacity="0" fill="#00bcd4" stroke="#1d1d1b" stroke-width="0.25" stroke-miterlimit="10"/><path id="eflIQXr3q5L24" d="M1587.94,29.41q3.6,1.92,3.6,4.8c.017796.403686-.022619.807832-.12,1.2q-1.08,3.84-4.8,3.84c-.605984-.025844-1.208414-.106168-1.8-.24-2.572254-.495505-5.181225-.776471-7.8-.84q-8.64,0-13.92,4c-3.429792,2.457677-5.409733,6.462558-5.28,10.68v35c.105608,1.619968-.433587,3.215985-1.5,4.44-1.220536,1.118568-2.849016,1.683108-4.5,1.56-1.619968.105608-3.215985-.433587-4.44-1.5-1.118568-1.220536-1.683108-2.849016-1.56-4.5v-53.64c-.106332-1.630685.457062-3.234193,1.56-4.44c1.205807-1.102938,2.809315-1.666332,4.44-1.56q6,0,6,6v2.28c2.437261-2.827724,5.469648-5.081526,8.88-6.6c3.54268-1.604848,7.39084-2.423605,11.28-2.4q6.36,0,9.96,1.92Z" opacity="0" fill="#00bcd4" stroke="#1d1d1b" stroke-width="0.25" stroke-miterlimit="10"/><path id="eflIQXr3q5L25" d="M1633.9,120.19c-1.123376-1.176477-1.728472-2.754047-1.68-4.38-.057612-1.627492.548799-3.208491,1.68-4.38c1.126553-1.168662,2.697933-1.801579,4.32-1.74c4.88,0,7.32-2.45,7.32-7.32v-28q0-8.4,3.84-13.32-3.84-5.16-3.84-13.44v-28q0-7.32-7.32-7.32c-1.612229.071763-3.180405-.537301-4.321552-1.678448s-1.750211-2.709323-1.678448-4.321552c-.044656-1.643169.558783-3.237972,1.68-4.44c1.11136-1.197326,2.687272-1.853956,4.32-1.8q19.56,0,19.56,19.56v28q0,7.32,7.2,7.32c1.637221-.047486,3.22161.582037,4.379786,1.740214s1.7877,2.742565,1.740214,4.379786c.056486,1.621176-.575627,3.190559-1.74,4.32-1.174634,1.126284-2.753473,1.731866-4.38,1.68q-7.2,0-7.2,7.32v28q0,19.55-19.56,19.56c-1.620291.051476-3.187724-.579852-4.32-1.74Z" transform="translate(-650.617799 0.331914)" fill="#388e3c" stroke="#1d1d1b" stroke-width="0.25" stroke-miterlimit="10"/></g></g></svg>