<?xml version="1.0" encoding="UTF-8"?><svg id="Capa_2" width="200" height="200" xmlns="http://www.w3.org/2000/svg" viewBox="0 0 182.74 235.71"><defs><style>.cls-1{fill:#00857c;}.cls-2{fill:#fff;}.cls-3{fill:#079191;}.cls-4{fill:#ffcebd;}.cls-5{fill:#ed9996;}.cls-6{fill:#e2f4f7;}.cls-7{fill:#fed353;}.cls-8{fill:#282828;}.cls-9{fill:#424242;}.cls-10{fill:#351e48;}.cls-11{fill:#ffd34f;font-family:Montserrat-Bold, Montserrat;font-size:11px;}.cls-12{fill:#ffb1a5;}.cls-13{fill:none;stroke:#024154;stroke-linecap:round;stroke-linejoin:round;}</style></defs><g id="OBJECTS"><g><path class="cls-6" d="M143.17,32.6C111.7,2.52,58.85-.92,24.72,26.97,3.92,43.96-4.98,73.77,2.76,99.41c3.64,12.07,10.44,22.43,17.27,32.83,2.26,8.24,2.43,16.9,1,25.75-1.71,10.59-5.71,20.65-1.07,31.1,7.38,16.6,30.31,22.12,46.54,24.17,40.3,5.11,88.03-10.52,106.73-48.78,21.59-44.19,4.19-99.12-30.07-131.87Z"/><g><g><path class="cls-1" d="M63.59,131.98s-9.1,2.14-14.19,13.14c-5.08,10.99-10.54,40.35-10.54,40.35l18.72,5.23,6.02-58.71Z"/><path class="cls-1" d="M61.26,133.46c8.08-7.07,66.03-17.03,70.19,.81,4.16,17.85-8.32,78.7-8.32,78.7H50.97s-2.01-68.75,10.28-79.52Z"/><path class="cls-1" d="M61.26,133.46c8.08-7.07,66.03-17.03,70.19,.81,4.16,17.85-8.32,78.7-8.32,78.7H50.97s-2.01-68.75,10.28-79.52Z"/><path class="cls-13" d="M58.08,139.14c-1.8,10.1-3.33,20.25-4.57,30.44"/><path class="cls-2" d="M78.39,127.31c-1.6,5.36-2.75,13.31,4.04,14.32,8.3,1.24,24.77-11.64,31.7-16.97-10.87-1.21-24.78,.27-35.74,2.66Z"/><g><path class="cls-12" d="M66.1,185.76c-1.37-1.56-1.28-3.49-4.17-4.64-2.3-.92-4.32-2.03-6.84-1.72-2.2,.28-4.23,1.25-6.15,2.31-2.2,1.21-5.04,3.01-7.55,1.64-.07-.04-.13-.02-.19,0-2.95-1.33-6.23-3.7-9.33-1.73-2.58,1.63-.82,4.44,.89,6.01,1.7,1.56,3.93,2.44,5.83,3.73,2.14,1.46,4.19,2.32,6.78,2.62,2.86,.33,5.73,.26,8.59,.62,.32,.04,.64,.08,.95,.12,3.39,1.03,7.1,1.91,9.39-.82,1.25-1.49,2.84-3.63,3.63-5.44,.58-1.34-.84-1.58-1.83-2.7Z"/><path class="cls-5" d="M34.48,180.88s-.06,2,1.49,3.39c1.54,1.39,5.26,4.48,7.53,4.71,2.27,.23,6.85-1.61,6.85-1.61l-1.57-2.43-14.3-4.06Z"/></g><path class="cls-12" d="M34.46,116.52s-7.96,58.11,1.8,66.86c9.76,8.75,14.75,3.5,18.52-2.56,3.77-6.06-6.92-61.29-6.92-61.29l-13.4-3.02Z"/><g><path class="cls-5" d="M40.91,176.18s-3.24,.29-2.7,2.38c.54,2.08,1.16,4.17,4.86,5.71,3.71,1.54,5.18,2.02,5.91,2.86s4.75,.39,4.75,.39l-12.83-11.34Z"/><path class="cls-12" d="M59.83,180.49c-3.07-2.08-6.49-2.5-10.1-2.86-2.17-.21-4.21-.54-6.32-1.06-.97-.24-2.24-.62-3.24-.23-2.08,.8-1.36,3.41-.23,4.71,1.63,1.88,3.94,2.54,6.12,3.45,.13,.01,.27,.04,.41,.08,2.48,.81,5.71,3.5,8.5,2.85,2.54-1.51,3.59-3.46,4.73-6.12,.07-.16,.03-.3-.05-.4,.24,.08,.4-.26,.18-.42Z"/><path class="cls-4" d="M43.42,176.57c-.97-.24-2.24-.62-3.24-.23-.42,.16-.72,.4-.94,.69,.1-.02,.19-.06,.29-.07,.93-.07,1.79,.43,2.63,.83,2.6,1.22,5.53,1.51,8.4,1.53,2.33,.02,4.67-.13,7-.06-2.46-1.05-5.09-1.36-7.84-1.63-2.17-.21-4.21-.54-6.32-1.06Z"/></g><path class="cls-12" d="M113.01,126.56c4.02-2.54,20.48-.93,20.48,14.99,0,11.74-10.36,56.2-18.02,59.89-7.66,3.69-55.16-5.73-55.16-5.73l4.23-12.49s34.99-.57,38-3.89-1.1-45.47,10.47-52.77Z"/><path class="cls-5" d="M130.36,162.23l-26.32-4.44c-.28,7.74-.23,14.85-.71,18.71,5.91,1.84,14.8,4.39,21.84,5.48,1.97-6.26,3.77-13.25,5.18-19.76Z"/><path class="cls-3" d="M113.01,126.56c-8.84,5.26-10.74,32.55-11.09,46.71l31.58,2.91c1.12-12.66,1.32-29.56,1.32-34.8,0-15.92-17.72-17.25-21.8-14.82Z"/><g><path class="cls-12" d="M58.9,80.2c-4.81,.71-10.36,2.82-14.11,5.9-1.87,1.54-4.75,4.38-5.92,6.39-3,7.38-4.25,23.89-4.24,23.97,.05,.78,13.24,3.34,13.31,3.2,.06-.1,.12-.2,.18-.29,.25-.31,.47-.64,.66-1,.59-.86,1.17-1.71,1.36-2.77,.1-.57,.12-1.15,.1-1.74,.08,.03,.16,.04,.26,.02,4.27-.73,7.12-5.05,4.83-8.95,.16-.04,.3-.14,.37-.33,.51-1.39,.58-3.46-.12-4.98,.09-.04,.18-.11,.23-.23,1.17-2.71-.02-5.55-2.34-7.31-.49-.37-1-.65-1.53-.85,2.71-2.17,5.97-3,8.95-4.73,1.31-.76,2.81-1.9,3.31-3.37,1.11-3.21-3.19-3.23-5.3-2.92Z"/><path class="cls-8" d="M51.62,90.86c-1.65-.37-3.75-.38-5.3,.31-.45,.2-.06,.83,.38,.64,.91-.39,1.83-.41,2.8-.37,.71,.03,1.43,.14,2.11-.09,.23-.08,.27-.43,0-.49Z"/><path class="cls-8" d="M51.72,97.16c-2.19-.46-4.07-.18-6.11,.69-.46,.2-.06,.86,.39,.66,2.97-1.29,6.65-1.23,8.95,1.19,.15,.16,.36-.01,.33-.19-.26-1.51-2.25-2.08-3.57-2.36Z"/><path class="cls-8" d="M55.18,104.56c-2.38-2.55-6.79-1.56-9.64-.46-.49,.19-.28,.98,.22,.79,3.01-1.17,6.25-1.66,9.13,.04,.24,.14,.46-.17,.29-.36Z"/><path class="cls-8" d="M50.29,113.05c-.66-.04-1.28-.14-1.9-.37,.06-.8,.01-1.6,0-2.04-.01-.38-.59-.38-.6,0-.02,.65-.02,3.82-1,3.75-.56-.04-.56,.83,0,.85,1.02,.04,1.42-.98,1.56-2.1,.53,.45,1.24,.72,1.95,.62,.46-.06,.49-.7,0-.73Z"/></g><g><path class="cls-5" d="M73.12,97.52c1.58,5.49-.05,10.77-3.64,11.81-3.6,1.04-7.79-2.57-9.38-8.05-1.58-5.49,.05-10.77,3.64-11.81,3.6-1.04,7.79,2.57,9.38,8.05Z"/><g><path class="cls-12" d="M108.31,101.7c-1.81,2.3-.35,24.1,1.81,22.71,0,0-20.02,14.59-24.45,13.57s-3.2-11.1-3.2-11.1c0,0,3.62-6.13,3.15-10.54l22.68-14.64Z"/><path class="cls-5" d="M85.67,117.14c0,.06,0,.12,0,.18,0,.2-.01,.39-.03,.58,0,.13-.02,.26-.04,.39,0,.05-.01,.09-.02,.14-.29,2.33-1.27,4.77-2.05,6.44,8.7,1.06,18.15-4.3,24.34-8.78-.25-2.68-.39-5.59-.37-8.1,0-2.71,.19-5.01,.65-5.99,.05-.11,.11-.21,.17-.29l-22.68,14.64c.03,.26,.04,.53,.04,.79Z"/></g><path class="cls-12" d="M116.49,88.63c-.11,14.13-12.76,31.23-30.12,32.12-11.76,.61-19.1-8.78-22.2-27.59-4.39-26.59,5.71-35.1,20.88-36.57,21.56-2.08,31.59,12.97,31.44,32.04Z"/><path class="cls-8" d="M92.89,83.57c-2.34-2.01-6.25-2.55-8.77-.54-.23,.19,.02,.6,.29,.5,2.74-.98,5.28-1.04,7.68,.84,.56,.44,1.35-.32,.8-.8Z"/><path class="cls-8" d="M71.73,80.96c-2.98-.08-6.6,.49-7.62,3.75-.12,.38,.45,.52,.58,.16,1.1-2.9,4.44-2.94,7.04-2.98,.6,0,.6-.92,0-.94Z"/><path class="cls-5" d="M110.02,84.7s-6.7-2.69-10.69-10.37c0,0-12.55,6.56-15.59,4.66-3.04-1.9,.98-4.65,.98-4.65,0,0-18.88,9.05-23.02,3.8s28.5-16.41,28.5-16.41l16.7,1.1,3.13,21.88Z"/><g><path class="cls-8" d="M112.39,57.81c-5.57-4.76-27.85-17.39-38.61-14.07-10.76,3.32-.89,8.63-.89,8.63,0,0-26.3,7.38-22.62,15.05,2.55,5.32,10.2,4.01,10.2,4.01,0,0-7.63,10.55-.19,8.9,7.44-1.65,28.67-8.54,28.67-8.54,0,0-5.96,5.65-.68,5.04,5.27-.61,12.2-6.94,12.2-6.94,0,0,2.99,10.35,7.36,13.48s8.8,8.37,8.8,8.37c2.44,.24,3.31-27.48-4.23-33.92Z"/><path class="cls-9" d="M73.78,43.74c-10.76,3.32-.89,8.63-.89,8.63,0,0-26.3,7.38-22.62,15.05,2.55,5.32,10.2,4.01,10.2,4.01,0,0-7.12,9.84-.89,9.02,1.19-4.7,4.38-8.93,8.75-11.07-1.66,.18-3.36,.36-4.97-.08-1.61-.44-3.13-1.64-3.43-3.27-.47-2.52,1.93-4.59,4.13-5.9,5.67-3.37,11.92-5.77,18.39-7.04-1.37,.44-2.88-.82-3.01-2.26-.13-1.43,.84-2.79,2.09-3.5s2.73-.88,4.17-.91c2.99-.07,5.94,.39,8.84,1.13-7.47-3.22-15.5-5.42-20.76-3.8Z"/></g><path class="cls-12" d="M123.68,91.35c-.21,5.71-3.41,10.22-7.15,10.08-3.74-.14-6.6-4.87-6.39-10.58,.21-5.71,3.41-10.22,7.15-10.08,3.74,.14,6.6,4.87,6.39,10.58Z"/><path class="cls-8" d="M91.32,92.73c.23,1.39-.34,2.65-1.27,2.8-.93,.15-1.87-.85-2.1-2.24-.23-1.39,.34-2.65,1.27-2.8,.93-.15,1.87,.85,2.1,2.24Z"/><path class="cls-8" d="M72.29,94.91c.23,1.39-.34,2.65-1.27,2.8-.93,.15-1.87-.85-2.1-2.24-.23-1.39,.34-2.65,1.27-2.8,.93-.15,1.87,.85,2.1,2.24Z"/><path class="cls-8" d="M80.97,102.53c-5.46-1.64-4.4-7.39-5.37-11.85-.08-.35-.56-.26-.54,.09,.25,4.88-.28,11.08,5.54,12.7,.62,.17,.99-.75,.36-.94Z"/><path class="cls-2" d="M83.66,104.92c-.39,.42-.72,.9-.93,1.47-.56,1.53-.21,3.88,1.39,4.68,2.11,1.05,4.2-1.02,6.04-1.68,1.65-.59,4.09-.66,3.96-2.98-.29-5.16-7.97-4.69-10.46-1.49Z"/></g></g><g><path class="cls-7" d="M151.55,29.53c-3.29-4.25-10.19-5.88-15.44-4.51-2.23-.02-4.27,.87-5.81,3.52-1.57,2.7-2.94,12.18,3.07,10.34,2.99-.92,3.01-5.22,6.15-6.12,3.3-.94,6.54,1.91,6.54,5.21,0,3.4-2.62,5.05-5.51,5.89-6.94,2.04-13.34,2.77-16.31,10.53-1.56,4.07-1.38,13.41,5.49,11.82,2.58-.6,2.53-2.4,3.1-4.61,.98-3.85,3.36-6.33,6.6-8.49,4.27-2.85,9.75-4.79,12.7-9.24,2.79-4.2,2.5-10.37-.58-14.35Z"/><path class="cls-7" d="M129.91,70.94c-.44-1.69-2.15-2.68-3.83-2.67-1.01,0-1.85,.61-2.4,1.42-.41,.3-.74,.72-.94,1.3-.5,1.45-.07,3.18,1.12,4.15,2.84,2.33,6.92-.85,6.04-4.21Z"/></g><g><path class="cls-7" d="M110.05,1.53c-7.28-4.81-20.36,2.6-21.84,9.91-.66,1.65-.84,3.44-.26,5.12,.98,2.86,5.53,5.87,8.23,3.35,1.06-.99,1.24-2.64,1.44-3.97,.17-1.19,.11-2.51,.44-3.67,.24-.82,.2-1.4,1.03-2.1,.88-.23,1.76-.45,2.64-.68,2.03-.13,3.12,.79,3.26,2.77,1.91,4.75-3.29,6.24-6.2,8.94-1.77,1.65-2.92,3.65-3.17,6.08-.45,4.37,1.87,9.84,6.64,10.6,4.56,.73,5.66-2.79,5.55-6.61-.11-3.83,.06-5.96,2.91-8.98,1.75-1.85,3.74-3.45,4.77-5.85,2.26-5.24-.91-11.92-5.43-14.91Z"/><path class="cls-7" d="M106.73,40.48c-1.67-.31-3.54,.35-4.22,2-.19,.47-.25,.98-.23,1.49-.24,.5-.36,1.08-.27,1.72,.28,2.21,2.64,3.84,4.8,3.27,1.91-.5,3.34-2.43,3.31-4.4-.03-1.96-1.45-3.72-3.39-4.08Z"/></g><g><path class="cls-7" d="M44.14,48.7c-1.68-3.14,.1-5.2,.79-8.3,.51-2.31,.07-4.5-1.09-6.54-2.69-4.74-7.69-5.88-12.78-5.12-4.03,.6-9.08,2.29-10.79,6.3-4.65,5.86,6.49,16.68,12.19,11.42,.88-.81,1.43-1.96,1.05-3.13-.24-.71-.96-.94-1.26-1.52-4.32-8.1,6.11-6.53,5.82-2.09-.16,2.39-2.8,4.38-3.18,6.84-.33,2.14,.52,4.35,1.65,6.13,1.62,2.57,6.39,6.53,9.56,3.72,2.55-2.26-.86-5.69-1.94-7.71Z"/><path class="cls-7" d="M49.31,58.6c-.38-.35-.81-.57-1.27-.7-.15-.21-.38-.36-.66-.34-.73,.03-1.43,.27-2.01,.67-.08,.04-.16,.07-.24,.12-.22,.13-.42,.37-.53,.64-.08,.11-.17,.19-.24,.31-.69,1.26-.25,2.78,1.15,3.29,1.24,.45,3.07,.24,4.02-.75,.9-.93,.68-2.39-.22-3.23Z"/></g></g></g><polygon class="cls-10" points="162.85 235.71 18.45 235.71 14.45 200.83 174.63 199.83 162.85 235.71"/><text class="cls-11" transform="translate(70.11 223.27)"><tspan x="0" y="0">NORMAL</tspan></text></g></svg>