<svg id="eMWRkAyCs3p1" xmlns="http://www.w3.org/2000/svg" xmlns:xlink="http://www.w3.org/1999/xlink" viewBox="0 0 894.48 661.69" shape-rendering="geometricPrecision" text-rendering="geometricPrecision"><g style="isolation:isolate"><g><g><path id="eMWRkAyCs3p5" d="M780,242.66c2.24-1.07,2.87-3.54,3.37-5.8.92-4.19.55-8.62.43-12.86q-.21-7.83-.43-15.64c10.493067-2.879027,20.212197-8.061424,28.45-15.17.035856.047409.079878.088045.13.12l12,9.4c2.5,1.95,5.8,5.86,9.15,6.24c2.85.33,6.33-2.13,8.64-3.47c3.109918-1.802638,6.016675-3.934931,8.67-6.36c4.28-3.94,8.8-8.36,5.1-14.15-2.49-3.9-6.45-7.25-9.57-10.64l-10.18-11.06c-.246344-.251033-.583286-.392463-.935-.392463s-.688656.14143-.935.392463c5.11-9,9.64-18.36,11.12-28.62c5.05-.7,10.08-1.53,15.08-2.54c4.11-.83,9.29-1.24,13.09-3.08c2.32-1.12,2.82-2.29,3.22-4.77.75-4.55.57-9.47.85-14.07.38-6.37,1-11.12-6.25-12.53-9.58-1.87-19.68-2.31-29.38-3.44-.132125-.025385-.267875-.025385-.4,0-2.66-10-7.61-18.56-13.68-26.86c6-6,12.48-12.81,16.44-20.39c3.79-7.26-2.32-11.92-7.42-16.43-4.21-3.71-9.47-10.23-15.33-6.71-8.49,5.09-16.21,12.05-23.26,18.93-.479718.465309-.53964,1.214343-.14,1.75-9.956-5.541505-20.674567-9.584976-31.81-12-1.1-9.24-1.47-19.13-3.7-28.08-1.44-5.94-11.32-4.26-15.83-4.04-5.33.24-14.87.1-17,6.44-1.28,3.88-.38,9.22-.39,13.27q0,7.77-.08,15.54c-9.35649,3.464727-18.28481,7.99096-26.61,13.49l-.06-.05c-7.88-4.66-15.81-10.58-24.19-14.27-6.2-2.75-11.51,4.77-15.07,8.88-4,4.6-10.82,11.29-7.4,17.8c2,3.75,5.69,6.8,8.68,9.72s5.83,5.5,8.84,8.15c-5.980212,8.919882-9.184955,19.410977-9.21,30.15-8.46,2.16-17,4.26-25.29,6.84-7.45,2.31-5,10.11-4.51,16.42.33,4.23.2,9.1,1.38,13.18.59,2.06,1.57,3.25,3.72,3.61c4.31.71,9.82-.79,14.16-1.18L669,147c2.545703,10.704726,7.923519,20.527789,15.57,28.44-5.27,7.53-10.81,15.25-15,23.41-3.53,6.88,3.87,12.4,8.47,16.68s10.17,9.91,16.59,6.08c7.4-4.42,13.89-11.74,19.79-18.17c9.461412,6.146558,20.572216,9.261769,31.85,8.93c1.81,8.66,3.44,17.41,5.63,26c2,7.92,8.4,6.39,15.3,5.87c3.8-.32,9.28.08,12.8-1.58ZM808.58,72.87c19.77,21.88,25.13,54.61,11.69,81.1C813,168.31,801,179,786.39,185.54c-15.44,7-33.83,11.3-50.44,6.26-30.88-9.37-52.33-40.39-53.26-72.13.244287-.192979.384765-.488721.38-.8c1.51-27.54,19-53.38,44.77-63.87c27.38-11.15,60.83-4.16,80.74,17.87Z" fill="#388e3c"/><path id="eMWRkAyCs3p6" d="M797.36,167.74c.22154-.142899.423277-.314376.6-.51.83-.72,1.64-1.44,2.42-2.2c20.604204-19.883155,24.605736-51.421213,9.62-75.82-13.9-22.74-41.64-34.27-67.67-29.08-28.07,5.6-49.25,30.85-51.16,59.2-.037708.424511.034617.851577.21,1.24.06816,24.77573,14.502462,47.262031,37,57.64c22.42,10.09,50.32,5.31,68.98-10.47Zm-57.89,9c-3.720024-.942677-7.327545-2.283763-10.76-4c1.76-2.12,3.25-4.58,2.79-7.46-.43-2.69-2.38-4.2-4.84-4.92-1.211637-.268408-2.338291-.831735-3.28-1.64-.844843-.882952-2.008119-1.39076-3.23-1.41-2.49,0-4.95,2.35-7,4.09-7.754777-7.87805-13.145451-17.772499-15.56-28.56c2.92-.5,9-1.1,10.3-4.28.64-1.54.12-3.32-.11-4.9q-.52-3.37-1-6.77c-.169272-1.106063-1.042404-1.971072-2.15-2.13-2.675428-.226204-5.369465-.067929-8,.47c1.483222-9.827483,5.30356-19.155416,11.14-27.2l3.47,3.51c1,1,3,1.47,4-.05c1.773009-3.044586,4.013704-5.791462,6.64-8.14c1.03575-.886905,1.210341-2.423312.4-3.52-.846164-1.371413-1.827743-2.654501-2.93-3.83c6.835407-5.44348,14.865657-9.186132,23.43-10.92v.09q.69,3.6,1.2,7.23c.164159,1.112385,1.045428,1.981414,2.16,2.13h7.09c1.72,0,4.26.47,5.89-.34c1.02415-.60864,1.715935-1.649996,1.88-2.83.51-2.3.81-4.67,1.18-7c9.099286,1.072229,17.843107,4.167931,25.59,9.06-1.92,2.09-4.74,5.3-3.41,8.17.7,1.5,2.37,2.39,3.65,3.33l5.52,4c1.107472.817005,2.665588.594417,3.5-.5.948302-1.490626,2.35059-2.636997,4-3.27c5.720605,7.02304,9.711158,15.291875,11.65,24.14-2.12.55-4.55.94-6.42,2-2.3,1.27-2.18,3.54-2,5.84.21,2.11-.11,5.41,1.54,7s5.17,1.3,7.37,1.49c.225934.025772.454066.025772.68,0-.686384,10.365384-4.368913,20.30821-10.6,28.62l-.21.26c-1.86-2.23-4.25-4.93-7.05-3.74-1.64.7-2.82,2.63-3.92,3.93L787.61,160c-.822676,1.106037-.59946,2.668554.5,3.5l3.55,2.3c-6.003744,4.485086-12.754787,7.870764-19.94,10-.18-1.32-.36-2.64-.55-4-.220649-1.352167-1.470328-2.288322-2.83-2.12l-6.8.58c-2,.16-4.38,0-6.32.57-3.62,1-2.81,4.64-2.28,7.58-4.537622-.015941-9.057993-.559593-13.47-1.62Z" fill="#388e3c"/><path id="eMWRkAyCs3p7" d="M818.27,454c1.74-.84,2.24-2.77,2.63-4.54.72-3.28.43-6.74.34-10.05q-.16-6.12-.34-12.23c8.204999-2.252919,15.80552-6.304252,22.25-11.86.02609.037184.060283.067957.1.09l9.39,7.35c2,1.53,4.54,4.58,7.16,4.88c2.23.26,5-1.66,6.76-2.71c2.432662-1.418864,4.705725-3.095163,6.78-5c3.34-3.08,6.88-6.53,4-11.06-1.94-3-5-5.67-7.48-8.32l-8-8.64c-.189072-.20195-.453356-.316553-.73-.316553s-.540928.114603-.73.316553c4-7,7.54-14.35,8.69-22.37c3.95-.55,7.89-1.2,11.79-2c3.22-.65,7.26-1,10.23-2.41c1.82-.88,2.21-1.79,2.53-3.73.58-3.56.44-7.4.66-11c.3-5,.77-8.7-4.89-9.8-7.49-1.46-15.38-1.81-23-2.69-.102345-.020212-.207655-.020212-.31,0-2.08-7.82-5.95-14.51-10.7-21c4.67-4.73,9.76-10,12.86-15.95c3-5.67-1.82-9.32-5.8-12.84-3.3-2.9-7.41-8-12-5.25-6.64,4-12.68,9.42-18.19,14.8-.391327.357909-.435206.95906-.1,1.37-7.784877-4.346614-16.168491-7.520796-24.88-9.42-.86-7.23-1.15-15-2.9-22-1.14-4.58-8.85-3.26-12.39-3.1-4.17.2-11.63.08-13.26,5.05-1,3-.29,7.2-.3,10.37l-.06,12.15c-7.319061,2.705234-14.301831,6.245273-20.81,10.55v-.05c-6.16-3.64-12.36-8.26-18.91-11.15-4.85-2.15-9,3.73-11.79,6.95-3.11,3.59-8.45,8.82-5.78,13.91c1.54,2.94,4.45,5.32,6.79,7.6s4.55,4.3,6.91,6.37c-4.685665,6.969277-7.198347,15.172035-7.22,23.57-6.62,1.7-13.27,3.34-19.78,5.36-5.83,1.8-3.9,7.9-3.53,12.84.26,3.3.16,7.11,1.08,10.3.235617,1.484002,1.420008,2.635832,2.91,2.83c3.37.55,7.68-.63,11.08-.93l12.11-1.08c1.985607,8.371808,6.189524,16.054234,12.17,22.24-4.12,5.89-8.46,11.92-11.73,18.3-2.76,5.38,3,9.7,6.63,13.05s8,7.74,13,4.75c5.79-3.45,10.86-9.19,15.48-14.21c7.398525,4.80346,16.082317,7.244686,24.9,7c1.42,6.77,2.69,13.61,4.41,20.3c1.59,6.19,6.56,5,12,4.59c2.94-.18,7.21.13,9.97-1.18ZM840.6,321.25c15.47,17.11,19.65,42.7,9.15,63.41-5.69,11.21-15.1,19.54-26.5,24.68-12.06,5.44-26.45,8.84-39.44,4.9-24.14-7.32-40.91-31.58-41.64-56.4.193284-.146891.304763-.377281.3-.62c1.18-21.53,14.89-41.74,35-49.94c21.41-8.72,47.53-3.28,63.13,13.97Z" fill="#388e3c"/><path id="eMWRkAyCs3p8" d="M828.34,375.9c8.28-12.88,7.28-28.93-3.76-39.85-10-9.91-25.7-12.88-38.8-7.89-14.85,5.66-23.76,21.16-23,36.72-.001406.691394.344124,1.337385.92,1.72.7,13.12,10.56,24,23.57,26.81c15.61,3.41,32.52-4.21,41.07-17.51Zm-44,11.1c3-.92,4.17-5.17,1.64-7.76-1.585967-1.543526-3.716991-2.39881-5.93-2.38-2.33.2-3.52,2.66-4.68,4.45-3.317736-3.140447-5.548918-7.256048-6.37-11.75c3.76.09,7.37-2.47,7.44-6.51c0-2.31-1-4.67-3.47-5.1-1.639515-.277449-3.317347-.233296-4.94.13.768342-5.316781,2.828476-10.36411,6-14.7v0c1.29,2,3.33,3.64,5.73,3.18.314455.158654.685545.158654,1,0c2.463571-1.117918,4.428779-3.104487,5.52-5.58.193448-.384501.142513-.846834-.13-1.18.20749-.563895.178646-1.18766-.08-1.73-.68966-1.256895-1.632924-2.356803-2.77-3.23c2.674288-1.582207,5.584351-2.726652,8.62-3.39l.32-.06c.001156,2.108767,1.182717,4.039423,3.06,5c2.24,1.23,4.76.81,7.11.15c1.088646-.199225,1.936091-1.058662,2.12-2.15.174375-1.010145.244743-2.035504.21-3.06c4.111445.759742,8.039043,2.300908,11.57,4.54-1.33,1.32-3,2.77-2.66,4.77s2.5,4,3.74,5.54c.491235.605474,1.232477.952938,2.012102.943193s1.511951-.375629,1.987898-.993193c.92-1,1.85-1.95,2.78-2.93c1.598345,2.205665,2.840158,4.648798,3.68,7.24.716444,2.201681,1.110527,4.495448,1.17,6.81-1.587241-.198785-3.199003.000537-4.69.58-1.020996.457926-1.622044,1.530066-1.48,2.64.113199.878967.006687,1.772288-.31,2.6-.287493.719022-.22701,1.530491.1639,2.198947s1.068479,1.119057,1.8361,1.221053l2.85.26c-1.131712,3.012868-2.716626,5.835365-4.7,8.37l-2.25-2.48c-.490597-.607835-1.233584-.956135-2.014616-.944419s-1.513238.382143-1.985384,1.004419c-.17.23-.36.44-.54.65-.246558.108728-.481151.242781-.7.4-.374607.285184-.650797.680241-.79,1.13-.668842.584405-1.384585,1.112851-2.14,1.58-.505338.433565-.817697,1.050154-.868335,1.714068s.164597,1.320742.598335,1.825932c.859103,1.009021,1.832263,1.915067,2.9,2.7-2.336918,1.668096-4.860686,3.057511-7.52,4.14l-.33-2.39c-.206022-1.360973-1.465988-2.304834-2.83-2.12-1.57053.320023-3.18947.320023-4.76,0-1.363591-.154626-2.60343.801822-2.8,2.16-.234989,1.544446-.234989,3.115554,0,4.66-4.22266.12179-8.426499-.60946-12.36-2.15Z" fill="#388e3c"/><path id="eMWRkAyCs3p9" d="M566.41,659.68c2.24-1.07,2.87-3.54,3.37-5.81.92-4.19.55-8.61.43-12.86q-.21-7.82-.43-15.63c10.493067-2.879027,20.212197-8.061424,28.45-15.17.036274.044277.08033.081555.13.11l12,9.4c2.51,2,5.81,5.86,9.16,6.24c2.85.33,6.33-2.12,8.64-3.46c3.110182-1.806108,6.016923-3.941742,8.67-6.37c4.28-3.93,8.8-8.35,5.1-14.14-2.49-3.91-6.45-7.25-9.57-10.64l-10.18-11.06c-.247678-.24854-.58412-.388241-.935-.388241s-.687322.139701-.935.388241c5.11-9,9.64-18.35,11.12-28.61c5-.7,10.08-1.53,15.08-2.54c4.11-.83,9.29-1.25,13.08-3.08c2.33-1.12,2.83-2.29,3.23-4.78.75-4.55.57-9.46.85-14.07.38-6.36,1-11.12-6.25-12.52-9.58-1.88-19.68-2.32-29.38-3.45-.131973-.026939-.268027-.026939-.4,0-2.66-10-7.61-18.56-13.68-26.86c6-6.05,12.48-12.81,16.44-20.39c3.79-7.26-2.32-11.92-7.42-16.43-4.22-3.71-9.47-10.24-15.33-6.71-8.49,5.08-16.21,12-23.26,18.93-.482595.459893-.542857,1.208864-.14,1.74-9.95514-5.554649-20.673187-9.614771-31.81-12.05-1.1-9.23-1.47-19.12-3.7-28.08-1.47-5.86-11.33-4.17-15.86-4-5.33.25-14.87.1-16.95,6.45-1.28,3.88-.38,9.21-.39,13.27c0,5.17,0,10.36-.08,15.53-9.35649,3.464727-18.28481,7.99096-26.61,13.49s0,0-.06-.05c-7.88-4.65-15.81-10.57-24.19-14.27-6.2-2.74-11.51,4.78-15.08,8.89-4,4.6-10.81,11.29-7.39,17.8c2,3.75,5.69,6.8,8.68,9.71s5.83,5.51,8.84,8.16c-5.991117,8.912653-9.2065,19.400924-9.24,30.14-8.46,2.17-17,4.27-25.3,6.85-7.44,2.31-5,10.11-4.5,16.42.33,4.23.2,9.09,1.38,13.18.59,2.06,1.57,3.25,3.72,3.61c4.31.71,9.82-.79,14.16-1.18l15.5-1.39c2.545703,10.704726,7.923519,20.527789,15.57,28.44-5.27,7.53-10.81,15.25-15,23.41-3.53,6.88,3.87,12.4,8.47,16.68s10.17,9.9,16.59,6.08c7.4-4.42,13.89-11.75,19.79-18.18c9.462656,6.144817,20.571868,9.26307,31.85,8.94c1.81,8.66,3.44,17.41,5.63,26c2,7.93,8.4,6.39,15.3,5.87c3.85-.3,9.31.1,12.84-1.56Zm-14.57-50.2c-.25-1.66-.43-3.65-.52-4.14l-.84-4.6c4.96068-.804736,9.826011-2.114891,14.52-3.91.01724.054328.037266.107732.06.16c1.19,2.44,2.39,4.89,3.59,7.33-5.436018,2.22409-11.062344,3.951148-16.81,5.16Zm20.95-6.92l-1.84.8c-1.2-2.46-2.41-4.92-3.61-7.37-.01298-.028801-.029799-.055712-.05-.08c5.099593-2.140378,9.915908-4.901194,14.34-8.22l.06.09l5,6.66c-4.334494,3.18855-8.993678,5.910318-13.9,8.12Zm15.88-9.64l-5-6.7-.06-.06c3.583176-2.9236,6.832837-6.233627,9.69-9.87l6.41,5.58c-3.247027,4.091881-6.95106,7.799269-11.04,11.05Zm18-21.93c-1.578408,3.105096-3.40431,6.078038-5.46,8.89l-6.43-5.59c.84-1.17,1.65-2.36,2.42-3.6c1.185901-1.937517,2.26096-3.940734,3.22-6q3.95,1.38,7.79,3c-.48,1.12-.99,2.22-1.54,3.31Zm6.72-21.59c-.754913,5.483206-2.168455,10.855339-4.21,16-2.55-1.09-5.13-2.1-7.75-3c2.012981-4.863002,3.358527-9.976075,4-15.2c2.63.8,5.28,1.54,7.96,2.2Zm.1-18.92c.691473,5.454574.758574,10.970218.2,16.44-2.69-.68-5.36-1.42-8-2.25.34835-4.47921.200788-8.983196-.44-13.43Zm-.34-2.47l-8.31.76c-.798125-4.298385-2.034582-8.503679-3.69-12.55L609.5,514c1.671899,4.535971,2.894429,9.225129,3.65,14Zm-12.67,19.56c-.715138,4.636342-1.998113,9.167059-3.82,13.49-9.84,22.4-33,35.29-56.93,35.72-6.279761.212991-12.558195-.4603-18.65-2-7.831566-3.014827-14.89765-7.727827-20.69-13.8-8.58-11.9-16.08-25.51-18.23-40.17-.014936-.119041-.041736-.236291-.08-.35.29-22.25,13.4-43.78,33.69-53.31c21.55-10.14,47.53-6.72,65.33,9.18c14.38,12.81,22.04,32.43,19.38,51.24Zm8.13-35.86l-8.46,2.21c-1.97143-4.317448-4.416427-8.402505-7.29-12.18l7.16-5.58c3.474999,4.82109,6.358946,10.04174,8.59,15.55ZM595,489.89c1.24,1.37,2.42,2.8,3.54,4.26l-7.21,5.62v0c-3.014719-3.65285-6.425606-6.959766-10.17-9.86c1.89-2.55,3.89-5,6-7.43c2.8088,2.254632,5.430678,4.732708,7.84,7.41ZM585.09,481c-2.07,2.42-4.07,4.89-6,7.45-3.993666-2.851067-8.301971-5.233385-12.84-7.1c1.215868-2.976812,2.684574-5.843966,4.39-8.57c5.122633,2.163285,9.972698,4.922283,14.45,8.22Zm-16.78-9.17c-1.69354,2.750463-3.155251,5.637091-4.37,8.63-3.219189-1.177926-6.526057-2.100773-9.89-2.76.332972-3.197672,1.037733-6.345603,2.1-9.38c4.144094.806515,8.212087,1.964019,12.16,3.46Zm-14.65-4c-1.036936,3.043873-1.734499,6.192966-2.08,9.39-4.276036-.662527-8.607132-.900352-12.93-.71-.14-3.21-.17-6.43-.1-9.64c5.055765-.189594,10.117795.128667,15.11.95Zm-17.6-.83c-.07,3.22,0,6.43.1,9.65-4.803537.374827-9.551724,1.273495-14.16,2.68-.49.15-1,.32-1.45.48-.28-1.92-.55-3.84-.83-5.76-.14-.95-.27-1.9-.41-2.85l-.14-1c5.483032-1.733271,11.152944-2.807499,16.89-3.2Zm-37.44,14c4.78647-3.676483,10.038809-6.702799,15.62-9c.83-.34,1.66-.65,2.5-1c.1.5.2,1,.27,1.45q.59,4,1.16,8.07c.004684.029817.004684.060183,0,.09-4.939296,1.890193-9.61181,4.414695-13.9,7.51-1.731498-2.489961-3.61859-4.868031-5.65-7.12Zm-2,1.55c2.023083,2.273899,3.906534,4.668286,5.64,7.17-4.100308,3.205744-7.794256,6.899692-11,11-.063351-.079763-.137379-.150426-.22-.21l-6.66-5.17c3.558801-4.758063,7.682327-9.066275,12.28-12.83ZM483,497.34l6.63,5.14c.082184.057396.169174.107583.26.15-2.753046,3.81456-5.099167,7.906866-7,12.21q-3.48-2.62-6.77-5.47c1.920832-4.21185,4.223806-8.238706,6.88-12.03Zm-1.47,19.6c-.019431.267738.039648.535331.17.77-1.043628,2.697879-1.912099,5.460284-2.6,8.27-2.513059-1.097984-5.079618-2.069204-7.69-2.91.920637-3.858339,2.14787-7.637013,3.67-11.3q3.09,2.7,6.41,5.17Zm-11.82,26.93c-.31-2.39-.51-4.78-.58-7.18.244287-.192979.384765-.488721.38-.8.201808-3.488328.656333-6.957427,1.36-10.38q3.9,1.29,7.67,3c-.957455,4.604175-1.420082,9.297496-1.38,14-2.46179.627934-4.964601,1.082383-7.49,1.36Zm.34,2.47c2.565026-.294246,5.105122-.775527,7.6-1.44l.2-.07c.827037,4.01849,1.984298,7.961873,3.46,11.79l-7.62,3.88c-1.661124-4.597012-2.896317-9.336939-3.69-14.16Zm4.52,16.51l7.66-3.9c1.760409,4.175855,3.781044,8.237164,6.05,12.16l-6.91,4.54c-.113684.0775-.214853.171924-.3.28-2.560599-4.159085-4.749092-8.53607-6.54-13.08Zm7.7,15c.234856-.009522.462824-.082057.66-.21l6.6-4.34c1.72,2.89,3.54,5.72,5.42,8.5c1.19432,1.797501,2.479314,3.533077,3.85,5.2l-4,5.75c-4.783629-4.445001-9.005035-9.45897-12.57-14.93Zm14.44,16.63l3.83-5.5c2.241959,2.449699,4.849474,4.537736,7.73,6.19c1.923804,1.066136,3.93028,1.975738,6,2.72q-1.35,3.3-2.69,6.61c-5.368512-2.717068-10.377172-6.093126-14.91-10.05Zm25.67,14.37c-2.916939-.900763-5.770036-1.996566-8.54-3.28l2.8-6.88c3.59546,1.092625,7.274451,1.888625,11,2.38c1.08.15,2.16.26,3.25.36l-1.62,9c-2.345907-.368312-4.66199-.906392-6.93-1.61Zm9.41,1.87l1.64-9.09c4.878137.299201,9.773702.131774,14.62-.5l1.53,8.42c0,.13,0,.26.06.39-5.899446,1.080674-11.920804,1.333107-17.89.75Z" fill="#388e3c"/><path d="M548.15,536.87c.074358-.513912.026391-1.038118-.14-1.53.278191-.33597.306519-.813496.07-1.18-1.43-2.57-5.52-3-7.07-.28s.77,6.31,3.84,6c1.638549-.176667,2.973783-1.394563,3.3-3.01Zm-3.55-1.2c.3,0,.71.24.47.51-.086062.126782-.248074.177642-.391155.122795s-.229582-.200972-.208845-.352795c.020589-.102298.065141-.198256.13-.28Z" fill="#388e3c"/><path id="eMWRkAyCs3p11" d="M720,619c1.94,0,3.22-1.53,4.33-3c2.06-2.65,3.29-5.89,4.63-8.93q2.49-5.6,5-11.18c8.37319,1.496594,16.974524,1.110593,25.18-1.13.017968.040984.037994.081035.06.12l5.32,10.68c1.1,2.22,2.12,6.08,4.36,7.48c1.9,1.19,5.18.63,7.26.46c2.801471-.227064,5.570584-.753397,8.26-1.57c4.35-1.34,9-2.94,8.36-8.27-.44-3.6-2.11-7.29-3.17-10.73q-1.74-5.62-3.47-11.23c-.07742-.265046-.260987-.486284-.507195-.611282s-.533144-.14263-.792805-.048718c6.64-4.64,13-9.71,17.47-16.46c3.8,1.21,7.63,2.32,11.5,3.28c3.18.8,7,2.25,10.27,2.23c2,0,2.77-.67,3.89-2.28c2.06-3,3.58-6.49,5.33-9.65c2.41-4.36,4.44-7.52-.2-10.94-6.13-4.55-13.11-8.26-19.58-12.32-.085346-.056535-.180202-.097188-.28-.12c1.48-8,.87-15.66-.62-23.56c6.24-2.27,13.12-4.84,18.47-8.86c5.11-3.85,2.37-9.2.28-14.09-1.72-4-3.24-10.42-8.56-9.9-7.7.73-15.49,3.05-22.79,5.53-.489997.17364-.779171.679693-.68,1.19-5.155014-7.273558-11.355128-13.746612-18.4-19.21c2.33-6.89,5.4-14,6.83-21.06.94-4.63-6.58-6.76-9.86-8.13-3.84-1.62-10.52-4.93-14.13-1.16-2.2,2.31-3.36,6.38-4.74,9.24-1.75,3.64-3.52,7.29-5.28,10.94-7.769233-.70388-15.593509-.51599-23.32.56v-.05c-4-5.94-7.6-12.79-12.27-18.21-3.45-4-9.73-.51-13.63,1.2-4.35,1.9-11.43,4.33-11.2,10.08.13,3.3,1.72,6.71,2.85,9.77s2.26,5.84,3.5,8.73c-7.257568,4.278527-13.080535,10.616616-16.73,18.21-6.7-1.32-13.42-2.7-20.16-3.68-6-.88-6.92,5.46-8.71,10.07-1.19,3.1-2.91,6.49-3.46,9.77-.425836,1.439231.148425,2.986887,1.41,3.8c2.81,1.95,7.21,2.74,10.4,3.93l11.4,4.24c-1.809198,8.411021-1.318672,17.154134,1.42,25.31-6.26,3.54-12.77,7.12-18.47,11.47-4.8,3.67-1.44,10.06.37,14.63s3.85,10.41,9.66,9.87c6.71-.63,13.76-3.62,20.08-6.17c4.615429,7.51413,11.410355,13.443994,19.48,17-1.64,6.73-3.43,13.45-4.76,20.23-1.23,6.27,3.77,7.33,8.82,9.29C713.23,616.85,717,619,720,619Zm77.29-110.22c6.6,22.09-.64,47-19,61.17-10,7.68-22,11.15-34.54,10.88-13.23-.28-27.67-3.41-37.71-12.55-18.63-17-23.34-46.11-13.32-68.82.237755-.056492.436651-.218555.54-.44c10.33-18.93,31.4-31.27,53.09-30c23.04,1.3,44.3,17.49,50.94,39.74Z" fill="#00bcd4"/><path id="eMWRkAyCs3p12" d="M727.51,549.7l3.62-3c2.495771,1.237597,5.166971,2.084151,7.92,2.51-.1,1.51-.12,3.2,1.6,3.62c1.262511.145106,2.537489.145106,3.8,0h4.66c.688398.01693,1.262883-.521928,1.29-1.21-.069285-.977704-.288514-1.938938-.65-2.85c3.124197-.742381,6.088504-2.043289,8.75-3.84.566563,1.004745,1.65901,1.595677,2.81,1.52c2.37-.12,3.09-2.72,5.1-3.35.376323-.089509.690677-.346917.852654-.698193s.153625-.757486-.022654-1.101807c-.630004-1.049616-1.335181-2.052237-2.11-3c.18-.27.37-.54.54-.82c1.515977-2.45672,2.576292-5.166792,3.13-8c1.071816.356582,2.20321.49928,3.33.42.73-.06,1.54-.68,1.26-1.53-.369689-.982943-.293025-2.078147.21-3c.232012-.379264.2488-.852241.044261-1.247001s-.600618-.653815-1.044261-.682999c-1.182208.001723-2.352477-.236414-3.44-.7-.233596-2.73407-.90903-5.412165-2-7.93c1.527645-.411749,2.472937-1.939094,2.16-3.49-.37407-1.266626-.984851-2.450864-1.8-3.49l-2.8-4.41c-.181961-.337878-.507986-.574412-.885649-.642547s-.76579.039557-1.054351.292547l-1.48,1.35c-.351799.120039-.637929.380816-.79.72l-.36.33c-.813011-.676739-1.668055-1.301322-2.56-1.87-1.641574-1.056987-3.412925-1.897287-5.27-2.5.37-.51.73-1,1.09-1.55.207092-.329299.250469-.735791.11753-1.101374s-.42729-.649266-.79753-.768626l-7-1.8c-.425912-.126021-.886714-.018485-1.212851.283038s-.469429.752489-.377149,1.186962c.149641.870281.149641,1.759719,0,2.63-5.237242.177925-10.299884,1.927028-14.53,5.02l-3.69-4.85c-.264523-.289729-.648101-.44094-1.039172-.409655s-.745731.241556-.960828.569655L720.19,505c-.313033.474304-.263581,1.100692.12,1.52c1.13,1.15,2.19,2.35,3.22,3.59-2.68408,3.319078-4.480334,7.266019-5.22,11.47-1.198732-.079783-2.401468.076504-3.54.46-.651848.184676-1.058042.832859-.94,1.5.211469,2.066662.734035,4.0895,1.55,6c.259749.503572.827804.767017,1.38.64.51-.18,1-.31,1.53-.45.605061,3.635131,2.087944,7.067731,4.32,10l-1.42,1.09c-.413069.385211-.519327.99824-.26,1.5c1.40855,2.559398,3.016876,5.003652,4.81,7.31.473671.498851,1.258412.529886,1.77.07Zm22.78-6.29c-3.820018,1.174154-7.880054,1.332695-11.78.46l3.38-7.11c2.097272.409769,4.259402.348286,6.33-.18.548628,2.317139,1.239946,4.598154,2.07,6.83Zm12-10.28c-.06.13-.11.26-.18.39-2.075454,3.985375-5.432512,7.155734-9.53,9-.811343-2.211381-1.479393-4.47273-2-6.77.729033-.329138,1.428295-.720591,2.09-1.17c1.427476-.982912,2.574986-2.31995,3.33-3.88c2.058412.930316,4.168553,1.741652,6.32,2.43Zm1-2.32c-2.190931-.680348-4.335431-1.502073-6.42-2.46.398414-1.879078.30193-3.82942-.28-5.66c0-.19-.09-.39-.14-.59l7.38-1.55c.757774,3.405995.56755,6.954534-.55,10.26Zm-.17-12.66l-7.5,1.57c-.979421-2.144641-2.568909-3.95325-4.57-5.2c1.17-2.34,2.24-4.73,3.18-7.17c4.141506,2.439563,7.286919,6.265065,8.88,10.8ZM752,506.21c-.930941,2.456671-1.989037,4.863256-3.17,7.21-.436285-.155734-.880189-.289239-1.33-.4-1.401978-.347184-2.854052-.445343-4.29-.29l-2.88-7.33c3.87633-.987119,7.967212-.703176,11.67.81Zm-25.68,9.72c.316394-.201931.580303-.476122.77-.8c2.508557-4.132746,6.333328-7.302446,10.86-9q1.4,3.57,2.8,7.14c-3.078833.996883-5.652061,3.147213-7.18,6Zm-1.78,1.91l8.1,3.7c-.511176,1.703852-.650987,3.497519-.41,5.26.123013.807519.323951,1.601224.6,2.37-2.83,1.11-5.64,2.28-8.42,3.53-2.009194-4.757539-1.969405-10.132726.11-14.86Zm10.27,24.91c-3.885357-1.483464-7.153148-4.240112-9.27-7.82c2.75-1.24,5.54-2.4,8.34-3.51c1.332122,2.100444,3.301518,3.719414,5.62,4.62l-3.39,7.16c-.45-.15-.89-.28-1.32-.45Zm12,6.52h.44c.17668.345812.320639.707385.43,1.08h-.3c.038331-.443244-.189322-.86715-.58-1.08ZM728,545.84c.210041-.224159.321669-.523034.31-.83l.54.34-.85.65c.006693-.053123.006693-.106877,0-.16Z" transform="matrix(.999991-.004313 0.004313 0.999991-2.254999 3.213238)" fill="#00bcd4"/><path id="eMWRkAyCs3p13" d="M660.94,396.44c1.79-1.69,1.64-4.24,1.42-6.55-.41-4.27-2.11-8.37-3.52-12.37l-5.2-14.76c9.110977-5.952116,16.780346-13.860619,22.45-23.15.043684.034991.095122.058996.15.07L690.56,345c3,1.1,7.32,3.8,10.62,3.14c2.82-.56,5.38-4,7.17-5.94c2.409951-2.671977,4.525456-5.595464,6.31-8.72c2.87-5.05,5.82-10.64.52-15-3.56-3-8.36-4.93-12.37-7.21l-13.07-7.4c-.305259-.173428-.667685-.216014-1.004831-.118073s-.620344.328085-.785169.638073c2.1-10.14,3.55-20.42,1.82-30.64c4.59-2.21,9.13-4.54,13.58-7c3.66-2.05,8.46-4,11.51-6.93c1.87-1.78,2-3,1.62-5.54-.69-4.56-2.36-9.18-3.51-13.65-1.58-6.18-2.46-10.89-9.78-10-9.7,1.15-19.44,3.82-29,5.71-.129539.028245-.25421.075418-.37.14-5.6-8.71-12.93-15.34-21.25-21.38c3.83-7.59,8-16,9.42-24.45c1.38-8.07-5.86-10.64-12.1-13.37-5.15-2.24-12.14-6.84-16.65-1.7-6.52,7.44-11.74,16.43-16.35,25.15-.316922.588298-.140249,1.320844.41,1.7-11.186576-2.245647-22.643261-2.82859-34-1.73-3.87-8.46-7.25-17.76-12.12-25.6-3.18-5.14-12-.51-16.31,1.08-5,1.86-14.12,4.64-14.16,11.33c0,4.08,2.47,8.88,3.69,12.75L549.07,215c-7.845865,6.170331-14.961908,13.215919-21.21,21h-.07c-8.92-2-18.29-5.23-27.39-6.18-6.74-.72-9.5,8.06-11.63,13.07-2.39,5.6-6.84,14.06-1.59,19.21c3,3,7.49,4.73,11.23,6.59c3.59,1.79,7.23,3.46,10.91,5.06-2.971601,10.319262-2.818488,21.287707.44,31.52-7.4,4.65-14.85,9.26-22,14.27-6.39,4.47-1.65,11.14.73,17c1.61,3.92,3,8.59,5.35,12.12c1.19,1.78,2.49,2.62,4.65,2.3c4.32-.65,9.11-3.76,13.12-5.46c4.78-2,9.55-4.05,14.33-6.05c5.695764,9.410112,13.820125,17.113057,23.52,22.3-2.71,8.78-5.63,17.83-7.12,26.88-1.25,7.63,7.49,10.62,13.18,13.29c5.53,2.59,12.71,6.31,17.65.71c5.69-6.47,9.63-15.43,13.28-23.36c10.870862,2.945899,22.380869,2.513402,33-1.24c4.38,7.69,8.61,15.52,13.31,23c4.37,6.92,9.95,3.52,16.37.91c3.63-1.54,8.95-2.83,11.81-5.5ZM631.7,353.12c-.75-1.51-1.53-3.34-1.77-3.79-.73-1.37-1.47-2.74-2.2-4.12c4.471402-2.286901,8.699651-5.020856,12.62-8.16.03014.045698.063562.089146.1.13l5.66,5.88c-4.487114,3.784955-9.310473,7.152268-14.41,10.06Zm17.82-13L648,341.44l-5.69-5.91-.06-.06c4.195824-3.602796,7.93375-7.70679,11.13-12.22l.08.07l6.79,4.81c-3.136933,4.366382-6.734277,8.382801-10.73,11.98Zm12.17-14l-6.83-4.84h-.08c2.532037-3.90454,4.618398-8.080616,6.22-12.45l7.81,3.35c-1.833814,4.890435-4.222775,9.554276-7.12,13.9Zm10.42-26.39c-.546523,3.441484-1.37259,6.832707-2.47,10.14l-7.84-3.36c.45-1.37.85-2.75,1.2-4.17.545074-2.206413.955828-4.443854,1.23-6.7c2.79.07,5.57.23,8.35.5-.13,1.15-.27,2.35-.47,3.55Zm-.2-22.6c.953547,5.451568,1.252331,10.99754.89,16.52-2.77-.27-5.53-.43-8.31-.5.426358-5.244389.140425-10.522364-.85-15.69c2.76-.08,5.51-.19,8.27-.37Zm-5.7-18c2.325103,4.978613,4.07636,10.205544,5.22,15.58-2.77.19-5.54.29-8.32.32-1.035815-4.370374-2.551692-8.612817-4.52-12.65Zm-1.08-2.25l-7.68,3.27c-2.068527-3.848451-4.531784-7.471282-7.35-10.81l7.28-4.64c2.965814,3.771611,5.56115,7.820335,7.75,12.09Zm-6.07,22.5c.731176,4.629549.892377,9.331244.48,14C657,317.64,639,337,616.28,344.73c-5.919188,2.113702-12.106674,3.382843-18.38,3.77-8.369801-.481463-16.530352-2.803293-23.9-6.8-11.83-8.7-23.14-19.37-29.67-32.7-.051789-.104703-.111987-.205032-.18-.3-6.54-21.28-.65-45.78,15.75-61.07c17.42-16.25,43.2-20.95,65-11.25c17.63,7.86,30.93,24.19,34.16,42.91Zm-3.25-36.63l-7.37,4.69c-3.195494-3.532712-6.774183-6.698861-10.67-9.44l5.11-7.5c4.780533,3.521962,9.121517,7.604435,12.93,12.16Zm-19.65-16.6c1.61.93,3.16,1.93,4.68,3l-5.15,7.56v0c-3.988321-2.553432-8.24773-4.656306-12.7-6.27c1-3,2.17-6,3.39-8.9c3.37697,1.239464,6.647718,2.751098,9.78,4.52ZM624,220.58c-1.23,2.93-2.38,5.9-3.41,8.92-4.672864-1.489732-9.501005-2.439255-14.39-2.83.245587-3.204981.764134-6.38317,1.55-9.5c5.531788.494552,10.986048,1.639107,16.25,3.41ZM605.23,217c-.766381,3.13653-1.274745,6.330527-1.52,9.55-3.425197-.136836-6.855852-.003087-10.26.4-.659149-3.145616-.951101-6.357088-.87-9.57c4.198171-.486402,8.430202-.61353,12.65-.38Zm-15.16.71c-.054008,3.21625.244439,6.428741.89,9.58-4.272487.672056-8.466806,1.770887-12.52,3.28q-1.68-4.53-3.05-9.15c4.756091-1.729513,9.674225-2.975798,14.68-3.72Zm-17,4.6q1.38,4.62,3.06,9.15c-4.448051,1.826408-8.68319,4.133435-12.63,6.88-.42.3-.82.6-1.23.91L559.71,234c-.43-.86-.85-1.73-1.27-2.59-.14-.3-.29-.59-.43-.89c4.66981-3.33213,9.722596-6.091858,15.05-8.22ZM541.7,247.05c3.438598-4.943344,7.517476-9.408925,12.13-13.28.68-.58,1.38-1.14,2.09-1.68.24.44.49.87.7,1.29l3.57,7.33c.003058.026579.003058.053421,0,.08-4.121938,3.310314-7.796057,7.142424-10.93,11.4-2.410139-1.869596-4.935089-3.586295-7.56-5.14Zm-1.4,2.08c2.623025,1.542052,5.147873,3.245322,7.56,5.1-2.914332,4.311639-5.291887,8.962648-7.08,13.85-.088084-.0565-.18195-.103433-.28-.14l-7.92-2.88c1.919887-5.602562,4.512145-10.951613,7.72-15.93Zm-8.51,18.31l7.89,2.86c.096817.035326.197547.058829.3.07-1.455557,4.47148-2.437607,9.083428-2.93,13.76-2.74-.95-5.45-2-8.11-3.13.537254-4.597004,1.491177-9.135671,2.85-13.56Zm4.61,19.11c.06486.260542.20379.496723.4.68-.17338,2.887972-.156677,5.78422.05,8.67q-4.1-.4-8.21-.42c-.309979-3.953934-.309979-7.926066,0-11.88c2.58,1.07,5.15,2.05,7.76,2.95Zm-3,29.25c-1-2.17-1.94-4.39-2.74-6.65.175213-.258505.219601-.584021.12-.88-.883021-3.3729-1.521347-6.805158-1.91-10.27c2.75,0,5.48.17,8.21.45.505774,4.680634,1.511513,9.29362,3,13.76-2.145713,1.353455-4.384656,2.553127-6.7,3.59Zm1.09,2.25c2.352238-1.06531,4.624772-2.298494,6.8-3.69l.17-.13c2.009056,3.573043,4.313774,6.971583,6.89,10.16l-6.06,6c-2.977575-3.866218-5.595153-7.99677-7.82-12.34Zm9.36,14.34l6.1-6.06c2.950707,3.437612,6.113549,6.68729,9.47,9.73l-5.18,6.43c-.089141.106061-.157041.228283-.2.36-3.708401-3.175271-7.125349-6.675886-10.21-10.46Zm11.91,11.9c.217706-.088243.41012-.229117.56-.41l5-6.16c2.52,2.23,5.12,4.37,7.76,6.45c1.702262,1.355645,3.474715,2.620729,5.31,3.79l-2.05,6.71c-5.939087-2.764284-11.514518-6.250607-16.6-10.38Zm18.83,11.41c.66-2.14,1.31-4.28,2-6.42c2.879878,1.655119,6.000938,2.849557,9.25,3.54c2.157183.419668,4.343815.670428,6.54.75q-.27,3.56-.53,7.11c-5.944241-.936935-11.748823-2.609783-17.28-4.98Zm28.84,5.81c-3.051233.0446-6.101885-.122468-9.13-.5q.27-3.7.56-7.41c3.767361-.062761,7.523252-.434002,11.23-1.11c1.08-.19,2.14-.41,3.21-.65l1.2,9c-2.343908.395358-4.713524.619285-7.09.67Zm9.53-1.09l-1.22-9.16c4.732505-1.208022,9.339794-2.862093,13.76-4.94l4,7.54.17.35c-5.260808,2.837792-10.891725,4.927929-16.73,6.21Z" fill="#00bcd4"/><path d="M606,285.12c-.086233-.510674-.291808-.993777-.6-1.41.158411-.404814.037152-.865598-.3-1.14-2.14-2-6.17-1.2-6.81,1.89s2.66,5.77,5.48,4.52c1.503669-.664795,2.405198-2.225289,2.23-3.86Zm-3.75-.05c.29-.08.75,0,.61.34-.043859.142719-.175694.240125-.325.240125s-.281141-.097406-.325-.240125c-.02879-.111505-.02879-.228495,0-.34Z" fill="#00bcd4"/><polygon style="mix-blend-mode:multiply" points="380.66,64.57 380.66,154.41 348.02,175 380.66,173.6 380.66,190.79 514.99,190.79 514.99,64.57 380.66,64.57" opacity="0.2"/><rect width="16.68" height="159.3" rx="0" ry="0" transform="translate(351.35 454.4)" fill="#1a4ced"/><polygon style="mix-blend-mode:multiply" points="368.03,524 368.03,454.4 351.35,454.4 351.35,504.49 368.03,524" opacity="0.2"/><path d="M411.1,459.43h-102.82c-3.39,0-6.32-3.11-7-7.45L299,438.26c-.94-5.84,2.46-11.33,7-11.33h107.32c4.56,0,8,5.49,7,11.33L418.12,452c-.7,4.32-3.63,7.43-7.02,7.43Z" fill="#388e3c"/><path d="M359.69,605.62c-21.94,0-41.81,7.87-56.34,20.62-1.119629.948952-1.528281,2.49566-1.023485,3.873797s1.815807,2.294952,3.283485,2.296203h108.16c1.467678-.001251,2.77869-.918066,3.283485-2.296203s.096144-2.924845-1.023485-3.873797c-14.53-12.75-34.4-20.62-56.34-20.62Z" fill="#1a4ced"/><path d="M416,626.24c-13.46998-11.632068-30.268092-18.715272-48-20.24v-151.6h-16.65v151.6c-17.731248,1.519889-34.529831,8.599791-48,20.23-1.119629.948952-1.528281,2.49566-1.023485,3.873797s1.815807,2.294952,3.283485,2.296203h108.16c1.457235-.018488,2.750513-.938014,3.246588-2.308337s.091117-2.904633-1.016588-3.851663Z" fill="#388e3c"/><polygon id="eMWRkAyCs3p21" points="70.96,204.28 89.03,236.83 108.48,205.1 96.69,204.84 99.78,166.56 81.34,166.16 82.75,204.54 70.96,204.28" transform="translate(34.295002-22.048665)" fill="#fff" stroke="#000" stroke-width="3"/><polygon points="376.25,57.86 376.25,147.71 343.61,168.3 376.25,166.9 376.25,184.09 510.58,184.09 510.58,57.86 376.25,57.86" fill="#388e3c"/><path d="M221.73,591.31l-2,24.94c0,0-30.54,12.22-30.54,16.29s53.95,5.34,56,0s4.58-41.23,4.58-41.23Z" fill="#388e3c"/><path d="M159.24,591.31l-7.67,24.94c0,0-30.57,12.22-30.57,16.29s53.95,5.34,56,0s10.21-41.23,10.21-41.23Z" fill="#388e3c"/><path d="M332,364.82c0,0-119.86,6.37-135.64,41.48-16,35.56-41.23,190.23-41.23,190.23h33.72l45-165.29c0,0,119.09-3.6,145.43-15.65s36.72-50.77,36.72-50.77Z" fill="#00bcd4"/><path style="mix-blend-mode:multiply" d="M203.61,542.41l30.3-111.17c0,0,119.09-3.6,145.43-15.65s36.66-50.77,36.66-50.77h-84c0,0-119.86,6.37-135.64,41.48-2.243171,5.296772-4.156819,10.727125-5.73,16.26Z" opacity="0.2"/><path d="M416,364.82c4.096204,13.826327,4.096204,28.543673,0,42.37-6.87,22.91-32.07,28.25-53.82,28.25h-72.58c-5.628444-.000758-10.428868,4.075793-11.34,9.63L253.37,596.53h-38.93c0,0,4.2-138.11,13-168.34c13.23-45.55,47.33-47.64,130.17-54.9Z" fill="#00bcd4"/><path d="M276.12,211.76c-15.65,13.36-23.67,106.88-23.67,106.88L186,333.91v19.85l70.92-3.9c11.323971-.622954,20.774253-8.865677,22.93-20l13-67.32Z" fill="#388e3c"/><path d="M271.32,344.59c0,0-16.51,3-23.48,4.77-6.05,1.58-33.88,16.42-33.88,19.57s19.09,2.1,19.09,2.1s19.37-4.68,22.23-10.6l19.57-1.24Z" fill="#fff"/><path style="mix-blend-mode:multiply" d="M281.32,322.42l11.6-59.89-16.8-50.77c-6.84,5.84-12.22,27-16.11,48.95Z" opacity="0.2"/><path d="M311.4,193.43c22.38-3.2,53.06-1.53,67.94,17.56s34.36,101.54,36.66,122.53s12.21,34-7.64,34h-78.26c-18.32,0-19.09-2.29-18.7-22.53s-2.68-40.84-22.91-74.43-20.61-48.86-13.74-58.79s25.84-16.77,36.65-18.34Z" fill="#388e3c"/><path style="mix-blend-mode:multiply" d="M311.4,345c-.39,20.24.38,22.53,18.7,22.53h78.25c19.85,0,9.93-13,7.64-34s-21.76-103.46-36.65-122.53c-.84381-1.074596-1.745126-2.102765-2.7-3.08L310.05,323.83c1.090105,7.00123,1.541962,14.087013,1.35,21.17Z" opacity="0.2"/><path d="M366.82,202.29c22.55,1.9,20.91,59.47,20.91,79.32s.38,58.4-19.08,64.51-98.11,17.18-98.11,17.18l-2.87-19.47l79.6-26.34c0,0,1.53-49.24,1.91-66s-4.04-51.03,17.64-49.2Z" fill="#388e3c"/><path d="M275.54,154.73c3,6.75,1.48,14-3.36,16.11s-11.18-1.59-14.18-8.35-1.49-14,3.35-16.12s11.2,1.63,14.19,8.36Z" fill="#00bcd4"/><path d="M263.88,153c4,15.2,7,23.62,9.28,29.32s9.89,7.22,20,4.46c0,0,3.92,11.59,6.59,17.66s31.11,2.2,27.68-8.46-7.89-23-7.89-23s11.9-53.32-25.7-56.81-40.45,30.62-29.96,36.83Z" fill="#fff"/><path d="M280.65,128.52c0,0,8.85,12.79,23.52,13c0,0,3,22.21,15.37,31.41c0,0,19.1-9.2,12.34-20.42c0,0,16.54-9.65-3.26-28.72c0,0,12.25-4.54,11.79-9.7s-23.16-1.71-23.16-1.71-26-34.64-42.89-31.46c-9.55,1.8-11.18,16.84-11.18,16.84s-20-7.86-27.94,3.14s10.24,31.42,10.24,31.42-7.84,2.45-7.68,8.52c.31,12.06,26.08,12.12,26.08,12.12l-.7-7.63c0,0,7.45,1.8,6.76-.67s-4.43-5.84-4.43-5.84s12.11-3.12,15.14-10.3Z" fill="#252933"/><ellipse rx="13.38" ry="9.59" transform="matrix(.197999-.980202 0.980202 0.197999 313.995802 151.648705)" fill="#00bcd4"/><path d="M316.93,150.87c-.266947-.002827-.532435-.039793-.79-.11-.7914-.20043-1.466938-.714732-1.870759-1.424249s-.501045-1.552965-.269241-2.335751c4.34-16.23,1-38.8.95-39-.254051-1.656854.883146-3.205949,2.54-3.46s3.205949.883146,3.46,2.54c.15,1,3.59,24-1.08,41.52-.353137,1.33496-1.559127,2.266116-2.94,2.27Z" fill="#00bcd4"/><polyline points="349.05,233.99 347.27,317.49 267.68,343.83" fill="none" stroke="#103094" stroke-width="0.5" stroke-miterlimit="10"/><path d="M218,376.13h-158.67L32.35,258c-.362484-1.582578.016115-3.244082,1.028445-4.513388s2.547996-2.007995,4.171555-2.006612h145.63c3.732694-.000251,6.969476,2.580875,7.8,6.22Z" fill="#252933"/><rect width="178.39" height="6.74" rx="0" ry="0" transform="translate(123.14 369.38)" fill="#252933"/><polygon points="63.47,390.78 21.29,661.55 10.6,661.55 40.06,390.78 63.47,390.78" transform="translate(1.555-1.65207)" fill="#fff" stroke="#000"/><polygon points="114.88,634.32 100.68,390.78 77.27,390.78 102.91,634.32 114.88,634.32" fill="#fff" stroke="#000"/><polygon points="239.09,390.78 196.9,661.55 186.21,661.55 215.67,390.78 239.09,390.78" fill="#fff" stroke="#000"/><polygon points="290.49,634.32 276.3,390.78 252.88,390.78 278.52,634.32 290.49,634.32" fill="#fff" stroke="#000"/><g style="mix-blend-mode:multiply" opacity="0.2"><polygon points="60.72,408.47 63.47,390.78 40.06,390.78 38.59,404.26 60.72,408.47"/><polygon points="100.68,390.78 77.27,390.78 79.51,412.05 102.17,416.37 100.68,390.78"/></g><g style="mix-blend-mode:multiply" opacity="0.2"><polygon points="236.35,408.47 239.11,390.78 215.69,390.78 214.23,404.26 236.35,408.47"/><polygon points="276.32,390.78 252.91,390.78 255.15,412.05 277.81,416.37 276.32,390.78"/></g><rect width="301.09" height="14.66" rx="0" ry="0" transform="translate(0 376.13)" fill="#fff" stroke="#000"/><line x1="0" y1="385.72" x2="301.54" y2="385.72" fill="none" stroke="#ffcf30" stroke-width="0.5" stroke-miterlimit="10"/><line x1="182.56" y1="259.13" x2="209.98" y2="376.13" opacity="0.15" fill="none" stroke="#fff" stroke-width="0.5" stroke-miterlimit="10"/><path d="M138.84,313.26c0,10.123379-8.206621,18.33-18.33,18.33s-18.33-8.206621-18.33-18.33s8.206621-18.33,18.33-18.33s18.33,8.206621,18.33,18.33Z" transform="translate(0-.745)" fill="#388e3c"/><rect width="14.83" height="7.56" rx="0.66" ry="0.66" transform="translate(441.34 160.52)" fill="#942754"/><path id="eMWRkAyCs3p57" d="M472.08,106.5c0-12.884803-10.445197-23.33-23.33-23.33s-23.33,10.445197-23.33,23.33c.139926,5.16874,1.438527,10.240119,3.8,14.84c2.791907,5.446991,4.390761,11.426498,4.69,17.54l.32,4.79h29l.31-4.79c.308515-6.116458,1.910407-12.097991,4.7-17.55c2.376798-4.592483,3.689243-9.661118,3.84-14.83Z" fill="#00bcd4"/><path d="M433.31,143.67h30.88v18.9c.000351.663991-.52636,1.208407-1.19,1.23h-28.46c-.326216,0-.639072-.129589-.869741-.360259s-.360259-.543525-.360259-.869741v-18.9Z" fill="#ff1a79"/><path d="M454.36,125.22v-13v0c0-4.73-.82-6.64-1.78-6.64-.5,0-.95.5-1.28,1.62-.32-1.12-.77-1.62-1.27-1.62s-.94.5-1.27,1.62c-.32-1.12-.77-1.62-1.27-1.62s-.94.5-1.27,1.62c-.32-1.12-.77-1.62-1.27-1.62-1,0-1.75,1.91-1.79,6.64v0v13" fill="none" stroke="#fff" stroke-width="0.52" stroke-linecap="round" stroke-linejoin="round"/><line x1="433.31" y1="148.22" x2="464.19" y2="148.22" fill="none" stroke="#942754" stroke-width="0.52" stroke-miterlimit="10"/><line x1="433.31" y1="151.9" x2="464.19" y2="151.9" fill="none" stroke="#942754" stroke-width="0.52" stroke-miterlimit="10"/><line x1="433.31" y1="155.57" x2="464.19" y2="155.57" fill="none" stroke="#942754" stroke-width="0.52" stroke-miterlimit="10"/><line x1="433.31" y1="159.25" x2="464.19" y2="159.25" fill="none" stroke="#942754" stroke-width="0.52" stroke-miterlimit="10"/><line x1="449.39" y1="63.69" x2="449.39" y2="73.88" fill="none" stroke="#fff" stroke-width="0.75" stroke-linecap="round" stroke-linejoin="round"/><line x1="426.91" y1="69.72" x2="432" y2="78.54" fill="none" stroke="#fff" stroke-width="0.75" stroke-linecap="round" stroke-linejoin="round"/><line x1="410.45" y1="86.18" x2="419.27" y2="91.27" fill="none" stroke="#fff" stroke-width="0.75" stroke-linecap="round" stroke-linejoin="round"/><line x1="478.41" y1="125.41" x2="487.23" y2="130.5" fill="none" stroke="#fff" stroke-width="0.75" stroke-linecap="round" stroke-linejoin="round"/><line x1="404.43" y1="108.66" x2="414.61" y2="108.66" fill="none" stroke="#fff" stroke-width="0.75" stroke-linecap="round" stroke-linejoin="round"/><line x1="482.9" y1="108.66" x2="493.08" y2="108.66" fill="none" stroke="#fff" stroke-width="0.75" stroke-linecap="round" stroke-linejoin="round"/><line x1="410.45" y1="131.14" x2="419.27" y2="126.05" fill="none" stroke="#fff" stroke-width="0.75" stroke-linecap="round" stroke-linejoin="round"/><line x1="478.41" y1="91.91" x2="487.23" y2="86.82" fill="none" stroke="#fff" stroke-width="0.75" stroke-linecap="round" stroke-linejoin="round"/><line x1="466.15" y1="79.65" x2="471.24" y2="70.83" fill="none" stroke="#fff" stroke-width="0.75" stroke-linecap="round" stroke-linejoin="round"/></g></g></g></svg>