<svg xmlns="http://www.w3.org/2000/svg" viewBox="0 0 171.1 146.27" width="100%" height="100%">
    <path fill="currentColor" d="M67.92,112.35c-3.22,6.16-6.12,11.85-9.15,17.47-1.07,1.99-2.31,3.93-3.7,5.72-1.9,2.44-4.61,2.71-7.47,2.27-3.57-.55-5.24-3.2-6.73-6.04-1.78-3.38-3.51-6.8-5.29-10.18-2.39-4.55-4.79-9.09-7.2-13.64-1.74-3.29-3.48-6.58-5.24-9.86-2.41-4.53-4.82-9.05-7.26-13.57-2.39-4.41-4.85-8.78-7.2-13.21-2.44-4.59-4.65-9.31-7.22-13.83C.27,55.42-.05,53.38,0,51.1c.09-3.9,3.3-7.23,7.18-7.24,7.26-.02,14.51-.01,21.77-.01,.68,0,1.36,0,2.34,0-.35-.98-.52-1.75-.87-2.43-2.1-4.13-4.2-8.25-6.38-12.34-1.75-3.27-3.82-6.39-5.38-9.75-3.01-6.49-1.61-13.01,4.59-17.19C25.63,.54,28.19,.05,30.92,.05,73.25,.04,115.57,.09,157.89,0c7.95-.02,13.7,6.55,13.18,12.85-.19,2.37-1.28,4.7-2.21,6.96-.73,1.79-1.85,3.42-2.77,5.14-3.4,6.34-6.82,12.67-10.18,19.03-2.38,4.5-4.64,9.05-7,13.56-1.67,3.19-3.41,6.34-5.1,9.52-3.03,5.71-6.02,11.44-9.09,17.12-1.81,3.36-3.8,6.63-5.63,9.98-1.51,2.76-2.91,5.58-4.37,8.37-1.88,3.6-3.77,7.2-5.67,10.79-2.33,4.39-4.66,8.77-7.03,13.14-2.7,4.97-5.16,10.11-8.24,14.83-2.59,3.97-9.21,6.71-15.23,3.74-3.2-1.57-5.3-3.96-6.85-7.1-1.76-3.59-3.79-7.05-5.66-10.59-1.89-3.58-3.71-7.21-5.61-10.79-.68-1.28-1.48-2.48-2.51-4.19Zm.46-68.95c-9.32,0-18.65,.06-27.97-.04-2.6-.03-4.22,1.16-5.42,3.22-1.12,1.94-.46,3.71,.54,5.52,1.72,3.09,3.31,6.25,4.96,9.38,1.63,3.08,3.25,6.16,4.9,9.23,1.86,3.48,3.75,6.95,5.62,10.43,1.57,2.92,3.09,5.87,4.68,8.79,2.43,4.46,5.01,8.84,7.3,13.36,1.79,3.53,6.35,4.15,8.32,2.01,1.55-1.69,2.8-3.72,3.93-5.74,2.48-4.48,4.76-9.08,7.19-13.59,3.02-5.58,6.16-11.09,9.15-16.68,3.18-5.95,6.24-11.95,9.35-17.94,2.2-4.24,.01-7.92-4.74-7.93-9.27-.01-18.53,0-27.8,0Z"/>
</svg>