<svg xmlns="http://www.w3.org/2000/svg" viewBox="0 0 372.8 409.09" width="100%" height="100%">
    <path fill="currentColor" d="M264.7,139.64c-3.08-2.65-5.51-4.85-8.05-6.91-28.27-22.88-60.4-35.2-96.97-34.46-32.69,.66-61.66,12-87.28,32.12-32.18,25.27-51.99,58.47-62.49,97.63-.38,1.43-.77,2.87-1.2,4.45C-16.75,159.95,12.49,54.07,111.6,13.55c98.45-40.25,203.16,13.43,235.65,104.86-3.89-3.59-7.31-6.73-10.71-9.89-13.33-12.41-29.62-13.68-44.63-3.33-9.67,6.67-16.4,15.92-22.24,25.89-1.5,2.56-2.99,5.14-4.98,8.54Z"/>
    <path fill="currentColor" d="M288.12,409.09c-1.23-8.49-2.62-15.95-3.27-23.48-.35-4.1-1.82-5.75-5.79-5.29-.33,.04-.66,0-1,0-65.86-.26-131.71-.52-197.57-.77-7.43-.03-7.41,0-8.36,7.38-.9,7.03-1.84,14.05-2.87,21.97-21.66-9.16-39.46-22.17-57.65-37.07,9.59-8.89,18.38-17.92,28.11-25.79,8.88-7.19,18.84-13.04,28.2-19.65,3.3-2.33,6.06-2.62,9.19,.24,1.94,1.77,4.32,3.05,6.84,4.77-3.62,12.36-7.22,24.68-11.19,38.23,5.68,0,10.56,.07,15.44-.02,4.8-.09,10.83,1.36,14.04-.98,3.18-2.32,3.58-8.52,5.11-13.04,1.1-3.25,2.05-6.55,3.21-10.29,45.41,17.01,90.4,17.32,136.04,.3,2.12,6.33,4.56,12.44,6.16,18.78,1.06,4.23,3.04,5.5,7.21,5.34,7.91-.29,15.85-.09,24.69-.09-3.27-10.96-6.14-20.96-9.39-30.83-.28-.84-3.26-1.44-4.76-1.11-17.15,3.8-34.02,3.08-50.52-3.02-11.42-4.23-20.35-11.18-23.63-23.65-.21-.8-.69-1.64-.59-2.39,1.15-8.62-4.09-12.77-10.26-17.69-12.71-10.12-24.36-21.56-36.41-32.5-1.28-1.16-2.3-2.61-3.11-4.36,16.67,10.25,33.7,19.55,51.99,26.2,.4-.58,.69-.83,.75-1.13,2.36-12.5,10.79-20.83,19.42-29.27,15.94-15.6,31.75-31.48,42.64-51.19,4.85-8.77,8.03-18.48,11.76-27.84,.61-1.53,.52-3.61,.07-5.24-2.16-7.81-4.56-15.55-7.29-24.74,2.21,1.93,3.5,3,4.73,4.13,28.61,26.42,52.55,56.89,75.78,87.94,8.57,11.45,16.74,23.19,25.31,34.64,2.37,3.16,2.25,5.04-.73,7.8-21.83,20.2-45.18,38.22-72.01,51.4-1.18,.58-2.29,1.29-4.15,2.36,19.16,12.06,36.04,26.06,50.96,43.19-17.24,14.36-35.19,27.21-57.1,36.77Z"/>
    <path fill="currentColor" d="M109.17,180.31c20.1-5,40.21-9.95,60.27-15.08,2.46-.63,4.96-1.85,6.98-3.4,9.77-7.46,23.59-6.61,31.61,2.15,9.13,9.98,9.48,23.91,.83,33.32-8.47,9.21-22.47,10.25-32.51,2.73-2.67-2-5.92-3.58-9.14-4.4-19.33-4.92-38.72-9.56-58.09-14.3l.05-1.03Zm81.93-2.35c5.14,.06,9.32-3.89,9.41-8.89,.08-4.98-4.03-9.09-9.15-9.15-5.13-.05-9.29,3.88-9.41,8.88-.11,4.9,4.09,9.1,9.15,9.15Z"/>
    <path fill="currentColor" d="M349.82,181.18c-2.14,3.88-4.04,8.28-6.81,12.03-1.71,2.32-4.75,5.07-7.16,5.05-2.43-.02-5.75-2.74-7.07-5.16-4.4-8.05-4.28-16.62,.12-24.64,1.21-2.21,4.5-4.62,6.77-4.55,2.52,.08,5.66,2.38,7.27,4.61,2.83,3.92,4.7,8.53,6.88,12.65Zm-19.01-9.02c2.25,2.77,3.83,4.72,5.42,6.67,1.38-2.18,3.81-4.35,3.83-6.54,.02-2.18-2.39-4.38-3.73-6.57-1.62,1.9-3.24,3.79-5.51,6.44Z"/>
</svg>