<?xml version="1.0" encoding="UTF-8"?><svg id="Capa_2" width="200" height="200" xmlns="http://www.w3.org/2000/svg" viewBox="0 0 167.41 214.18"><defs><style>.cls-1{fill:#fff;}.cls-2{fill:#ed9996;}.cls-3{fill:#e2f4f7;}.cls-4{fill:#57dfed;}.cls-5{fill:#282828;}.cls-6{fill:#424242;}.cls-7{fill:#351e48;}.cls-8{fill:#9e1533;}.cls-9{fill:#ffd34f;font-family:Montserrat-Bold, Montserrat;font-size:11px;}.cls-10{fill:#ffb1a5;}.cls-11{fill:#bc2445;}</style></defs><g id="OBJECTS"><g><path class="cls-3" d="M163.01,92.96c-1.48-37-18.79-74.16-54.63-88.86C88.04-4.24,64.99,.31,49.55,16.27c-8.4,8.68-12.66,18.95-14.7,29.86-.32,.68-.62,1.38-.87,2.11-1.76,5.13-1.98,10.75-2.43,16.1-.87,10.3-2.62,19.24-10.14,26.73-12.83,12.8-27.8,32.45-18.54,51.42,17.45,35.76,61.53,35.61,95.49,33.32,18.94-1.28,37.47-5.29,50.33-20.45,14.7-17.32,15.19-40.77,14.32-62.39Z"/><g><g><path class="cls-2" d="M103.15,93.4c1.22-.73,9.61-10.58,13.65-2.72,4.03,7.86,30.38,66.37,20.51,70.29-9.87,3.92-14.41,4-20.51-7.29-3.11-5.75-29.23-51-13.65-60.28Z"/><path class="cls-8" d="M127.4,114.69c-4.61-11.37-9.12-21.12-10.6-24.01-4.03-7.86-12.42,1.99-13.65,2.72-8.38,4.99-7.07,20.46-1.39,34.51,6-.75,18.5-7.11,25.64-13.22Z"/><path class="cls-8" d="M74.63,83.31c-1.73,.58-31.78,1.42-43.58,37.66-11.8,36.23-6.43,57.95-6.43,57.95H97.19s-6.97-52.77,12.25-68c19.22-15.23-34.81-27.6-34.81-27.6Z"/><path class="cls-2" d="M69.7,83.31s2.64,25.87,13.31,28.17c10.66,2.3,20.15-18.09,20.15-18.09l-33.45-10.08Z"/><g><path class="cls-2" d="M120.78,72.42c-.34,5.07-3.36,9-6.75,8.78-3.39-.23-5.87-4.52-5.53-9.59,.34-5.07,3.36-9,6.75-8.78,3.39,.23,5.87,4.52,5.53,9.59Z"/><path class="cls-5" d="M116.62,53.16c0-.05-.04-.09-.07-.14,.09-.22,.08-.48-.14-.7-1.78-1.75-7.55-.59-8.8,1.47-1.01,1.66,.09,4.9,.4,6.58,.83,4.46,1.89,8.88,2.74,13.33,.1,.55,.9,.6,1.16,.15,3.51-6.07,5.52-13.66,4.71-20.7Z"/><path class="cls-10" d="M114.63,66.1c.11,12.45,0,31.07-20.5,33.65-14,1.76-26.65-9.94-30.04-26.4-3.46-16.82,6.36-32.25,20.7-34.09,14.34-1.84,29.69,10.04,29.84,26.84Z"/><path class="cls-1" d="M101.89,87.04c-1.26-1.64-3.26-1.3-5.02-.8-1.53,.44-2.81,1.02-4.43,.67-1.18-.26-2.01-.6-3.24-.23-.89,.27-1.55,.72-1.94,1.34-.71,.61-1.13,1.4-.49,2.48,.74,1.25,2.68,1.33,3.88,.81,1.66-.72,2.2-2.12,4.32-2.25,.96-.06,1.92,.13,2.87,.22,1.09,.11,3.2,.54,4.15-.26,.72-.61,.42-1.3-.09-1.98Z"/><path class="cls-2" d="M69.08,69.03c3.06-3.2,5.76-6.74,8.06-10.53,1.2,1.06,3.11,1.2,4.45,.33,.23-.15,.44-.32,.7-.4,.78-.25,1.51,.4,2.18,.87,1.77,1.25,4.25,1.39,6.15,.36,.83-.45,1.6-1.12,2.54-1.18,1.6-.11,2.9,1.58,4.51,1.49,1.22-.07,2.15-1.15,3.33-1.49,1.92-.56,3.77,.94,5.7,1.5,2.27,.66,4.9-.14,6.4-1.97,.39-.48,.72-1.04,.77-1.65,.04-.44-.07-.87-.2-1.29-.79-2.61-2.43-4.9-4.38-6.79-1.65-1.6-3.56-2.96-5.72-3.74-2.54-.91-5.29-.97-7.98-.98-4.11-.02-8.27,.06-12.24,1.1-3.97,1.04-7.8,3.15-10.18,6.5-1.7,2.39-2.57,5.26-3.3,8.11"/><path class="cls-5" d="M121.43,47.11c.78-2.49-.66-5.05-2.62-6.52-1.11-.83-3.34-.93-4.2-1.71-1.18-1.07-.33-2.72-1.05-4.19-1.41-2.89-4.69-3.08-7.32-2.32-2.5,.72-.93,.99-2.49-.57-1.53-1.54-2.66-2.88-4.77-3.68-3.83-1.45-5.72,0-8.65,2.18-2.08,1.55-.92,.85-3.65-.26-1.66-.68-3.71-.79-5.46-.48-3.54,.62-4.24,2.59-6.14,5.12-1.6,2.13-2.19,.98-4.65,1.23-2.03,.21-3.81,1.15-4.92,2.91-.87,1.38-1.09,2.84-.8,4.44,.48,2.61,.81,1.66-1.65,3.19-3.08,1.91-4.51,4.36-3.64,7.85,.34,1.34,.91,2.36,.83,3.84-.04,.8-.37,1.62-.42,2.44-.09,1.74,.25,3.58,.53,5.28,.33,1.99,.66,5.38,2.07,7.38,.55,.08,1.45,.1,1.66,.1,.46,0,2.16,1.45,2.61,1.39,2.07-2.49,4.11-6.68,5.06-9.65,.87-2.7,1.52-4.48,2.32-7.03,1.08-3.43,1.66-1.56,4.56-1.45,2.41,.09,.7-.28,2.63-.8,3.08-.83,2.94,.49,5.89,.97,1.33,.22,2.72,.19,3.98-.32,.47-.19,.88-.5,1.32-.74,1.99-1.07,.72-1.37,2.93-.35,1.33,.62,2.02,1.59,3.61,1.58,1.57-.01,1.95-1.03,3.29-1.42,2.79-.81,3.94,2.22,6.4,2.9,1.95,.54,4.03-.02,5.94-.43,2.34-.5,5.14-2.06,5.18-4.89,.02-1.28-.91-1.88-.59-3.13,.21-.82,1.87-1.8,2.2-2.86Z"/><path class="cls-10" d="M69.43,74.95c1,4.98-.89,9.57-4.22,10.24-3.33,.67-6.84-2.83-7.84-7.82-1-4.98,.89-9.57,4.22-10.24,3.33-.67,6.84,2.83,7.84,7.82Z"/><path class="cls-6" d="M114.64,57.99c2.34-.5,5.14-2.06,5.18-4.89,.02-1.28-.91-1.88-.59-3.13,.21-.82,1.87-1.8,2.2-2.86,.78-2.49-.66-5.05-2.62-6.52-1.11-.83-3.34-.93-4.2-1.71-1.18-1.07-.33-2.72-1.05-4.19-1.41-2.89-4.69-3.08-7.32-2.32-2.5,.72-.93,.99-2.49-.57-1.53-1.54-2.66-2.88-4.77-3.68-3.83-1.45-5.72,0-8.65,2.18-2.08,1.55-.92,.85-3.65-.26-1.66-.68-3.71-.79-5.46-.48-1.69,.29-2.73,.9-3.56,1.72,.31-.07,.62-.15,.92-.19,5.01-.68,4.74,1.56,7.92,2.93,1.77,.76,2.46,.41,4.19,.09,1.95-1.16,4.11-1.65,6.49-1.47,1.8,.97,3.04,2.3,3.73,3.99,.32,.24,.42,.78,.81,.96,3.43,1.53,4.47-2.47,7.7,3.07,.65,1.11,.43,1.64,1.38,2.76,1.63,1.91,5.25-2.21,3.36,5.1-.19,.75-1.13,.97-1.25,1.9-.19,1.49,1.07,1.6,1.5,2.67,.97,2.38,.98,3.7-.07,4.99,.1-.02,.21-.05,.31-.07Z"/><g><path class="cls-5" d="M85.16,74.74c0,1.15-.66,2.08-1.46,2.08s-1.46-.93-1.46-2.08,.66-2.08,1.46-2.08,1.46,.93,1.46,2.08Z"/><path class="cls-5" d="M109.41,72.67c0,1.15-.66,2.08-1.46,2.08s-1.46-.93-1.46-2.08,.66-2.08,1.46-2.08,1.46,.93,1.46,2.08Z"/><path class="cls-5" d="M110.54,64.63c-1.44,.03-2.93,.05-4.22-.71-1.09-.65-1.77-1.79-2.61-2.72-.13-.15-.39,.03-.32,.21,.56,1.33,1.16,2.69,2.43,3.49,1.35,.85,3.23,1.12,4.79,.89,.73-.11,.67-1.17-.08-1.15Z"/><path class="cls-5" d="M85.34,63.56c-2.2,2.39-4.9,3.92-8.24,3.61-.52-.05-.63,.8-.12,.91,2.67,.57,8.48-1.07,8.87-4.3,.03-.26-.34-.39-.51-.21Z"/><path class="cls-5" d="M99.31,74.59c-.47-2.47-.32-5.02-.53-7.51-.02-.24-.35-.24-.37,0-.22,2.19-.37,4.42-.12,6.61,.35,2.97,1.92,6.55-2.28,7.52-.42,.1-.34,.8,.1,.77,1.89-.12,3.83-1.43,4.03-3.45,.13-1.3-.59-2.7-.82-3.94Z"/><g><path class="cls-2" d="M82.76,78.61c-2.68-.83-2.21-3.18-2.62-5.42-.04-.23-.36-.19-.42,0-.7,2.14,.19,6.06,2.95,6.1,.39,0,.46-.56,.09-.68Z"/><path class="cls-2" d="M80.91,79.9c-1.2-.88-2.61-1.57-2.63-3.27,0-.2-.3-.2-.31,0-.11,1.73,1.25,2.99,2.68,3.72,.3,.15,.52-.25,.26-.45Z"/></g><g><path class="cls-2" d="M111.02,70.35c-.05-.19-.34-.15-.34,.05,.04,1.48,.32,3.1-.41,4.46-.62,1.16-1.61,1.7-2.7,2.33-.31,.18-.11,.7,.25,.59,1.29-.43,2.44-1.33,3.08-2.55,.83-1.59,.54-3.21,.11-4.87Z"/><path class="cls-2" d="M111.63,76.43c-.26,.38-.6,.66-.94,.97-.35,.31-.74,.42-1.15,.62-.46,.22-.23,.97,.26,.95,1.21-.06,2.06-1.25,2.29-2.34,.06-.28-.3-.43-.46-.19Z"/></g><g><path class="cls-2" d="M92.42,91.28s-.05,0-.04,.02c.23,.65,.3,1.35,.28,2.03-.02,.76-.34,1.21-.59,1.88-.04,.1,.08,.16,.16,.12,.62-.27,.76-1.2,.78-1.8,.04-.8-.19-1.57-.59-2.25Z"/><path class="cls-2" d="M96.45,92.93c-.09-.83-.52-1.48-.95-2.17-.11-.17-.36-.02-.27,.16,.36,.77,.69,1.49,.7,2.36,0,.87-.32,1.66-.45,2.51-.05,.34,.41,.48,.53,.15,.33-.92,.55-2.01,.44-3Z"/><path class="cls-2" d="M99.24,93.48c-.08-.6-.47-1.05-.87-1.48-.23-.25-.57,.07-.44,.34,.17,.38,.29,.77,.33,1.19,.04,.44-.17,.78-.24,1.2-.06,.41,.44,.86,.78,.46,.39-.46,.51-1.12,.43-1.71Z"/></g></g></g><g><g><path class="cls-10" d="M103.87,121.39c-.4-.97-1.08-2.04-1.66-2.83-.04-.06-.12-.14-.21-.18,.31-.03,.79-.05,.91-.08,.42-.11,.84-.2,1.18-.51,.43-.39,.65-.93,.67-1.5,.01-.61-.23-1.01-.52-1.51-.38-.67-.72-.78-.56-.9,.55-.44,1.64-.4,1.82-1.3,.16-.77-.46-1.56-.95-2.06-2.17-2.19-6.83-2.61-9.74-2.77-.92-.05-3.41-.18-3.41-.18,0,0-.12-.67,.72-1.17,.47-.28,.97-.47,1.48-.67,1.38-.55,2.87-.77,4.24-1.34,1.13-.46,2.47-1.2,1.44-2.44-1.98-2.4-6.87-.47-9.15,.32-2.97,1.03-8.49,5.5-8.8,6.01-1.39,2.22-2.19,5.12-2.74,7.63-.43,1.94-.25,4.8-.57,6.81-3.18,1.8-19.16,9.58-20.51,10.18-1.51,.67,17.89-32.04,15.36-42.68-2.53-10.64-14.12-7.19-19.7-3.79-16.46,10.03-23.53,56.09-23.58,64.57-.05,8.48,4.45,17.76,16.64,16.69,12.19-1.07,42.22-34.86,42.22-34.86l-.09-.09c1.82-1.33,3.38-2.39,4.52-4.56,.08-.16,.86-1.65,1.23-2.21,.29-.42,1.13-3.68,3.93-3.16,.44,.08,1.07,.6,1.47,.82,.93,.5,1.9,1.04,3.01,.8,1.94-.42,2.01-1.45,1.35-3.05Z"/><path class="cls-2" d="M51.12,134.95l6.37-2.03c-.51,.23,1.38-3.39,4.01-8.68l-10.38,10.71Z"/><path class="cls-2" d="M66.03,114.77l-27.65-5.45c-2.05,5.66-3.72,11.69-5.04,17.39,12.47,4.59,21.01,3.75,25.71,2.44,1.67-3.38,4.38-8.67,6.98-14.38Z"/><path class="cls-5" d="M103.06,113.36c-2.58-1.41-7.35-3.54-10.23-1.77-.19,.12-.07,.41,.15,.36,1.74-.4,3.4-.26,5.13,.11,1.67,.36,3.14,1.42,4.79,1.65,.19,.03,.35-.23,.15-.35Z"/><path class="cls-5" d="M101.71,118.27c-2.11-1.79-6-1.96-8.46-.89-.28,.12-.08,.59,.21,.49,3.03-1.01,5.2-.21,8.08,.69,.16,.05,.31-.18,.17-.29Z"/></g><path class="cls-11" d="M72.85,90.24c-2.53-10.64-14.12-7.19-19.7-3.79-8.77,5.35-17,20.24-20.8,34.92,7.47,3.65,22.54,7.03,28.82,6.49,4.76-9.53,13.55-29.72,11.68-37.62Z"/></g><g><path class="cls-10" d="M130.8,120.12c.38-3.64,.97-7.46,.41-11.05-.47-2.98-2.03-5.6-4.03-7.82,0-.02,0-.05-.01-.07-.62-1.03-1.58-1.74-2.37-2.63-.89-1-1.39-1.43-2.62-2.01-1.44-.67-2.5-1.77-3.97-1.66-1.69-.57-3.26-.49-4.1,.73-1.07,1.58,.55,3.12,1.72,4.01,.93,.71,2.01,1.21,2.93,1.93,1.42,1.11,3.26,4.61,2.11,6.44-1.68,2.66-3.15-.42-4.01-1.91-.56-.97-1.11-2.13-2.11-2.74-1.65-1.01-2.87,.33-3.02,2-.12,1.36,.4,2.6,1.14,3.7,1.43,2.13,2.39,3.87,2.88,6.46,.55,2.91,.72,6.33,3.29,8.22-.12,3.67-1.59,27.3,.76,33.51,1.76,4.66,4.97,7.85,14.51,6.63,0,0,7.39-3,7.39-9.85,0-5.07-9.69-30.62-10.91-33.9Z"/><path class="cls-5" d="M130.03,109.36c-1.38-1.99-6.04-11.74-9.49-9.76-.28,.16-.49,.36-.64,.57-.43-.61-.95-1.51-.85-2.18,.31-2,1.5-1.79,2.58-1.42,1.14,.39,2.25,1.25,3.12,2.05,2.12,1.94,3.34,4.77,4.86,7.17,.08,.12,.26,.01,.19-.11-1.92-3.57-3.8-7.94-7.89-9.52-1.68-1.31-4.46-2.69-5.85-.76-1.33,1.86,1.66,4.02,2.98,4.84,.1,.06,.19,.05,.27,0,.09,.16,.19,.31,.31,.46h0c-.48,1.82,1.97,4.56,2.79,5.66,1.33,1.78,2.17,3.53,.64,5.61-.6,.82-1.2,1.62-1.64,2.55-.64,1.37-.96,2.8-.07,4.11,.23,.33,.76,.03,.55-.32-2.2-3.57,3.42-5.75,2.77-9.12-.28-1.46-6.78-8.54-3.6-9.31,2.19-.53,4.8,3.9,5.77,5.28,.99,1.43,1.83,3.05,2.99,4.35,.1,.11,.3-.04,.21-.16Zm-13.4-13.77c1.08-1.31,2.71-.56,4.13,.29-1.95-.15-2.45,1.83-1.8,3.62-1.23-.82-3.45-2.56-2.34-3.91Z"/></g></g><g><path class="cls-4" d="M51.49,73.04c-3.37-2.55-7.75-6.55-9.97-10.2-.51-.83-1.55-.72-2.08,0-.95,1.29-1.31,3.7-2.68,4.43-1.52,.81-3.61-.28-5.17-.87-2.56-.97-5.9-3.01-8.76-2.66-2.1,.26-2.56,1.38-3.34,3.12-.88,1.96-1.05,2.95-3.39,3.49-1.79,.41-3.03,.14-4.6,1.13-1.25,.78-.92,2.51,.39,2.99,2.25,.81,6.91,.6,8.94-.94,1.05-.8,1.71-2.18,2.14-3.39,.14-.4,.21-1.93,.53-2.17,.92-.71,2.4,.15,3.28,.43,3.26,1.03,6.58,3.5,10.18,2.96,3.62-.55,3.33-3.48,4.15-6.22,3.66,2.18,6.24,6.35,10,8.53,.42,.24,.73-.35,.37-.63Z"/><path class="cls-4" d="M54.85,48.03c-2.15-3.86-4.13-8.17-5.37-12.42-.24-.82-.93-1.27-1.75-1.33-3.12-.25-7.31,1.99-9.27-1.09-1.03-1.63-1.09-3.78-2.78-4.98-2.97-2.11-7.55,.1-10.8,1.72-1.1-1.8-1.5-3.83-3.33-5.27-1.97-1.55-4.77,1.22-2.78,2.78,1.99,1.57,2.42,4.46,4.11,6.37,.62,.7,1.62,.67,2.39,.31,1.8-.84,5.68-3.46,7.65-2.7,1.02,.39,1.19,1.6,1.58,2.51,.87,1.99,1.67,4.1,3.8,5.01,2.5,1.06,4.48-.93,6.81-.7,3.81,.38,6.46,7.77,8.53,10.5,.53,.7,1.67,.1,1.21-.71Z"/><path class="cls-4" d="M72.87,16.88c-2.07-1.18-6.23-.89-7.3-3.38-1.05-2.45,.07-6.18-.36-8.83-.35-2.13-3.98-1.66-3.8,.51,.3,3.62-1.02,8.55,1.53,11.6,1.59,1.89,4.88,3.02,7.61,3.02-.16,2.92-.33,6.11,.71,8.76,.22,.57,.98,.6,1.2,0,1.13-3.16,.1-6.74,1.08-10.01,.19-.62-.12-1.35-.68-1.67Z"/><path class="cls-4" d="M163.28,37.82c-4.53,1.51-9.04,3.13-13.5,4.86-2.59,1.01-3.64,2.07-6.68-.41-1.07-.88-1.76-2.44-2.88-3.39-.75-.64-1.88-.76-2.62,0-2.66,2.75-5.98,5.09-8.88,7.59-.55,.47,.16,1.36,.77,.99,1.88-1.15,3.84-2.54,5.86-3.42,2.32-1.01,2.59-1.32,4.3,.25,1.67,1.53,2.29,3.82,4.83,4.33,2.43,.48,5.21-1.41,7.31-2.23,4.15-1.62,8.38-3.09,12.61-4.48,2.58-.85,1.47-4.96-1.13-4.09Z"/><path class="cls-4" d="M161.17,82.5c-5.5-.84-11.31-.85-16.61-2.71,.82-3.19,.68-7.22-1.98-9.26-3.14-2.4-9.12-1.06-12.55-.08-1.07,.31-1.18,2.03,0,2.28,2.28,.49,4.61,.12,6.92,.29,4.4,.31,4.33,3.97,2.89,7.43-.32,.78,.2,2.08,.98,2.41,6.21,2.68,13.13,3.09,19.79,3.75,2.33,.23,2.9-3.76,.56-4.12Z"/></g></g></g><polygon class="cls-7" points="165.69 214.18 5.51 210.19 5.51 171.29 167.41 169.84 165.69 214.18"/><text class="cls-9" transform="translate(69.84 193.73)"><tspan x="0" y="0">HARD</tspan></text></g></svg>