<svg xmlns="http://www.w3.org/2000/svg" viewBox="0 0 433.69 122.05"><defs><style>.cls-1{fill:#388e3c;}.cls-1,.cls-2{stroke:#1d1d1b;stroke-miterlimit:10;stroke-width:0.25px;}.cls-2{fill:#00bcd4;}</style></defs><title>Recurso 4ewq</title><g id="Capa_2" data-name="Capa 2"><g id="OBJECTS"><path class="cls-1" d="M13.45,102.37v-28q0-7.32-7.2-7.32a6,6,0,0,1-4.38-1.68A5.7,5.7,0,0,1,.13,61.09,5.95,5.95,0,0,1,6.25,55q7.2,0,7.2-7.32v-28Q13.45.13,33,.13a5.67,5.67,0,0,1,4.32,1.8A6.31,6.31,0,0,1,39,6.37a5.89,5.89,0,0,1-1.68,4.32A5.88,5.88,0,0,1,33,12.37c-4.89,0-7.32,2.44-7.32,7.32v28c0,5.52-1.29,10-3.84,13.44,2.55,3.28,3.84,7.72,3.84,13.32v28c0,4.87,2.43,7.32,7.32,7.32a5.73,5.73,0,0,1,4.32,1.74A6.06,6.06,0,0,1,39,115.81a6.13,6.13,0,0,1-1.68,4.38A5.81,5.81,0,0,1,33,121.93Q13.44,121.93,13.45,102.37Z"/><path class="cls-1" d="M174.54,34.45Q181,41.29,181,53.53V87.85a6.05,6.05,0,0,1-1.68,4.38,6.15,6.15,0,0,1-10.56-4.38V53.53q0-7.32-3.66-11.1a13,13,0,0,0-9.78-3.78A13.4,13.4,0,0,0,145,43a15.56,15.56,0,0,0-4,11V87.85a6.05,6.05,0,0,1-1.68,4.38,6.15,6.15,0,0,1-10.56-4.38V53.53q0-7.32-3.66-11.1a13,13,0,0,0-9.78-3.78A13.54,13.54,0,0,0,104.94,43a15.56,15.56,0,0,0-4,11V87.85a6.05,6.05,0,0,1-1.68,4.38,6.15,6.15,0,0,1-10.56-4.38V34.45A5.89,5.89,0,0,1,90.42,30a6.05,6.05,0,0,1,4.38-1.68A6,6,0,0,1,99.12,30a6.05,6.05,0,0,1,1.8,4.26,22,22,0,0,1,7.44-4.86,24.82,24.82,0,0,1,9.36-1.75,24,24,0,0,1,11,2.47,21.06,21.06,0,0,1,8,7,25,25,0,0,1,9-7,28,28,0,0,1,12-2.53Q168.12,27.6,174.54,34.45Z"/><path class="cls-1" d="M247.74,32.1a32.41,32.41,0,0,1,11.88,12,33.52,33.52,0,0,1,4.38,17V87.85a6.12,6.12,0,1,1-12.24,0V83.41A30.21,30.21,0,0,1,212.94,90a30.31,30.31,0,0,1-11-11.94,35.82,35.82,0,0,1-4-17,33.89,33.89,0,0,1,4.32-17,31.7,31.7,0,0,1,11.94-12A33.32,33.32,0,0,1,231,27.73,32.67,32.67,0,0,1,247.74,32.1Zm-5.88,48.49a20.76,20.76,0,0,0,7.62-8,23.69,23.69,0,0,0,2.76-11.46,24,24,0,0,0-2.76-11.52,21.16,21.16,0,0,0-29.34-8.1,21.09,21.09,0,0,0-7.68,8.1,23.62,23.62,0,0,0-2.82,11.52,23.28,23.28,0,0,0,2.82,11.46,21.2,21.2,0,0,0,7.68,8,21.53,21.53,0,0,0,21.72,0Z"/><path class="cls-2" d="M343.32,1.81A6,6,0,0,1,345,6.25V61a33.46,33.46,0,0,1-4.38,17A32.37,32.37,0,0,1,312,94.33,33.23,33.23,0,0,1,295.14,90,31.56,31.56,0,0,1,283.2,78a33.82,33.82,0,0,1-4.32-17,35.82,35.82,0,0,1,4-17,30.31,30.31,0,0,1,11-11.94,29.28,29.28,0,0,1,15.66-4.32,29.42,29.42,0,0,1,23.16,10.92V6.25a5.89,5.89,0,0,1,1.74-4.44,6.63,6.63,0,0,1,8.82,0ZM322.86,80.59a20.65,20.65,0,0,0,7.62-8.1A24,24,0,0,0,333.24,61a23.69,23.69,0,0,0-2.76-11.46,21.19,21.19,0,0,0-29.34-8,21.2,21.2,0,0,0-7.68,8A23.28,23.28,0,0,0,290.64,61a23.62,23.62,0,0,0,2.82,11.52,21.09,21.09,0,0,0,7.68,8.1,21.53,21.53,0,0,0,21.72,0Z"/><path class="cls-1" d="M396.36,120.19a6.08,6.08,0,0,1-1.68-4.38,6,6,0,0,1,1.68-4.38,5.7,5.7,0,0,1,4.32-1.74c4.88,0,7.32-2.45,7.32-7.32v-28q0-8.4,3.84-13.32Q408,55.93,408,47.65v-28q0-7.32-7.32-7.32a5.75,5.75,0,0,1-6-6,6.26,6.26,0,0,1,1.68-4.44,5.64,5.64,0,0,1,4.32-1.8q19.56,0,19.56,19.56v28q0,7.32,7.2,7.32a5.95,5.95,0,0,1,6.12,6.12,5.74,5.74,0,0,1-1.74,4.32,6.05,6.05,0,0,1-4.38,1.68q-7.2,0-7.2,7.32v28q0,19.55-19.56,19.56A5.78,5.78,0,0,1,396.36,120.19Z"/></g></g></svg>