<?xml version="1.0" encoding="UTF-8"?><svg id="Capa_2" width="200" height="200" xmlns="http://www.w3.org/2000/svg" viewBox="0 0 215.9 211.57"><defs><style>.cls-1{fill:#00857c;}.cls-2{fill:#fff;}.cls-3{fill:#079191;}.cls-4{fill:#ed9996;}.cls-5{fill:#e2f4f7;}.cls-6{fill:#282828;}.cls-7{stroke:#282828;}.cls-7,.cls-8{fill:none;stroke-linecap:round;stroke-linejoin:round;}.cls-9{fill:#424242;}.cls-10{fill:#351e48;}.cls-11{fill:#ffd34f;font-family:Montserrat-Bold, Montserrat;font-size:11px;}.cls-12{fill:#ffb1a5;}.cls-8{stroke:#024154;}</style></defs><g id="OBJECTS"><g><path class="cls-5" d="M214.71,81.48c-3.94-21.24-18.43-40.05-35.17-53.9C162.69,13.63,141.72,2.84,119.36,.33c-23.65-2.66-47.06,10.97-52.09,34.02-1.38,6.33-.92,11.93,1.32,18.02,1.84,5,7.63,14.81,2.34,19.3-3.67,3.12-10.6,2.8-15.04,4.36-1.2,.42-2.35,.91-3.46,1.45-15.19,2.61-30.5,4.68-38.14,19.75-10.36,20.45-3.27,46.56,11.79,63.18,13.47,14.87,34.41,19.66,54.14,20.71,21.37,1.15,42.84-1.49,64.14-2.86,21.07-1.35,39.37-8.81,51.5-25.9,14.4-20.3,23.4-46.34,18.84-70.88Z"/><g><path class="cls-6" d="M133.94,103.18c.01-.07,.03-.14,.04-.21,.04-.25-.03-.46-.14-.64-1.2-10.06-11.04-17.32-19.22-22.1-.44-.26-.91,.3-.64,.69-1.25,11.91-8.89,22.76-19.02,28.93-11.26,6.87-23.86,4.81-36.34,5.05-6.46,.12-15.64,3.19-16.5,10.86-.16,1.46,.09,3.45,1.96,3.57,.78,.05,1.56-.57,2.28-1.34-.64,4.34-.66,10.41,2.67,11.95,3.09,1.43,6.49-3.14,8.6-4.43,5.86-3.58,14.91-1.93,21.58-1.95,11.55-.04,23.69-.5,34.24-5.74,9.14-4.53,18.35-13.63,20.36-23.99,.09-.13,.16-.28,.15-.49,0-.05-.02-.11-.02-.16Z"/><path class="cls-6" d="M119.65,152.81c-.31,5.69-.09,11.49,1.28,17.05,1,4.04,2.67,8.18,4.95,11.82h49.38c5.56-4.68,8.79-25.65,10.3-31.4,3.13-11.86,3.83-24.18,3.59-36.39-.23-11.74-.42-23.87-4.01-35.15-3.23-10.12-8.63-19.37-14.89-27.9-6.14-8.38-12.94-17.1-20.86-23.88-14.43-12.34-34.04-17.2-51.57-8.47-7.62,3.79-13.88,10.07-13.19,19.15,.08,1.1,.22,2.2,.4,3.31,.51,4.55,2.05,8.72,4.16,12.68,1.03,2.04,2.21,3.99,3.53,5.8,3.79,5.61,8.31,10.94,12.08,16.55,4.99,7.43,8.68,15.63,11.47,24.12,2.94,8.94,6.92,18.96,6.96,28.45,.04,8.18-3.14,16.08-3.59,24.26Z"/><g><path class="cls-2" d="M125.08,34.47c-.27-.35-.77-.43-1.09-.08-3.18,3.53-6.29,7.06-8.87,11.04-.54,.15-.92,.84-.35,1.25,3.36,2.46,7.65,2.76,10.45-.72,2.73-3.39,2.46-8.14-.14-11.49Z"/><path class="cls-2" d="M103.82,50.34c-.07-.03-.13-.06-.2-.09-.14-.25-.43-.41-.68-.3-3.61-1.63-6.8-3.97-10.11-6.15-.29-.19-.75,.04-.8,.37-.43,3.34,.22,7.09,3.2,9.09,3.43,2.31,6.18,.57,8.35-2.36,.06-.09,.1-.18,.11-.27h.02c.18,.04,.29-.23,.11-.3Z"/><path class="cls-2" d="M126.32,49.27c-.68,1.11-6.13,7.16-8.53,5.82-.26-.14-.54,0-.69,.22-.66,1.04-1.95,4.24-4.07,2.11-.2-.2-.56-.16-.74,.04-.24,.26-.76,1.16-1.02,1.34-1.27,.86-2.9,.55-4.42,.45-.41-.03-1.03-.54-1.53-.58-.28-.03-.53,.58-.7,.58-.65,0-1.2-.13-1.73-.35-.71-.58-1.36-1.23-1.91-2-.44-.61-1.38,0-.98,.64,2.18,3.49,3.87,6.37,7.58,7.66,1.99,.69,2.57,1.52,4.32,1.23,.89-.15,2.09-.83,2.87-1.03,1.57-.41,1.15-.06,2.51-.98,1.03-.7,2.14-1.93,3-2.52,.24-.17,.52,.06,.77-.19,1.51-1.44,2.11-3.41,3.07-5.24,1.15-2.19,2.89-4.34,3.23-6.82,.09-.63-.7-.92-1.04-.37Z"/></g><g><path class="cls-4" d="M73.72,121.01s-21.3-4.24-23.3,7.35c-2,11.59-7.12,37.31-9.41,37.57-2.29,.26-17.38-24.51-17.38-24.51l-11.72,5.82s16.06,49.53,34.11,44.19c23.17-6.86,38.79-51.43,27.71-70.42Z"/><path class="cls-1" d="M50.42,128.37c-1.05,6.07-3.88,17.86-5.78,26,7.39,4.15,18.36,10.89,25.4,14.3,6.74-15.82,9.77-37.22,3.68-47.65,0,0-21.3-4.24-23.3,7.35Z"/><path class="cls-1" d="M83.29,114.1c6.98-4.24,19.31-6.46,25.09-.33,7.09,7.52,22.75,32.21,25.61,67.92H66.23s-3.62-23.29-8.64-31.82c-8.28-14.07,10.67-26.63,25.7-35.76Z"/><path class="cls-12" d="M78.56,99.19c-.82,.57,8.4,13.76,8.4,13.76l-18.74,18.24-8.34-18.24,18.68-13.76Z"/><path class="cls-4" d="M78.2,99.45l-18.32,13.49,3.78,8.26c8.95-4.15,13.33-17.14,14.54-21.75Z"/><g><path class="cls-4" d="M42.56,103.12c1.72,3.93,.71,8.16-2.24,9.45-2.96,1.29-6.74-.85-8.46-4.78-1.72-3.93-.71-8.16,2.24-9.45s6.74,.85,8.46,4.78Z"/><path class="cls-12" d="M83.24,84.98c.74,12.43-6.6,29.01-24.62,33.08-10.9,2.46-22.66-7.5-26.89-23.77-4.32-16.62,6.12-32.03,20.34-34.6,14.22-2.57,30.16,8.51,31.17,25.29Z"/><path class="cls-4" d="M71.52,86.76s-21.07-.48-26.82-12.53c0,0-10.87,6.69-13.39,15.94,0,0-3.62-21.5,13.99-23.94,17.61-2.44,28.34,12.76,26.22,20.53Z"/><path class="cls-6" d="M72.5,86.96s-22.97-4.03-26.75-16.64c0,0-14.58,10.33-14.58,21.93,0,0-30.46-35.2,19.46-35.7,0,0,34.46-21.14,35.24,22.59,0,0,12.86-2.52,16.14,8.32,3.28,10.84-3.03,8.57-1.51,13.11,1.51,4.54-3.83,10.29-9.38,7.52-5.55-2.77-18.61-21.13-18.61-21.13Z"/><path class="cls-12" d="M84.17,88.53c1.21,4.11-.32,8.19-3.41,9.1-3.09,.91-6.58-1.69-7.79-5.81-1.21-4.11,.32-8.19,3.41-9.1,3.09-.91,6.58,1.69,7.79,5.81Z"/><path class="cls-9" d="M50.62,56.55c-49.92,.5-19.46,35.7-19.46,35.7,0-1.8,.36-3.58,.95-5.29-1.01-2.81-1.85-5.68-2.14-8.65-.44-4.51,.53-9.35,3.61-12.67,3.59-3.88,9.41-4.99,14.64-4.28,2.26,.31,4.57,.95,6.3,2.44,4.93-6.29,12.7-10.19,20.66-10.64-10.37-5.31-24.56,3.39-24.56,3.39Z"/><path class="cls-4" d="M60.59,92.25c0,2.29-1.97,4.15-4.4,4.15s-4.4-1.86-4.4-4.15,1.97-4.15,4.4-4.15,4.4,1.86,4.4,4.15Z"/><path class="cls-4" d="M44.71,97.07c0,2.29-1.97,4.15-4.4,4.15s-4.4-1.86-4.4-4.15,1.97-4.15,4.4-4.15,4.4,1.86,4.4,4.15Z"/><ellipse class="cls-6" cx="58.3" cy="92.92" rx="1.28" ry="1.37"/><ellipse class="cls-6" cx="42.29" cy="97.82" rx="1.28" ry="1.37"/><path class="cls-6" d="M60.97,91.97c-.19-1.41-1.11-2.18-2.09-3.1-.06-.05-.16,.02-.11,.09,.56,.78,1.33,1.51,1.6,2.45,.15,.52,.2,1.11,.08,1.64-.13,.56-.54,.9-.84,1.36-.08,.12,.05,.28,.19,.24,1.08-.3,1.31-1.71,1.18-2.67Z"/><path class="cls-6" d="M61.85,92.01c-.03-.12-.23-.1-.22,.03,.04,.45,.03,.88-.09,1.32-.09,.35-.34,.66-.35,1.03,0,.12,.13,.23,.25,.19,.96-.3,.57-1.87,.41-2.57Z"/><path class="cls-6" d="M40.38,100.58c-1.29-.23-2.44-.27-3.35-1.36-.84-1-1.11-2.45-.61-3.67,.06-.15-.18-.25-.26-.11-1.5,2.83,1.21,5.87,4.15,5.62,.26-.02,.36-.43,.07-.48Z"/><path class="cls-6" d="M39.61,102.11c-.95,.14-2.07-.14-2.69-.92-.03-.03-.08,0-.06,.04,.5,.75,1.95,1.59,2.85,1.12,.14-.08,.04-.26-.1-.24Z"/><path class="cls-6" d="M39.81,103.11c-.33-.19-.77-.11-1.14-.18-.47-.08-.9-.24-1.32-.46-.11-.06-.2,.1-.1,.17,.6,.41,1.83,1.07,2.56,.68,.08-.04,.08-.17,0-.21Z"/><path class="cls-7" d="M50.57,83.92c1.92,2.04,5.09,2.38,7.01,1.48"/><path class="cls-7" d="M38.82,88.1c-.95,2.64-3.73,4.2-5.85,4.14"/><path class="cls-7" d="M46.42,95.65s-.26,6.5,2.83,7.08"/><path class="cls-7" d="M48.34,111.11c-.47-.57-.6-1.43-.21-2.05,.39-.62,1.34-.85,1.9-.38,.33,.27,.49,.71,.84,.95,.54,.38,1.36,.12,1.73-.44,.37-.55,.35-1.28,.15-1.92-.12-.38-.3-.81-.12-1.16,.3-.58,1.18-.38,1.74-.05s1.32,.69,1.8,.25c.3-.28,.3-.74,.43-1.14,.37-1.16,1.94-1.62,3.03-1.07,1.09,.54,1.68,1.8,1.76,3.01"/></g><path class="cls-12" d="M102.95,112.95s-10.5-2.93-14.26,16.8c-3.76,19.74-10.16,36.79-13.51,39.06-2.89,1.96-23.52-12.24-29.09-16.14,.21-5.36,.22-11.04-2.77-15.62-2.13-3.26-6.55-7.73-10.97-5.67-3.61,1.68,3.45,4.48,4.36,5.01,.6,.35,1.29,.8,1.63,1.43,.7,1.29,.33,1.05-.47,.79-1.29-.41-2.52-1.39-3.79-1.91-1.86-.76-4.08-1.35-5.98-.4-1.29,.65-2.9,2.32-1.53,3.63,.67,.63,1.76,.8,2.61,1.03,1.72,.48,3.43,1.19,4.55,2.56-2.7-1.35-6.88-2.8-9.01-.59-.76,.79-1.14,1.92-.31,2.78,1.98,2.06,5.14,0,6.89,2.56-2.09-.95-4.85-1.76-6.77-.36-1.65,1.2-.9,2.89,.83,3.49,1.33,.46,3.19-.08,4.38,.63,1.38,.82,.98,3.28,1.73,4.67,1.24,2.29,2.98,3.84,5.33,4.52,5.79,6.76,33.47,37.81,47.77,30.82,16.02-7.83,28.1-39.73,29.35-47.95,1.25-8.22,.82-28.59-10.98-31.13Z"/><path class="cls-4" d="M82.13,154.82c3.68,4.42,11.67,11.89,22.42,13.84,3.66-6.98,6.43-14.02,8-19.09-7.87-3.4-24.98-9.74-26.12-9.49-1.34,5.45-2.82,10.47-4.3,14.75Z"/><path class="cls-3" d="M102.95,112.95s-10.5-2.93-14.26,16.8c-1.79,9.41-4.18,18.2-6.56,25.08,5.25,2.69,19.45,8.32,28.68,10.17,3.04-9.1,4.02-16.7,4.56-20.25,1.25-8.22-.62-29.25-12.42-31.79Z"/><path class="cls-4" d="M20.82,124.69c-1.14-1.89-2.8-3.41-4.98-3.97-1.19-.31-3.18-.64-4.3,.07-1.09,.68-.71,1.78-.04,2.66,.82,1.07,2.07,1.63,3.01,2.56,.67,.66,1.17,1.48,1.59,2.31,.5,1.01,1.14,2.09-.32,1.42-1.11-.51-1.9-1.67-2.94-2.31-1.13-.7-2.47-.96-3.78-1.09-1.9-.19-4.64-.3-6.16,1.12-1.09,1.01-1.2,2.52,.19,3.28,.75,.41,1.68,.42,2.5,.55,1.84,.29,3.25,.92,4.59,1.93-2.83-1.13-6.98-2.79-8.96-.79-.92,.94-.85,2.26,.15,3.08,.68,.55,1.65,.79,2.46,1.03,1.65,.49,3.07,1.04,4.34,2.06-2.6-.82-6.78-2.07-8,.67-1.3,2.93,4.26,3.12,5.8,3.33,.77,.11,2.45,.17,3.01,.81,.44,.5,.49,1.78,.75,2.42,.47,1.17,1.09,2.09,2.23,2.68,3.76,1.92,6.85-1.58,10.29-2.46,.08-.02,.13-.06,.16-.11,.3-.08,.58-.22,.83-.43,.16-.13,.35-.27,.53-.43,.06,.13,.28,.1,.3-.07,.01-.11,.03-.23,.04-.34,.01-.02,.03-.04,.04-.06,.04-.1,.03-.18,0-.25,.76-6.56,.13-13.89-3.35-19.65Z"/><path class="cls-6" d="M18.59,131.76c-1.14-.83-4.05-2.49-5.47-1.24-1.11,.98,.08,2.6,.71,3.49,.8,1.13,2.02,2.4,1.88,3.92-.06,.64-.48,1.28-.63,1.91-.37,1.55,.11,2.64,.51,4.15,.09,.36,.65,.21,.56-.15-.36-1.42-.81-2.24-.47-3.83,.17-.81,.71-1.59,.73-2.43,.03-1.36-1.11-2.57-1.83-3.63-.26-.38-.99-1.06-1.01-1.54-.1-3.1,3.88-.83,4.7-.24,1.95,1.39,4.05,3.73,4.37,6.16,.02,.14,.22,.15,.23,0,.19-2.56-2.36-5.18-4.27-6.58Z"/><g><path class="cls-8" d="M52.47,134.64c2.32,8.33,6.5,19.72,9.72,27.74"/><path class="cls-8" d="M50.17,147.71c2.54,2.34,5.58,4.35,8.65,5.94"/></g></g><g><path class="cls-6" d="M168.32,111.33c-1.36-12.22-9.65-22.04-19.76-28.31-.03-.02-.05-.02-.08-.03-.08-.42-.75-.56-.86-.06-1.62,7.7-2.94,15.72-6.19,22.94-1.74,3.88-4.3,8.26-8.61,9.63-5.07,1.61-9.91-1.8-14.03-4.31-6.72-4.1-14.91-8.62-20.7-.66-1.08,1.48-4.53,6.09-2.12,7.9,.84,.63,1.7,.33,2.54-.04,.88-.39,1.47-1.42,2.28-1.93,2.06-1.31,4.64-1.98,7.11-2.1-3.25,3.71-9.34,6.29-5.63,11.96,.23,.36,.77,.58,1.16,.31,3.36-2.41,6.58-4.61,10.43-5.86-3.24,4.26-9.68,9.86-4.21,14.15,.41,.32,1.08,.37,1.36-.18,.71-1.39,1.38-2.9,2.41-4.09,3.15-3.62,5.88-2.39,8.81,.28,1.53,1.4,2.83,3.07,4.62,4.15,4.44,2.68,10.46,2.2,15.15,.48,5.39-1.97,9.87-5.78,14.17-9.47,4.68-4.02,9.87-7.85,12.4-13.65,.19-.44,.02-.84-.26-1.09Z"/><path class="cls-2" d="M148.66,77.17c-4.01,6.38-4.22,14.66-5.74,21.88-.87,4.16-2.15,8.78-5.3,11.84-2.35,2.29-5.14,3.07-8.01,2.96-.08-.05-.17-.08-.29-.08-.37,.01-.73,0-1.08-.03-.93-.12-1.87-.33-2.79-.6-5.03-1.75-9.43-6.55-14.95-7.28-3.37-.45-8.68-.58-10.8,2.62-.2,.31,.25,.65,.5,.39,4.27-4.39,14.03-.87,18.1,1.53,2.84,1.68,6.67,5.36,10.33,4.67,4.82,.57,9.48-1.39,12.4-6.21,2.54-4.2,3.35-9.15,4.18-13.91,1.03-5.97,2.25-11.68,4.58-17.29,.28-.67-.77-1.04-1.13-.48Z"/><path class="cls-2" d="M173.32,101.35c-2.6,3.06-3.94,7.35-6.07,10.78-2.54,4.1-5.18,8.14-8.68,11.51-8.45,8.14-20.88,12.92-32.24,8.69-.4-.15-.67,.5-.29,.69,10.21,5.05,21.63,.91,30.24-5.61,8.53-6.46,13.05-16.18,17.88-25.4,.27-.51-.43-1.14-.85-.65Z"/></g></g></g><polygon class="cls-10" points="195.8 211.57 35.61 211.57 40.43 176.7 192.99 172.1 195.8 211.57"/><text class="cls-11" transform="translate(80.12 199.13)"><tspan x="0" y="0">NIGHTMARE</tspan></text></g></svg>