<svg id="eY91Juv8gPz1" xmlns="http://www.w3.org/2000/svg" xmlns:xlink="http://www.w3.org/1999/xlink" viewBox="0 0 572.66 387.77" shape-rendering="geometricPrecision" text-rendering="geometricPrecision"><defs><linearGradient id="eY91Juv8gPz217-fill" x1="400.0571" y1="100.8642" x2="274.2923" y2="148.7746" spreadMethod="pad" gradientUnits="userSpaceOnUse" gradientTransform="translate(0 0)"><stop id="eY91Juv8gPz217-fill-0" offset="0%" stop-color="#7bdaff"/><stop id="eY91Juv8gPz217-fill-1" offset="100%" stop-color="#59bdef"/></linearGradient><linearGradient id="eY91Juv8gPz223-fill" x1="425.0987" y1="117.1674" x2="299.3255" y2="165.081" spreadMethod="pad" gradientUnits="userSpaceOnUse" gradientTransform="translate(0 0)"><stop id="eY91Juv8gPz223-fill-0" offset="0%" stop-color="#7bdaff"/><stop id="eY91Juv8gPz223-fill-1" offset="100%" stop-color="#59bdef"/></linearGradient><linearGradient id="eY91Juv8gPz229-fill" x1="454.6511" y1="133.5522" x2="328.8779" y2="181.4658" spreadMethod="pad" gradientUnits="userSpaceOnUse" gradientTransform="translate(0 0)"><stop id="eY91Juv8gPz229-fill-0" offset="0%" stop-color="#7bdaff"/><stop id="eY91Juv8gPz229-fill-1" offset="100%" stop-color="#59bdef"/></linearGradient></defs><g style="isolation:isolate"><g><g><path d="M264.94,376.58l303.92-.53L503.37,266.6h-.3c.09576-.719441.14586-1.444225.15-2.17v-241.15c.042613-4.4749-1.69768-8.782732-4.836625-11.972336s-7.418366-4.998635-11.893375-5.027664h-401.55c-4.475009.029029-8.75443,1.83806-11.893375,5.027664s-4.879238,7.497436-4.836625,11.972336v241.15c.006585.948546.090193,1.89499.25,2.83l-.13-2.88L0,377h.69c.31,6,6.62,10.73,14.38,10.73h540c8,0,14.41-5,14.41-11.19Z" opacity="0.2" fill="#808080" fill-rule="evenodd"/><rect width="435.77" height="272.04" rx="16.76" ry="16.76" transform="translate(70.5 0)" fill="#666"/><polygon points="70.35,258.08 2.17,366.66 572.02,365.68 506.42,257.42 70.35,258.08" fill="#c1c1c1" fill-rule="evenodd"/><path d="M572.66,366.2v0c0,6.12-6.47,11.07-14.44,11.07h-540.95c-8,0-14.44-4.95-14.44-11.07v0" fill="#666" fill-rule="evenodd"/><rect width="387.41" height="215.73" rx="0" ry="0" transform="translate(94.439135 21.87)" fill="#47b2ba"/><g style="mix-blend-mode:multiply" opacity="0.15"><polygon points="98.85,289.89 85.52,289.89 91.56,276.36 104.45,276.36 98.85,289.89" fill="#070707"/><polygon points="109.14,306.98 77.9,306.98 83.94,293.44 114.19,293.44 109.14,306.98" fill="#070707"/><polygon points="102.89,325.67 70.29,325.67 76.31,312.14 107.92,312.14 102.89,325.67" fill="#070707"/><polygon points="114.85,289.89 101.52,289.89 107.03,276.36 119.92,276.36 114.85,289.89" fill="#070707"/><polygon points="130.84,289.89 117.51,289.89 122.5,276.36 135.39,276.36 130.84,289.89" fill="#070707"/><polygon points="146.84,289.89 133.51,289.89 137.97,276.36 150.86,276.36 146.84,289.89" fill="#070707"/><polygon points="162.84,289.89 149.5,289.89 153.44,276.36 166.33,276.36 162.84,289.89" fill="#070707"/><polygon points="178.83,289.89 165.5,289.89 168.91,276.36 181.8,276.36 178.83,289.89" fill="#070707"/><polygon points="194.83,289.89 181.5,289.89 184.38,276.36 197.28,276.36 194.83,289.89" fill="#070707"/><polygon points="210.82,289.89 197.49,289.89 199.85,276.36 212.75,276.36 210.82,289.89" fill="#070707"/><polygon points="226.82,289.89 213.49,289.89 215.32,276.36 228.22,276.36 226.82,289.89" fill="#070707"/><polygon points="242.82,289.89 229.49,289.89 230.8,276.36 243.69,276.36 242.82,289.89" fill="#070707"/><polygon points="258.81,289.89 245.48,289.89 246.27,276.36 259.16,276.36 258.81,289.89" fill="#070707"/><polygon points="274.81,289.89 261.48,289.89 261.74,276.36 274.63,276.36 274.81,289.89" fill="#070707"/><polygon points="290.81,289.89 277.47,289.89 277.21,276.36 290.1,276.36 290.81,289.89" fill="#070707"/><polygon points="306.8,289.89 293.47,289.89 292.68,276.36 305.57,276.36 306.8,289.89" fill="#070707"/><polygon points="322.8,289.89 309.47,289.89 308.15,276.36 321.05,276.36 322.8,289.89" fill="#070707"/><polygon points="338.79,289.89 325.46,289.89 323.62,276.36 336.52,276.36 338.79,289.89" fill="#070707"/><polygon points="354.79,289.89 341.46,289.89 339.1,276.36 351.99,276.36 354.79,289.89" fill="#070707"/><polygon points="370.79,289.89 357.46,289.89 354.57,276.36 367.46,276.36 370.79,289.89" fill="#070707"/><polygon points="386.78,289.89 373.45,289.89 370.04,276.36 382.93,276.36 386.78,289.89" fill="#070707"/><polygon points="402.78,289.89 389.45,289.89 385.51,276.36 398.4,276.36 402.78,289.89" fill="#070707"/><polygon points="418.77,289.89 405.44,289.89 400.98,276.36 413.87,276.36 418.77,289.89" fill="#070707"/><polygon points="434.77,289.89 421.44,289.89 416.45,276.36 429.34,276.36 434.77,289.89" fill="#070707"/><polygon points="450.77,289.89 437.44,289.89 431.92,276.36 444.82,276.36 450.77,289.89" fill="#070707"/><polygon points="466.76,289.89 453.43,289.89 447.39,276.36 460.29,276.36 466.76,289.89" fill="#070707"/><polygon points="482.76,289.89 469.43,289.89 462.87,276.36 475.76,276.36 482.76,289.89" fill="#070707"/><polygon points="76.86,343.08 61.81,343.08 67.84,329.54 82.45,329.54 76.86,343.08" fill="#070707"/><polygon points="94.92,343.08 79.87,343.08 85.38,329.54 99.99,329.54 94.92,343.08" fill="#070707"/><polygon points="112.97,343.08 97.92,343.08 102.91,329.54 117.52,329.54 112.97,343.08" fill="#070707"/><polygon points="131.03,343.08 115.98,343.08 120.44,329.54 135.06,329.54 131.03,343.08" fill="#070707"/><polygon points="149.09,343.08 134.04,343.08 137.98,329.54 152.59,329.54 149.09,343.08" fill="#070707"/><polygon points="167.15,343.08 152.1,343.08 155.51,329.54 170.12,329.54 167.15,343.08" fill="#070707"/><polygon points="401.16,343.08 170.91,343.08 173.78,329.54 397.33,329.54 401.16,343.08" fill="#070707"/><polygon points="419.97,343.08 404.92,343.08 400.98,329.54 415.6,329.54 419.97,343.08" fill="#070707"/><polygon points="438.03,343.08 422.98,343.08 418.52,329.54 433.13,329.54 438.03,343.08" fill="#070707"/><polygon points="456.09,343.08 441.04,343.08 436.05,329.54 450.66,329.54 456.09,343.08" fill="#070707"/><polygon points="474.15,343.08 459.1,343.08 453.59,329.54 468.2,329.54 474.15,343.08" fill="#070707"/><polygon points="492.21,343.08 477.16,343.08 471.12,329.54 485.73,329.54 492.21,343.08" fill="#070707"/><polygon points="510.27,343.08 495.22,343.08 488.65,329.54 503.26,329.54 510.27,343.08" fill="#070707"/><polygon points="125.1,306.98 111.22,306.98 116.21,293.44 129.65,293.44 125.1,306.98" fill="#070707"/><polygon points="141.76,306.98 127.88,306.98 132.34,293.44 145.78,293.44 141.76,306.98" fill="#070707"/><polygon points="158.42,306.98 144.54,306.98 148.47,293.44 161.92,293.44 158.42,306.98" fill="#070707"/><polygon points="175.08,306.98 161.2,306.98 164.61,293.44 178.05,293.44 175.08,306.98" fill="#070707"/><polygon points="191.74,306.98 177.85,306.98 180.74,293.44 194.19,293.44 191.74,306.98" fill="#070707"/><polygon points="208.4,306.98 194.51,306.98 196.88,293.44 210.32,293.44 208.4,306.98" fill="#070707"/><polygon points="225.06,306.98 211.17,306.98 213.01,293.44 226.45,293.44 225.06,306.98" fill="#070707"/><polygon points="241.71,306.98 227.83,306.98 229.14,293.44 242.59,293.44 241.71,306.98" fill="#070707"/><polygon points="258.37,306.98 244.49,306.98 245.28,293.44 258.72,293.44 258.37,306.98" fill="#070707"/><polygon points="275.03,306.98 261.15,306.98 261.41,293.44 274.86,293.44 275.03,306.98" fill="#070707"/><polygon points="291.69,306.98 277.81,306.98 277.54,293.44 290.99,293.44 291.69,306.98" fill="#070707"/><polygon points="308.35,306.98 294.47,306.98 293.68,293.44 307.12,293.44 308.35,306.98" fill="#070707"/><polygon points="325.01,306.98 311.13,306.98 309.81,293.44 323.26,293.44 325.01,306.98" fill="#070707"/><polygon points="341.67,306.98 327.78,306.98 325.94,293.44 339.39,293.44 341.67,306.98" fill="#070707"/><polygon points="358.32,306.98 344.44,306.98 342.08,293.44 355.52,293.44 358.32,306.98" fill="#070707"/><polygon points="374.98,306.98 361.1,306.98 358.21,293.44 371.66,293.44 374.98,306.98" fill="#070707"/><polygon points="391.64,306.98 377.76,306.98 374.35,293.44 387.79,293.44 391.64,306.98" fill="#070707"/><polygon points="408.3,306.98 394.42,306.98 390.48,293.44 403.93,293.44 408.3,306.98" fill="#070707"/><polygon points="424.96,306.98 411.08,306.98 406.61,293.44 420.06,293.44 424.96,306.98" fill="#070707"/><polygon points="441.62,306.98 427.74,306.98 422.75,293.44 436.19,293.44 441.62,306.98" fill="#070707"/><polygon points="458.28,306.98 444.4,306.98 438.88,293.44 452.33,293.44 458.28,306.98" fill="#070707"/><polygon points="474.94,306.98 461.05,306.98 455.01,293.44 468.46,293.44 474.94,306.98" fill="#070707"/><polygon points="500.76,324.71 486.31,324.71 471.15,293.44 484.59,293.44 500.76,324.71" fill="#070707"/><polygon points="118.82,325.67 104.33,325.67 109.32,312.14 123.37,312.14 118.82,325.67" fill="#070707"/><polygon points="136.21,325.67 121.72,325.67 126.18,312.14 140.23,312.14 136.21,325.67" fill="#070707"/><polygon points="153.59,325.67 139.1,325.67 143.04,312.14 157.09,312.14 153.59,325.67" fill="#070707"/><polygon points="170.97,325.67 156.49,325.67 159.9,312.14 173.95,312.14 170.97,325.67" fill="#070707"/><polygon points="188.36,325.67 173.87,325.67 176.76,312.14 190.81,312.14 188.36,325.67" fill="#070707"/><polygon points="205.74,325.67 191.25,325.67 193.61,312.14 207.66,312.14 205.74,325.67" fill="#070707"/><polygon points="223.12,325.67 208.64,325.67 210.47,312.14 224.52,312.14 223.12,325.67" fill="#070707"/><polygon points="240.51,325.67 226.02,325.67 227.33,312.14 241.38,312.14 240.51,325.67" fill="#070707"/><polygon points="257.89,325.67 243.41,325.67 244.19,312.14 258.24,312.14 257.89,325.67" fill="#070707"/><polygon points="275.27,325.67 260.79,325.67 261.05,312.14 275.1,312.14 275.27,325.67" fill="#070707"/><polygon points="292.66,325.67 278.17,325.67 277.91,312.14 291.96,312.14 292.66,325.67" fill="#070707"/><polygon points="310.04,325.67 295.56,325.67 294.77,312.14 308.82,312.14 310.04,325.67" fill="#070707"/><polygon points="327.43,325.67 312.94,325.67 311.63,312.14 325.68,312.14 327.43,325.67" fill="#070707"/><polygon points="344.81,325.67 330.32,325.67 328.49,312.14 342.53,312.14 344.81,325.67" fill="#070707"/><polygon points="362.19,325.67 347.71,325.67 345.34,312.14 359.39,312.14 362.19,325.67" fill="#070707"/><polygon points="379.58,325.67 365.09,325.67 362.2,312.14 376.25,312.14 379.58,325.67" fill="#070707"/><polygon points="396.96,325.67 382.47,325.67 379.06,312.14 393.11,312.14 396.96,325.67" fill="#070707"/><polygon points="414.35,325.67 399.86,325.67 395.92,312.14 409.97,312.14 414.35,325.67" fill="#070707"/><polygon points="431.73,325.67 417.24,325.67 412.78,312.14 426.83,312.14 431.73,325.67" fill="#070707"/><polygon points="449.11,325.67 434.63,325.67 429.64,312.14 443.69,312.14 449.11,325.67" fill="#070707"/><polygon points="466.5,325.67 452.01,325.67 446.5,312.14 460.55,312.14 466.5,325.67" fill="#070707"/><polygon points="483.88,325.67 469.39,325.67 463.35,312.14 477.4,312.14 483.88,325.67" fill="#070707"/></g><polygon points="98.85,288.89 85.52,288.89 91.56,275.36 104.45,275.36 98.85,288.89" fill="#727171"/><polygon points="109.14,305.98 77.9,305.98 83.94,292.44 114.19,292.44 109.14,305.98" fill="#727171"/><polygon points="102.89,324.67 70.29,324.67 76.31,311.14 107.92,311.14 102.89,324.67" fill="#727171"/><polygon points="114.85,288.89 101.52,288.89 107.03,275.36 119.92,275.36 114.85,288.89" fill="#727171"/><polygon points="130.84,288.89 117.51,288.89 122.5,275.36 135.39,275.36 130.84,288.89" fill="#727171"/><polygon points="146.84,288.89 133.51,288.89 137.97,275.36 150.86,275.36 146.84,288.89" fill="#727171"/><polygon points="162.84,288.89 149.5,288.89 153.44,275.36 166.33,275.36 162.84,288.89" fill="#727171"/><polygon points="178.83,288.89 165.5,288.89 168.91,275.36 181.8,275.36 178.83,288.89" fill="#727171"/><polygon points="194.83,288.89 181.5,288.89 184.38,275.36 197.28,275.36 194.83,288.89" fill="#727171"/><polygon points="210.82,288.89 197.49,288.89 199.85,275.36 212.75,275.36 210.82,288.89" fill="#727171"/><polygon points="226.82,288.89 213.49,288.89 215.32,275.36 228.22,275.36 226.82,288.89" fill="#727171"/><polygon points="242.82,288.89 229.49,288.89 230.8,275.36 243.69,275.36 242.82,288.89" fill="#727171"/><polygon points="258.81,288.89 245.48,288.89 246.27,275.36 259.16,275.36 258.81,288.89" fill="#727171"/><polygon points="274.81,288.89 261.48,288.89 261.74,275.36 274.63,275.36 274.81,288.89" fill="#727171"/><polygon points="290.81,288.89 277.47,288.89 277.21,275.36 290.1,275.36 290.81,288.89" fill="#727171"/><polygon points="306.8,288.89 293.47,288.89 292.68,275.36 305.57,275.36 306.8,288.89" fill="#727171"/><polygon points="322.8,288.89 309.47,288.89 308.15,275.36 321.05,275.36 322.8,288.89" fill="#727171"/><polygon points="338.79,288.89 325.46,288.89 323.62,275.36 336.52,275.36 338.79,288.89" fill="#727171"/><polygon points="354.79,288.89 341.46,288.89 339.1,275.36 351.99,275.36 354.79,288.89" fill="#727171"/><polygon points="370.79,288.89 357.46,288.89 354.57,275.36 367.46,275.36 370.79,288.89" fill="#727171"/><polygon points="386.78,288.89 373.45,288.89 370.04,275.36 382.93,275.36 386.78,288.89" fill="#727171"/><polygon points="402.78,288.89 389.45,288.89 385.51,275.36 398.4,275.36 402.78,288.89" fill="#727171"/><polygon points="418.77,288.89 405.44,288.89 400.98,275.36 413.87,275.36 418.77,288.89" fill="#727171"/><polygon points="434.77,288.89 421.44,288.89 416.45,275.36 429.34,275.36 434.77,288.89" fill="#727171"/><polygon points="450.77,288.89 437.44,288.89 431.92,275.36 444.82,275.36 450.77,288.89" fill="#727171"/><polygon points="466.76,288.89 453.43,288.89 447.39,275.36 460.29,275.36 466.76,288.89" fill="#727171"/><polygon points="482.76,288.89 469.43,288.89 462.87,275.36 475.76,275.36 482.76,288.89" fill="#727171"/><polygon points="76.86,342.08 61.81,342.08 67.84,328.54 82.45,328.54 76.86,342.08" fill="#727171"/><polygon points="94.92,342.08 79.87,342.08 85.38,328.54 99.99,328.54 94.92,342.08" fill="#727171"/><polygon points="112.97,342.08 97.92,342.08 102.91,328.54 117.52,328.54 112.97,342.08" fill="#727171"/><polygon points="131.03,342.08 115.98,342.08 120.44,328.54 135.06,328.54 131.03,342.08" fill="#727171"/><polygon points="149.09,342.08 134.04,342.08 137.98,328.54 152.59,328.54 149.09,342.08" fill="#727171"/><polygon points="167.15,342.08 152.1,342.08 155.51,328.54 170.12,328.54 167.15,342.08" fill="#727171"/><polygon points="401.16,342.08 170.91,342.08 173.78,328.54 397.33,328.54 401.16,342.08" fill="#727171"/><polygon points="419.97,342.08 404.92,342.08 400.98,328.54 415.6,328.54 419.97,342.08" fill="#727171"/><polygon points="438.03,342.08 422.98,342.08 418.52,328.54 433.13,328.54 438.03,342.08" fill="#727171"/><polygon points="456.09,342.08 441.04,342.08 436.05,328.54 450.66,328.54 456.09,342.08" fill="#727171"/><polygon points="474.15,342.08 459.1,342.08 453.59,328.54 468.2,328.54 474.15,342.08" fill="#727171"/><polygon points="492.21,342.08 477.16,342.08 471.12,328.54 485.73,328.54 492.21,342.08" fill="#727171"/><polygon points="510.27,342.08 495.22,342.08 488.65,328.54 503.26,328.54 510.27,342.08" fill="#727171"/><polygon points="125.1,305.98 111.22,305.98 116.21,292.44 129.65,292.44 125.1,305.98" fill="#727171"/><polygon points="141.76,305.98 127.88,305.98 132.34,292.44 145.78,292.44 141.76,305.98" fill="#727171"/><polygon points="158.42,305.98 144.54,305.98 148.47,292.44 161.92,292.44 158.42,305.98" fill="#727171"/><polygon points="175.08,305.98 161.2,305.98 164.61,292.44 178.05,292.44 175.08,305.98" fill="#727171"/><polygon points="191.74,305.98 177.85,305.98 180.74,292.44 194.19,292.44 191.74,305.98" fill="#727171"/><polygon points="208.4,305.98 194.51,305.98 196.88,292.44 210.32,292.44 208.4,305.98" fill="#727171"/><polygon points="225.06,305.98 211.17,305.98 213.01,292.44 226.45,292.44 225.06,305.98" fill="#727171"/><polygon points="241.71,305.98 227.83,305.98 229.14,292.44 242.59,292.44 241.71,305.98" fill="#727171"/><polygon points="258.37,305.98 244.49,305.98 245.28,292.44 258.72,292.44 258.37,305.98" fill="#727171"/><polygon points="275.03,305.98 261.15,305.98 261.41,292.44 274.86,292.44 275.03,305.98" fill="#727171"/><polygon points="291.69,305.98 277.81,305.98 277.54,292.44 290.99,292.44 291.69,305.98" fill="#727171"/><polygon points="308.35,305.98 294.47,305.98 293.68,292.44 307.12,292.44 308.35,305.98" fill="#727171"/><polygon points="325.01,305.98 311.13,305.98 309.81,292.44 323.26,292.44 325.01,305.98" fill="#727171"/><polygon points="341.67,305.98 327.78,305.98 325.94,292.44 339.39,292.44 341.67,305.98" fill="#727171"/><polygon points="358.32,305.98 344.44,305.98 342.08,292.44 355.52,292.44 358.32,305.98" fill="#727171"/><polygon points="374.98,305.98 361.1,305.98 358.21,292.44 371.66,292.44 374.98,305.98" fill="#727171"/><polygon points="391.64,305.98 377.76,305.98 374.35,292.44 387.79,292.44 391.64,305.98" fill="#727171"/><polygon points="408.3,305.98 394.42,305.98 390.48,292.44 403.93,292.44 408.3,305.98" fill="#727171"/><polygon points="424.96,305.98 411.08,305.98 406.61,292.44 420.06,292.44 424.96,305.98" fill="#727171"/><polygon points="441.62,305.98 427.74,305.98 422.75,292.44 436.19,292.44 441.62,305.98" fill="#727171"/><polygon points="458.28,305.98 444.4,305.98 438.88,292.44 452.33,292.44 458.28,305.98" fill="#727171"/><polygon points="474.94,305.98 461.05,305.98 455.01,292.44 468.46,292.44 474.94,305.98" fill="#727171"/><polygon points="500.76,323.71 486.31,323.71 471.15,292.44 484.59,292.44 500.76,323.71" fill="#727171"/><polygon points="118.82,324.67 104.33,324.67 109.32,311.14 123.37,311.14 118.82,324.67" fill="#727171"/><polygon points="136.21,324.67 121.72,324.67 126.18,311.14 140.23,311.14 136.21,324.67" fill="#727171"/><polygon points="153.59,324.67 139.1,324.67 143.04,311.14 157.09,311.14 153.59,324.67" fill="#727171"/><polygon points="170.97,324.67 156.49,324.67 159.9,311.14 173.95,311.14 170.97,324.67" fill="#727171"/><polygon points="188.36,324.67 173.87,324.67 176.76,311.14 190.81,311.14 188.36,324.67" fill="#727171"/><polygon points="205.74,324.67 191.25,324.67 193.61,311.14 207.66,311.14 205.74,324.67" fill="#727171"/><polygon points="223.12,324.67 208.64,324.67 210.47,311.14 224.52,311.14 223.12,324.67" fill="#727171"/><polygon points="240.51,324.67 226.02,324.67 227.33,311.14 241.38,311.14 240.51,324.67" fill="#727171"/><polygon points="257.89,324.67 243.41,324.67 244.19,311.14 258.24,311.14 257.89,324.67" fill="#727171"/><polygon points="275.27,324.67 260.79,324.67 261.05,311.14 275.1,311.14 275.27,324.67" fill="#727171"/><polygon points="292.66,324.67 278.17,324.67 277.91,311.14 291.96,311.14 292.66,324.67" fill="#727171"/><polygon points="310.04,324.67 295.56,324.67 294.77,311.14 308.82,311.14 310.04,324.67" fill="#727171"/><polygon points="327.43,324.67 312.94,324.67 311.63,311.14 325.68,311.14 327.43,324.67" fill="#727171"/><polygon points="344.81,324.67 330.32,324.67 328.49,311.14 342.53,311.14 344.81,324.67" fill="#727171"/><polygon points="362.19,324.67 347.71,324.67 345.34,311.14 359.39,311.14 362.19,324.67" fill="#727171"/><polygon points="379.58,324.67 365.09,324.67 362.2,311.14 376.25,311.14 379.58,324.67" fill="#727171"/><polygon points="396.96,324.67 382.47,324.67 379.06,311.14 393.11,311.14 396.96,324.67" fill="#727171"/><polygon points="414.35,324.67 399.86,324.67 395.92,311.14 409.97,311.14 414.35,324.67" fill="#727171"/><polygon points="431.73,324.67 417.24,324.67 412.78,311.14 426.83,311.14 431.73,324.67" fill="#727171"/><polygon points="449.11,324.67 434.63,324.67 429.64,311.14 443.69,311.14 449.11,324.67" fill="#727171"/><polygon points="466.5,324.67 452.01,324.67 446.5,311.14 460.55,311.14 466.5,324.67" fill="#727171"/><polygon points="483.88,324.67 469.39,324.67 463.35,311.14 477.4,311.14 483.88,324.67" fill="#727171"/><polygon points="266.38,93.54 265.43,96.25 267.87,97.93 264.92,98.51 264.62,101.35 262.62,99.22 259.87,100.38 260.82,97.67 258.38,96 261.32,95.42 261.63,92.58 263.63,94.71 266.38,93.54" fill="#f7d581" fill-rule="evenodd"/><polygon points="274.4,124.24 273.09,128.01 276.48,130.34 272.38,131.15 271.95,135.1 269.17,132.13 265.35,133.76 266.67,129.99 263.28,127.66 267.38,126.85 267.81,122.9 270.59,125.87 274.4,124.24" fill="#f7d581" fill-rule="evenodd"/><polygon points="239.82,115.05 239.17,116.91 240.85,118.06 238.82,118.46 238.61,120.42 237.23,118.95 235.34,119.76 235.99,117.89 234.31,116.74 236.34,116.34 236.55,114.38 237.93,115.85 239.82,115.05" fill="#f7d581" fill-rule="evenodd"/><polygon points="128.56,48.55 131.48,49.24 133.05,46.81 133.88,49.55 136.89,49.63 134.8,51.68 136.24,54.19 133.32,53.5 131.75,55.94 130.91,53.19 127.91,53.12 130,51.06 128.56,48.55" fill="#f7d581" fill-rule="evenodd"/><polygon points="160.19,38.63 164.25,39.59 166.44,36.2 167.59,40.02 171.78,40.13 168.87,42.98 170.87,46.48 166.81,45.52 164.62,48.91 163.46,45.09 159.28,44.98 162.19,42.12 160.19,38.63" fill="#f7d581" fill-rule="evenodd"/><polygon points="153.15,72.07 155.16,72.55 156.24,70.87 156.81,72.76 158.88,72.81 157.44,74.23 158.43,75.95 156.42,75.48 155.34,77.16 154.77,75.27 152.7,75.21 154.13,73.8 153.15,72.07" fill="#f7d581" fill-rule="evenodd"/><polygon points="158.67,184.81 156.93,187.13 158.73,189.41 155.74,189.14 154.56,191.77 153.32,189.17 150.33,189.51 152.08,187.19 150.27,184.91 153.26,185.18 154.44,182.56 155.69,185.15 158.67,184.81" fill="#f7d581" fill-rule="evenodd"/><polygon points="156.78,216.39 154.35,219.62 156.87,222.79 152.71,222.41 151.06,226.07 149.33,222.45 145.18,222.93 147.6,219.7 145.09,216.53 149.26,216.9 150.9,213.25 152.63,216.87 156.78,216.39" fill="#f7d581" fill-rule="evenodd"/><polygon points="126.61,197.89 125.41,199.49 126.65,201.06 124.59,200.87 123.78,202.68 122.92,200.89 120.86,201.13 122.07,199.53 120.82,197.96 122.88,198.15 123.7,196.34 124.55,198.13 126.61,197.89" fill="#f7d581" fill-rule="evenodd"/><path d="M121.84,129.52l-3.77.31c-2.26.19-5.28.35-8.29.54-1.51.09-3,.27-4.43.3-1.290354-.001315-2.579422-.081464-3.86-.24-1.279211-.13568-2.544058-.383295-3.78-.74v-.22c1.227769-.372978,2.485943-.637329,3.76-.79c1.278849-.18182,2.56834-.278699,3.86-.29c1.42,0,2.93.17,4.44.23c3,.15,6,.27,8.29.43l3.77.25Z" fill="#f47e14"/><path d="M136.37,95.2c0,0-1-.83-2.47-2.1s-3.4-3-5.34-4.72c-1-.87-2-1.67-2.86-2.52-.765718-.792839-1.471021-1.641877-2.11-2.54-.654324-.878632-1.214091-1.823867-1.67-2.82l.17-.15c1.005913.498724,1.960483,1.094912,2.85,1.78.892932.659487,1.735282,1.384844,2.52,2.17.83.88,1.6,1.91,2.45,2.88c1.67,2,3.37,3.89,4.59,5.38s2,2.49,2,2.49Z" fill="#f47e14"/><path d="M137.05,160.25c0,0-.79,1-2,2.52s-2.87,3.47-4.51,5.44c-.83,1-1.59,2-2.41,2.92-.769337.798585-1.598403,1.53739-2.48,2.21-.877136.696078-1.821862,1.302445-2.82,1.81l-.17-.15c.435898-1.00237.979065-1.954588,1.62-2.84.621177-.90676,1.313351-1.762782,2.07-2.56.85-.86,1.88-1.68,2.82-2.56c1.91-1.75,3.8-3.52,5.27-4.8s2.44-2.14,2.44-2.14Z" fill="#f47e14"/><path d="M123.36,148.5c0,0-3.23,1.8-6.55,3.38-.83.41-1.62.9-2.41,1.23-.746755.282915-1.520924.48735-2.31.61-.807425.150642-1.631167.19435-2.45.13l-.08-.2c.537191-.596951,1.152791-1.118361,1.83-1.55.65757-.436579,1.35784-.805143,2.09-1.1.82-.29,1.74-.47,2.63-.74c3.54-1.08,7.16-2,7.16-2Z" fill="#e2e2e2"/><path d="M123,108.49c0,0-3.64-.83-7.19-1.86-.89-.25-1.82-.42-2.64-.7-.739076-.281312-1.44634-.639972-2.11-1.07-.684716-.421866-1.310212-.933024-1.86-1.52l.09-.2c.817021-.079556,1.641018-.049287,2.45.09.788267.111494,1.562559.305905,2.31.58.8.32,1.6.8,2.43,1.19c3.35,1.54,6.61,3.29,6.61,3.29Z" fill="#e2e2e2"/><path d="M223.65,211.51l1.5,3.29c.91,2,2,4.64,3.18,7.29.57,1.33,1.23,2.63,1.71,3.89.414297,1.16242.748414,2.351875,1,3.56.269759,1.192383.423806,2.408019.46,3.63l-.22.07c-.7618-.979399-1.431322-2.027201-2-3.13-.587194-1.092142-1.095168-2.225058-1.52-3.39-.44-1.27-.76-2.68-1.18-4.06-.81-2.76-1.66-5.52-2.21-7.61l-.95-3.47Z" fill="#f47e14"/><path d="M184.76,209.34c0,0-.51,1.17-1.31,2.9s-1.92,4-3,6.31c-.56,1.14-1,2.33-1.6,3.37-.550204.949305-1.172007,1.855266-1.86,2.71-.677174.877993-1.44472,1.682408-2.29,2.4l-.2-.11c.177823-1.068068.469485-2.114029.87-3.12.373858-1.034159.828598-2.037261,1.36-3c.61-1,1.4-2.05,2.1-3.12c1.42-2.13,2.8-4.28,3.91-5.85s1.84-2.63,1.84-2.63Z" fill="#f47e14"/><path d="M249.48,188c0,0,1.27.39,3.15,1s4.38,1.47,6.88,2.32c1.24.44,2.52.79,3.67,1.24c1.035773.436589,2.038418.947938,3,1.53.965712.573053,1.870402,1.243193,2.7,2l-.09.2c-1.132057-.072544-2.254175-.256772-3.35-.55-1.096776-.273542-2.172802-.62442-3.22-1.05-1.13-.49-2.27-1.15-3.45-1.72-2.36-1.17-4.72-2.3-6.47-3.22s-2.91-1.52-2.91-1.52Z" fill="#f47e14"/><path d="M242.11,204.09c0,0,2.82,2.34,5.46,4.83.67.61,1.41,1.17,2,1.78.517586.575259.97031,1.205719,1.35,1.88.402463.672897.705595,1.400412.9,2.16l-.17.15c-.758315-.294736-1.474481-.688123-2.13-1.17-.639551-.445775-1.229575-.958694-1.76-1.53-.55-.64-1-1.41-1.57-2.13-2.21-2.84-4.24-5.82-4.24-5.82Z" fill="#e2e2e2"/><path d="M202.29,217.19c0,0,.34,3.53.43,7.06c0,.89.17,1.77.15,2.6-.050196.759148-.184347,1.510398-.4,2.24-.205523.760626-.518689,1.487978-.93,2.16h-.23c-.334343-.70614-.563442-1.45745-.68-2.23-.138593-.748234-.192266-1.509723-.16-2.27.06-.82.29-1.69.41-2.56.47-3.51,1.18-7,1.18-7Z" fill="#e2e2e2"/><path d="M221,42.3c0,0,.16-1.2.41-3s.64-4.18,1-6.56c.2-1.19.33-2.4.54-3.51.232865-1.018924.533535-2.021156.9-3c.35098-.975958.792924-1.916763,1.32-2.81h.19c.096679,1.024391.096679,2.055609,0,3.08-.077062,1.032107-.224066,2.057796-.44,3.07-.27,1.09-.67,2.25-1,3.41-.67,2.33-1.31,4.66-1.86,6.4s-.89,2.89-.89,2.89Z" fill="#f47e14"/><path d="M248.05,59.79l2.27-1.55c1.35-.94,3.21-2.11,5-3.32.93-.59,1.81-1.25,2.69-1.77.828311-.464875,1.690802-.866033,2.58-1.2.881026-.354735,1.795685-.619416,2.73-.79l.1.16c-.600444.69958-1.270568,1.336197-2,1.9-.739734.583973-1.521893,1.112098-2.34,1.58-.9.49-1.94.9-2.93,1.39-2,1-4,1.93-5.48,2.62L248.15,60Z" fill="#f47e14"/><path d="M191.67,48.65l-1.82-2c-1.1-1.2-2.49-2.86-3.91-4.49-.7-.83-1.46-1.61-2.09-2.4-.54509-.741991-1.033155-1.524232-1.46-2.34-.443331-.799241-.798739-1.644174-1.06-2.52l.15-.11c.784401.514713,1.511827,1.111403,2.17,1.78.667507.642821,1.285905,1.334758,1.85,2.07.59.82,1.11,1.77,1.71,2.66c1.17,1.8,2.36,3.59,3.2,5s1.41,2.29,1.41,2.29Z" fill="#f47e14"/><path d="M204.28,40.08c0,0-.25-.71-.58-1.78s-.75-2.51-1.17-3.94c-.19-.72-.48-1.42-.62-2.1-.116282-.629571-.15657-1.270825-.12-1.91.018238-.655696.129344-1.305495.33-1.93h.19c.412708.519715.749412,1.095478,1,1.71.259942.586853.454449,1.200554.58,1.83.1.69.09,1.44.16,2.18.12,1.48.27,3,.32,4.08s.09,1.86.09,1.86Z" fill="#e2e2e2"/><path d="M239,47c0,0,.33-.68.87-1.67s1.29-2.3,2-3.61c.38-.65.68-1.34,1.07-1.93.385105-.527532.824144-1.013491,1.31-1.45.491643-.469125,1.04714-.86639,1.65-1.18l.16.1c-.079631.655326-.254824,1.295454-.52,1.9-.242493.599117-.551068,1.16931-.92,1.7-.42.56-1,1.1-1.46,1.68-1,1.15-2,2.32-2.74,3.16s-1.29,1.4-1.29,1.4Z" fill="#e2e2e2"/><g style="mix-blend-mode:multiply" opacity="0.15"><path id="eY91Juv8gPz206" d="M153.41,99.3l-7.66,7c-.471936.422971-.746533,1.023284-.757916,1.656924s.241476,1.243427.697916,1.683076l3.06,3c-1.181482,1.904232-2.141064,3.937471-2.86,6.06l-4.39-.16c-1.3448-.085564-2.504357.935206-2.59,2.28l-.39,10.09c-.008005.645276.242047,1.267023.69459,1.727077s1.07009.720306,1.71541.722923l4.16.14c.55614,2.602248,1.475122,5.113457,2.73,7.46l-2.8,2.56c-.476511.421757-.755082,1.023464-.768376,1.659676s.239899,1.24903.698376,1.690324l7.37,7.27c.978662.943101,2.519852.969297,3.53.06l2.34-2.14c2.22765,1.423782,4.626764,2.559497,7.14,3.38l-.11,2.74c-.008.646206.241739,1.26898.693994,1.730619s1.069772.724112,1.716006.729381l10.62.36c1.339281.085575,2.494368-.930723,2.58-2.27l.08-2.12c3.239712-.543238,6.376463-1.582076,9.3-3.08l1.32,1.31c.978014.941164,2.515442.971651,3.53.07l7.66-7c.471936-.422971.746533-1.023284.757916-1.656924s-.241476-1.243427-.697916-1.683076l-1.14-1.12c1.626933-2.413764,2.877861-5.060607,3.71-7.85l1.63.06c1.340969.074424,2.493793-.940417,2.59-2.28L210,123.3c.005326-.644483-.245597-1.264682-.697564-1.724151s-1.067953-.720566-1.712436-.725849l-1.87-.07c-.767031-3.076249-2.048405-6.000757-3.79-8.65l1.58-1.44c.472466-.424764.747232-1.026719.75861-1.66195s-.241658-1.24664-.69861-1.68805l-7.37-7.27c-.975309-.941773-2.513161-.967986-3.52-.06l-2,1.86c-2.361937-1.249433-4.871628-2.196867-7.47-2.82l.11-3c.008-.643554-.240685-1.263785-.691065-1.723548s-1.065353-.721183-1.708935-.726452l-10.62-.36c-1.339281-.085575-2.494368.930723-2.58,2.27l-.13,3.66c-2.6927.660483-5.287875,1.66897-7.72,3l-2.86-2.82c-.990332-.984361-2.582712-1.006477-3.6-.05Zm13,19.37c5.295879-4.756718,13.367231-4.612665,18.49.33c2.391807,2.318093,3.712538,5.526013,3.646162,8.856162s-1.513884,6.482894-3.996162,8.703838c-5.295879,4.756718-13.367231,4.612665-18.49-.33-2.390553-2.31946-3.709499-5.528178-3.641227-8.858339s1.517619-6.482127,4.001227-8.701661Z" fill="#4c210c"/><path id="eY91Juv8gPz207" d="M188.27,140.18l-8.53,6c-.523296.358947-.874188.918941-.968969,1.546394s.075045,1.266106.468969,1.763606l2.63,3.35c-1.427983,1.743265-2.649441,3.64592-3.64,5.67l-4.34-.69c-1.34145-.225101-2.616714.663585-2.87,2l-1.72,10c-.093644.635286.073399,1.281456.463194,1.791767s.969261.841456,1.606806.918233l4.1.65c.209529,2.6411.788503,5.239753,1.72,7.72l-3.12,2.21c-.524844.357363-.877752.916598-.974444,1.544149s.071512,1.267078.464444,1.765851l6.35,8.1c.858633,1.048357,2.380229,1.25763,3.49.48l2.6-1.84c2.028396,1.675724,4.259178,3.090121,6.64,4.21l-.47,2.7c-.096689.635309.067642,1.282719.455624,1.795005s.966636.845907,1.604376.924995l10.49,1.64c1.324328.232819,2.592947-.632148,2.86-1.95l.36-2.09c3.290408-.157132,6.537668-.814677,9.63-1.95l1.14,1.46c.855757,1.051637,2.377735,1.265324,3.49.49l8.53-6c.523296-.358947.874188-.918941.968969-1.546394s-.075045-1.266106-.468969-1.763606l-1-1.25c1.933822-2.195139,3.525093-4.669701,4.72-7.34l1.61.26c1.340191.219528,2.611922-.666695,2.87-2l1.72-10c.093836-.634869-.071597-1.280801-.45906-1.792403s-.964397-.845882-1.60094-.927597l-1.85-.29c-.354851-3.125997-1.237368-6.169159-2.61-9l1.75-1.24c.527323-.355425.882248-.914928.979087-1.543434s-.073208-1.268895-.469087-1.766566l-6.35-8.1c-.852536-1.051569-2.374625-1.261512-3.48-.48l-2.26,1.6c-2.169172-1.518987-4.521011-2.758742-7-3.69l.51-3c.100287-.626607-.054904-1.26726-.430824-1.778512s-.941166-.850393-1.569176-.941488l-10.49-1.63c-1.324328-.232819-2.592947.632148-2.86,1.95l-.62,3.61c-2.765131.342711-5.472279,1.052287-8.05,2.11l-2.47-3.15c-.852392-1.099147-2.422656-1.324735-3.55-.51Zm8.18,18c7.424208-5.214556,17.616888-3.799634,23.34,3.24c2.634349,3.337433,3.763222,7.619556,3.116554,11.821945s-3.010704,7.94702-6.526554,10.338055c-7.423091,5.251992-17.647069,3.848272-23.38-3.21-2.633347-3.341436-3.757574-7.627934-3.103112-11.831669s3.028591-7.945589,6.553112-10.328331Z" fill="#4c210c"/><path id="eY91Juv8gPz208" d="M214.37,51.59l-5.3,1.74c-.321809.098316-.589843.323195-.742585.623022s-.177076.648857-.067415.966978L209,57c-1.010141.65565-1.939834,1.427598-2.77,2.3l-2.06-1c-.648752-.303553-1.421903-.060315-1.78.56l-2.54,4.74c-.156157.300675-.181374.652448-.069702.972322s.350343.57952.659702.717678l2,.93c-.340241,1.359094-.481711,2.760325-.42,4.16l-1.94.64c-.324613.09138-.596922.313049-.752265.612369s-.179862.649588-.067735.967631l1.84,5c.272828.655882,1.007263.988126,1.68.76l1.62-.53c.724941,1.165369,1.599001,2.231051,2.6,3.17l-.68,1.29c-.160124.300363-.188623.653651-.078715.975797s.348397.584344.658715.724203l5,2.4c.645095.312999,1.422335.067092,1.77-.56l.53-1c1.692069.423026,3.439425.58157,5.18.47l.33.91c.252703.669914.996447,1.012838,1.67.77l5.3-1.75c.323492-.095846.593411-.320367.746562-.620997s.176087-.650972.063438-.969003l-.29-.78c1.345902-.814805,2.562642-1.825946,3.61-3l.75.36c.648401.316692,1.431296.076138,1.79-.55L235.89,75c.156458-.297933.182906-.647259.073088-.965352s-.346147-.576698-.653088-.714648l-.89-.44c.352572-1.622617.420247-3.294192.2-4.94l1.1-.36c.320944-.095732.58842-.319195.73971-.617995s.173092-.646655.06029-.962005l-1.84-5c-.264921-.658413-.99726-.996079-1.67-.77l-1.41.47c-.842538-1.099238-1.827888-2.081225-2.93-2.92l.76-1.42c.159823-.298873.188115-.650761.078098-.971329s-.34843-.580925-.658098-.718671l-5-2.4c-.650543-.320411-1.438056-.074038-1.79.56l-.9,1.71c-1.457825-.235442-2.939547-.285841-4.41-.15l-.71-2c-.249138-.674028-.988622-1.028272-1.67-.8Zm1.11,10.3c4.512009-1.542046,9.440131.72841,11.2,5.16.744726,2.129772.585831,4.471488-.43977,6.481137s-2.828633,3.512298-4.99023,4.158863c-4.512288,1.547521-9.444111-.72464-11.2-5.16-.741734-2.129861-.581442-4.470261.443749-6.479107s2.826338-3.511854,4.986251-4.160893Z" fill="#4c210c"/></g><path id="eY91Juv8gPz209" d="M152.41,96.3l-7.66,7c-.471936.422971-.746533,1.023284-.757916,1.656924s.241476,1.243427.697916,1.683076l3.06,3c-1.181482,1.904232-2.141064,3.937471-2.86,6.06l-4.39-.16c-1.3448-.085564-2.504357.935206-2.59,2.28l-.39,10.09c-.008005.645276.242047,1.267023.69459,1.727077s1.07009.720306,1.71541.722923l4.16.14c.55614,2.602248,1.475122,5.113457,2.73,7.46l-2.8,2.56c-.476511.421757-.755082,1.023464-.768376,1.659676s.239899,1.24903.698376,1.690324l7.37,7.27c.978662.943101,2.519852.969297,3.53.06l2.34-2.14c2.22765,1.423782,4.626764,2.559497,7.14,3.38l-.11,2.74c-.008.646206.241739,1.26898.693994,1.730619s1.069772.724112,1.716006.729381l10.62.36c1.339281.085575,2.494368-.930723,2.58-2.27l.08-2.12c3.239712-.543238,6.376463-1.582076,9.3-3.08l1.32,1.31c.978014.941164,2.515442.971651,3.53.07l7.66-7c.471936-.422971.746533-1.023284.757916-1.656924s-.241476-1.243427-.697916-1.683076l-1.14-1.12c1.626933-2.413764,2.877861-5.060607,3.71-7.85l1.63.06c1.340969.074424,2.493793-.940417,2.59-2.28L209,120.3c.005326-.644483-.245597-1.264682-.697564-1.724151s-1.067953-.720566-1.712436-.725849l-1.87-.07c-.767031-3.076249-2.048405-6.000757-3.79-8.65l1.58-1.44c.472466-.424764.747232-1.026719.75861-1.66195s-.241658-1.24664-.69861-1.68805l-7.37-7.27c-.975309-.941773-2.513161-.967986-3.52-.06l-2,1.86c-2.361937-1.249433-4.871628-2.196867-7.47-2.82l.11-3c.008-.643554-.240685-1.263785-.691065-1.723548s-1.065353-.721183-1.708935-.726452l-10.62-.36c-1.339281-.085575-2.494368.930723-2.58,2.27l-.13,3.66c-2.6927.660483-5.287875,1.66897-7.72,3l-2.86-2.82c-.990332-.984361-2.582712-1.006477-3.6-.05Zm13,19.37c5.295879-4.756718,13.367231-4.612665,18.49.33c2.391807,2.318093,3.712538,5.526013,3.646162,8.856162s-1.513884,6.482894-3.996162,8.703838c-5.295879,4.756718-13.367231,4.612665-18.49-.33-2.390553-2.31946-3.709499-5.528178-3.641227-8.858339s1.517619-6.482127,4.001227-8.701661Z" transform="translate(-.629806 0)" fill="#adc9c9"/><path id="eY91Juv8gPz210" d="M187.27,137.18l-8.53,6c-.523296.358947-.874188.918941-.968969,1.546394s.075045,1.266106.468969,1.763606l2.63,3.35c-1.427983,1.743265-2.649441,3.64592-3.64,5.67l-4.34-.69c-1.34145-.225101-2.616714.663585-2.87,2l-1.72,10c-.093644.635286.073399,1.281456.463194,1.791767s.969261.841456,1.606806.918233l4.1.65c.209529,2.6411.788503,5.239753,1.72,7.72l-3.12,2.21c-.524844.357363-.877752.916598-.974444,1.544149s.071512,1.267078.464444,1.765851l6.35,8.1c.858633,1.048357,2.380229,1.25763,3.49.48l2.6-1.84c2.028396,1.675724,4.259178,3.090121,6.64,4.21l-.47,2.7c-.096689.635309.067642,1.282719.455624,1.795005s.966636.845907,1.604376.924995l10.49,1.64c1.324328.232819,2.592947-.632148,2.86-1.95l.36-2.09c3.290408-.157132,6.537668-.814677,9.63-1.95l1.14,1.46c.855757,1.051637,2.377735,1.265324,3.49.49l8.53-6c.523296-.358947.874188-.918941.968969-1.546394s-.075045-1.266106-.468969-1.763606l-1-1.25c1.933822-2.195139,3.525093-4.669701,4.72-7.34l1.61.26c1.340191.219528,2.611922-.666695,2.87-2l1.72-10c.093836-.634869-.071597-1.280801-.45906-1.792403s-.964397-.845882-1.60094-.927597l-1.85-.29c-.354851-3.125997-1.237368-6.169159-2.61-9l1.75-1.24c.527323-.355425.882248-.914928.979087-1.543434s-.073208-1.268895-.469087-1.766566l-6.35-8.1c-.852536-1.051569-2.374625-1.261512-3.48-.48l-2.26,1.6c-2.169172-1.518987-4.521011-2.758742-7-3.69l.51-3c.100287-.626607-.054904-1.26726-.430824-1.778512s-.941166-.850393-1.569176-.941488l-10.49-1.63c-1.324328-.232819-2.592947.632148-2.86,1.95l-.62,3.61c-2.765131.342711-5.472279,1.052287-8.05,2.11l-2.47-3.15c-.852392-1.099147-2.422656-1.324735-3.55-.51Zm8.18,18c7.424208-5.214556,17.616888-3.799634,23.34,3.24c2.634349,3.337433,3.763222,7.619556,3.116554,11.821945s-3.010704,7.94702-6.526554,10.338055c-7.423091,5.251992-17.647069,3.848272-23.38-3.21-2.633347-3.341436-3.757574-7.627934-3.103112-11.831669s3.028591-7.945589,6.553112-10.328331Z" fill="#dfefef"/><path id="eY91Juv8gPz211" d="M213.37,48.59l-5.3,1.74c-.321809.098316-.589843.323195-.742585.623022s-.177076.648857-.067415.966978L208,54c-1.010141.65565-1.939834,1.427598-2.77,2.3l-2.06-1c-.648752-.303553-1.421903-.060315-1.78.56l-2.54,4.74c-.156157.300675-.181374.652448-.069702.972322s.350343.57952.659702.717678l2,.93c-.340241,1.359094-.481711,2.760325-.42,4.16l-1.94.64c-.324613.09138-.596922.313049-.752265.612369s-.179862.649588-.067735.967631l1.84,5c.272828.655882,1.007263.988126,1.68.76l1.62-.53c.724941,1.165369,1.599001,2.231051,2.6,3.17l-.68,1.29c-.160124.300363-.188623.653651-.078715.975797s.348397.584344.658715.724203l5,2.4c.645095.312999,1.422335.067092,1.77-.56l.53-1c1.692069.423026,3.439425.58157,5.18.47l.33.91c.252703.669914.996447,1.012838,1.67.77l5.3-1.75c.323492-.095846.593411-.320367.746562-.620997s.176087-.650972.063438-.969003l-.29-.78c1.345902-.814805,2.562642-1.825946,3.61-3l.75.36c.648401.316692,1.431296.076138,1.79-.55L234.89,72c.156458-.297933.182906-.647259.073088-.965352s-.346147-.576698-.653088-.714648l-.89-.44c.352572-1.622617.420247-3.294192.2-4.94l1.1-.36c.320944-.095732.58842-.319195.73971-.617995s.173092-.646655.06029-.962005l-1.84-5c-.264921-.658413-.99726-.996079-1.67-.77l-1.41.47c-.842538-1.099238-1.827888-2.081225-2.93-2.92l.76-1.42c.159823-.298873.188115-.650761.078098-.971329s-.34843-.580925-.658098-.718671l-5-2.4c-.650543-.320411-1.438056-.074038-1.79.56l-.9,1.71c-1.457825-.235442-2.939547-.285841-4.41-.15l-.71-2c-.249138-.674028-.988622-1.028272-1.67-.8Zm1.11,10.3c4.512009-1.542046,9.440131.72841,11.2,5.16.744726,2.129772.585831,4.471488-.43977,6.481137s-2.828633,3.512298-4.99023,4.158863c-4.512288,1.547521-9.444111-.72464-11.2-5.16-.741734-2.129861-.581442-4.470261.443749-6.479107s2.826338-3.511854,4.986251-4.160893Z" fill="#dfefef"/><ellipse rx="12.44" ry="11.81" transform="translate(175.33 124.87)" fill="#dfefef"/><ellipse rx="6.86" ry="6.52" transform="translate(174.69 124.88)" fill="#47b2ba"/><path d="M222.83,167.39c.159371,5.462425-2.48018,10.628403-7,13.7-3.909608,2.649955-8.710104,3.642417-13.35,2.76-4.854172-.999872-9.157237-3.782949-12.06-7.8l-25.08-38.71c-3.4-4.56-5.24-9.16-5.27-13.22-.057365-4.182414,2.083504-8.088361,5.64-10.29c3.707294-2.5801,8.415094-3.258468,12.7-1.83c4.06,1.3,7.9,4.28,11.13,8.6l29.14,35c2.607378,3.385717,4.06176,7.517564,4.15,11.79ZM162.62,124.1c0,3.56,1.7,7.67,4.85,11.89l25.07,38.71c2.518839,3.479981,6.251337,5.88862,10.46,6.75c3.945257.750976,8.027291-.094203,11.35-2.35c3.843081-2.629512,6.08193-7.035598,5.94-11.69-.077527-3.773379-1.363933-7.422283-3.67-10.41l-29.14-35c-2.95-4-6.35-6.62-9.89-7.75-3.516032-1.18739-7.388355-.61454-10.41,1.54-2.896683,1.75524-4.63542,4.923859-4.56,8.31Z" fill="#4b8a8c"/><path d="M227.73,66.15c0,3.23-1.35,6.82-4,10.37l-37.41,55.74c-4.91536,6.299344-13.833859,7.789381-20.53,3.43l-.24-.12c-3.15-2-5.14-6.15-5.17-10.69-.050706-3.215767.953895-6.359538,2.86-8.95l41.44-51.27c5.07-6.9,12.12-9.41,18.35-6.5l.21.13.73.53c2.390224,1.669589,3.798335,4.414657,3.76,7.33ZM167,133.5l.25.13c5.515575,3.699368,12.956167,2.478236,17-2.79l37.37-55.67c2.3-3.14,3.54-6.32,3.52-9c.058891-2.138086-.954197-4.164261-2.7-5.4l-.63-.46c-5-2.29-10.66-.12-15,5.81l-41.45,51.26c-1.571502,2.177992-2.39909,4.804532-2.36,7.49c0,3.65,1.58,7.03,4,8.63Z" fill="#4b8a8c"/><path id="eY91Juv8gPz216" d="M283.6,100v0c.032829-.068706.069556-.135482.11-.2l.09-.14.09-.14c.96691-1.650519,2.434557-2.950035,4.19-3.71l.47-.18v0L345,74.22l56.43-21.38v0l.46-.18c1.419146-.617451,3.060396-.426608,4.3.5l.1.07.09.07l6.17,5-4.2,1l1.9,74.33c-.006457,2.002369-.589722,3.960472-1.68,5.64l-.09.15-.09.13c-.965265,1.654245-2.433089,2.95742-4.19,3.72L291.63,186l.21,4.67-5.84-4.8-.1-.08c-1.263163-1.052769-1.974359-2.626244-1.93-4.27L282,105.41c.011377-1.918298.566143-3.794099,1.6-5.41Z" fill="#fff" stroke="#2573ba" stroke-miterlimit="10"/><path id="eY91Juv8gPz217" d="M296.45,191.39l113.79-43.12c3.45-1.31,6.15-5.86,6-10.18l-1.91-75c-.11-4.32-3-6.76-6.43-5.46l-113.75,43.1c-3.45,1.3-6.15,5.86-6,10.18l1.91,75c.07,4.34,2.94,6.78,6.39,5.48Z" fill="url(#eY91Juv8gPz217-fill)" stroke="#59bdef" stroke-miterlimit="10"/><path id="eY91Juv8gPz218" d="M294.61,100.55L351,79.17l2.25,88.19-56.37,23.85c-3.7,1.4-6.78-.72-6.88-4.74l-1.94-76.11c.07001-4.27173,2.631386-8.107929,6.55-9.81Z" fill="#00bcd4" stroke="#59bdef" stroke-miterlimit="10"/><path id="eY91Juv8gPz219" d="M407.47,57.79L351,79.17l2.23,87.64l56.51-18.37c3.904664-1.712025,6.449539-5.546929,6.51-9.81l-1.94-76.11c-.06-4.01-3.14-6.13-6.84-4.73Z" fill="#00bcd4" stroke="#59bdef" stroke-miterlimit="10"/><path id="eY91Juv8gPz220" d="M414.73,144.08c-1.137865,1.966922-2.896503,3.500455-5,4.36L296.92,191.21c-1.669824.75539-3.619108.536671-5.08-.57l60.06-77.53Z" fill="#00bcd4" stroke="#59bdef" stroke-miterlimit="10"/><path id="eY91Juv8gPz221" d="M289.66,104.92c1.125146-1.960883,2.864747-3.496652,4.95-4.37L407.47,57.79c1.66803-.75823,3.617185-.543363,5.08.56l-60.07,77.54Z" fill="#00bcd4" stroke="#59bdef" stroke-miterlimit="10"/><path id="eY91Juv8gPz222" d="M308.65,116.27v0l.12-.19.09-.14.09-.14c.965265-1.654245,2.433089-2.95742,4.19-3.72l.46-.17v0L370,90.52l56.43-21.38v0l.46-.17c1.416737-.624593,3.060109-.437325,4.3.49l.09.07.1.08l6.17,5-4.2,1L435.28,150c-.000638,2.001779-.580641,3.96059-1.67,5.64l-.09.14-.09.14c-.96691,1.650519-2.434557,2.950035-4.19,3.71L316.69,202.27l.21,4.68-5.85-4.78-.09-.07c-1.263163-1.052769-1.974359-2.626244-1.93-4.27l-1.94-76.11c.002131-1.926521.542439-3.814134,1.56-5.45Z" fill="#fff" stroke="#2573ba" stroke-miterlimit="10"/><path id="eY91Juv8gPz223" d="M321.51,207.69L435.3,164.57c3.44-1.3,6.14-5.86,6-10.18l-1.91-75c-.11-4.31-3-6.76-6.43-5.45L319.2,117c-3.44,1.31-6.14,5.87-6,10.18l1.91,75c.08,4.37,2.96,6.82,6.4,5.51Z" fill="url(#eY91Juv8gPz223-fill)" stroke="#59bdef" stroke-miterlimit="10"/><path id="eY91Juv8gPz224" d="M319.67,116.86L376.1,95.48l2.24,88.19L322,207.51c-3.7,1.41-6.78-.72-6.88-4.73l-1.94-76.11c.05693-4.258364,2.593154-8.092009,6.49-9.81Z" fill="#00bcd4" stroke="#59bdef" stroke-miterlimit="10"/><path id="eY91Juv8gPz225" d="M432.53,74.09L376.1,95.48l2.23,87.63l56.51-18.36c3.902975-1.714033,6.447032-5.547705,6.51-9.81l-1.94-76.11c-.1-4.02-3.18-6.14-6.88-4.74Z" fill="#00bcd4" stroke="#59bdef" stroke-miterlimit="10"/><path id="eY91Juv8gPz226" d="M439.79,160.38c-1.13793,1.9692-2.896193,3.505923-5,4.37L322,207.51c-1.66803.75823-3.617185.543363-5.08-.56L377,129.41Z" fill="#00bcd4" stroke="#59bdef" stroke-miterlimit="10"/><path id="eY91Juv8gPz227" d="M314.72,121.22c1.125678-1.958104,2.865457-3.490516,4.95-4.36L432.53,74.09c1.669824-.75539,3.619108-.536671,5.08.57L377.54,152.2Z" fill="#00bcd4" stroke="#59bdef" stroke-miterlimit="10"/><path id="eY91Juv8gPz228" d="M338.24,132.64v0l.12-.19c.022855-.048744.049608-.095563.08-.14l.09-.14c.960852-1.657856,2.430026-2.96223,4.19-3.72l.47-.17v0l56.43-21.39l56.43-21.38v0l.46-.18c1.419146-.617451,3.060396-.426608,4.3.5l.1.07.09.1l6.17,5L463,92l1.89,74.32c-.001896,2.003038-.585537,3.962407-1.68,5.64l-.09.15-.09.13c-.958046,1.660146-2.428085,2.965287-4.19,3.72L346.27,218.64l.21,4.68-5.84-4.78-.09-.07c-1.268412-1.0531-1.98047-2.632171-1.93-4.28l-1.94-76.1c-.002693-1.927197.537987-3.816113,1.56-5.45Z" transform="translate(1.33-.914245)" fill="#fff" stroke="#2573ba" stroke-miterlimit="10"/><path id="eY91Juv8gPz229" d="M351.1,224.06l113.79-43.12c3.44-1.3,6.14-5.86,6-10.18l-1.91-75c-.11-4.32-3-6.76-6.43-5.46L348.79,133.4c-3.44,1.31-6.14,5.86-6,10.18l1.91,75c.08,4.34,2.95,6.78,6.4,5.48Z" transform="translate(1.33-.914246)" fill="url(#eY91Juv8gPz229-fill)" stroke="#59bdef" stroke-miterlimit="10"/><path id="eY91Juv8gPz230" d="M349.25,133.23l56.43-21.39L407.93,200l-56.37,23.85c-3.7,1.4-6.78-.72-6.88-4.73L342.74,143c.07599-4.24849,2.61835-8.063982,6.51-9.77Z" transform="translate(1.33-.914245)" fill="#00bcd4" stroke="#59bdef" stroke-miterlimit="10"/><path id="eY91Juv8gPz231" d="M462.11,90.46l-56.43,21.38l2.23,87.64l56.51-18.36c3.906234-1.715532,6.450922-5.554062,6.51-9.82L469,95.2c-.11-4.02-3.19-6.14-6.89-4.74Z" transform="translate(1.33-.914245)" fill="#00bcd4" stroke="#59bdef" stroke-miterlimit="10"/><path id="eY91Juv8gPz232" d="M469.37,176.75c-1.125146,1.960883-2.864747,3.496652-4.95,4.37L351.56,223.88c-1.66803.75823-3.617185.543363-5.08-.56l60.07-77.54Z" transform="translate(1.33-.914245)" fill="#00bcd4" stroke="#59bdef" stroke-miterlimit="10"/><path id="eY91Juv8gPz233" d="M344.3,137.59c1.125092-1.958582,2.865056-3.491157,4.95-4.36L462.11,90.46c1.669824-.75539,3.619108-.536671,5.08.57l-60.06,77.53Z" transform="translate(1.33 0.085755)" fill="#00bcd4" stroke="#59bdef" stroke-miterlimit="10"/></g></g></g></svg>