<svg id="ekTdg3sX9Ab1" xmlns="http://www.w3.org/2000/svg" xmlns:xlink="http://www.w3.org/1999/xlink" viewBox="0 0 894.48 661.69" shape-rendering="geometricPrecision" text-rendering="geometricPrecision"><g id="ekTdg3sX9Ab2" style="isolation:isolate"><g id="ekTdg3sX9Ab3"><g id="ekTdg3sX9Ab4"><path id="ekTdg3sX9Ab5" d="M780,242.66C782.24,241.59,782.87,239.12,783.37,236.86C784.29,232.67,783.92,228.24,783.8,224Q783.59,216.17,783.37,208.36C793.863067,205.480973,803.582197,200.298576,811.82,193.19C811.855856,193.237409,811.899878,193.278045,811.95,193.31L823.95,202.71C826.45,204.66,829.75,208.57,833.1,208.95C835.95,209.28,839.43,206.82,841.74,205.48C844.849918,203.677362,847.756675,201.545069,850.41,199.12C854.69,195.18,859.21,190.76,855.51,184.97C853.02,181.07,849.06,177.72,845.94,174.33L835.76,163.27C835.513656,163.018967,835.176714,162.877537,834.825,162.877537C834.473286,162.877537,834.136344,163.018967,833.89,163.27C839,154.27,843.53,144.91,845.01,134.65C850.06,133.95,855.09,133.12,860.09,132.11C864.2,131.28,869.38,130.87,873.18,129.03C875.5,127.91,876,126.74,876.4,124.26C877.15,119.71,876.97,114.79,877.25,110.19C877.63,103.82,878.25,99.07,871,97.66C861.42,95.79,851.32,95.35,841.62,94.22C841.487875,94.194615,841.352125,94.194615,841.22,94.22C838.56,84.22,833.61,75.66,827.54,67.36C833.54,61.36,840.02,54.55,843.98,46.97C847.77,39.71,841.66,35.05,836.56,30.54C832.35,26.83,827.09,20.31,821.23,23.83C812.74,28.92,805.02,35.88,797.97,42.76C797.490282,43.225309,797.43036,43.974343,797.83,44.51C787.874,38.968495,777.155433,34.925024,766.02,32.51C764.92,23.27,764.55,13.38,762.32,4.43C760.88,-1.51,751,0.17,746.49,0.39C741.16,0.63,731.62,0.49,729.49,6.83C728.21,10.71,729.11,16.05,729.1,20.1Q729.1,27.87,729.02,35.64C719.66351,39.104727,710.73519,43.63096,702.41,49.13L702.35,49.08C694.47,44.42,686.54,38.5,678.16,34.81C671.96,32.06,666.65,39.58,663.09,43.69C659.09,48.29,652.27,54.98,655.69,61.49C657.69,65.24,661.38,68.29,664.37,71.21C667.36,74.13,670.2,76.71,673.21,79.36C667.229788,88.279882,664.025045,98.770977,664,109.51C655.54,111.67,647,113.77,638.71,116.35C631.26,118.66,633.71,126.46,634.2,132.77C634.53,137,634.4,141.87,635.58,145.95C636.17,148.01,637.15,149.2,639.3,149.56C643.61,150.27,649.12,148.77,653.46,148.38L669,147C671.545703,157.704726,676.923519,167.527789,684.57,175.44C679.3,182.97,673.76,190.69,669.57,198.85C666.04,205.73,673.44,211.25,678.04,215.53C682.64,219.81,688.21,225.44,694.63,221.61C702.03,217.19,708.52,209.87,714.42,203.44C723.881412,209.586558,734.992216,212.701769,746.27,212.37C748.08,221.03,749.71,229.78,751.9,238.37C753.9,246.29,760.3,244.76,767.2,244.24C771,243.92,776.48,244.32,780,242.66ZM808.58,72.87C828.35,94.75,833.71,127.48,820.27,153.97C813,168.31,801,179,786.39,185.54C770.95,192.54,752.56,196.84,735.95,191.8C705.07,182.43,683.62,151.41,682.69,119.67C682.934287,119.477021,683.074765,119.181279,683.07,118.87C684.58,91.33,702.07,65.49,727.84,55C755.22,43.85,788.67,50.84,808.58,72.87Z" fill="rgb(56,142,60)" stroke="none" stroke-width="1"/><path id="ekTdg3sX9Ab6" d="M797.36,167.74C797.58154,167.597101,797.783277,167.425624,797.96,167.23C798.79,166.51,799.6,165.79,800.38,165.03C820.984204,145.146845,824.985736,113.608787,810,89.21C796.1,66.47,768.36,54.94,742.33,60.13C714.26,65.73,693.08,90.98,691.17,119.33C691.132292,119.754511,691.204617,120.181577,691.38,120.57C691.44816,145.34573,705.882462,167.832031,728.38,178.21C750.8,188.3,778.7,183.52,797.36,167.74ZM739.47,176.74C735.749976,175.797323,732.142455,174.456237,728.71,172.74C730.47,170.62,731.96,168.16,731.5,165.28C731.07,162.59,729.12,161.08,726.66,160.36C725.448363,160.091592,724.321709,159.528265,723.38,158.72C722.535157,157.837048,721.371881,157.32924,720.15,157.31C717.66,157.31,715.2,159.66,713.15,161.4C705.395223,153.52195,700.004549,143.627501,697.59,132.84C700.51,132.34,706.59,131.74,707.89,128.56C708.53,127.02,708.01,125.24,707.78,123.66Q707.26,120.29,706.78,116.89C706.610728,115.783937,705.737596,114.918928,704.63,114.76C701.954572,114.533796,699.260535,114.692071,696.63,115.23C698.113222,105.402517,701.93356,96.074584,707.77,88.03L711.24,91.54C712.24,92.54,714.24,93.01,715.24,91.49C717.013009,88.445414,719.253704,85.698538,721.88,83.35C722.91575,82.463095,723.090341,80.926688,722.28,79.83C721.433836,78.458587,720.452257,77.175499,719.35,76C726.185407,70.55652,734.215657,66.813868,742.78,65.08L742.78,65.17Q743.47,68.77,743.98,72.4C744.144159,73.512385,745.025428,74.381414,746.14,74.53L753.23,74.53C754.95,74.53,757.49,75,759.12,74.19C760.14415,73.58136,760.835935,72.540004,761,71.36C761.51,69.06,761.81,66.69,762.18,64.36C771.279286,65.432229,780.023107,68.527931,787.77,73.42C785.85,75.51,783.03,78.72,784.36,81.59C785.06,83.09,786.73,83.98,788.01,84.92L793.53,88.92C794.637472,89.737005,796.195588,89.514417,797.03,88.42C797.978302,86.929374,799.38059,85.783003,801.03,85.15C806.750605,92.17304,810.741158,100.441875,812.68,109.29C810.56,109.84,808.13,110.23,806.26,111.29C803.96,112.56,804.08,114.83,804.26,117.13C804.47,119.24,804.15,122.54,805.8,124.13C807.45,125.72,810.97,125.43,813.17,125.62C813.395934,125.645772,813.624066,125.645772,813.85,125.62C813.163616,135.985384,809.481087,145.92821,803.25,154.24L803.04,154.5C801.18,152.27,798.79,149.57,795.99,150.76C794.35,151.46,793.17,153.39,792.07,154.69L787.61,160C786.787324,161.106037,787.01054,162.668554,788.11,163.5L791.66,165.8C785.656256,170.285086,778.905213,173.670764,771.72,175.8C771.54,174.48,771.36,173.16,771.17,171.8C770.949351,170.447833,769.699672,169.511678,768.34,169.68L761.54,170.26C759.54,170.42,757.16,170.26,755.22,170.83C751.6,171.83,752.41,175.47,752.94,178.41C748.402378,178.394059,743.882007,177.850407,739.47,176.79Z" fill="rgb(56,142,60)" stroke="none" stroke-width="1"/><path id="ekTdg3sX9Ab7" d="M818.27,454C820.01,453.16,820.51,451.23,820.9,449.46C821.62,446.18,821.33,442.72,821.24,439.41Q821.08,433.29,820.9,427.18C829.104999,424.927081,836.70552,420.875748,843.15,415.32C843.17609,415.357184,843.210283,415.387957,843.25,415.41L852.64,422.76C854.64,424.29,857.18,427.34,859.8,427.64C862.03,427.9,864.8,425.98,866.56,424.93C868.992662,423.511136,871.265725,421.834837,873.34,419.93C876.68,416.85,880.22,413.4,877.34,408.87C875.4,405.87,872.34,403.2,869.86,400.55L861.86,391.91C861.670928,391.70805,861.406644,391.593447,861.13,391.593447C860.853356,391.593447,860.589072,391.70805,860.4,391.91C864.4,384.91,867.94,377.56,869.09,369.54C873.04,368.99,876.98,368.34,880.88,367.54C884.1,366.89,888.14,366.54,891.11,365.13C892.93,364.25,893.32,363.34,893.64,361.4C894.22,357.84,894.08,354,894.3,350.4C894.6,345.4,895.07,341.7,889.41,340.6C881.92,339.14,874.03,338.79,866.41,337.91C866.307655,337.889788,866.202345,337.889788,866.1,337.91C864.02,330.09,860.15,323.4,855.4,316.91C860.07,312.18,865.16,306.91,868.26,300.96C871.26,295.29,866.44,291.64,862.46,288.12C859.16,285.22,855.05,280.12,850.46,282.87C843.82,286.87,837.78,292.29,832.27,297.67C831.878673,298.027909,831.834794,298.62906,832.17,299.04C824.385123,294.693386,816.001509,291.519204,807.29,289.62C806.43,282.39,806.14,274.62,804.39,267.62C803.25,263.04,795.54,264.36,792,264.52C787.83,264.72,780.37,264.6,778.74,269.57C777.74,272.57,778.45,276.77,778.44,279.94L778.38,292.09C771.060939,294.795234,764.078169,298.335273,757.57,302.64L757.57,302.59C751.41,298.95,745.21,294.33,738.66,291.44C733.81,289.29,729.66,295.17,726.87,298.39C723.76,301.98,718.42,307.21,721.09,312.3C722.63,315.24,725.54,317.62,727.88,319.9C730.22,322.18,732.43,324.2,734.79,326.27C730.104335,333.239277,727.591653,341.442035,727.57,349.84C720.95,351.54,714.3,353.18,707.79,355.2C701.96,357,703.89,363.1,704.26,368.04C704.52,371.34,704.42,375.15,705.34,378.34C705.575617,379.824002,706.760008,380.975832,708.25,381.17C711.62,381.72,715.93,380.54,719.33,380.24L731.44,379.16C733.425607,387.531808,737.629524,395.214234,743.61,401.4C739.49,407.29,735.15,413.32,731.88,419.7C729.12,425.08,734.88,429.4,738.51,432.75C742.14,436.1,746.51,440.49,751.51,437.5C757.3,434.05,762.37,428.31,766.99,423.29C774.388525,428.09346,783.072317,430.534686,791.89,430.29C793.31,437.06,794.58,443.9,796.3,450.59C797.89,456.78,802.86,455.59,808.3,455.18C811.24,455,815.51,455.31,818.27,454ZM840.6,321.25C856.07,338.36,860.25,363.95,849.75,384.66C844.06,395.87,834.65,404.2,823.25,409.34C811.19,414.78,796.8,418.18,783.81,414.24C759.67,406.92,742.9,382.66,742.17,357.84C742.363284,357.693109,742.474763,357.462719,742.47,357.22C743.65,335.69,757.36,315.48,777.47,307.28C798.88,298.56,825,304,840.6,321.25Z" fill="rgb(56,142,60)" stroke="none" stroke-width="1"/><path id="ekTdg3sX9Ab8" d="M828.34,375.9C836.62,363.02,835.62,346.97,824.58,336.05C814.58,326.14,798.88,323.17,785.78,328.16C770.93,333.82,762.02,349.32,762.78,364.88C762.778594,365.571394,763.124124,366.217385,763.7,366.6C764.4,379.72,774.26,390.6,787.27,393.41C802.88,396.82,819.79,389.2,828.34,375.9ZM784.34,387C787.34,386.08,788.51,381.83,785.98,379.24C784.394033,377.696474,782.263009,376.84119,780.05,376.86C777.72,377.06,776.53,379.52,775.37,381.31C772.052264,378.169553,769.821082,374.053952,769,369.56C772.76,369.65,776.37,367.09,776.44,363.05C776.44,360.74,775.44,358.38,772.97,357.95C771.330485,357.672551,769.652653,357.716704,768.03,358.08C768.798342,352.763219,770.858476,347.71589,774.03,343.38L774.03,343.38C775.32,345.38,777.36,347.02,779.76,346.56C780.074455,346.718654,780.445545,346.718654,780.76,346.56C783.223571,345.442082,785.188779,343.455513,786.28,340.98C786.473448,340.595499,786.422513,340.133166,786.15,339.8C786.35749,339.236105,786.328646,338.61234,786.07,338.07C785.38034,336.813105,784.437076,335.713197,783.3,334.84C785.974288,333.257793,788.884351,332.113348,791.92,331.45L792.24,331.39C792.241156,333.498767,793.422717,335.429423,795.3,336.39C797.54,337.62,800.06,337.2,802.41,336.54C803.498646,336.340775,804.346091,335.481338,804.53,334.39C804.704375,333.379855,804.774743,332.354496,804.74,331.33C808.851445,332.089742,812.779043,333.630908,816.31,335.87C814.98,337.19,813.31,338.64,813.65,340.64C813.99,342.64,816.15,344.64,817.39,346.18C817.881235,346.785474,818.622477,347.132938,819.402102,347.123193C820.181728,347.113447,820.914053,346.747564,821.39,346.13C822.31,345.13,823.24,344.18,824.17,343.2C825.768345,345.405665,827.010158,347.848798,827.85,350.44C828.566444,352.641681,828.960527,354.935448,829.02,357.25C827.432759,357.051215,825.820997,357.250537,824.33,357.83C823.309004,358.287926,822.707956,359.360066,822.85,360.47C822.963199,361.348967,822.856687,362.242288,822.54,363.07C822.252507,363.789022,822.31299,364.600491,822.7039,365.268947C823.094811,365.937404,823.772379,366.388004,824.54,366.49L827.39,366.75C826.258288,369.762868,824.673374,372.585365,822.69,375.12L820.44,372.64C819.949403,372.032165,819.206416,371.683865,818.425384,371.695581C817.644352,371.707296,816.912146,372.077724,816.44,372.7C816.27,372.93,816.08,373.14,815.9,373.35C815.653442,373.458728,815.418849,373.592781,815.2,373.75C814.825393,374.035184,814.549203,374.430241,814.41,374.88C813.741158,375.464405,813.025415,375.992851,812.27,376.46C811.764662,376.893565,811.452303,377.510154,811.401665,378.174068C811.351028,378.837981,811.566262,379.49481,812,380C812.859103,381.009021,813.832263,381.915067,814.9,382.7C812.563082,384.368096,810.039314,385.757511,807.38,386.84L807.05,384.45C806.843978,383.089027,805.584012,382.145166,804.22,382.33C802.64947,382.650023,801.03053,382.650023,799.46,382.33C798.096409,382.175374,796.85657,383.131822,796.66,384.49C796.425011,386.034446,796.425011,387.605554,796.66,389.15C792.43734,389.27179,788.233501,388.54054,784.3,387Z" fill="rgb(56,142,60)" stroke="none" stroke-width="1"/><path id="ekTdg3sX9Ab9" d="M566.41,659.68C568.65,658.61,569.28,656.14,569.78,653.87C570.7,649.68,570.33,645.26,570.21,641.01Q570,633.19,569.78,625.38C580.273067,622.500973,589.992197,617.318576,598.23,610.21C598.266274,610.254277,598.31033,610.291555,598.36,610.32L610.36,619.72C612.87,621.72,616.17,625.58,619.52,625.96C622.37,626.29,625.85,623.84,628.16,622.5C631.270182,620.693892,634.176923,618.558258,636.83,616.13C641.11,612.2,645.63,607.78,641.93,601.99C639.44,598.08,635.48,594.74,632.36,591.35L622.18,580.29C621.932322,580.04146,621.59588,579.901759,621.245,579.901759C620.89412,579.901759,620.557678,580.04146,620.31,580.29C625.42,571.29,629.95,561.94,631.43,551.68C636.43,550.98,641.51,550.15,646.51,549.14C650.62,548.31,655.8,547.89,659.59,546.06C661.92,544.94,662.42,543.77,662.82,541.28C663.57,536.73,663.39,531.82,663.67,527.21C664.05,520.85,664.67,516.09,657.42,514.69C647.84,512.81,637.74,512.37,628.04,511.24C627.908027,511.213061,627.771973,511.213061,627.64,511.24C624.98,501.24,620.03,492.68,613.96,484.38C619.96,478.33,626.44,471.57,630.4,463.99C634.19,456.73,628.08,452.07,622.98,447.56C618.76,443.85,613.51,437.32,607.65,440.85C599.16,445.93,591.44,452.85,584.39,459.78C583.907405,460.239893,583.847143,460.988864,584.25,461.52C574.29486,455.965351,563.576813,451.905229,552.44,449.47C551.34,440.24,550.97,430.35,548.74,421.39C547.27,415.53,537.41,417.22,532.88,417.39C527.55,417.64,518.01,417.49,515.93,423.84C514.65,427.72,515.55,433.05,515.54,437.11C515.54,442.28,515.54,447.47,515.46,452.64C506.10351,456.104727,497.17519,460.63096,488.85,466.13C480.52481,471.62904,488.85,466.13,488.79,466.08C480.91,461.43,472.98,455.51,464.6,451.81C458.4,449.07,453.09,456.59,449.52,460.7C445.52,465.3,438.71,471.99,442.13,478.5C444.13,482.25,447.82,485.3,450.81,488.21C453.8,491.12,456.64,493.72,459.65,496.37C453.658883,505.282653,450.4435,515.770924,450.41,526.51C441.95,528.68,433.41,530.78,425.11,533.36C417.67,535.67,420.11,543.47,420.61,549.78C420.94,554.01,420.81,558.87,421.99,562.96C422.58,565.02,423.56,566.21,425.71,566.57C430.02,567.28,435.53,565.78,439.87,565.39L455.37,564C457.915703,574.704726,463.293519,584.527789,470.94,592.44C465.67,599.97,460.13,607.69,455.94,615.85C452.41,622.73,459.81,628.25,464.41,632.53C469.01,636.81,474.58,642.43,481,638.61C488.4,634.19,494.89,626.86,500.79,620.43C510.252656,626.574817,521.361868,629.69307,532.64,629.37C534.45,638.03,536.08,646.78,538.27,655.37C540.27,663.3,546.67,661.76,553.57,661.24C557.42,660.94,562.88,661.34,566.41,659.68ZM551.84,609.48C551.59,607.82,551.41,605.83,551.32,605.34L550.48,600.74C555.44068,599.935264,560.306011,598.625109,565,596.83C565.01724,596.884328,565.037266,596.937732,565.06,596.99C566.25,599.43,567.45,601.88,568.65,604.32C563.213982,606.54409,557.587656,608.271148,551.84,609.48ZM572.79,602.56L570.95,603.36C569.75,600.9,568.54,598.44,567.34,595.99C567.32702,595.961199,567.310201,595.934288,567.29,595.91C572.389593,593.769622,577.205908,591.008806,581.63,587.69L581.69,587.78L586.69,594.44C582.355506,597.62855,577.696322,600.350318,572.79,602.56ZM588.67,592.92L583.67,586.22L583.61,586.16C587.193176,583.2364,590.442837,579.926373,593.3,576.29L599.71,581.87C596.462973,585.961881,592.75894,589.669269,588.67,592.92ZM606.67,570.99C605.091592,574.095096,603.26569,577.068038,601.21,579.88L594.78,574.29C595.62,573.12,596.43,571.93,597.2,570.69C598.385901,568.752483,599.46096,566.749266,600.42,564.69Q604.37,566.07,608.21,567.69C607.73,568.81,607.22,569.91,606.67,571ZM613.39,549.4C612.635087,554.883206,611.221545,560.255339,609.18,565.4C606.63,564.31,604.05,563.3,601.43,562.4C603.442981,557.536998,604.788527,552.423925,605.43,547.2C608.06,548,610.71,548.74,613.39,549.4ZM613.49,530.48C614.181473,535.934574,614.248574,541.450218,613.69,546.92C611,546.24,608.33,545.5,605.69,544.67C606.03835,540.19079,605.890788,535.686804,605.25,531.24ZM613.15,528.01L604.84,528.77C604.041875,524.471615,602.805418,520.266321,601.15,516.22L609.5,514C611.171899,518.535971,612.394429,523.225129,613.15,528ZM600.48,547.57C599.764862,552.206342,598.481887,556.737059,596.66,561.06C586.82,583.46,563.66,596.35,539.73,596.78C533.450239,596.992991,527.171805,596.3197,521.08,594.78C513.248434,591.765173,506.18235,587.052173,500.39,580.98C491.81,569.08,484.31,555.47,482.16,540.81C482.145064,540.690959,482.118264,540.573709,482.08,540.46C482.37,518.21,495.48,496.68,515.77,487.15C537.32,477.01,563.3,480.43,581.1,496.33C595.48,509.14,603.14,528.76,600.48,547.57ZM608.61,511.71L600.15,513.92C598.17857,509.602552,595.733573,505.517495,592.86,501.74L600.02,496.16C603.494999,500.98109,606.378946,506.20174,608.61,511.71ZM595,489.89C596.24,491.26,597.42,492.69,598.54,494.15L591.33,499.77L591.33,499.77C588.315281,496.11715,584.904394,492.810234,581.16,489.91C583.05,487.36,585.05,484.91,587.16,482.48C589.9688,484.734632,592.590678,487.212708,595,489.89ZM585.09,481C583.02,483.42,581.02,485.89,579.09,488.45C575.096334,485.598933,570.788029,483.216615,566.25,481.35C567.465868,478.373188,568.934574,475.506034,570.64,472.78C575.762633,474.943285,580.612698,477.702283,585.09,481ZM568.31,471.83C566.61646,474.580463,565.154749,477.467091,563.94,480.46C560.720811,479.282074,557.413943,478.359227,554.05,477.7C554.382972,474.502328,555.087733,471.354397,556.15,468.32C560.294094,469.126515,564.362087,470.284019,568.31,471.78ZM553.66,467.83C552.623064,470.873873,551.925501,474.022966,551.58,477.22C547.303964,476.557473,542.972868,476.319648,538.65,476.51C538.51,473.3,538.48,470.08,538.55,466.87C543.605765,466.680406,548.667795,466.998667,553.66,467.82ZM536.06,467C535.99,470.22,536.06,473.43,536.16,476.65C531.356463,477.024827,526.608276,477.923495,522,479.33C521.51,479.48,521,479.65,520.55,479.81C520.27,477.89,520,475.97,519.72,474.05C519.58,473.1,519.45,472.15,519.31,471.2L519.17,470.2C524.653032,468.466729,530.322944,467.392501,536.06,467ZM498.62,481C503.40647,477.323517,508.658809,474.297201,514.24,472C515.07,471.66,515.9,471.35,516.74,471C516.84,471.5,516.94,472,517.01,472.45Q517.6,476.45,518.17,480.52C518.174684,480.549817,518.174684,480.580183,518.17,480.61C513.230704,482.500193,508.55819,485.024695,504.27,488.12C502.538502,485.630039,500.65141,483.251969,498.62,481ZM496.62,482.55C498.643083,484.823899,500.526534,487.218286,502.26,489.72C498.159692,492.925744,494.465744,496.619692,491.26,500.72C491.196649,500.640237,491.122621,500.569574,491.04,500.51L484.38,495.34C487.938801,490.581937,492.062327,486.273725,496.66,482.51ZM483,497.34L489.63,502.48C489.712184,502.537396,489.799174,502.587583,489.89,502.63C487.136954,506.44456,484.790833,510.536866,482.89,514.84Q479.41,512.22,476.12,509.37C478.040832,505.15815,480.343806,501.131294,483,497.34ZM481.53,516.94C481.510569,517.207738,481.569648,517.475331,481.7,517.71C480.656372,520.407879,479.787901,523.170284,479.1,525.98C476.586941,524.882016,474.020382,523.910796,471.41,523.07C472.330637,519.211661,473.55787,515.432987,475.08,511.77Q478.17,514.47,481.49,516.94ZM469.71,543.87C469.4,541.48,469.2,539.09,469.13,536.69C469.374287,536.497021,469.514765,536.201279,469.51,535.89C469.711808,532.401672,470.166333,528.932573,470.87,525.51Q474.77,526.8,478.54,528.51C477.582545,533.114175,477.119918,537.807496,477.16,542.51C474.69821,543.137934,472.195399,543.592383,469.67,543.87ZM470.05,546.34C472.615026,546.045754,475.155122,545.564473,477.65,544.9L477.85,544.83C478.677037,548.84849,479.834298,552.791873,481.31,556.62L473.69,560.5C472.028876,555.902988,470.793683,551.163061,470,546.34ZM474.57,562.85L482.23,558.95C483.990409,563.125855,486.011044,567.187164,488.28,571.11L481.37,575.65C481.256316,575.7275,481.155147,575.821924,481.07,575.93C478.509401,571.770915,476.320908,567.39393,474.53,562.85ZM482.27,577.85C482.504856,577.840478,482.732824,577.767943,482.93,577.64L489.53,573.3C491.25,576.19,493.07,579.02,494.95,581.8C496.14432,583.597501,497.429314,585.333077,498.8,587L494.8,592.75C490.016371,588.304999,485.794965,583.29103,482.23,577.82ZM496.71,594.48L500.54,588.98C502.781959,591.429699,505.389474,593.517736,508.27,595.17C510.193804,596.236136,512.20028,597.145738,514.27,597.89Q512.92,601.19,511.58,604.5C506.211488,601.782932,501.202828,598.406874,496.67,594.45ZM522.38,608.85C519.463061,607.949237,516.609964,606.853434,513.84,605.57L516.64,598.69C520.23546,599.782625,523.914451,600.578625,527.64,601.07C528.72,601.22,529.8,601.33,530.89,601.43L529.27,610.43C526.924093,610.061688,524.60801,609.523608,522.34,608.82ZM531.79,610.72L533.43,601.63C538.308137,601.929201,543.203702,601.761774,548.05,601.13L549.58,609.55C549.58,609.68,549.58,609.81,549.64,609.94C543.740554,611.020674,537.719196,611.273107,531.75,610.69Z" fill="rgb(56,142,60)" stroke="none" stroke-width="1"/><path id="ekTdg3sX9Ab10" d="M548.15,536.87C548.224358,536.356088,548.176391,535.831882,548.01,535.34C548.288191,535.00403,548.316519,534.526504,548.08,534.16C546.65,531.59,542.56,531.16,541.01,533.88C539.46,536.6,541.78,540.19,544.85,539.88C546.488549,539.703333,547.823783,538.485437,548.15,536.87ZM544.6,535.67C544.9,535.67,545.31,535.91,545.07,536.18C544.983938,536.306782,544.821926,536.357642,544.678845,536.302795C544.535765,536.247947,544.449263,536.101823,544.47,535.95C544.490589,535.847702,544.535141,535.751744,544.6,535.67Z" fill="rgb(56,142,60)" stroke="none" stroke-width="1"/><path id="ekTdg3sX9Ab11" d="M720,619C721.94,619,723.22,617.47,724.33,616C726.39,613.35,727.62,610.11,728.96,607.07Q731.45,601.47,733.96,595.89C742.33319,597.386594,750.934524,597.000593,759.14,594.76C759.157968,594.800984,759.177994,594.841035,759.2,594.88L764.52,605.56C765.62,607.78,766.64,611.64,768.88,613.04C770.78,614.23,774.06,613.67,776.14,613.5C778.941471,613.272936,781.710584,612.746603,784.4,611.93C788.75,610.59,793.4,608.99,792.76,603.66C792.32,600.06,790.65,596.37,789.59,592.93Q787.85,587.31,786.12,581.7C786.04258,581.434954,785.859013,581.213716,785.612805,581.088718C785.366596,580.96372,785.079661,580.946088,784.82,581.04C791.46,576.4,797.82,571.33,802.29,564.58C806.09,565.79,809.92,566.9,813.79,567.86C816.97,568.66,820.79,570.11,824.06,570.09C826.06,570.09,826.83,569.42,827.95,567.81C830.01,564.81,831.53,561.32,833.28,558.16C835.69,553.8,837.72,550.64,833.08,547.22C826.95,542.67,819.97,538.96,813.5,534.9C813.414654,534.843465,813.319798,534.802812,813.22,534.78C814.7,526.78,814.09,519.12,812.6,511.22C818.84,508.95,825.72,506.38,831.07,502.36C836.18,498.51,833.44,493.16,831.35,488.27C829.63,484.27,828.11,477.85,822.79,478.37C815.09,479.1,807.3,481.42,800,483.9C799.510003,484.07364,799.220829,484.579693,799.32,485.09C794.164986,477.816442,787.964872,471.343388,780.92,465.88C783.25,458.99,786.32,451.88,787.75,444.82C788.69,440.19,781.17,438.06,777.89,436.69C774.05,435.07,767.37,431.76,763.76,435.53C761.56,437.84,760.4,441.91,759.02,444.77C757.27,448.41,755.5,452.06,753.74,455.71C745.970767,455.00612,738.146491,455.19401,730.42,456.27L730.42,456.22C726.42,450.28,722.82,443.43,718.15,438.01C714.7,434.01,708.42,437.5,704.52,439.21C700.17,441.11,693.09,443.54,693.32,449.29C693.45,452.59,695.04,456,696.17,459.06C697.3,462.12,698.43,464.9,699.67,467.79C692.412432,472.068527,686.589465,478.406616,682.94,486C676.24,484.68,669.52,483.3,662.78,482.32C656.78,481.44,655.86,487.78,654.07,492.39C652.88,495.49,651.16,498.88,650.61,502.16C650.184164,503.599231,650.758425,505.146887,652.02,505.96C654.83,507.91,659.23,508.7,662.42,509.89L673.82,514.13C672.010802,522.541021,672.501328,531.284134,675.24,539.44C668.98,542.98,662.47,546.56,656.77,550.91C651.97,554.58,655.33,560.97,657.14,565.54C658.95,570.11,660.99,575.95,666.8,575.41C673.51,574.78,680.56,571.79,686.88,569.24C691.495429,576.75413,698.290355,582.683994,706.36,586.24C704.72,592.97,702.93,599.69,701.6,606.47C700.37,612.74,705.37,613.8,710.42,615.76C713.23,616.85,717,619,720,619ZM797.29,508.78C803.89,530.87,796.65,555.78,778.29,569.95C768.29,577.63,756.29,581.1,743.75,580.83C730.52,580.55,716.08,577.42,706.04,568.28C687.41,551.28,682.7,522.17,692.72,499.46C692.957755,499.403508,693.156651,499.241445,693.26,499.02C703.59,480.09,724.66,467.75,746.35,469.02C769.39,470.32,790.65,486.51,797.29,508.76Z" fill="rgb(0,188,212)" stroke="none" stroke-width="1"/><path id="ekTdg3sX9Ab12" d="M727.51,549.7L731.13,546.7C733.625771,547.937597,736.296971,548.784151,739.05,549.21C738.95,550.72,738.93,552.41,740.65,552.83C741.912511,552.975106,743.187489,552.975106,744.45,552.83L749.11,552.83C749.798398,552.84693,750.372883,552.308072,750.4,551.62C750.330715,550.642296,750.111486,549.681062,749.75,548.77C752.874197,548.027619,755.838504,546.726711,758.5,544.93C759.066563,545.934745,760.15901,546.525677,761.31,546.45C763.68,546.33,764.4,543.73,766.41,543.1C766.786323,543.010491,767.100677,542.753083,767.262654,542.401807C767.424632,542.050532,767.416279,541.644321,767.24,541.3C766.609996,540.250384,765.904819,539.247763,765.13,538.3C765.31,538.03,765.5,537.76,765.67,537.48C767.185977,535.02328,768.246292,532.313208,768.8,529.48C769.871816,529.836582,771.00321,529.97928,772.13,529.9C772.86,529.84,773.67,529.22,773.39,528.37C773.020311,527.387057,773.096975,526.291853,773.6,525.37C773.832012,524.990736,773.8488,524.517759,773.644261,524.122999C773.439723,523.72824,773.043643,523.469184,772.6,523.44C771.417792,523.441723,770.247523,523.203586,769.16,522.74C768.926404,520.00593,768.25097,517.327835,767.16,514.81C768.687645,514.398251,769.632937,512.870906,769.32,511.32C768.94593,510.053374,768.335149,508.869136,767.52,507.83L764.72,503.42C764.538039,503.082122,764.212014,502.845588,763.834351,502.777453C763.456689,502.709318,763.068561,502.81701,762.78,503.07L761.3,504.42C760.948201,504.540039,760.662071,504.800816,760.51,505.14L760.15,505.47C759.336989,504.793261,758.481945,504.168678,757.59,503.6C755.948426,502.543013,754.177075,501.702713,752.32,501.1C752.69,500.59,753.05,500.1,753.41,499.55C753.617092,499.220701,753.660469,498.814209,753.52753,498.448626C753.39459,498.083042,753.10024,497.79936,752.73,497.68L745.73,495.88C745.304088,495.753979,744.843286,495.861515,744.517149,496.163038C744.191011,496.464562,744.04772,496.915527,744.14,497.35C744.289641,498.220281,744.289641,499.109719,744.14,499.98C738.902758,500.157925,733.840116,501.907028,729.61,505L725.92,500.15C725.655477,499.860271,725.271899,499.70906,724.880828,499.740345C724.489756,499.771631,724.135097,499.981901,723.92,500.31L720.19,505C719.876967,505.474304,719.926419,506.100692,720.31,506.52C721.44,507.67,722.5,508.87,723.53,510.11C720.84592,513.429078,719.049666,517.376019,718.31,521.58C717.111268,521.500217,715.908532,521.656504,714.77,522.04C714.118152,522.224676,713.711958,522.872859,713.83,523.54C714.041469,525.606662,714.564035,527.6295,715.38,529.54C715.639749,530.043572,716.207804,530.307017,716.76,530.18C717.27,530,717.76,529.87,718.29,529.73C718.895061,533.365131,720.377944,536.797731,722.61,539.73L721.19,540.82C720.776931,541.205211,720.670673,541.81824,720.93,542.32C722.33855,544.879398,723.946876,547.323652,725.74,549.63C726.213671,550.128851,726.998412,550.159886,727.51,549.7ZM750.29,543.41C746.469982,544.584154,742.409946,544.742695,738.51,543.87L741.89,536.76C743.987272,537.169769,746.149402,537.108286,748.22,536.58C748.768628,538.897139,749.459946,541.178154,750.29,543.41ZM762.29,533.13C762.23,533.26,762.18,533.39,762.11,533.52C760.034546,537.505375,756.677488,540.675734,752.58,542.52C751.768657,540.308619,751.100607,538.04727,750.58,535.75C751.309033,535.420862,752.008295,535.029409,752.67,534.58C754.097476,533.597088,755.244986,532.26005,756,530.7C758.058412,531.630316,760.168553,532.441652,762.32,533.13ZM763.29,530.81C761.099069,530.129652,758.954569,529.307927,756.87,528.35C757.268414,526.470922,757.17193,524.52058,756.59,522.69C756.59,522.5,756.5,522.3,756.45,522.1L763.83,520.55C764.587774,523.955995,764.39755,527.504534,763.28,530.81ZM763.12,518.15L755.62,519.72C754.640579,517.575359,753.051091,515.76675,751.05,514.52C752.22,512.18,753.29,509.79,754.23,507.35C758.371506,509.789563,761.516919,513.615065,763.11,518.15ZM752,506.21C751.069059,508.666671,750.010963,511.073256,748.83,513.42C748.393715,513.264266,747.949811,513.130761,747.5,513.02C746.098022,512.672816,744.645948,512.574657,743.21,512.73L740.33,505.4C744.20633,504.412881,748.297212,504.696824,752,506.21ZM726.32,515.93C726.636394,515.728069,726.900303,515.453878,727.09,515.13C729.598557,510.997254,733.423328,507.827554,737.95,506.13Q739.35,509.7,740.75,513.27C737.671167,514.266883,735.097939,516.417213,733.57,519.27ZM724.54,517.84L732.64,521.54C732.128824,523.243852,731.989013,525.037519,732.23,526.8C732.353013,527.607519,732.553951,528.401224,732.83,529.17C730,530.28,727.19,531.45,724.41,532.7C722.400806,527.942461,722.440595,522.567274,724.52,517.84ZM734.81,542.75C730.924643,541.266536,727.656852,538.509888,725.54,534.93C728.29,533.69,731.08,532.53,733.88,531.42C735.212122,533.520444,737.181518,535.139414,739.5,536.04L736.11,543.2C735.66,543.05,735.22,542.92,734.79,542.75ZM746.81,549.27L747.25,549.27C747.42668,549.615812,747.570639,549.977385,747.68,550.35L747.38,550.35C747.418331,549.906756,747.190678,549.48285,746.8,549.27ZM728,545.84C728.210041,545.615841,728.321669,545.316966,728.31,545.01L728.85,545.35L728,546C728.006693,545.946877,728.006693,545.893123,728,545.84Z" transform="matrix(0.999991 -0.004313 0.004313 0.999991 -2.254999 3.213238)" fill="rgb(0,188,212)" stroke="none" stroke-width="1"/><path id="ekTdg3sX9Ab13" d="M660.94,396.44C662.73,394.75,662.58,392.2,662.36,389.89C661.95,385.62,660.25,381.52,658.84,377.52L653.64,362.76C662.750977,356.807884,670.420346,348.899381,676.09,339.61C676.133684,339.644991,676.185122,339.668996,676.24,339.68L690.56,345C693.56,346.1,697.88,348.8,701.18,348.14C704,347.58,706.56,344.14,708.35,342.2C710.759951,339.528023,712.875456,336.604536,714.66,333.48C717.53,328.43,720.48,322.84,715.18,318.48C711.62,315.48,706.82,313.55,702.81,311.27L689.74,303.87C689.434741,303.696572,689.072315,303.653986,688.735169,303.751927C688.398023,303.849869,688.114825,304.080012,687.95,304.39C690.05,294.25,691.5,283.97,689.77,273.75C694.36,271.54,698.9,269.21,703.35,266.75C707.01,264.7,711.81,262.75,714.86,259.82C716.73,258.04,716.86,256.82,716.48,254.28C715.79,249.72,714.12,245.1,712.97,240.63C711.39,234.45,710.51,229.74,703.19,230.63C693.49,231.78,683.75,234.45,674.19,236.34C674.060461,236.368245,673.93579,236.415418,673.82,236.48C668.22,227.77,660.89,221.14,652.57,215.1C656.4,207.51,660.57,199.1,661.99,190.65C663.37,182.58,656.13,180.01,649.89,177.28C644.74,175.04,637.75,170.44,633.24,175.58C626.72,183.02,621.5,192.01,616.89,200.73C616.573078,201.318298,616.749751,202.050844,617.3,202.43C606.113424,200.184353,594.656739,199.60141,583.3,200.7C579.43,192.24,576.05,182.94,571.18,175.1C568,169.96,559.18,174.59,554.87,176.18C549.87,178.04,540.75,180.82,540.71,187.51C540.71,191.59,543.18,196.39,544.4,200.26L549.07,215C541.224135,221.170331,534.108092,228.215919,527.86,236L527.79,236C518.87,234,509.5,230.77,500.4,229.82C493.66,229.1,490.9,237.88,488.77,242.89C486.38,248.49,481.93,256.95,487.18,262.1C490.18,265.1,494.67,266.83,498.41,268.69C502,270.48,505.64,272.15,509.32,273.75C506.348399,284.069262,506.501512,295.037707,509.76,305.27C502.36,309.92,494.91,314.53,487.76,319.54C481.37,324.01,486.11,330.68,488.49,336.54C490.1,340.46,491.49,345.13,493.84,348.66C495.03,350.44,496.33,351.28,498.49,350.96C502.81,350.31,507.6,347.2,511.61,345.5C516.39,343.5,521.16,341.45,525.94,339.45C531.635764,348.860112,539.760125,356.563057,549.46,361.75C546.75,370.53,543.83,379.58,542.34,388.63C541.09,396.26,549.83,399.25,555.52,401.92C561.05,404.51,568.23,408.23,573.17,402.63C578.86,396.16,582.8,387.2,586.45,379.27C597.320862,382.215899,608.830869,381.783402,619.45,378.03C623.83,385.72,628.06,393.55,632.76,401.03C637.13,407.95,642.71,404.55,649.13,401.94C652.76,400.4,658.08,399.11,660.94,396.44ZM631.7,353.12C630.95,351.61,630.17,349.78,629.93,349.33C629.2,347.96,628.46,346.59,627.73,345.21C632.201402,342.923099,636.429651,340.189144,640.35,337.05C640.38014,337.095698,640.413562,337.139146,640.45,337.18L646.11,343.06C641.622886,346.844955,636.799527,350.212268,631.7,353.12ZM649.52,340.12L648,341.44L642.31,335.53L642.25,335.47C646.445824,331.867204,650.18375,327.76321,653.38,323.25L653.46,323.32L660.25,328.13C657.113067,332.496382,653.515723,336.512801,649.52,340.11ZM661.69,326.12L654.86,321.28L654.78,321.28C657.312037,317.37546,659.398398,313.199384,661,308.83L668.81,312.18C666.976186,317.070435,664.587225,321.734276,661.69,326.08ZM672.11,299.73C671.563477,303.171484,670.73741,306.562707,669.64,309.87L661.8,306.51C662.25,305.14,662.65,303.76,663,302.34C663.545074,300.133587,663.955828,297.896146,664.23,295.64C667.02,295.71,669.8,295.87,672.58,296.14C672.45,297.29,672.31,298.49,672.11,299.69ZM671.91,277.13C672.863547,282.581568,673.162331,288.12754,672.8,293.65C670.03,293.38,667.27,293.22,664.49,293.15C664.916358,287.905611,664.630425,282.627636,663.64,277.46C666.4,277.38,669.15,277.27,671.91,277.09ZM666.21,259.13C668.535103,264.108613,670.28636,269.335544,671.43,274.71C668.66,274.9,665.89,275,663.11,275.03C662.074185,270.659626,660.558308,266.417183,658.59,262.38ZM665.13,256.88L657.45,260.15C655.381473,256.301549,652.918216,252.678718,650.1,249.34L657.38,244.7C660.345814,248.471611,662.94115,252.520335,665.13,256.79ZM659.06,279.38C659.791176,284.009549,659.952377,288.711244,659.54,293.38C657,317.64,639,337,616.28,344.73C610.360812,346.843702,604.173326,348.112843,597.9,348.5C589.530199,348.018537,581.369648,345.696707,574,341.7C562.17,333,550.86,322.33,544.33,309C544.278211,308.895297,544.218013,308.794968,544.15,308.7C537.61,287.42,543.5,262.92,559.9,247.63C577.32,231.38,603.1,226.68,624.9,236.38C642.53,244.24,655.83,260.57,659.06,279.29ZM655.81,242.75L648.44,247.44C645.244506,243.907288,641.665817,240.741139,637.77,238L642.88,230.5C647.660533,234.021962,652.001517,238.104435,655.81,242.66ZM636.16,226.15C637.77,227.08,639.32,228.08,640.84,229.15L635.69,236.71L635.69,236.71C631.701679,234.156568,627.44227,232.053694,622.99,230.44C623.99,227.44,625.16,224.44,626.38,221.54C629.75697,222.779464,633.027718,224.291098,636.16,226.06ZM624,220.58C622.77,223.51,621.62,226.48,620.59,229.5C615.917136,228.010268,611.088995,227.060745,606.2,226.67C606.445587,223.465019,606.964134,220.28683,607.75,217.17C613.281788,217.664552,618.736048,218.809107,624,220.58ZM605.23,217C604.463619,220.13653,603.955255,223.330527,603.71,226.55C600.284803,226.413164,596.854148,226.546913,593.45,226.95C592.790851,223.804384,592.498899,220.592912,592.58,217.38C596.778171,216.893598,601.010202,216.76647,605.23,217ZM590.07,217.71C590.015992,220.92625,590.314439,224.138741,590.96,227.29C586.687513,227.962056,582.493194,229.060887,578.44,230.57Q576.76,226.04,575.39,221.42C580.146091,219.690487,585.064225,218.444202,590.07,217.7ZM573.07,222.31Q574.45,226.93,576.13,231.46C571.681949,233.286408,567.44681,235.593435,563.5,238.34C563.08,238.64,562.68,238.94,562.27,239.25L559.71,234C559.28,233.14,558.86,232.27,558.44,231.41C558.3,231.11,558.15,230.82,558.01,230.52C562.67981,227.18787,567.732596,224.428142,573.06,222.3ZM541.7,247.05C545.138598,242.106656,549.217476,237.641075,553.83,233.77C554.51,233.19,555.21,232.63,555.92,232.09C556.16,232.53,556.41,232.96,556.62,233.38L560.19,240.71C560.193058,240.736579,560.193058,240.763421,560.19,240.79C556.068062,244.100314,552.393943,247.932424,549.26,252.19C546.849861,250.320404,544.324911,248.603705,541.7,247.05ZM540.3,249.13C542.923025,250.672052,545.447873,252.375322,547.86,254.23C544.945668,258.541639,542.568113,263.192648,540.78,268.08C540.691916,268.0235,540.59805,267.976567,540.5,267.94L532.58,265.06C534.499887,259.457438,537.092145,254.108387,540.3,249.13ZM531.79,267.44L539.68,270.3C539.776817,270.335326,539.877547,270.358829,539.98,270.37C538.524443,274.84148,537.542393,279.453428,537.05,284.13C534.31,283.18,531.6,282.13,528.94,281C529.477254,276.402996,530.431177,271.864329,531.79,267.44ZM536.4,286.55C536.46486,286.810542,536.60379,287.046723,536.8,287.23C536.62662,290.117972,536.643323,293.01422,536.85,295.9Q532.75,295.5,528.64,295.48C528.330021,291.526066,528.330021,287.553934,528.64,283.6C531.22,284.67,533.79,285.65,536.4,286.55ZM533.4,315.8C532.4,313.63,531.46,311.41,530.66,309.15C530.835213,308.891495,530.879601,308.565979,530.78,308.27C529.896979,304.8971,529.258653,301.464842,528.87,298C531.62,298,534.35,298.17,537.08,298.45C537.585774,303.130634,538.591513,307.74362,540.08,312.21C537.934287,313.563455,535.695344,314.763127,533.38,315.8ZM534.49,318.05C536.842238,316.98469,539.114772,315.751506,541.29,314.36L541.46,314.23C543.469056,317.803043,545.773774,321.201583,548.35,324.39L542.29,330.39C539.312425,326.523782,536.694847,322.39323,534.47,318.05ZM543.85,332.39L549.95,326.33C552.900707,329.767612,556.063549,333.01729,559.42,336.06L554.24,342.49C554.150859,342.596061,554.082959,342.718283,554.04,342.85C550.331599,339.674729,546.914651,336.174114,543.83,332.39ZM555.76,344.29C555.977706,344.201757,556.17012,344.060883,556.32,343.88L561.32,337.72C563.84,339.95,566.44,342.09,569.08,344.17C570.782262,345.525645,572.554715,346.790729,574.39,347.96L572.34,354.67C566.400913,351.905716,560.825482,348.419393,555.74,344.29ZM574.59,355.7C575.25,353.56,575.9,351.42,576.59,349.28C579.469878,350.935119,582.590938,352.129557,585.84,352.82C587.997183,353.239668,590.183815,353.490428,592.38,353.57Q592.11,357.13,591.85,360.68C585.905759,359.743065,580.101177,358.070217,574.57,355.7ZM603.43,361.51C600.378767,361.5546,597.328115,361.387532,594.3,361.01Q594.57,357.31,594.86,353.6C598.627361,353.537239,602.383252,353.165998,606.09,352.49C607.17,352.3,608.23,352.08,609.3,351.84L610.5,360.84C608.156092,361.235358,605.786476,361.459285,603.41,361.51ZM612.96,360.42L611.74,351.26C616.472505,350.051978,621.079794,348.397907,625.5,346.32L629.5,353.86L629.67,354.21C624.409192,357.047792,618.778275,359.137929,612.94,360.42Z" fill="rgb(0,188,212)" stroke="none" stroke-width="1"/><path id="ekTdg3sX9Ab14" d="M606,285.12C605.913767,284.609326,605.708192,284.126223,605.4,283.71C605.558411,283.305186,605.437152,282.844402,605.1,282.57C602.96,280.57,598.93,281.37,598.29,284.46C597.65,287.55,600.95,290.23,603.77,288.98C605.273669,288.315205,606.175198,286.754711,606,285.12ZM602.25,285.07C602.54,284.99,603,285.07,602.86,285.41C602.816141,285.552719,602.684306,285.650125,602.535,285.650125C602.385694,285.650125,602.253859,285.552719,602.21,285.41C602.18121,285.298495,602.18121,285.181505,602.21,285.07Z" fill="rgb(0,188,212)" stroke="none" stroke-width="1"/><polygon id="ekTdg3sX9Ab15" style="mix-blend-mode:multiply" points="380.66,64.57 380.66,154.41 348.02,175 380.66,173.6 380.66,190.79 514.99,190.79 514.99,64.57 380.66,64.57" opacity="0.2" fill="rgb(0,0,0)" stroke="none" stroke-width="1"/><rect id="ekTdg3sX9Ab16" width="16.68" height="159.3" rx="0" ry="0" transform="matrix(1 0 0 1 351.35 454.4)" fill="rgb(26,76,237)" stroke="none" stroke-width="1"/><polygon id="ekTdg3sX9Ab17" style="mix-blend-mode:multiply" points="368.03,524 368.03,454.4 351.35,454.4 351.35,504.49 368.03,524" opacity="0.2" fill="rgb(0,0,0)" stroke="none" stroke-width="1"/><path id="ekTdg3sX9Ab18" d="M411.1,459.43L308.28,459.43C304.89,459.43,301.96,456.32,301.28,451.98L299,438.26C298.06,432.42,301.46,426.93,306,426.93L413.32,426.93C417.88,426.93,421.32,432.42,420.32,438.26L418.12,452C417.42,456.32,414.49,459.43,411.1,459.43Z" fill="rgb(56,142,60)" stroke="none" stroke-width="1"/><path id="ekTdg3sX9Ab19" d="M359.69,605.62C337.75,605.62,317.88,613.49,303.35,626.24C302.230371,627.188952,301.821719,628.73566,302.326515,630.113797C302.83131,631.491934,304.142322,632.408749,305.61,632.41L413.77,632.41C415.237678,632.408749,416.54869,631.491934,417.053485,630.113797C417.558281,628.73566,417.149629,627.188952,416.03,626.24C401.5,613.49,381.63,605.62,359.69,605.62Z" fill="rgb(26,76,237)" stroke="none" stroke-width="1"/><path id="ekTdg3sX9Ab20" d="M416,626.24C402.53002,614.607932,385.731908,607.524728,368,606L368,454.4L351.35,454.4L351.35,606C333.618752,607.519889,316.820169,614.599791,303.35,626.23C302.230371,627.178952,301.821719,628.72566,302.326515,630.103797C302.83131,631.481934,304.142322,632.398749,305.61,632.4L413.77,632.4C415.227235,632.381512,416.520513,631.461986,417.016588,630.091663C417.512663,628.721339,417.107705,627.18703,416,626.24Z" fill="rgb(56,142,60)" stroke="none" stroke-width="1"/><polygon id="ekTdg3sX9Ab21" points="70.96,204.28 89.03,236.83 108.48,205.1 96.69,204.84 99.78,166.56 81.34,166.16 82.75,204.54 70.96,204.28" transform="matrix(1 0 0 1 64.385001 -13.149922)" fill="rgb(255,255,255)" stroke="rgb(0,0,0)" stroke-width="3"/><polygon id="ekTdg3sX9Ab22" points="376.25,57.86 376.25,147.71 343.61,168.3 376.25,166.9 376.25,184.09 510.58,184.09 510.58,57.86 376.25,57.86" fill="rgb(56,142,60)" stroke="none" stroke-width="1"/><path id="ekTdg3sX9Ab23" d="M221.73,591.31L219.73,616.25C219.73,616.25,189.19,628.47,189.19,632.54C189.19,636.61,243.14,637.88,245.19,632.54C247.24,627.2,249.77,591.31,249.77,591.31Z" fill="rgb(56,142,60)" stroke="none" stroke-width="1"/><path id="ekTdg3sX9Ab24" d="M159.24,591.31L151.57,616.25C151.57,616.25,121,628.47,121,632.54C121,636.61,174.95,637.88,177,632.54C179.05,627.2,187.21,591.31,187.21,591.31Z" fill="rgb(56,142,60)" stroke="none" stroke-width="1"/><path id="ekTdg3sX9Ab25" d="M332,364.82C332,364.82,212.14,371.19,196.36,406.3C180.36,441.86,155.13,596.53,155.13,596.53L188.85,596.53L233.85,431.24C233.85,431.24,352.94,427.64,379.28,415.59C405.62,403.54,416,364.82,416,364.82Z" fill="rgb(0,188,212)" stroke="none" stroke-width="1"/><path id="ekTdg3sX9Ab26" style="mix-blend-mode:multiply" d="M203.61,542.41L233.91,431.24C233.91,431.24,353,427.64,379.34,415.59C405.68,403.54,416,364.82,416,364.82L332,364.82C332,364.82,212.14,371.19,196.36,406.3C194.116829,411.596772,192.203181,417.027125,190.63,422.56Z" opacity="0.2" fill="rgb(0,0,0)" stroke="none" stroke-width="1"/><path id="ekTdg3sX9Ab27" d="M416,364.82C420.096204,378.646327,420.096204,393.363673,416,407.19C409.13,430.1,383.93,435.44,362.18,435.44L289.6,435.44C283.971556,435.439242,279.171132,439.515793,278.26,445.07L253.37,596.53L214.44,596.53C214.44,596.53,218.64,458.42,227.44,428.19C240.67,382.64,274.77,380.55,357.61,373.29Z" fill="rgb(0,188,212)" stroke="none" stroke-width="1"/><path id="ekTdg3sX9Ab28" d="M276.12,211.76C260.47,225.12,252.45,318.64,252.45,318.64L186,333.91L186,353.76L256.92,349.86C268.243971,349.237046,277.694253,340.994323,279.85,329.86L292.85,262.54Z" fill="rgb(56,142,60)" stroke="none" stroke-width="1"/><path id="ekTdg3sX9Ab29" d="M271.32,344.59C271.32,344.59,254.81,347.59,247.84,349.36C241.79,350.94,213.96,365.78,213.96,368.93C213.96,372.08,233.05,371.03,233.05,371.03C233.05,371.03,252.42,366.35,255.28,360.43L274.85,359.19Z" fill="rgb(255,255,255)" stroke="none" stroke-width="1"/><path id="ekTdg3sX9Ab30" style="mix-blend-mode:multiply" d="M281.32,322.42L292.92,262.53L276.12,211.76C269.28,217.6,263.9,238.76,260.01,260.71Z" opacity="0.2" fill="rgb(0,0,0)" stroke="none" stroke-width="1"/><path id="ekTdg3sX9Ab31" d="M311.4,193.43C333.78,190.23,364.46,191.9,379.34,210.99C394.22,230.08,413.7,312.53,416,333.52C418.3,354.51,428.21,367.52,408.36,367.52L330.1,367.52C311.78,367.52,311.01,365.23,311.4,344.99C311.79,324.75,308.72,304.15,288.49,270.56C268.26,236.97,267.88,221.7,274.75,211.77C281.62,201.84,300.59,195,311.4,193.43Z" fill="rgb(56,142,60)" stroke="none" stroke-width="1"/><path id="ekTdg3sX9Ab32" style="mix-blend-mode:multiply" d="M311.4,345C311.01,365.24,311.78,367.53,330.1,367.53L408.35,367.53C428.2,367.53,418.28,354.53,415.99,333.53C413.7,312.53,394.23,230.07,379.34,211C378.49619,209.925404,377.594874,208.897235,376.64,207.92L310.05,323.83C311.140105,330.83123,311.591962,337.917013,311.4,345Z" opacity="0.2" fill="rgb(0,0,0)" stroke="none" stroke-width="1"/><path id="ekTdg3sX9Ab33" d="M366.82,202.29C389.37,204.19,387.73,261.76,387.73,281.61C387.73,301.46,388.11,340.01,368.65,346.12C349.19,352.23,270.54,363.3,270.54,363.3L267.67,343.83L347.27,317.49C347.27,317.49,348.8,268.25,349.18,251.49C349.56,234.73,345.14,200.46,366.82,202.29Z" fill="rgb(56,142,60)" stroke="none" stroke-width="1"/><path id="ekTdg3sX9Ab34" d="M275.54,154.73C278.54,161.48,277.02,168.73,272.18,170.84C267.34,172.95,261,169.25,258,162.49C255,155.73,256.51,148.49,261.35,146.37C266.19,144.25,272.55,148,275.54,154.73Z" fill="rgb(0,188,212)" stroke="none" stroke-width="1"/><path id="ekTdg3sX9Ab35" d="M263.88,153C267.88,168.2,270.88,176.62,273.16,182.32C275.44,188.02,283.05,189.54,293.16,186.78C293.16,186.78,297.08,198.37,299.75,204.44C302.42,210.51,330.86,206.64,327.43,195.98C324,185.32,319.54,172.98,319.54,172.98C319.54,172.98,331.44,119.66,293.84,116.17C256.24,112.68,253.39,146.79,263.88,153Z" fill="rgb(255,255,255)" stroke="none" stroke-width="1"/><path id="ekTdg3sX9Ab36" d="M280.65,128.52C280.65,128.52,289.5,141.31,304.17,141.52C304.17,141.52,307.17,163.73,319.54,172.93C319.54,172.93,338.64,163.73,331.88,152.51C331.88,152.51,348.42,142.86,328.62,123.79C328.62,123.79,340.87,119.25,340.41,114.09C339.95,108.93,317.25,112.38,317.25,112.38C317.25,112.38,291.25,77.74,274.36,80.92C264.81,82.72,263.18,97.76,263.18,97.76C263.18,97.76,243.18,89.9,235.24,100.9C227.3,111.9,245.48,132.32,245.48,132.32C245.48,132.32,237.64,134.77,237.8,140.84C238.11,152.9,263.88,152.96,263.88,152.96L263.18,145.33C263.18,145.33,270.63,147.13,269.94,144.66C269.25,142.19,265.51,138.82,265.51,138.82C265.51,138.82,277.62,135.7,280.65,128.52Z" fill="rgb(37,41,51)" stroke="none" stroke-width="1"/><ellipse id="ekTdg3sX9Ab37" rx="13.38" ry="9.59" transform="matrix(0.197999 -0.980202 0.980202 0.197999 313.995802 151.648705)" fill="rgb(0,188,212)" stroke="none" stroke-width="1"/><path id="ekTdg3sX9Ab38" d="M316.93,150.87C316.663053,150.867173,316.397565,150.830207,316.14,150.76C315.3486,150.55957,314.673062,150.045268,314.269241,149.335751C313.86542,148.626234,313.768196,147.782786,314,147C318.34,130.77,315,108.2,314.95,108C314.695949,106.343146,315.833146,104.794051,317.49,104.54C319.146854,104.285949,320.695949,105.423146,320.95,107.08C321.1,108.08,324.54,131.08,319.87,148.6C319.516863,149.93496,318.310873,150.866116,316.93,150.87Z" fill="rgb(0,188,212)" stroke="none" stroke-width="1"/><polyline id="ekTdg3sX9Ab39" points="349.05,233.99 347.27,317.49 267.68,343.83" fill="none" stroke="rgb(16,48,148)" stroke-width="0.5" stroke-miterlimit="10"/><path id="ekTdg3sX9Ab40" d="M218,376.13L59.33,376.13L32.35,258C31.987516,256.417422,32.366115,254.755918,33.378445,253.486612C34.390774,252.217307,35.926441,251.478617,37.55,251.48L183.18,251.48C186.912694,251.479749,190.149476,254.060875,190.98,257.7Z" fill="rgb(37,41,51)" stroke="none" stroke-width="1"/><rect id="ekTdg3sX9Ab41" width="178.39" height="6.74" rx="0" ry="0" transform="matrix(1 0 0 1 123.14 369.38)" fill="rgb(37,41,51)" stroke="none" stroke-width="1"/><polygon id="ekTdg3sX9Ab42" points="63.47,390.78 21.29,661.55 10.6,661.55 40.06,390.78 63.47,390.78" transform="matrix(1 0 0 1 1.555 -1.65207)" fill="rgb(255,255,255)" stroke="rgb(0,0,0)" stroke-width="1"/><polygon id="ekTdg3sX9Ab43" points="114.88,634.32 100.68,390.78 77.27,390.78 102.91,634.32 114.88,634.32" fill="rgb(255,255,255)" stroke="rgb(0,0,0)" stroke-width="1"/><polygon id="ekTdg3sX9Ab44" points="239.09,390.78 196.9,661.55 186.21,661.55 215.67,390.78 239.09,390.78" fill="rgb(255,255,255)" stroke="rgb(0,0,0)" stroke-width="1"/><polygon id="ekTdg3sX9Ab45" points="290.49,634.32 276.3,390.78 252.88,390.78 278.52,634.32 290.49,634.32" fill="rgb(255,255,255)" stroke="rgb(0,0,0)" stroke-width="1"/><g id="ekTdg3sX9Ab46" style="mix-blend-mode:multiply" opacity="0.2"><polygon id="ekTdg3sX9Ab47" points="60.72,408.47 63.47,390.78 40.06,390.78 38.59,404.26 60.72,408.47" fill="rgb(0,0,0)" stroke="none" stroke-width="1"/><polygon id="ekTdg3sX9Ab48" points="100.68,390.78 77.27,390.78 79.51,412.05 102.17,416.37 100.68,390.78" fill="rgb(0,0,0)" stroke="none" stroke-width="1"/></g><g id="ekTdg3sX9Ab49" style="mix-blend-mode:multiply" opacity="0.2"><polygon id="ekTdg3sX9Ab50" points="236.35,408.47 239.11,390.78 215.69,390.78 214.23,404.26 236.35,408.47" fill="rgb(0,0,0)" stroke="none" stroke-width="1"/><polygon id="ekTdg3sX9Ab51" points="276.32,390.78 252.91,390.78 255.15,412.05 277.81,416.37 276.32,390.78" fill="rgb(0,0,0)" stroke="none" stroke-width="1"/></g><rect id="ekTdg3sX9Ab52" width="301.09" height="14.66" rx="0" ry="0" transform="matrix(1 0 0 1 0 376.13)" fill="rgb(255,255,255)" stroke="rgb(0,0,0)" stroke-width="1"/><line id="ekTdg3sX9Ab53" x1="0" y1="385.72" x2="301.54" y2="385.72" fill="none" stroke="rgb(255,207,48)" stroke-width="0.5" stroke-miterlimit="10"/><line id="ekTdg3sX9Ab54" x1="182.56" y1="259.13" x2="209.98" y2="376.13" opacity="0.15" fill="none" stroke="rgb(255,255,255)" stroke-width="0.5" stroke-miterlimit="10"/><path id="ekTdg3sX9Ab55" d="M138.84,313.26C138.84,323.383379,130.633379,331.59,120.51,331.59C110.386621,331.59,102.18,323.383379,102.18,313.26C102.18,303.136621,110.386621,294.93,120.51,294.93C130.633379,294.93,138.84,303.136621,138.84,313.26Z" transform="matrix(1 0 0 1 0 -0.745)" fill="rgb(56,142,60)" stroke="none" stroke-width="1"/><rect id="ekTdg3sX9Ab56" width="14.83" height="7.56" rx="0.66" ry="0.66" transform="matrix(1 0 0 1 441.34 160.52)" fill="rgb(148,39,84)" stroke="none" stroke-width="1"/><path id="ekTdg3sX9Ab57" d="M472.08,106.5C472.08,93.615197,461.634803,83.17,448.75,83.17C435.865197,83.17,425.42,93.615197,425.42,106.5C425.559926,111.66874,426.858527,116.740119,429.22,121.34C432.011907,126.786991,433.610761,132.766498,433.91,138.88L434.23,143.67L463.23,143.67L463.54,138.88C463.848515,132.763542,465.450407,126.782009,468.24,121.33C470.616798,116.737517,471.929243,111.668882,472.08,106.5Z" fill="rgb(0,188,212)" stroke="none" stroke-width="1"/><path id="ekTdg3sX9Ab58" d="M433.31,143.67L464.19,143.67L464.19,162.57C464.190351,163.233991,463.66364,163.778407,463,163.8L434.54,163.8C434.213784,163.8,433.900928,163.670411,433.670259,163.439741C433.439589,163.209072,433.31,162.896216,433.31,162.57L433.31,143.67Z" fill="rgb(255,26,121)" stroke="none" stroke-width="1"/><path id="ekTdg3sX9Ab59" d="M454.36,125.22L454.36,112.22L454.36,112.22C454.36,107.49,453.54,105.58,452.58,105.58C452.08,105.58,451.63,106.08,451.3,107.2C450.98,106.08,450.53,105.58,450.03,105.58C449.53,105.58,449.09,106.08,448.76,107.2C448.44,106.08,447.99,105.58,447.49,105.58C446.99,105.58,446.55,106.08,446.22,107.2C445.9,106.08,445.45,105.58,444.95,105.58C443.95,105.58,443.2,107.49,443.16,112.22L443.16,112.22L443.16,125.22" fill="none" stroke="rgb(255,255,255)" stroke-width="0.52" stroke-linecap="round" stroke-linejoin="round"/><line id="ekTdg3sX9Ab60" x1="433.31" y1="148.22" x2="464.19" y2="148.22" fill="none" stroke="rgb(148,39,84)" stroke-width="0.52" stroke-miterlimit="10"/><line id="ekTdg3sX9Ab61" x1="433.31" y1="151.9" x2="464.19" y2="151.9" fill="none" stroke="rgb(148,39,84)" stroke-width="0.52" stroke-miterlimit="10"/><line id="ekTdg3sX9Ab62" x1="433.31" y1="155.57" x2="464.19" y2="155.57" fill="none" stroke="rgb(148,39,84)" stroke-width="0.52" stroke-miterlimit="10"/><line id="ekTdg3sX9Ab63" x1="433.31" y1="159.25" x2="464.19" y2="159.25" fill="none" stroke="rgb(148,39,84)" stroke-width="0.52" stroke-miterlimit="10"/><line id="ekTdg3sX9Ab64" x1="449.39" y1="63.69" x2="449.39" y2="73.88" fill="none" stroke="rgb(255,255,255)" stroke-width="0.75" stroke-linecap="round" stroke-linejoin="round"/><line id="ekTdg3sX9Ab65" x1="426.91" y1="69.72" x2="432" y2="78.54" fill="none" stroke="rgb(255,255,255)" stroke-width="0.75" stroke-linecap="round" stroke-linejoin="round"/><line id="ekTdg3sX9Ab66" x1="410.45" y1="86.18" x2="419.27" y2="91.27" fill="none" stroke="rgb(255,255,255)" stroke-width="0.75" stroke-linecap="round" stroke-linejoin="round"/><line id="ekTdg3sX9Ab67" x1="478.41" y1="125.41" x2="487.23" y2="130.5" fill="none" stroke="rgb(255,255,255)" stroke-width="0.75" stroke-linecap="round" stroke-linejoin="round"/><line id="ekTdg3sX9Ab68" x1="404.43" y1="108.66" x2="414.61" y2="108.66" fill="none" stroke="rgb(255,255,255)" stroke-width="0.75" stroke-linecap="round" stroke-linejoin="round"/><line id="ekTdg3sX9Ab69" x1="482.9" y1="108.66" x2="493.08" y2="108.66" fill="none" stroke="rgb(255,255,255)" stroke-width="0.75" stroke-linecap="round" stroke-linejoin="round"/><line id="ekTdg3sX9Ab70" x1="410.45" y1="131.14" x2="419.27" y2="126.05" fill="none" stroke="rgb(255,255,255)" stroke-width="0.75" stroke-linecap="round" stroke-linejoin="round"/><line id="ekTdg3sX9Ab71" x1="478.41" y1="91.91" x2="487.23" y2="86.82" fill="none" stroke="rgb(255,255,255)" stroke-width="0.75" stroke-linecap="round" stroke-linejoin="round"/><line id="ekTdg3sX9Ab72" x1="466.15" y1="79.65" x2="471.24" y2="70.83" fill="none" stroke="rgb(255,255,255)" stroke-width="0.75" stroke-linecap="round" stroke-linejoin="round"/></g></g></g><script><![CDATA[!function(t,n){"object"==typeof exports&&"undefined"!=typeof module?module.exports=n():"function"==typeof define&&define.amd?define(n):(t="undefined"!=typeof globalThis?globalThis:t||self).__SVGATOR_PLAYER__=n()}(this,(function(){"use strict";function t(n){return(t="function"==typeof Symbol&&"symbol"==typeof Symbol.iterator?function(t){return typeof t}:function(t){return t&&"function"==typeof Symbol&&t.constructor===Symbol&&t!==Symbol.prototype?"symbol":typeof t})(n)}function n(t,n){if(!(t instanceof n))throw new TypeError("Cannot call a class as a function")}function r(t,n){for(var r=0;r<n.length;r++){var e=n[r];e.enumerable=e.enumerable||!1,e.configurable=!0,"value"in e&&(e.writable=!0),Object.defineProperty(t,e.key,e)}}function e(t,n,e){return n&&r(t.prototype,n),e&&r(t,e),t}function i(t){return(i=Object.setPrototypeOf?Object.getPrototypeOf:function(t){return t.__proto__||Object.getPrototypeOf(t)})(t)}function o(t,n){return(o=Object.setPrototypeOf||function(t,n){return t.__proto__=n,t})(t,n)}function u(t,n){return!n||"object"!=typeof n&&"function"!=typeof n?function(t){if(void 0===t)throw new ReferenceError("this hasn't been initialised - super() hasn't been called");return t}(t):n}function a(t){var n=function(){if("undefined"==typeof Reflect||!Reflect.construct)return!1;if(Reflect.construct.sham)return!1;if("function"==typeof Proxy)return!0;try{return Boolean.prototype.valueOf.call(Reflect.construct(Boolean,[],(function(){}))),!0}catch(t){return!1}}();return function(){var r,e=i(t);if(n){var o=i(this).constructor;r=Reflect.construct(e,arguments,o)}else r=e.apply(this,arguments);return u(this,r)}}function l(t,n,r){return(l="undefined"!=typeof Reflect&&Reflect.get?Reflect.get:function(t,n,r){var e=function(t,n){for(;!Object.prototype.hasOwnProperty.call(t,n)&&null!==(t=i(t)););return t}(t,n);if(e){var o=Object.getOwnPropertyDescriptor(e,n);return o.get?o.get.call(r):o.value}})(t,n,r||t)}var f=s(Math.pow(10,-6));function s(t){var n=arguments.length>1&&void 0!==arguments[1]?arguments[1]:6;if(Number.isInteger(t))return t;var r=Math.pow(10,n);return Math.round((+t+Number.EPSILON)*r)/r}function c(t,n){var r=arguments.length>2&&void 0!==arguments[2]?arguments[2]:f;return Math.abs(t-n)<r}var h=Math.PI/180;function v(t){return t}function y(t,n,r){var e=1-r;return 3*r*e*(t*e+n*r)+r*r*r}function d(){var t=arguments.length>0&&void 0!==arguments[0]?arguments[0]:0,n=arguments.length>1&&void 0!==arguments[1]?arguments[1]:0,r=arguments.length>2&&void 0!==arguments[2]?arguments[2]:1,e=arguments.length>3&&void 0!==arguments[3]?arguments[3]:1;return t<0||t>1||r<0||r>1?null:c(t,n)&&c(r,e)?v:function(i){if(i<=0)return t>0?i*n/t:0===n&&r>0?i*e/r:0;if(i>=1)return r<1?1+(i-1)*(e-1)/(r-1):1===r&&t<1?1+(i-1)*(n-1)/(t-1):1;for(var o,u=0,a=1;u<a;){var l=y(t,r,o=(u+a)/2);if(c(i,l))break;l<i?u=o:a=o}return y(n,e,o)}}function g(){return 1}function p(t){return 1===t?1:0}function m(){var t=arguments.length>0&&void 0!==arguments[0]?arguments[0]:1,n=arguments.length>1&&void 0!==arguments[1]?arguments[1]:0;if(1===t){if(0===n)return p;if(1===n)return g}var r=1/t;return function(t){return t>=1?1:(t+=n*r)-t%r}}function b(t,n,r){return t>=.5?r:n}function w(t,n,r){return 0===t||n===r?n:t*(r-n)+n}function x(t,n,r){var e=w(t,n,r);return e<=0?0:e}function k(t,n,r){return 0===t?n:1===t?r:{x:w(t,n.x,r.x),y:w(t,n.y,r.y)}}function A(t,n,r){var e=function(t,n,r){return Math.round(w(t,n,r))}(t,n,r);return e<=0?0:e>=255?255:e}function S(t,n,r){return 0===t?n:1===t?r:{r:A(t,n.r,r.r),g:A(t,n.g,r.g),b:A(t,n.b,r.b),a:w(t,null==n.a?1:n.a,null==r.a?1:r.a)}}function _(t,n,r){if(0===t)return n;if(1===t)return r;var e=n.length;if(e!==r.length)return b(t,n,r);for(var i=[],o=0;o<e;o++)i.push(S(t,n[o],r[o]));return i}function O(t,n){for(var r=[],e=0;e<t;e++)r.push(n);return r}function M(t,n){if(--n<=0)return t;var r=(t=Object.assign([],t)).length;do{for(var e=0;e<r;e++)t.push(t[e])}while(--n>0);return t}var j,P=function(){function t(r){n(this,t),this.list=r,this.length=r.length}return e(t,[{key:"setAttribute",value:function(t,n){for(var r=this.list,e=0;e<this.length;e++)r[e].setAttribute(t,n)}},{key:"removeAttribute",value:function(t){for(var n=this.list,r=0;r<this.length;r++)n[r].removeAttribute(t)}},{key:"style",value:function(t,n){for(var r=this.list,e=0;e<this.length;e++)r[e].style[t]=n}}]),t}(),I=/-./g,E=function(t,n){return n.toUpperCase()};function F(t){return"function"==typeof t?t:b}function N(t){return t?"function"==typeof t?t:Array.isArray(t)?function(t){var n=arguments.length>1&&void 0!==arguments[1]?arguments[1]:v;if(!Array.isArray(t))return n;switch(t.length){case 1:return m(t[0])||n;case 2:return m(t[0],t[1])||n;case 4:return d(t[0],t[1],t[2],t[3])||n}return n}(t,null):function(t,n){var r=arguments.length>2&&void 0!==arguments[2]?arguments[2]:v;switch(t){case"linear":return v;case"steps":return m(n.steps||1,n.jump||0)||r;case"bezier":case"cubic-bezier":return d(n.x1||0,n.y1||0,n.x2||0,n.y2||0)||r}return r}(t.type,t.value,null):null}function B(t,n,r){var e=arguments.length>3&&void 0!==arguments[3]&&arguments[3],i=n.length-1;if(t<=n[0].t)return e?[0,0,n[0].v]:n[0].v;if(t>=n[i].t)return e?[i,1,n[i].v]:n[i].v;var o,u=n[0],a=null;for(o=1;o<=i;o++){if(!(t>n[o].t)){a=n[o];break}u=n[o]}return null==a?e?[i,1,n[i].v]:n[i].v:u.t===a.t?e?[o,1,a.v]:a.v:(t=(t-u.t)/(a.t-u.t),u.e&&(t=u.e(t)),e?[o,t,r(t,u.v,a.v)]:r(t,u.v,a.v))}function R(t,n){var r=arguments.length>2&&void 0!==arguments[2]?arguments[2]:null;return t&&t.length?"function"!=typeof n?null:("function"!=typeof r&&(r=null),function(e){var i=B(e,t,n);return null!=i&&r&&(i=r(i)),i}):null}function q(t,n){return t.t-n.t}function T(n,r,e,i,o){var u,a="@"===e[0],l="#"===e[0],f=j[e],s=b;switch(a?(u=e.substr(1),e=u.replace(I,E)):l&&(e=e.substr(1)),t(f)){case"function":if(s=f(i,o,B,N,e,a,r,n),l)return s;break;case"string":s=R(i,F(f));break;case"object":if((s=R(i,F(f.i),f.f))&&"function"==typeof f.u)return f.u(r,s,e,a,n)}return s?function(t,n,r){var e=arguments.length>3&&void 0!==arguments[3]&&arguments[3];if(e)return t instanceof P?function(e){return t.style(n,r(e))}:function(e){return t.style[n]=r(e)};if(Array.isArray(n)){var i=n.length;return function(e){var o=r(e);if(null==o)for(var u=0;u<i;u++)t[u].removeAttribute(n);else for(var a=0;a<i;a++)t[a].setAttribute(n,o)}}return function(e){var i=r(e);null==i?t.removeAttribute(n):t.setAttribute(n,i)}}(r,e,s,a):null}function L(n,r,e,i){if(!i||"object"!==t(i))return null;var o=null,u=null;return Array.isArray(i)?u=function(t){if(!t||!t.length)return null;for(var n=0;n<t.length;n++)t[n].e&&(t[n].e=N(t[n].e));return t.sort(q)}(i):(u=i.keys,o=i.data||null),u?T(n,r,e,u,o):null}function C(t,n,r){if(!r)return null;var e=[];for(var i in r)if(r.hasOwnProperty(i)){var o=L(t,n,i,r[i]);o&&e.push(o)}return e.length?e:null}function z(t,n){if(!n.duration||n.duration<0)return null;var r=function(t,n){if(!n)return null;var r=[];if(Array.isArray(n))for(var e=n.length,i=0;i<e;i++){var o=n[i];if(2===o.length){var u=null;if("string"==typeof o[0])u=t.getElementById(o[0]);else if(Array.isArray(o[0])){u=[];for(var a=0;a<o[0].length;a++)if("string"==typeof o[0][a]){var l=t.getElementById(o[0][a]);l&&u.push(l)}u=u.length?1===u.length?u[0]:new P(u):null}if(u){var f=C(t,u,o[1]);f&&(r=r.concat(f))}}}else for(var s in n)if(n.hasOwnProperty(s)){var c=t.getElementById(s);if(c){var h=C(t,c,n[s]);h&&(r=r.concat(h))}}return r.length?r:null}(t,n.elements);return r?function(t,n){var r=arguments.length>2&&void 0!==arguments[2]?arguments[2]:1/0,e=arguments.length>3&&void 0!==arguments[3]?arguments[3]:1,i=arguments.length>4&&void 0!==arguments[4]&&arguments[4],o=arguments.length>5&&void 0!==arguments[5]?arguments[5]:1,u=t.length,a=e>0?n:0;i&&r%2==0&&(a=n-a);var l=null;return function(f,s){var c=f%n,h=1+(f-c)/n;s*=e,i&&h%2==0&&(s=-s);var v=!1;if(h>r)c=a,v=!0,-1===o&&(c=e>0?0:n);else if(s<0&&(c=n-c),c===l)return!1;l=c;for(var y=0;y<u;y++)t[y](c);return v}}(r,n.duration,n.iterations||1/0,n.direction||1,!!n.alternate,n.fill||1):null}Number.isInteger||(Number.isInteger=function(t){return"number"==typeof t&&isFinite(t)&&Math.floor(t)===t}),Number.EPSILON||(Number.EPSILON=2220446049250313e-31);var D=function(){function t(r,e){var i=arguments.length>2&&void 0!==arguments[2]?arguments[2]:{};n(this,t),this._id=0,this._running=!1,this._rollingBack=!1,this._animations=r,this.duration=e.duration,this.alternate=e.alternate,this.fill=e.fill,this.iterations=e.iterations,this.direction=i.direction||1,this.speed=i.speed||1,this.fps=i.fps||100,this.offset=i.offset||0,this.rollbackStartOffset=0}return e(t,[{key:"_rollback",value:function(){var t=this,n=1/0,r=null;this.rollbackStartOffset=this.offset,this._rollingBack||(this._rollingBack=!0,this._running=!0);this._id=window.requestAnimationFrame((function e(i){if(t._rollingBack){null==r&&(r=i);var o=i-r,u=t.rollbackStartOffset-o,a=Math.round(u*t.speed);if(a>t.duration&&n!=1/0){var l=!!t.alternate&&a/t.duration%2>1,f=a%t.duration;a=(f+=l?t.duration:0)||t.duration}var s=t.fps?1e3/t.fps:0,c=Math.max(0,a);if(c<n-s){t.offset=c,n=c;for(var h=t._animations,v=h.length,y=0;y<v;y++)h[y](c,t.direction)}var d=!1;if(t.iterations>0&&-1===t.fill){var g=t.iterations*t.duration,p=g==a;a=p?0:a,t.offset=p?0:t.offset,d=a>g}a>0&&t.offset>=a&&!d?t._id=window.requestAnimationFrame(e):t.stop()}}))}},{key:"_start",value:function(){var t=this,n=arguments.length>0&&void 0!==arguments[0]?arguments[0]:0,r=-1/0,e=null,i={},o=function o(u){t._running=!0,null==e&&(e=u);var a=Math.round((u-e+n)*t.speed),l=t.fps?1e3/t.fps:0;if(a>r+l&&!t._rollingBack){t.offset=a,r=a;for(var f=t._animations,s=f.length,c=0,h=0;h<s;h++)i[h]?c++:(i[h]=f[h](a,t.direction),i[h]&&c++);if(c===s)return void t._stop()}t._id=window.requestAnimationFrame(o)};this._id=window.requestAnimationFrame(o)}},{key:"_stop",value:function(){this._id&&window.cancelAnimationFrame(this._id),this._running=!1,this._rollingBack=!1}},{key:"play",value:function(){!this._rollingBack&&this._running||(this._rollingBack=!1,this.rollbackStartOffset>this.duration&&(this.offset=this.rollbackStartOffset-(this.rollbackStartOffset-this.offset)%this.duration,this.rollbackStartOffset=0),this._start(this.offset))}},{key:"stop",value:function(){this._stop(),this.offset=0,this.rollbackStartOffset=0;var t=this.direction,n=this._animations;window.requestAnimationFrame((function(){for(var r=0;r<n.length;r++)n[r](0,t)}))}},{key:"reachedToEnd",value:function(){return this.iterations>0&&this.offset>=this.iterations*this.duration}},{key:"restart",value:function(){this._stop(),this.offset=0,this._start()}},{key:"pause",value:function(){this._stop()}},{key:"reverse",value:function(){this.direction=-this.direction}}],[{key:"build",value:function(n,r){return(n=function(t,n){if(j=n,!t||!t.root||!Array.isArray(t.animations))return null;for(var r=document.getElementsByTagName("svg"),e=!1,i=0;i<r.length;i++)if(r[i].id===t.root&&!r[i].svgatorAnimation){(e=r[i]).svgatorAnimation=!0;break}if(!e)return null;var o=t.animations.map((function(t){return z(e,t)})).filter((function(t){return!!t}));return o.length?{element:e,animations:o,animationSettings:t.animationSettings,options:t.options||void 0}:null}(n,r))?{el:n.element,options:n.options||{},player:new t(n.animations,n.animationSettings,n.options)}:null}}]),t}();function Q(t){return s(t)+""}function U(t){var n=arguments.length>1&&void 0!==arguments[1]?arguments[1]:" ";return t&&t.length?t.map(Q).join(n):""}function V(t){return t?null==t.a||t.a>=1?"rgb("+t.r+","+t.g+","+t.b+")":"rgba("+t.r+","+t.g+","+t.b+","+t.a+")":"transparent"}!function(){for(var t=0,n=["ms","moz","webkit","o"],r=0;r<n.length&&!window.requestAnimationFrame;++r)window.requestAnimationFrame=window[n[r]+"RequestAnimationFrame"],window.cancelAnimationFrame=window[n[r]+"CancelAnimationFrame"]||window[n[r]+"CancelRequestAnimationFrame"];window.requestAnimationFrame||(window.requestAnimationFrame=function(n){var r=Date.now(),e=Math.max(0,16-(r-t)),i=window.setTimeout((function(){n(r+e)}),e);return t=r+e,i},window.cancelAnimationFrame=window.clearTimeout)}();var G={f:null,i:function(t,n,r){return 0===t?n:1===t?r:{x:x(t,n.x,r.x),y:x(t,n.y,r.y)}},u:function(t,n){return function(r){var e=n(r);t.setAttribute("rx",Q(e.x)),t.setAttribute("ry",Q(e.y))}}},H={f:null,i:function(t,n,r){return 0===t?n:1===t?r:{width:x(t,n.width,r.width),height:x(t,n.height,r.height)}},u:function(t,n){return function(r){var e=n(r);t.setAttribute("width",Q(e.width)),t.setAttribute("height",Q(e.height))}}},Y=Math.sin,Z=Math.cos,J=Math.acos,K=Math.asin,W=Math.tan,X=Math.atan2,$=Math.PI/180,tt=180/Math.PI,nt=Math.sqrt,rt=function(){function t(){var r=arguments.length>0&&void 0!==arguments[0]?arguments[0]:1,e=arguments.length>1&&void 0!==arguments[1]?arguments[1]:0,i=arguments.length>2&&void 0!==arguments[2]?arguments[2]:0,o=arguments.length>3&&void 0!==arguments[3]?arguments[3]:1,u=arguments.length>4&&void 0!==arguments[4]?arguments[4]:0,a=arguments.length>5&&void 0!==arguments[5]?arguments[5]:0;n(this,t),this.m=[r,e,i,o,u,a],this.i=null,this.w=null,this.s=null}return e(t,[{key:"determinant",get:function(){var t=this.m;return t[0]*t[3]-t[1]*t[2]}},{key:"isIdentity",get:function(){if(null===this.i){var t=this.m;this.i=1===t[0]&&0===t[1]&&0===t[2]&&1===t[3]&&0===t[4]&&0===t[5]}return this.i}},{key:"point",value:function(t,n){var r=this.m;return{x:r[0]*t+r[2]*n+r[4],y:r[1]*t+r[3]*n+r[5]}}},{key:"translateSelf",value:function(){var t=arguments.length>0&&void 0!==arguments[0]?arguments[0]:0,n=arguments.length>1&&void 0!==arguments[1]?arguments[1]:0;if(!t&&!n)return this;var r=this.m;return r[4]+=r[0]*t+r[2]*n,r[5]+=r[1]*t+r[3]*n,this.w=this.s=this.i=null,this}},{key:"rotateSelf",value:function(){var t=arguments.length>0&&void 0!==arguments[0]?arguments[0]:0;if(t%=360){var n=Y(t*=$),r=Z(t),e=this.m,i=e[0],o=e[1];e[0]=i*r+e[2]*n,e[1]=o*r+e[3]*n,e[2]=e[2]*r-i*n,e[3]=e[3]*r-o*n,this.w=this.s=this.i=null}return this}},{key:"scaleSelf",value:function(){var t=arguments.length>0&&void 0!==arguments[0]?arguments[0]:1,n=arguments.length>1&&void 0!==arguments[1]?arguments[1]:1;if(1!==t||1!==n){var r=this.m;r[0]*=t,r[1]*=t,r[2]*=n,r[3]*=n,this.w=this.s=this.i=null}return this}},{key:"skewSelf",value:function(t,n){if(n%=360,(t%=360)||n){var r=this.m,e=r[0],i=r[1],o=r[2],u=r[3];t&&(t=W(t*$),r[2]+=e*t,r[3]+=i*t),n&&(n=W(n*$),r[0]+=o*n,r[1]+=u*n),this.w=this.s=this.i=null}return this}},{key:"resetSelf",value:function(){var t=arguments.length>0&&void 0!==arguments[0]?arguments[0]:1,n=arguments.length>1&&void 0!==arguments[1]?arguments[1]:0,r=arguments.length>2&&void 0!==arguments[2]?arguments[2]:0,e=arguments.length>3&&void 0!==arguments[3]?arguments[3]:1,i=arguments.length>4&&void 0!==arguments[4]?arguments[4]:0,o=arguments.length>5&&void 0!==arguments[5]?arguments[5]:0,u=this.m;return u[0]=t,u[1]=n,u[2]=r,u[3]=e,u[4]=i,u[5]=o,this.w=this.s=this.i=null,this}},{key:"recomposeSelf",value:function(){var t=arguments.length>0&&void 0!==arguments[0]?arguments[0]:null,n=arguments.length>1&&void 0!==arguments[1]?arguments[1]:null,r=arguments.length>2&&void 0!==arguments[2]?arguments[2]:null,e=arguments.length>3&&void 0!==arguments[3]?arguments[3]:null,i=arguments.length>4&&void 0!==arguments[4]?arguments[4]:null;return this.isIdentity||this.resetSelf(),t&&(t.x||t.y)&&this.translateSelf(t.x,t.y),n&&this.rotateSelf(n),r&&(r.x&&this.skewSelf(r.x,0),r.y&&this.skewSelf(0,r.y)),!e||1===e.x&&1===e.y||this.scaleSelf(e.x,e.y),i&&(i.x||i.y)&&this.translateSelf(i.x,i.y),this}},{key:"decompose",value:function(){var t=arguments.length>0&&void 0!==arguments[0]?arguments[0]:0,n=arguments.length>1&&void 0!==arguments[1]?arguments[1]:0,r=this.m,e=r[0]*r[0]+r[1]*r[1],i=[[r[0],r[1]],[r[2],r[3]]],o=nt(e);if(0===o)return{origin:{x:s(r[4]),y:s(r[5])},translate:{x:s(t),y:s(n)},scale:{x:0,y:0},skew:{x:0,y:0},rotate:0};i[0][0]/=o,i[0][1]/=o;var u=r[0]*r[3]-r[1]*r[2]<0;u&&(o=-o);var a=i[0][0]*i[1][0]+i[0][1]*i[1][1];i[1][0]-=i[0][0]*a,i[1][1]-=i[0][1]*a;var l=nt(i[1][0]*i[1][0]+i[1][1]*i[1][1]);if(0===l)return{origin:{x:s(r[4]),y:s(r[5])},translate:{x:s(t),y:s(n)},scale:{x:s(o),y:0},skew:{x:0,y:0},rotate:0};i[1][0]/=l,i[1][1]/=l,a/=l;var f=0;return i[1][1]<0?(f=J(i[1][1])*tt,i[0][1]<0&&(f=360-f)):f=K(i[0][1])*tt,u&&(f=-f),a=X(a,nt(i[0][0]*i[0][0]+i[0][1]*i[0][1]))*tt,u&&(a=-a),{origin:{x:s(r[4]),y:s(r[5])},translate:{x:s(t),y:s(n)},scale:{x:s(o),y:s(l)},skew:{x:s(a),y:0},rotate:s(f)}}},{key:"toString",value:function(){return null===this.s&&(this.s="matrix("+this.m.map((function(t){return s(t)})).join(" ")+")"),this.s}}]),t}();Object.freeze({M:2,L:2,Z:0,H:1,V:1,C:6,Q:4,T:2,S:4,A:7});var et={},it=null;function ot(n){var r=function(){if(it)return it;if("object"!==("undefined"==typeof document?"undefined":t(document))||!document.createElementNS)return{};var n=document.createElementNS("http://www.w3.org/2000/svg","svg");return n&&n.style?(n.style.position="absolute",n.style.opacity="0.01",n.style.zIndex="-9999",n.style.left="-9999px",n.style.width="1px",n.style.height="1px",it={svg:n}):{}}().svg;if(!r)return function(t){return null};var e=document.createElementNS(r.namespaceURI,"path");e.setAttributeNS(null,"d",n),e.setAttributeNS(null,"fill","none"),e.setAttributeNS(null,"stroke","none"),r.appendChild(e);var i=e.getTotalLength();return function(t){var n=e.getPointAtLength(i*t);return{x:n.x,y:n.y}}}function ut(t){return et[t]?et[t]:et[t]=ot(t)}function at(t,n,r,e){if(!t||!e)return!1;var i=["M",t.x,t.y];if(n&&r&&(i.push("C"),i.push(n.x),i.push(n.y),i.push(r.x),i.push(r.y)),n?!r:r){var o=n||r;i.push("Q"),i.push(o.x),i.push(o.y)}return n||r||i.push("L"),i.push(e.x),i.push(e.y),i.join(" ")}function lt(t,n,r,e){var i=arguments.length>4&&void 0!==arguments[4]?arguments[4]:1,o=at(t,n,r,e),u=ut(o);try{return u(i)}catch(t){return null}}function ft(t,n,r,e){var i=1-e;return i*i*t+2*i*e*n+e*e*r}function st(t,n,r,e){return 2*(1-e)*(n-t)+2*e*(r-n)}function ct(t,n,r,e){var i=arguments.length>4&&void 0!==arguments[4]&&arguments[4],o=lt(t,n,null,r,e);return o||(o={x:ft(t.x,n.x,r.x,e),y:ft(t.y,n.y,r.y,e)}),i&&(o.a=ht(t,n,r,e)),o}function ht(t,n,r,e){return Math.atan2(st(t.y,n.y,r.y,e),st(t.x,n.x,r.x,e))}function vt(t,n,r,e,i){var o=i*i;return i*o*(e-t+3*(n-r))+3*o*(t+r-2*n)+3*i*(n-t)+t}function yt(t,n,r,e,i){var o=1-i;return 3*(o*o*(n-t)+2*o*i*(r-n)+i*i*(e-r))}function dt(t,n,r,e,i){var o=arguments.length>5&&void 0!==arguments[5]&&arguments[5],u=lt(t,n,r,e,i);return u||(u={x:vt(t.x,n.x,r.x,e.x,i),y:vt(t.y,n.y,r.y,e.y,i)}),o&&(u.a=gt(t,n,r,e,i)),u}function gt(t,n,r,e,i){return Math.atan2(yt(t.y,n.y,r.y,e.y,i),yt(t.x,n.x,r.x,e.x,i))}function pt(t,n,r){return t+(n-t)*r}function mt(t,n,r){var e=arguments.length>3&&void 0!==arguments[3]&&arguments[3],i={x:pt(t.x,n.x,r),y:pt(t.y,n.y,r)};return e&&(i.a=bt(t,n)),i}function bt(t,n){return Math.atan2(n.y-t.y,n.x-t.x)}function wt(t,n,r){var e=arguments.length>3&&void 0!==arguments[3]&&arguments[3];if(kt(n)){if(At(r))return ct(n,r.start,r,t,e)}else if(kt(r)){if(n.end)return ct(n,n.end,r,t,e)}else{if(n.end)return r.start?dt(n,n.end,r.start,r,t,e):ct(n,n.end,r,t,e);if(r.start)return ct(n,r.start,r,t,e)}return mt(n,r,t,e)}function xt(t,n,r){var e=wt(t,n,r,!0);return e.a=function(t){var n=arguments.length>1&&void 0!==arguments[1]&&arguments[1];return n?t+Math.PI:t}(e.a)/h,e}function kt(t){return!t.type||"corner"===t.type}function At(t){return null!=t.start&&!kt(t)}var St=new rt;var _t={f:Q,i:w},Ot={f:Q,i:function(t,n,r){var e=w(t,n,r);return e<=0?0:e>=1?1:e}};function Mt(t,n,r,e,i,o,u,a){return n=function(t,n,r){for(var e,i,o,u=t.length-1,a={},l=0;l<=u;l++)(e=t[l]).e&&(e.e=n(e.e)),e.v&&"g"===(i=e.v).t&&i.r&&(o=r.getElementById(i.r))&&(a[i.r]=o.querySelectorAll("stop"));return a}(t,e,a),function(e){var i,o=r(e,t,jt);return o?"c"===o.t?V(o.v):"g"===o.t?(n[o.r]&&function(t,n){for(var r=0,e=t.length;r<e;r++)t[r].setAttribute("stop-color",V(n[r]))}(n[o.r],o.v),(i=o.r)?"url(#"+i+")":"none"):"none":"none"}}function jt(t,n,r){if(0===t)return n;if(1===t)return r;if(n&&r){var e=n.t;if(e===r.t)switch(n.t){case"c":return{t:e,v:S(t,n.v,r.v)};case"g":if(n.r===r.r)return{t:e,v:_(t,n.v,r.v),r:n.r}}}return b(t,n,r)}var Pt={fill:Mt,"fill-opacity":Ot,stroke:Mt,"stroke-opacity":Ot,"stroke-width":_t,"stroke-dashoffset":{f:Q,i:w},"stroke-dasharray":{f:function(t){var n=arguments.length>1&&void 0!==arguments[1]?arguments[1]:" ";return t&&t.length>0&&(t=t.map((function(t){return s(t,4)}))),U(t,n)},i:function(t,n,r){var e,i,o,u=n.length,a=r.length;if(u!==a)if(0===u)n=O(u=a,0);else if(0===a)a=u,r=O(u,0);else{var l=(o=(e=u)*(i=a)/function(t,n){for(var r;n;)r=n,n=t%n,t=r;return t||1}(e,i))<0?-o:o;n=M(n,Math.floor(l/u)),r=M(r,Math.floor(l/a)),u=a=l}for(var f=[],c=0;c<u;c++)f.push(s(x(t,n[c],r[c])));return f}},opacity:Ot,transform:function(n,r,e,i){if(!(n=function(n,r){if(!n||"object"!==t(n))return null;var e=!1;for(var i in n)n.hasOwnProperty(i)&&(n[i]&&n[i].length?(n[i].forEach((function(t){t.e&&(t.e=r(t.e))})),e=!0):delete n[i]);return e?n:null}(n,i)))return null;var o=function(t,i,o){var u=arguments.length>3&&void 0!==arguments[3]?arguments[3]:null;return n[t]?e(i,n[t],o):r&&r[t]?r[t]:u};return r&&r.a&&n.o?function(t){var r=e(t,n.o,xt);return St.recomposeSelf(r,o("r",t,w,0)+r.a,o("k",t,k),o("s",t,k),o("t",t,k)).toString()}:function(t){return St.recomposeSelf(o("o",t,wt,null),o("r",t,w,0),o("k",t,k),o("s",t,k),o("t",t,k)).toString()}},r:_t,"#size":H,"#radius":G,_:function(t,n){if(Array.isArray(t))for(var r=0;r<t.length;r++)this[t[r]]=n;else this[t]=n}};return function(t){!function(t,n){if("function"!=typeof n&&null!==n)throw new TypeError("Super expression must either be null or a function");t.prototype=Object.create(n&&n.prototype,{constructor:{value:t,writable:!0,configurable:!0}}),n&&o(t,n)}(u,t);var r=a(u);function u(){return n(this,u),r.apply(this,arguments)}return e(u,null,[{key:"build",value:function(t){var n=l(i(u),"build",this).call(this,t,Pt);if(!n)return null;n.el,n.options;var r=n.player;return function(t,n,r){t.play()}(r),r}}]),u}(D)}));
__SVGATOR_PLAYER__.build({"root":"ekTdg3sX9Ab1","animations":[{"duration":6000,"direction":1,"iterations":0,"fill":1,"alternate":false,"speed":1,"elements":{"ekTdg3sX9Ab5":{"transform":{"data":{"o":{"x":755.438446,"y":122.357194,"type":"corner"},"t":{"x":-755.438446,"y":-122.357194}},"keys":{"r":[{"t":0,"v":0},{"t":6000,"v":-360.025621}]}}},"ekTdg3sX9Ab6":{"transform":{"data":{"o":{"x":755.09082,"y":121.203674,"type":"corner"},"t":{"x":-755.09082,"y":-121.203674}},"keys":{"r":[{"t":0,"v":0},{"t":6000,"v":-360.025621}]}}},"ekTdg3sX9Ab7":{"transform":{"data":{"o":{"x":799.058319,"y":359.88504,"type":"corner"},"t":{"x":-799.058319,"y":-359.88504}},"keys":{"r":[{"t":0,"v":0},{"t":6000,"v":-359.723511}]}}},"ekTdg3sX9Ab9":{"transform":{"data":{"o":{"x":541.850845,"y":539.373566,"type":"corner"},"t":{"x":-541.850845,"y":-539.373566}},"keys":{"r":[{"t":0,"v":0},{"t":6000,"v":-359.723511}]}}},"ekTdg3sX9Ab11":{"transform":{"data":{"o":{"x":743.168915,"y":526.397537,"type":"corner"},"t":{"x":-743.168915,"y":-526.397537}},"keys":{"r":[{"t":0,"v":0},{"t":6000,"v":359.752855}]}}},"ekTdg3sX9Ab13":{"transform":{"data":{"o":{"x":601.334076,"y":289.145973,"type":"corner"},"t":{"x":-601.334076,"y":-289.145973}},"keys":{"r":[{"t":0,"v":0},{"t":6000,"v":359.752855}]}}},"ekTdg3sX9Ab21":{"transform":{"data":{"t":{"x":-25.335,"y":-214.644925}},"keys":{"o":[{"t":0,"v":{"x":89.720001,"y":201.495003,"type":"cusp","end":{"x":72.835189,"y":126.050224}}},{"t":2400,"v":{"x":182.560001,"y":90.953392,"type":"cusp","start":{"x":55.875727,"y":18.519159},"end":{"x":85.302814,"y":158.783814}}},{"t":3900,"v":{"x":63.470001,"y":110.575003,"type":"cusp","start":{"x":102.460239,"y":110.486721},"end":{"x":38.495356,"y":145.17883}}},{"t":4900,"v":{"x":154.105001,"y":189.070003,"type":"cusp","start":{"x":79.745768,"y":185.635464},"end":{"x":145.965745,"y":212.305145}}},{"t":6000,"v":{"x":89.72,"y":202.219925,"type":"cusp","start":{"x":131.938624,"y":244.99284}}}]}}},"ekTdg3sX9Ab57":{"opacity":[{"t":0,"v":1},{"t":2000,"v":0},{"t":3800,"v":1},{"t":4600,"v":0},{"t":5600,"v":1},{"t":5800,"v":0},{"t":6000,"v":1}]}}}],"options":{"start":"load","hover":null,"click":null,"scroll":null,"font":"embed","exportedIds":"unique","svgFormat":"animated","title":"Recurso 2ewq"},"animationSettings":{"duration":6000,"direction":1,"iterations":0,"fill":1,"alternate":false,"speed":1}})]]></script></svg>