<svg id="e4Nn2JR3c8T1" xmlns="http://www.w3.org/2000/svg" xmlns:xlink="http://www.w3.org/1999/xlink" viewBox="0 0 572.66 387.77" shape-rendering="geometricPrecision" text-rendering="geometricPrecision"><defs><linearGradient id="e4Nn2JR3c8T217-fill" x1="400.0571" y1="100.8642" x2="274.2923" y2="148.7746" spreadMethod="pad" gradientUnits="userSpaceOnUse"><stop id="e4Nn2JR3c8T217-fill-0" offset="0%" stop-color="rgb(123,218,255)"/><stop id="e4Nn2JR3c8T217-fill-1" offset="100%" stop-color="rgb(89,189,239)"/></linearGradient><linearGradient id="e4Nn2JR3c8T223-fill" x1="425.0987" y1="117.1674" x2="299.3255" y2="165.081" spreadMethod="pad" gradientUnits="userSpaceOnUse"><stop id="e4Nn2JR3c8T223-fill-0" offset="0%" stop-color="rgb(123,218,255)"/><stop id="e4Nn2JR3c8T223-fill-1" offset="100%" stop-color="rgb(89,189,239)"/></linearGradient><linearGradient id="e4Nn2JR3c8T229-fill" x1="454.6511" y1="133.5522" x2="328.8779" y2="181.4658" spreadMethod="pad" gradientUnits="userSpaceOnUse"><stop id="e4Nn2JR3c8T229-fill-0" offset="0%" stop-color="rgb(123,218,255)"/><stop id="e4Nn2JR3c8T229-fill-1" offset="100%" stop-color="rgb(89,189,239)"/></linearGradient></defs><g id="e4Nn2JR3c8T2" style="isolation:isolate"><g id="e4Nn2JR3c8T3"><g id="e4Nn2JR3c8T4"><path id="e4Nn2JR3c8T5" d="M264.94,376.58L568.86,376.05L503.37,266.6L503.07,266.6C503.16576,265.880559,503.21586,265.155775,503.22,264.43L503.22,23.28C503.262613,18.8051,501.52232,14.497268,498.383375,11.307664C495.24443,8.11806,490.965009,6.309029,486.49,6.28L84.94,6.28C80.464991,6.309029,76.18557,8.11806,73.046625,11.307664C69.90768,14.497268,68.167387,18.8051,68.21,23.28L68.21,264.43C68.216585,265.378546,68.300193,266.32499,68.46,267.26L68.33,264.38L0,377L0.69,377C1,383,7.31,387.73,15.07,387.73L555.07,387.73C563.07,387.73,569.48,382.73,569.48,376.54Z" opacity="0.2" fill="rgb(128,128,128)" fill-rule="evenodd" stroke="none" stroke-width="1"/><rect id="e4Nn2JR3c8T6" width="435.77" height="272.04" rx="16.76" ry="16.76" transform="matrix(1 0 0 1 70.5 0)" fill="rgb(102,102,102)" stroke="none" stroke-width="1"/><polygon id="e4Nn2JR3c8T7" points="70.35,258.08 2.17,366.66 572.02,365.68 506.42,257.42 70.35,258.08" fill="rgb(193,193,193)" fill-rule="evenodd" stroke="none" stroke-width="1"/><path id="e4Nn2JR3c8T8" d="M572.66,366.2L572.66,366.2C572.66,372.32,566.19,377.27,558.22,377.27L17.27,377.27C9.27,377.27,2.83,372.32,2.83,366.2L2.83,366.2" fill="rgb(102,102,102)" fill-rule="evenodd" stroke="none" stroke-width="1"/><rect id="e4Nn2JR3c8T9" width="387.41" height="215.73" rx="0" ry="0" transform="matrix(1 0 0 1 94.79 21.87)" fill="rgb(71,178,186)" stroke="none" stroke-width="1"/><g id="e4Nn2JR3c8T10" style="mix-blend-mode:multiply" opacity="0.15"><polygon id="e4Nn2JR3c8T11" points="98.85,289.89 85.52,289.89 91.56,276.36 104.45,276.36 98.85,289.89" fill="rgb(7,7,7)" stroke="none" stroke-width="1"/><polygon id="e4Nn2JR3c8T12" points="109.14,306.98 77.9,306.98 83.94,293.44 114.19,293.44 109.14,306.98" fill="rgb(7,7,7)" stroke="none" stroke-width="1"/><polygon id="e4Nn2JR3c8T13" points="102.89,325.67 70.29,325.67 76.31,312.14 107.92,312.14 102.89,325.67" fill="rgb(7,7,7)" stroke="none" stroke-width="1"/><polygon id="e4Nn2JR3c8T14" points="114.85,289.89 101.52,289.89 107.03,276.36 119.92,276.36 114.85,289.89" fill="rgb(7,7,7)" stroke="none" stroke-width="1"/><polygon id="e4Nn2JR3c8T15" points="130.84,289.89 117.51,289.89 122.5,276.36 135.39,276.36 130.84,289.89" fill="rgb(7,7,7)" stroke="none" stroke-width="1"/><polygon id="e4Nn2JR3c8T16" points="146.84,289.89 133.51,289.89 137.97,276.36 150.86,276.36 146.84,289.89" fill="rgb(7,7,7)" stroke="none" stroke-width="1"/><polygon id="e4Nn2JR3c8T17" points="162.84,289.89 149.5,289.89 153.44,276.36 166.33,276.36 162.84,289.89" fill="rgb(7,7,7)" stroke="none" stroke-width="1"/><polygon id="e4Nn2JR3c8T18" points="178.83,289.89 165.5,289.89 168.91,276.36 181.8,276.36 178.83,289.89" fill="rgb(7,7,7)" stroke="none" stroke-width="1"/><polygon id="e4Nn2JR3c8T19" points="194.83,289.89 181.5,289.89 184.38,276.36 197.28,276.36 194.83,289.89" fill="rgb(7,7,7)" stroke="none" stroke-width="1"/><polygon id="e4Nn2JR3c8T20" points="210.82,289.89 197.49,289.89 199.85,276.36 212.75,276.36 210.82,289.89" fill="rgb(7,7,7)" stroke="none" stroke-width="1"/><polygon id="e4Nn2JR3c8T21" points="226.82,289.89 213.49,289.89 215.32,276.36 228.22,276.36 226.82,289.89" fill="rgb(7,7,7)" stroke="none" stroke-width="1"/><polygon id="e4Nn2JR3c8T22" points="242.82,289.89 229.49,289.89 230.8,276.36 243.69,276.36 242.82,289.89" fill="rgb(7,7,7)" stroke="none" stroke-width="1"/><polygon id="e4Nn2JR3c8T23" points="258.81,289.89 245.48,289.89 246.27,276.36 259.16,276.36 258.81,289.89" fill="rgb(7,7,7)" stroke="none" stroke-width="1"/><polygon id="e4Nn2JR3c8T24" points="274.81,289.89 261.48,289.89 261.74,276.36 274.63,276.36 274.81,289.89" fill="rgb(7,7,7)" stroke="none" stroke-width="1"/><polygon id="e4Nn2JR3c8T25" points="290.81,289.89 277.47,289.89 277.21,276.36 290.1,276.36 290.81,289.89" fill="rgb(7,7,7)" stroke="none" stroke-width="1"/><polygon id="e4Nn2JR3c8T26" points="306.8,289.89 293.47,289.89 292.68,276.36 305.57,276.36 306.8,289.89" fill="rgb(7,7,7)" stroke="none" stroke-width="1"/><polygon id="e4Nn2JR3c8T27" points="322.8,289.89 309.47,289.89 308.15,276.36 321.05,276.36 322.8,289.89" fill="rgb(7,7,7)" stroke="none" stroke-width="1"/><polygon id="e4Nn2JR3c8T28" points="338.79,289.89 325.46,289.89 323.62,276.36 336.52,276.36 338.79,289.89" fill="rgb(7,7,7)" stroke="none" stroke-width="1"/><polygon id="e4Nn2JR3c8T29" points="354.79,289.89 341.46,289.89 339.1,276.36 351.99,276.36 354.79,289.89" fill="rgb(7,7,7)" stroke="none" stroke-width="1"/><polygon id="e4Nn2JR3c8T30" points="370.79,289.89 357.46,289.89 354.57,276.36 367.46,276.36 370.79,289.89" fill="rgb(7,7,7)" stroke="none" stroke-width="1"/><polygon id="e4Nn2JR3c8T31" points="386.78,289.89 373.45,289.89 370.04,276.36 382.93,276.36 386.78,289.89" fill="rgb(7,7,7)" stroke="none" stroke-width="1"/><polygon id="e4Nn2JR3c8T32" points="402.78,289.89 389.45,289.89 385.51,276.36 398.4,276.36 402.78,289.89" fill="rgb(7,7,7)" stroke="none" stroke-width="1"/><polygon id="e4Nn2JR3c8T33" points="418.77,289.89 405.44,289.89 400.98,276.36 413.87,276.36 418.77,289.89" fill="rgb(7,7,7)" stroke="none" stroke-width="1"/><polygon id="e4Nn2JR3c8T34" points="434.77,289.89 421.44,289.89 416.45,276.36 429.34,276.36 434.77,289.89" fill="rgb(7,7,7)" stroke="none" stroke-width="1"/><polygon id="e4Nn2JR3c8T35" points="450.77,289.89 437.44,289.89 431.92,276.36 444.82,276.36 450.77,289.89" fill="rgb(7,7,7)" stroke="none" stroke-width="1"/><polygon id="e4Nn2JR3c8T36" points="466.76,289.89 453.43,289.89 447.39,276.36 460.29,276.36 466.76,289.89" fill="rgb(7,7,7)" stroke="none" stroke-width="1"/><polygon id="e4Nn2JR3c8T37" points="482.76,289.89 469.43,289.89 462.87,276.36 475.76,276.36 482.76,289.89" fill="rgb(7,7,7)" stroke="none" stroke-width="1"/><polygon id="e4Nn2JR3c8T38" points="76.86,343.08 61.81,343.08 67.84,329.54 82.45,329.54 76.86,343.08" fill="rgb(7,7,7)" stroke="none" stroke-width="1"/><polygon id="e4Nn2JR3c8T39" points="94.92,343.08 79.87,343.08 85.38,329.54 99.99,329.54 94.92,343.08" fill="rgb(7,7,7)" stroke="none" stroke-width="1"/><polygon id="e4Nn2JR3c8T40" points="112.97,343.08 97.92,343.08 102.91,329.54 117.52,329.54 112.97,343.08" fill="rgb(7,7,7)" stroke="none" stroke-width="1"/><polygon id="e4Nn2JR3c8T41" points="131.03,343.08 115.98,343.08 120.44,329.54 135.06,329.54 131.03,343.08" fill="rgb(7,7,7)" stroke="none" stroke-width="1"/><polygon id="e4Nn2JR3c8T42" points="149.09,343.08 134.04,343.08 137.98,329.54 152.59,329.54 149.09,343.08" fill="rgb(7,7,7)" stroke="none" stroke-width="1"/><polygon id="e4Nn2JR3c8T43" points="167.15,343.08 152.1,343.08 155.51,329.54 170.12,329.54 167.15,343.08" fill="rgb(7,7,7)" stroke="none" stroke-width="1"/><polygon id="e4Nn2JR3c8T44" points="401.16,343.08 170.91,343.08 173.78,329.54 397.33,329.54 401.16,343.08" fill="rgb(7,7,7)" stroke="none" stroke-width="1"/><polygon id="e4Nn2JR3c8T45" points="419.97,343.08 404.92,343.08 400.98,329.54 415.6,329.54 419.97,343.08" fill="rgb(7,7,7)" stroke="none" stroke-width="1"/><polygon id="e4Nn2JR3c8T46" points="438.03,343.08 422.98,343.08 418.52,329.54 433.13,329.54 438.03,343.08" fill="rgb(7,7,7)" stroke="none" stroke-width="1"/><polygon id="e4Nn2JR3c8T47" points="456.09,343.08 441.04,343.08 436.05,329.54 450.66,329.54 456.09,343.08" fill="rgb(7,7,7)" stroke="none" stroke-width="1"/><polygon id="e4Nn2JR3c8T48" points="474.15,343.08 459.1,343.08 453.59,329.54 468.2,329.54 474.15,343.08" fill="rgb(7,7,7)" stroke="none" stroke-width="1"/><polygon id="e4Nn2JR3c8T49" points="492.21,343.08 477.16,343.08 471.12,329.54 485.73,329.54 492.21,343.08" fill="rgb(7,7,7)" stroke="none" stroke-width="1"/><polygon id="e4Nn2JR3c8T50" points="510.27,343.08 495.22,343.08 488.65,329.54 503.26,329.54 510.27,343.08" fill="rgb(7,7,7)" stroke="none" stroke-width="1"/><polygon id="e4Nn2JR3c8T51" points="125.1,306.98 111.22,306.98 116.21,293.44 129.65,293.44 125.1,306.98" fill="rgb(7,7,7)" stroke="none" stroke-width="1"/><polygon id="e4Nn2JR3c8T52" points="141.76,306.98 127.88,306.98 132.34,293.44 145.78,293.44 141.76,306.98" fill="rgb(7,7,7)" stroke="none" stroke-width="1"/><polygon id="e4Nn2JR3c8T53" points="158.42,306.98 144.54,306.98 148.47,293.44 161.92,293.44 158.42,306.98" fill="rgb(7,7,7)" stroke="none" stroke-width="1"/><polygon id="e4Nn2JR3c8T54" points="175.08,306.98 161.2,306.98 164.61,293.44 178.05,293.44 175.08,306.98" fill="rgb(7,7,7)" stroke="none" stroke-width="1"/><polygon id="e4Nn2JR3c8T55" points="191.74,306.98 177.85,306.98 180.74,293.44 194.19,293.44 191.74,306.98" fill="rgb(7,7,7)" stroke="none" stroke-width="1"/><polygon id="e4Nn2JR3c8T56" points="208.4,306.98 194.51,306.98 196.88,293.44 210.32,293.44 208.4,306.98" fill="rgb(7,7,7)" stroke="none" stroke-width="1"/><polygon id="e4Nn2JR3c8T57" points="225.06,306.98 211.17,306.98 213.01,293.44 226.45,293.44 225.06,306.98" fill="rgb(7,7,7)" stroke="none" stroke-width="1"/><polygon id="e4Nn2JR3c8T58" points="241.71,306.98 227.83,306.98 229.14,293.44 242.59,293.44 241.71,306.98" fill="rgb(7,7,7)" stroke="none" stroke-width="1"/><polygon id="e4Nn2JR3c8T59" points="258.37,306.98 244.49,306.98 245.28,293.44 258.72,293.44 258.37,306.98" fill="rgb(7,7,7)" stroke="none" stroke-width="1"/><polygon id="e4Nn2JR3c8T60" points="275.03,306.98 261.15,306.98 261.41,293.44 274.86,293.44 275.03,306.98" fill="rgb(7,7,7)" stroke="none" stroke-width="1"/><polygon id="e4Nn2JR3c8T61" points="291.69,306.98 277.81,306.98 277.54,293.44 290.99,293.44 291.69,306.98" fill="rgb(7,7,7)" stroke="none" stroke-width="1"/><polygon id="e4Nn2JR3c8T62" points="308.35,306.98 294.47,306.98 293.68,293.44 307.12,293.44 308.35,306.98" fill="rgb(7,7,7)" stroke="none" stroke-width="1"/><polygon id="e4Nn2JR3c8T63" points="325.01,306.98 311.13,306.98 309.81,293.44 323.26,293.44 325.01,306.98" fill="rgb(7,7,7)" stroke="none" stroke-width="1"/><polygon id="e4Nn2JR3c8T64" points="341.67,306.98 327.78,306.98 325.94,293.44 339.39,293.44 341.67,306.98" fill="rgb(7,7,7)" stroke="none" stroke-width="1"/><polygon id="e4Nn2JR3c8T65" points="358.32,306.98 344.44,306.98 342.08,293.44 355.52,293.44 358.32,306.98" fill="rgb(7,7,7)" stroke="none" stroke-width="1"/><polygon id="e4Nn2JR3c8T66" points="374.98,306.98 361.1,306.98 358.21,293.44 371.66,293.44 374.98,306.98" fill="rgb(7,7,7)" stroke="none" stroke-width="1"/><polygon id="e4Nn2JR3c8T67" points="391.64,306.98 377.76,306.98 374.35,293.44 387.79,293.44 391.64,306.98" fill="rgb(7,7,7)" stroke="none" stroke-width="1"/><polygon id="e4Nn2JR3c8T68" points="408.3,306.98 394.42,306.98 390.48,293.44 403.93,293.44 408.3,306.98" fill="rgb(7,7,7)" stroke="none" stroke-width="1"/><polygon id="e4Nn2JR3c8T69" points="424.96,306.98 411.08,306.98 406.61,293.44 420.06,293.44 424.96,306.98" fill="rgb(7,7,7)" stroke="none" stroke-width="1"/><polygon id="e4Nn2JR3c8T70" points="441.62,306.98 427.74,306.98 422.75,293.44 436.19,293.44 441.62,306.98" fill="rgb(7,7,7)" stroke="none" stroke-width="1"/><polygon id="e4Nn2JR3c8T71" points="458.28,306.98 444.4,306.98 438.88,293.44 452.33,293.44 458.28,306.98" fill="rgb(7,7,7)" stroke="none" stroke-width="1"/><polygon id="e4Nn2JR3c8T72" points="474.94,306.98 461.05,306.98 455.01,293.44 468.46,293.44 474.94,306.98" fill="rgb(7,7,7)" stroke="none" stroke-width="1"/><polygon id="e4Nn2JR3c8T73" points="500.76,324.71 486.31,324.71 471.15,293.44 484.59,293.44 500.76,324.71" fill="rgb(7,7,7)" stroke="none" stroke-width="1"/><polygon id="e4Nn2JR3c8T74" points="118.82,325.67 104.33,325.67 109.32,312.14 123.37,312.14 118.82,325.67" fill="rgb(7,7,7)" stroke="none" stroke-width="1"/><polygon id="e4Nn2JR3c8T75" points="136.21,325.67 121.72,325.67 126.18,312.14 140.23,312.14 136.21,325.67" fill="rgb(7,7,7)" stroke="none" stroke-width="1"/><polygon id="e4Nn2JR3c8T76" points="153.59,325.67 139.1,325.67 143.04,312.14 157.09,312.14 153.59,325.67" fill="rgb(7,7,7)" stroke="none" stroke-width="1"/><polygon id="e4Nn2JR3c8T77" points="170.97,325.67 156.49,325.67 159.9,312.14 173.95,312.14 170.97,325.67" fill="rgb(7,7,7)" stroke="none" stroke-width="1"/><polygon id="e4Nn2JR3c8T78" points="188.36,325.67 173.87,325.67 176.76,312.14 190.81,312.14 188.36,325.67" fill="rgb(7,7,7)" stroke="none" stroke-width="1"/><polygon id="e4Nn2JR3c8T79" points="205.74,325.67 191.25,325.67 193.61,312.14 207.66,312.14 205.74,325.67" fill="rgb(7,7,7)" stroke="none" stroke-width="1"/><polygon id="e4Nn2JR3c8T80" points="223.12,325.67 208.64,325.67 210.47,312.14 224.52,312.14 223.12,325.67" fill="rgb(7,7,7)" stroke="none" stroke-width="1"/><polygon id="e4Nn2JR3c8T81" points="240.51,325.67 226.02,325.67 227.33,312.14 241.38,312.14 240.51,325.67" fill="rgb(7,7,7)" stroke="none" stroke-width="1"/><polygon id="e4Nn2JR3c8T82" points="257.89,325.67 243.41,325.67 244.19,312.14 258.24,312.14 257.89,325.67" fill="rgb(7,7,7)" stroke="none" stroke-width="1"/><polygon id="e4Nn2JR3c8T83" points="275.27,325.67 260.79,325.67 261.05,312.14 275.1,312.14 275.27,325.67" fill="rgb(7,7,7)" stroke="none" stroke-width="1"/><polygon id="e4Nn2JR3c8T84" points="292.66,325.67 278.17,325.67 277.91,312.14 291.96,312.14 292.66,325.67" fill="rgb(7,7,7)" stroke="none" stroke-width="1"/><polygon id="e4Nn2JR3c8T85" points="310.04,325.67 295.56,325.67 294.77,312.14 308.82,312.14 310.04,325.67" fill="rgb(7,7,7)" stroke="none" stroke-width="1"/><polygon id="e4Nn2JR3c8T86" points="327.43,325.67 312.94,325.67 311.63,312.14 325.68,312.14 327.43,325.67" fill="rgb(7,7,7)" stroke="none" stroke-width="1"/><polygon id="e4Nn2JR3c8T87" points="344.81,325.67 330.32,325.67 328.49,312.14 342.53,312.14 344.81,325.67" fill="rgb(7,7,7)" stroke="none" stroke-width="1"/><polygon id="e4Nn2JR3c8T88" points="362.19,325.67 347.71,325.67 345.34,312.14 359.39,312.14 362.19,325.67" fill="rgb(7,7,7)" stroke="none" stroke-width="1"/><polygon id="e4Nn2JR3c8T89" points="379.58,325.67 365.09,325.67 362.2,312.14 376.25,312.14 379.58,325.67" fill="rgb(7,7,7)" stroke="none" stroke-width="1"/><polygon id="e4Nn2JR3c8T90" points="396.96,325.67 382.47,325.67 379.06,312.14 393.11,312.14 396.96,325.67" fill="rgb(7,7,7)" stroke="none" stroke-width="1"/><polygon id="e4Nn2JR3c8T91" points="414.35,325.67 399.86,325.67 395.92,312.14 409.97,312.14 414.35,325.67" fill="rgb(7,7,7)" stroke="none" stroke-width="1"/><polygon id="e4Nn2JR3c8T92" points="431.73,325.67 417.24,325.67 412.78,312.14 426.83,312.14 431.73,325.67" fill="rgb(7,7,7)" stroke="none" stroke-width="1"/><polygon id="e4Nn2JR3c8T93" points="449.11,325.67 434.63,325.67 429.64,312.14 443.69,312.14 449.11,325.67" fill="rgb(7,7,7)" stroke="none" stroke-width="1"/><polygon id="e4Nn2JR3c8T94" points="466.5,325.67 452.01,325.67 446.5,312.14 460.55,312.14 466.5,325.67" fill="rgb(7,7,7)" stroke="none" stroke-width="1"/><polygon id="e4Nn2JR3c8T95" points="483.88,325.67 469.39,325.67 463.35,312.14 477.4,312.14 483.88,325.67" fill="rgb(7,7,7)" stroke="none" stroke-width="1"/></g><polygon id="e4Nn2JR3c8T96" points="98.85,288.89 85.52,288.89 91.56,275.36 104.45,275.36 98.85,288.89" fill="rgb(114,113,113)" stroke="none" stroke-width="1"/><polygon id="e4Nn2JR3c8T97" points="109.14,305.98 77.9,305.98 83.94,292.44 114.19,292.44 109.14,305.98" fill="rgb(114,113,113)" stroke="none" stroke-width="1"/><polygon id="e4Nn2JR3c8T98" points="102.89,324.67 70.29,324.67 76.31,311.14 107.92,311.14 102.89,324.67" fill="rgb(114,113,113)" stroke="none" stroke-width="1"/><polygon id="e4Nn2JR3c8T99" points="114.85,288.89 101.52,288.89 107.03,275.36 119.92,275.36 114.85,288.89" fill="rgb(114,113,113)" stroke="none" stroke-width="1"/><polygon id="e4Nn2JR3c8T100" points="130.84,288.89 117.51,288.89 122.5,275.36 135.39,275.36 130.84,288.89" fill="rgb(114,113,113)" stroke="none" stroke-width="1"/><polygon id="e4Nn2JR3c8T101" points="146.84,288.89 133.51,288.89 137.97,275.36 150.86,275.36 146.84,288.89" fill="rgb(114,113,113)" stroke="none" stroke-width="1"/><polygon id="e4Nn2JR3c8T102" points="162.84,288.89 149.5,288.89 153.44,275.36 166.33,275.36 162.84,288.89" fill="rgb(114,113,113)" stroke="none" stroke-width="1"/><polygon id="e4Nn2JR3c8T103" points="178.83,288.89 165.5,288.89 168.91,275.36 181.8,275.36 178.83,288.89" fill="rgb(114,113,113)" stroke="none" stroke-width="1"/><polygon id="e4Nn2JR3c8T104" points="194.83,288.89 181.5,288.89 184.38,275.36 197.28,275.36 194.83,288.89" fill="rgb(114,113,113)" stroke="none" stroke-width="1"/><polygon id="e4Nn2JR3c8T105" points="210.82,288.89 197.49,288.89 199.85,275.36 212.75,275.36 210.82,288.89" fill="rgb(114,113,113)" stroke="none" stroke-width="1"/><polygon id="e4Nn2JR3c8T106" points="226.82,288.89 213.49,288.89 215.32,275.36 228.22,275.36 226.82,288.89" fill="rgb(114,113,113)" stroke="none" stroke-width="1"/><polygon id="e4Nn2JR3c8T107" points="242.82,288.89 229.49,288.89 230.8,275.36 243.69,275.36 242.82,288.89" fill="rgb(114,113,113)" stroke="none" stroke-width="1"/><polygon id="e4Nn2JR3c8T108" points="258.81,288.89 245.48,288.89 246.27,275.36 259.16,275.36 258.81,288.89" fill="rgb(114,113,113)" stroke="none" stroke-width="1"/><polygon id="e4Nn2JR3c8T109" points="274.81,288.89 261.48,288.89 261.74,275.36 274.63,275.36 274.81,288.89" fill="rgb(114,113,113)" stroke="none" stroke-width="1"/><polygon id="e4Nn2JR3c8T110" points="290.81,288.89 277.47,288.89 277.21,275.36 290.1,275.36 290.81,288.89" fill="rgb(114,113,113)" stroke="none" stroke-width="1"/><polygon id="e4Nn2JR3c8T111" points="306.8,288.89 293.47,288.89 292.68,275.36 305.57,275.36 306.8,288.89" fill="rgb(114,113,113)" stroke="none" stroke-width="1"/><polygon id="e4Nn2JR3c8T112" points="322.8,288.89 309.47,288.89 308.15,275.36 321.05,275.36 322.8,288.89" fill="rgb(114,113,113)" stroke="none" stroke-width="1"/><polygon id="e4Nn2JR3c8T113" points="338.79,288.89 325.46,288.89 323.62,275.36 336.52,275.36 338.79,288.89" fill="rgb(114,113,113)" stroke="none" stroke-width="1"/><polygon id="e4Nn2JR3c8T114" points="354.79,288.89 341.46,288.89 339.1,275.36 351.99,275.36 354.79,288.89" fill="rgb(114,113,113)" stroke="none" stroke-width="1"/><polygon id="e4Nn2JR3c8T115" points="370.79,288.89 357.46,288.89 354.57,275.36 367.46,275.36 370.79,288.89" fill="rgb(114,113,113)" stroke="none" stroke-width="1"/><polygon id="e4Nn2JR3c8T116" points="386.78,288.89 373.45,288.89 370.04,275.36 382.93,275.36 386.78,288.89" fill="rgb(114,113,113)" stroke="none" stroke-width="1"/><polygon id="e4Nn2JR3c8T117" points="402.78,288.89 389.45,288.89 385.51,275.36 398.4,275.36 402.78,288.89" fill="rgb(114,113,113)" stroke="none" stroke-width="1"/><polygon id="e4Nn2JR3c8T118" points="418.77,288.89 405.44,288.89 400.98,275.36 413.87,275.36 418.77,288.89" fill="rgb(114,113,113)" stroke="none" stroke-width="1"/><polygon id="e4Nn2JR3c8T119" points="434.77,288.89 421.44,288.89 416.45,275.36 429.34,275.36 434.77,288.89" fill="rgb(114,113,113)" stroke="none" stroke-width="1"/><polygon id="e4Nn2JR3c8T120" points="450.77,288.89 437.44,288.89 431.92,275.36 444.82,275.36 450.77,288.89" fill="rgb(114,113,113)" stroke="none" stroke-width="1"/><polygon id="e4Nn2JR3c8T121" points="466.76,288.89 453.43,288.89 447.39,275.36 460.29,275.36 466.76,288.89" fill="rgb(114,113,113)" stroke="none" stroke-width="1"/><polygon id="e4Nn2JR3c8T122" points="482.76,288.89 469.43,288.89 462.87,275.36 475.76,275.36 482.76,288.89" fill="rgb(114,113,113)" stroke="none" stroke-width="1"/><polygon id="e4Nn2JR3c8T123" points="76.86,342.08 61.81,342.08 67.84,328.54 82.45,328.54 76.86,342.08" fill="rgb(114,113,113)" stroke="none" stroke-width="1"/><polygon id="e4Nn2JR3c8T124" points="94.92,342.08 79.87,342.08 85.38,328.54 99.99,328.54 94.92,342.08" fill="rgb(114,113,113)" stroke="none" stroke-width="1"/><polygon id="e4Nn2JR3c8T125" points="112.97,342.08 97.92,342.08 102.91,328.54 117.52,328.54 112.97,342.08" fill="rgb(114,113,113)" stroke="none" stroke-width="1"/><polygon id="e4Nn2JR3c8T126" points="131.03,342.08 115.98,342.08 120.44,328.54 135.06,328.54 131.03,342.08" fill="rgb(114,113,113)" stroke="none" stroke-width="1"/><polygon id="e4Nn2JR3c8T127" points="149.09,342.08 134.04,342.08 137.98,328.54 152.59,328.54 149.09,342.08" fill="rgb(114,113,113)" stroke="none" stroke-width="1"/><polygon id="e4Nn2JR3c8T128" points="167.15,342.08 152.1,342.08 155.51,328.54 170.12,328.54 167.15,342.08" fill="rgb(114,113,113)" stroke="none" stroke-width="1"/><polygon id="e4Nn2JR3c8T129" points="401.16,342.08 170.91,342.08 173.78,328.54 397.33,328.54 401.16,342.08" fill="rgb(114,113,113)" stroke="none" stroke-width="1"/><polygon id="e4Nn2JR3c8T130" points="419.97,342.08 404.92,342.08 400.98,328.54 415.6,328.54 419.97,342.08" fill="rgb(114,113,113)" stroke="none" stroke-width="1"/><polygon id="e4Nn2JR3c8T131" points="438.03,342.08 422.98,342.08 418.52,328.54 433.13,328.54 438.03,342.08" fill="rgb(114,113,113)" stroke="none" stroke-width="1"/><polygon id="e4Nn2JR3c8T132" points="456.09,342.08 441.04,342.08 436.05,328.54 450.66,328.54 456.09,342.08" fill="rgb(114,113,113)" stroke="none" stroke-width="1"/><polygon id="e4Nn2JR3c8T133" points="474.15,342.08 459.1,342.08 453.59,328.54 468.2,328.54 474.15,342.08" fill="rgb(114,113,113)" stroke="none" stroke-width="1"/><polygon id="e4Nn2JR3c8T134" points="492.21,342.08 477.16,342.08 471.12,328.54 485.73,328.54 492.21,342.08" fill="rgb(114,113,113)" stroke="none" stroke-width="1"/><polygon id="e4Nn2JR3c8T135" points="510.27,342.08 495.22,342.08 488.65,328.54 503.26,328.54 510.27,342.08" fill="rgb(114,113,113)" stroke="none" stroke-width="1"/><polygon id="e4Nn2JR3c8T136" points="125.1,305.98 111.22,305.98 116.21,292.44 129.65,292.44 125.1,305.98" fill="rgb(114,113,113)" stroke="none" stroke-width="1"/><polygon id="e4Nn2JR3c8T137" points="141.76,305.98 127.88,305.98 132.34,292.44 145.78,292.44 141.76,305.98" fill="rgb(114,113,113)" stroke="none" stroke-width="1"/><polygon id="e4Nn2JR3c8T138" points="158.42,305.98 144.54,305.98 148.47,292.44 161.92,292.44 158.42,305.98" fill="rgb(114,113,113)" stroke="none" stroke-width="1"/><polygon id="e4Nn2JR3c8T139" points="175.08,305.98 161.2,305.98 164.61,292.44 178.05,292.44 175.08,305.98" fill="rgb(114,113,113)" stroke="none" stroke-width="1"/><polygon id="e4Nn2JR3c8T140" points="191.74,305.98 177.85,305.98 180.74,292.44 194.19,292.44 191.74,305.98" fill="rgb(114,113,113)" stroke="none" stroke-width="1"/><polygon id="e4Nn2JR3c8T141" points="208.4,305.98 194.51,305.98 196.88,292.44 210.32,292.44 208.4,305.98" fill="rgb(114,113,113)" stroke="none" stroke-width="1"/><polygon id="e4Nn2JR3c8T142" points="225.06,305.98 211.17,305.98 213.01,292.44 226.45,292.44 225.06,305.98" fill="rgb(114,113,113)" stroke="none" stroke-width="1"/><polygon id="e4Nn2JR3c8T143" points="241.71,305.98 227.83,305.98 229.14,292.44 242.59,292.44 241.71,305.98" fill="rgb(114,113,113)" stroke="none" stroke-width="1"/><polygon id="e4Nn2JR3c8T144" points="258.37,305.98 244.49,305.98 245.28,292.44 258.72,292.44 258.37,305.98" fill="rgb(114,113,113)" stroke="none" stroke-width="1"/><polygon id="e4Nn2JR3c8T145" points="275.03,305.98 261.15,305.98 261.41,292.44 274.86,292.44 275.03,305.98" fill="rgb(114,113,113)" stroke="none" stroke-width="1"/><polygon id="e4Nn2JR3c8T146" points="291.69,305.98 277.81,305.98 277.54,292.44 290.99,292.44 291.69,305.98" fill="rgb(114,113,113)" stroke="none" stroke-width="1"/><polygon id="e4Nn2JR3c8T147" points="308.35,305.98 294.47,305.98 293.68,292.44 307.12,292.44 308.35,305.98" fill="rgb(114,113,113)" stroke="none" stroke-width="1"/><polygon id="e4Nn2JR3c8T148" points="325.01,305.98 311.13,305.98 309.81,292.44 323.26,292.44 325.01,305.98" fill="rgb(114,113,113)" stroke="none" stroke-width="1"/><polygon id="e4Nn2JR3c8T149" points="341.67,305.98 327.78,305.98 325.94,292.44 339.39,292.44 341.67,305.98" fill="rgb(114,113,113)" stroke="none" stroke-width="1"/><polygon id="e4Nn2JR3c8T150" points="358.32,305.98 344.44,305.98 342.08,292.44 355.52,292.44 358.32,305.98" fill="rgb(114,113,113)" stroke="none" stroke-width="1"/><polygon id="e4Nn2JR3c8T151" points="374.98,305.98 361.1,305.98 358.21,292.44 371.66,292.44 374.98,305.98" fill="rgb(114,113,113)" stroke="none" stroke-width="1"/><polygon id="e4Nn2JR3c8T152" points="391.64,305.98 377.76,305.98 374.35,292.44 387.79,292.44 391.64,305.98" fill="rgb(114,113,113)" stroke="none" stroke-width="1"/><polygon id="e4Nn2JR3c8T153" points="408.3,305.98 394.42,305.98 390.48,292.44 403.93,292.44 408.3,305.98" fill="rgb(114,113,113)" stroke="none" stroke-width="1"/><polygon id="e4Nn2JR3c8T154" points="424.96,305.98 411.08,305.98 406.61,292.44 420.06,292.44 424.96,305.98" fill="rgb(114,113,113)" stroke="none" stroke-width="1"/><polygon id="e4Nn2JR3c8T155" points="441.62,305.98 427.74,305.98 422.75,292.44 436.19,292.44 441.62,305.98" fill="rgb(114,113,113)" stroke="none" stroke-width="1"/><polygon id="e4Nn2JR3c8T156" points="458.28,305.98 444.4,305.98 438.88,292.44 452.33,292.44 458.28,305.98" fill="rgb(114,113,113)" stroke="none" stroke-width="1"/><polygon id="e4Nn2JR3c8T157" points="474.94,305.98 461.05,305.98 455.01,292.44 468.46,292.44 474.94,305.98" fill="rgb(114,113,113)" stroke="none" stroke-width="1"/><polygon id="e4Nn2JR3c8T158" points="500.76,323.71 486.31,323.71 471.15,292.44 484.59,292.44 500.76,323.71" fill="rgb(114,113,113)" stroke="none" stroke-width="1"/><polygon id="e4Nn2JR3c8T159" points="118.82,324.67 104.33,324.67 109.32,311.14 123.37,311.14 118.82,324.67" fill="rgb(114,113,113)" stroke="none" stroke-width="1"/><polygon id="e4Nn2JR3c8T160" points="136.21,324.67 121.72,324.67 126.18,311.14 140.23,311.14 136.21,324.67" fill="rgb(114,113,113)" stroke="none" stroke-width="1"/><polygon id="e4Nn2JR3c8T161" points="153.59,324.67 139.1,324.67 143.04,311.14 157.09,311.14 153.59,324.67" fill="rgb(114,113,113)" stroke="none" stroke-width="1"/><polygon id="e4Nn2JR3c8T162" points="170.97,324.67 156.49,324.67 159.9,311.14 173.95,311.14 170.97,324.67" fill="rgb(114,113,113)" stroke="none" stroke-width="1"/><polygon id="e4Nn2JR3c8T163" points="188.36,324.67 173.87,324.67 176.76,311.14 190.81,311.14 188.36,324.67" fill="rgb(114,113,113)" stroke="none" stroke-width="1"/><polygon id="e4Nn2JR3c8T164" points="205.74,324.67 191.25,324.67 193.61,311.14 207.66,311.14 205.74,324.67" fill="rgb(114,113,113)" stroke="none" stroke-width="1"/><polygon id="e4Nn2JR3c8T165" points="223.12,324.67 208.64,324.67 210.47,311.14 224.52,311.14 223.12,324.67" fill="rgb(114,113,113)" stroke="none" stroke-width="1"/><polygon id="e4Nn2JR3c8T166" points="240.51,324.67 226.02,324.67 227.33,311.14 241.38,311.14 240.51,324.67" fill="rgb(114,113,113)" stroke="none" stroke-width="1"/><polygon id="e4Nn2JR3c8T167" points="257.89,324.67 243.41,324.67 244.19,311.14 258.24,311.14 257.89,324.67" fill="rgb(114,113,113)" stroke="none" stroke-width="1"/><polygon id="e4Nn2JR3c8T168" points="275.27,324.67 260.79,324.67 261.05,311.14 275.1,311.14 275.27,324.67" fill="rgb(114,113,113)" stroke="none" stroke-width="1"/><polygon id="e4Nn2JR3c8T169" points="292.66,324.67 278.17,324.67 277.91,311.14 291.96,311.14 292.66,324.67" fill="rgb(114,113,113)" stroke="none" stroke-width="1"/><polygon id="e4Nn2JR3c8T170" points="310.04,324.67 295.56,324.67 294.77,311.14 308.82,311.14 310.04,324.67" fill="rgb(114,113,113)" stroke="none" stroke-width="1"/><polygon id="e4Nn2JR3c8T171" points="327.43,324.67 312.94,324.67 311.63,311.14 325.68,311.14 327.43,324.67" fill="rgb(114,113,113)" stroke="none" stroke-width="1"/><polygon id="e4Nn2JR3c8T172" points="344.81,324.67 330.32,324.67 328.49,311.14 342.53,311.14 344.81,324.67" fill="rgb(114,113,113)" stroke="none" stroke-width="1"/><polygon id="e4Nn2JR3c8T173" points="362.19,324.67 347.71,324.67 345.34,311.14 359.39,311.14 362.19,324.67" fill="rgb(114,113,113)" stroke="none" stroke-width="1"/><polygon id="e4Nn2JR3c8T174" points="379.58,324.67 365.09,324.67 362.2,311.14 376.25,311.14 379.58,324.67" fill="rgb(114,113,113)" stroke="none" stroke-width="1"/><polygon id="e4Nn2JR3c8T175" points="396.96,324.67 382.47,324.67 379.06,311.14 393.11,311.14 396.96,324.67" fill="rgb(114,113,113)" stroke="none" stroke-width="1"/><polygon id="e4Nn2JR3c8T176" points="414.35,324.67 399.86,324.67 395.92,311.14 409.97,311.14 414.35,324.67" fill="rgb(114,113,113)" stroke="none" stroke-width="1"/><polygon id="e4Nn2JR3c8T177" points="431.73,324.67 417.24,324.67 412.78,311.14 426.83,311.14 431.73,324.67" fill="rgb(114,113,113)" stroke="none" stroke-width="1"/><polygon id="e4Nn2JR3c8T178" points="449.11,324.67 434.63,324.67 429.64,311.14 443.69,311.14 449.11,324.67" fill="rgb(114,113,113)" stroke="none" stroke-width="1"/><polygon id="e4Nn2JR3c8T179" points="466.5,324.67 452.01,324.67 446.5,311.14 460.55,311.14 466.5,324.67" fill="rgb(114,113,113)" stroke="none" stroke-width="1"/><polygon id="e4Nn2JR3c8T180" points="483.88,324.67 469.39,324.67 463.35,311.14 477.4,311.14 483.88,324.67" fill="rgb(114,113,113)" stroke="none" stroke-width="1"/><polygon id="e4Nn2JR3c8T181" points="266.38,93.54 265.43,96.25 267.87,97.93 264.92,98.51 264.62,101.35 262.62,99.22 259.87,100.38 260.82,97.67 258.38,96 261.32,95.42 261.63,92.58 263.63,94.71 266.38,93.54" fill="rgb(247,213,129)" fill-rule="evenodd" stroke="none" stroke-width="1"/><polygon id="e4Nn2JR3c8T182" points="274.4,124.24 273.09,128.01 276.48,130.34 272.38,131.15 271.95,135.1 269.17,132.13 265.35,133.76 266.67,129.99 263.28,127.66 267.38,126.85 267.81,122.9 270.59,125.87 274.4,124.24" fill="rgb(247,213,129)" fill-rule="evenodd" stroke="none" stroke-width="1"/><polygon id="e4Nn2JR3c8T183" points="239.82,115.05 239.17,116.91 240.85,118.06 238.82,118.46 238.61,120.42 237.23,118.95 235.34,119.76 235.99,117.89 234.31,116.74 236.34,116.34 236.55,114.38 237.93,115.85 239.82,115.05" fill="rgb(247,213,129)" fill-rule="evenodd" stroke="none" stroke-width="1"/><polygon id="e4Nn2JR3c8T184" points="128.56,48.55 131.48,49.24 133.05,46.81 133.88,49.55 136.89,49.63 134.8,51.68 136.24,54.19 133.32,53.5 131.75,55.94 130.91,53.19 127.91,53.12 130,51.06 128.56,48.55" fill="rgb(247,213,129)" fill-rule="evenodd" stroke="none" stroke-width="1"/><polygon id="e4Nn2JR3c8T185" points="160.19,38.63 164.25,39.59 166.44,36.2 167.59,40.02 171.78,40.13 168.87,42.98 170.87,46.48 166.81,45.52 164.62,48.91 163.46,45.09 159.28,44.98 162.19,42.12 160.19,38.63" fill="rgb(247,213,129)" fill-rule="evenodd" stroke="none" stroke-width="1"/><polygon id="e4Nn2JR3c8T186" points="153.15,72.07 155.16,72.55 156.24,70.87 156.81,72.76 158.88,72.81 157.44,74.23 158.43,75.95 156.42,75.48 155.34,77.16 154.77,75.27 152.7,75.21 154.13,73.8 153.15,72.07" fill="rgb(247,213,129)" fill-rule="evenodd" stroke="none" stroke-width="1"/><polygon id="e4Nn2JR3c8T187" points="158.67,184.81 156.93,187.13 158.73,189.41 155.74,189.14 154.56,191.77 153.32,189.17 150.33,189.51 152.08,187.19 150.27,184.91 153.26,185.18 154.44,182.56 155.69,185.15 158.67,184.81" fill="rgb(247,213,129)" fill-rule="evenodd" stroke="none" stroke-width="1"/><polygon id="e4Nn2JR3c8T188" points="156.78,216.39 154.35,219.62 156.87,222.79 152.71,222.41 151.06,226.07 149.33,222.45 145.18,222.93 147.6,219.7 145.09,216.53 149.26,216.9 150.9,213.25 152.63,216.87 156.78,216.39" fill="rgb(247,213,129)" fill-rule="evenodd" stroke="none" stroke-width="1"/><polygon id="e4Nn2JR3c8T189" points="126.61,197.89 125.41,199.49 126.65,201.06 124.59,200.87 123.78,202.68 122.92,200.89 120.86,201.13 122.07,199.53 120.82,197.96 122.88,198.15 123.7,196.34 124.55,198.13 126.61,197.89" fill="rgb(247,213,129)" fill-rule="evenodd" stroke="none" stroke-width="1"/><path id="e4Nn2JR3c8T190" d="M121.84,129.52L118.07,129.83C115.81,130.02,112.79,130.18,109.78,130.37C108.27,130.46,106.78,130.64,105.35,130.67C104.059646,130.668685,102.770578,130.588536,101.49,130.43C100.210789,130.29432,98.945942,130.046705,97.71,129.69L97.71,129.47C98.937769,129.097022,100.195943,128.832671,101.47,128.68C102.748849,128.49818,104.03834,128.401301,105.33,128.39C106.75,128.39,108.26,128.56,109.77,128.62C112.77,128.77,115.77,128.89,118.06,129.05L121.83,129.3Z" fill="rgb(244,126,20)" stroke="none" stroke-width="1"/><path id="e4Nn2JR3c8T191" d="M136.37,95.2C136.37,95.2,135.37,94.37,133.9,93.1C132.43,91.83,130.5,90.1,128.56,88.38C127.56,87.51,126.56,86.71,125.7,85.86C124.934282,85.067161,124.228979,84.218123,123.59,83.32C122.935676,82.441368,122.375909,81.496133,121.92,80.5L122.09,80.35C123.095913,80.848724,124.050483,81.444912,124.94,82.13C125.832932,82.789487,126.675282,83.514844,127.46,84.3C128.29,85.18,129.06,86.21,129.91,87.18C131.58,89.18,133.28,91.07,134.5,92.56C135.72,94.05,136.5,95.05,136.5,95.05Z" fill="rgb(244,126,20)" stroke="none" stroke-width="1"/><path id="e4Nn2JR3c8T192" d="M137.05,160.25C137.05,160.25,136.26,161.25,135.05,162.77C133.84,164.29,132.18,166.24,130.54,168.21C129.71,169.21,128.95,170.21,128.13,171.13C127.360663,171.928585,126.531597,172.66739,125.65,173.34C124.772864,174.036078,123.828138,174.642445,122.83,175.15L122.66,175C123.095898,173.99763,123.639065,173.045412,124.28,172.16C124.901177,171.25324,125.593351,170.397218,126.35,169.6C127.2,168.74,128.23,167.92,129.17,167.04C131.08,165.29,132.97,163.52,134.44,162.24C135.91,160.96,136.88,160.1,136.88,160.1Z" fill="rgb(244,126,20)" stroke="none" stroke-width="1"/><path id="e4Nn2JR3c8T193" d="M123.36,148.5C123.36,148.5,120.13,150.3,116.81,151.88C115.98,152.29,115.19,152.78,114.4,153.11C113.653245,153.392915,112.879076,153.59735,112.09,153.72C111.282575,153.870642,110.458833,153.91435,109.64,153.85L109.56,153.65C110.097191,153.053049,110.712791,152.531639,111.39,152.1C112.04757,151.663421,112.74784,151.294857,113.48,151C114.3,150.71,115.22,150.53,116.11,150.26C119.65,149.18,123.27,148.26,123.27,148.26Z" fill="rgb(226,226,226)" stroke="none" stroke-width="1"/><path id="e4Nn2JR3c8T194" d="M123,108.49C123,108.49,119.36,107.66,115.81,106.63C114.92,106.38,113.99,106.21,113.17,105.93C112.430924,105.648688,111.72366,105.290028,111.06,104.86C110.375284,104.438134,109.749788,103.926976,109.2,103.34L109.29,103.14C110.107021,103.060444,110.931018,103.090713,111.74,103.23C112.528267,103.341494,113.302559,103.535905,114.05,103.81C114.85,104.13,115.65,104.61,116.48,105C119.83,106.54,123.09,108.29,123.09,108.29Z" fill="rgb(226,226,226)" stroke="none" stroke-width="1"/><path id="e4Nn2JR3c8T195" d="M223.65,211.51L225.15,214.8C226.06,216.8,227.15,219.44,228.33,222.09C228.9,223.42,229.56,224.72,230.04,225.98C230.454297,227.14242,230.788414,228.331875,231.04,229.54C231.309759,230.732383,231.463806,231.948019,231.5,233.17L231.28,233.24C230.5182,232.260601,229.848678,231.212799,229.28,230.11C228.692806,229.017858,228.184832,227.884942,227.76,226.72C227.32,225.45,227,224.04,226.58,222.66C225.77,219.9,224.92,217.14,224.37,215.05L223.42,211.58Z" fill="rgb(244,126,20)" stroke="none" stroke-width="1"/><path id="e4Nn2JR3c8T196" d="M184.76,209.34C184.76,209.34,184.25,210.51,183.45,212.24C182.65,213.97,181.53,216.24,180.45,218.55C179.89,219.69,179.45,220.88,178.85,221.92C178.299796,222.869305,177.677993,223.775266,176.99,224.63C176.312826,225.507993,175.54528,226.312408,174.7,227.03L174.5,226.92C174.677823,225.851932,174.969485,224.805971,175.37,223.8C175.743858,222.765841,176.198598,221.762739,176.73,220.8C177.34,219.8,178.13,218.75,178.83,217.68C180.25,215.55,181.63,213.4,182.74,211.83C183.85,210.26,184.58,209.2,184.58,209.2Z" fill="rgb(244,126,20)" stroke="none" stroke-width="1"/><path id="e4Nn2JR3c8T197" d="M249.48,188C249.48,188,250.75,188.39,252.63,189C254.51,189.61,257.01,190.47,259.51,191.32C260.75,191.76,262.03,192.11,263.18,192.56C264.215773,192.996589,265.218418,193.507938,266.18,194.09C267.145712,194.663053,268.050402,195.333193,268.88,196.09L268.79,196.29C267.657943,196.217456,266.535825,196.033228,265.44,195.74C264.343224,195.466458,263.267198,195.11558,262.22,194.69C261.09,194.2,259.95,193.54,258.77,192.97C256.41,191.8,254.05,190.67,252.3,189.75C250.55,188.83,249.39,188.23,249.39,188.23Z" fill="rgb(244,126,20)" stroke="none" stroke-width="1"/><path id="e4Nn2JR3c8T198" d="M242.11,204.09C242.11,204.09,244.93,206.43,247.57,208.92C248.24,209.53,248.98,210.09,249.57,210.7C250.087586,211.275259,250.54031,211.905719,250.92,212.58C251.322463,213.252897,251.625595,213.980412,251.82,214.74L251.65,214.89C250.891685,214.595264,250.175519,214.201877,249.52,213.72C248.880449,213.274225,248.290425,212.761306,247.76,212.19C247.21,211.55,246.76,210.78,246.19,210.06C243.98,207.22,241.95,204.24,241.95,204.24Z" fill="rgb(226,226,226)" stroke="none" stroke-width="1"/><path id="e4Nn2JR3c8T199" d="M202.29,217.19C202.29,217.19,202.63,220.72,202.72,224.25C202.72,225.14,202.89,226.02,202.87,226.85C202.819804,227.609148,202.685653,228.360398,202.47,229.09C202.264477,229.850626,201.951311,230.577978,201.54,231.25L201.31,231.25C200.975657,230.54386,200.746558,229.79255,200.63,229.02C200.491407,228.271766,200.437734,227.510277,200.47,226.75C200.53,225.93,200.76,225.06,200.88,224.19C201.35,220.68,202.06,217.19,202.06,217.19Z" fill="rgb(226,226,226)" stroke="none" stroke-width="1"/><path id="e4Nn2JR3c8T200" d="M221,42.3C221,42.3,221.16,41.1,221.41,39.3C221.66,37.5,222.05,35.12,222.41,32.74C222.61,31.55,222.74,30.34,222.95,29.23C223.182865,28.211076,223.483535,27.208844,223.85,26.23C224.20098,25.254042,224.642924,24.313237,225.17,23.42L225.36,23.42C225.456679,24.444391,225.456679,25.475609,225.36,26.5C225.282938,27.532107,225.135934,28.557796,224.92,29.57C224.65,30.66,224.25,31.82,223.92,32.98C223.25,35.31,222.61,37.64,222.06,39.38C221.51,41.12,221.17,42.27,221.17,42.27Z" fill="rgb(244,126,20)" stroke="none" stroke-width="1"/><path id="e4Nn2JR3c8T201" d="M248.05,59.79L250.32,58.24C251.67,57.3,253.53,56.13,255.32,54.92C256.25,54.33,257.13,53.67,258.01,53.15C258.838311,52.685125,259.700802,52.283967,260.59,51.95C261.471026,51.595265,262.385685,51.330584,263.32,51.16L263.42,51.32C262.819556,52.01958,262.149432,52.656197,261.42,53.22C260.680266,53.803973,259.898107,54.332098,259.08,54.8C258.18,55.29,257.14,55.7,256.15,56.19C254.15,57.19,252.15,58.12,250.67,58.81L248.15,60Z" fill="rgb(244,126,20)" stroke="none" stroke-width="1"/><path id="e4Nn2JR3c8T202" d="M191.67,48.65L189.85,46.65C188.75,45.45,187.36,43.79,185.94,42.16C185.24,41.33,184.48,40.55,183.85,39.76C183.30491,39.018009,182.816845,38.235768,182.39,37.42C181.946669,36.620759,181.591261,35.775826,181.33,34.9L181.48,34.79C182.264401,35.304713,182.991827,35.901403,183.65,36.57C184.317507,37.212821,184.935905,37.904758,185.5,38.64C186.09,39.46,186.61,40.41,187.21,41.3C188.38,43.1,189.57,44.89,190.41,46.3C191.25,47.71,191.82,48.59,191.82,48.59Z" fill="rgb(244,126,20)" stroke="none" stroke-width="1"/><path id="e4Nn2JR3c8T203" d="M204.28,40.08C204.28,40.08,204.03,39.37,203.7,38.3C203.37,37.23,202.95,35.79,202.53,34.36C202.34,33.64,202.05,32.94,201.91,32.26C201.793718,31.630429,201.75343,30.989175,201.79,30.35C201.808238,29.694304,201.919344,29.044505,202.12,28.42L202.31,28.42C202.722708,28.939715,203.059412,29.515478,203.31,30.13C203.569942,30.716853,203.764449,31.330554,203.89,31.96C203.99,32.65,203.98,33.4,204.05,34.14C204.17,35.62,204.32,37.14,204.37,38.22C204.42,39.3,204.46,40.08,204.46,40.08Z" fill="rgb(226,226,226)" stroke="none" stroke-width="1"/><path id="e4Nn2JR3c8T204" d="M239,47C239,47,239.33,46.32,239.87,45.33C240.41,44.34,241.16,43.03,241.87,41.72C242.25,41.07,242.55,40.38,242.94,39.79C243.325105,39.262468,243.764144,38.776509,244.25,38.34C244.741643,37.870875,245.29714,37.47361,245.9,37.16L246.06,37.26C245.980369,37.915326,245.805176,38.555454,245.54,39.16C245.297507,39.759117,244.988932,40.32931,244.62,40.86C244.2,41.42,243.62,41.96,243.16,42.54C242.16,43.69,241.16,44.86,240.42,45.7C239.68,46.54,239.13,47.1,239.13,47.1Z" fill="rgb(226,226,226)" stroke="none" stroke-width="1"/><g id="e4Nn2JR3c8T205" style="mix-blend-mode:multiply" opacity="0.15"><path id="e4Nn2JR3c8T206" d="M153.41,99.3L145.75,106.3C145.278064,106.722971,145.003467,107.323284,144.992084,107.956924C144.980701,108.590563,145.23356,109.200351,145.69,109.64L148.75,112.64C147.568518,114.544232,146.608936,116.577471,145.89,118.7L141.5,118.54C140.1552,118.454436,138.995643,119.475206,138.91,120.82L138.52,130.91C138.511995,131.555276,138.762047,132.177023,139.21459,132.637077C139.667133,133.097131,140.28468,133.357383,140.93,133.36L145.09,133.5C145.64614,136.102248,146.565122,138.613457,147.82,140.96L145.02,143.52C144.543489,143.941757,144.264918,144.543464,144.251624,145.179676C144.23833,145.815887,144.491523,146.428706,144.95,146.87L152.32,154.14C153.298662,155.083101,154.839852,155.109297,155.85,154.2L158.19,152.06C160.41765,153.483782,162.816764,154.619497,165.33,155.44L165.22,158.18C165.212,158.826206,165.461739,159.44898,165.913994,159.910619C166.36625,160.372258,166.983766,160.634731,167.63,160.64L178.25,161C179.589281,161.085575,180.744368,160.069277,180.83,158.73L180.91,156.61C184.149712,156.066762,187.286463,155.027924,190.21,153.53L191.53,154.84C192.508014,155.781164,194.045442,155.811651,195.06,154.91L202.72,147.91C203.191936,147.487029,203.466533,146.886716,203.477916,146.253076C203.489299,145.619437,203.23644,145.009649,202.78,144.57L201.64,143.45C203.266933,141.036236,204.517861,138.389393,205.35,135.6L206.98,135.66C208.320969,135.734424,209.473793,134.719583,209.57,133.38L210,123.3C210.005326,122.655517,209.754403,122.035318,209.302436,121.575849C208.850469,121.11638,208.234483,120.855283,207.59,120.85L205.72,120.78C204.952969,117.703751,203.671595,114.779243,201.93,112.13L203.51,110.69C203.982466,110.265236,204.257232,109.663281,204.26861,109.02805C204.279987,108.392818,204.026952,107.78141,203.57,107.34L196.2,100.07C195.224691,99.128227,193.686839,99.102014,192.68,100.01L190.68,101.87C188.318063,100.620567,185.808372,99.673133,183.21,99.05L183.32,96.05C183.328,95.406446,183.079315,94.786215,182.628935,94.326452C182.178554,93.866688,181.563582,93.605269,180.92,93.6L170.3,93.24C168.960719,93.154425,167.805632,94.170723,167.72,95.51L167.59,99.17C164.8973,99.830483,162.302125,100.83897,159.87,102.17L157.01,99.35C156.019668,98.365639,154.427288,98.343523,153.41,99.3ZM166.41,118.67C171.705879,113.913282,179.777231,114.057335,184.9,119C187.291807,121.318093,188.612538,124.526013,188.546162,127.856162C188.479787,131.186311,187.032278,134.339056,184.55,136.56C179.254121,141.316718,171.182769,141.172665,166.06,136.23C163.669447,133.91054,162.350501,130.701822,162.418773,127.371661C162.487045,124.041499,163.936392,120.889534,166.42,118.67Z" fill="rgb(76,33,12)" stroke="none" stroke-width="1"/><path id="e4Nn2JR3c8T207" d="M188.27,140.18L179.74,146.18C179.216704,146.538947,178.865812,147.098941,178.771031,147.726394C178.676249,148.353848,178.846076,148.9925,179.24,149.49L181.87,152.84C180.442017,154.583265,179.220559,156.48592,178.23,158.51L173.89,157.82C172.54855,157.594899,171.273286,158.483585,171.02,159.82L169.3,169.82C169.206356,170.455286,169.373399,171.101456,169.763194,171.611767C170.152989,172.122078,170.732455,172.453223,171.37,172.53L175.47,173.18C175.679529,175.8211,176.258503,178.419753,177.19,180.9L174.07,183.11C173.545156,183.467363,173.192248,184.026598,173.095556,184.654149C172.998864,185.2817,173.167068,185.921227,173.56,186.42L179.91,194.52C180.768633,195.568357,182.290229,195.77763,183.4,195L186,193.16C188.028396,194.835724,190.259178,196.250121,192.64,197.37L192.17,200.07C192.073311,200.705309,192.237642,201.352719,192.625624,201.865005C193.013605,202.377292,193.59226,202.710912,194.23,202.79L204.72,204.43C206.044328,204.662819,207.312947,203.797852,207.58,202.48L207.94,200.39C211.230408,200.232868,214.477668,199.575323,217.57,198.44L218.71,199.9C219.565757,200.951637,221.087735,201.165324,222.2,200.39L230.73,194.39C231.253296,194.031053,231.604188,193.471059,231.698969,192.843606C231.793751,192.216152,231.623924,191.5775,231.23,191.08L230.23,189.83C232.163822,187.634861,233.755093,185.160299,234.95,182.49L236.56,182.75C237.900191,182.969528,239.171922,182.083305,239.43,180.75L241.15,170.75C241.243836,170.115131,241.078403,169.469199,240.69094,168.957597C240.303477,168.445995,239.726543,168.111715,239.09,168.03L237.24,167.74C236.885149,164.614003,236.002632,161.570841,234.63,158.74L236.38,157.5C236.907323,157.144575,237.262248,156.585072,237.359087,155.956566C237.455926,155.328061,237.285879,154.687671,236.89,154.19L230.54,146.09C229.687464,145.038431,228.165375,144.828488,227.06,145.61L224.8,147.21C222.630828,145.691013,220.278989,144.451258,217.8,143.52L218.31,140.52C218.410287,139.893393,218.255096,139.25274,217.879176,138.741488C217.503256,138.230236,216.93801,137.891095,216.31,137.8L205.82,136.17C204.495672,135.937181,203.227053,136.802148,202.96,138.12L202.34,141.73C199.574869,142.072711,196.867721,142.782287,194.29,143.84L191.82,140.69C190.967608,139.590853,189.397344,139.365265,188.27,140.18ZM196.45,158.18C203.874208,152.965444,214.066888,154.380366,219.79,161.42C222.424349,164.757433,223.553222,169.039556,222.906554,173.241945C222.259887,177.444334,219.89585,181.188965,216.38,183.58C208.956909,188.831992,198.732931,187.428272,193,180.37C190.366653,177.028564,189.242426,172.742066,189.896888,168.538331C190.551351,164.334596,192.925479,160.592742,196.45,158.21Z" fill="rgb(76,33,12)" stroke="none" stroke-width="1"/><path id="e4Nn2JR3c8T208" d="M214.37,51.59L209.07,53.33C208.748191,53.428316,208.480157,53.653195,208.327415,53.953022C208.174672,54.25285,208.150339,54.601879,208.26,54.92L209,57C207.989859,57.65565,207.060166,58.427598,206.23,59.3L204.17,58.3C203.521248,57.996447,202.748097,58.239685,202.39,58.86L199.85,63.6C199.693843,63.900675,199.668626,64.252448,199.780298,64.572322C199.89197,64.892196,200.130641,65.151842,200.44,65.29L202.44,66.22C202.099759,67.579094,201.958289,68.980325,202.02,70.38L200.08,71.02C199.755387,71.11138,199.483078,71.333049,199.327735,71.632369C199.172392,71.931688,199.147873,72.281957,199.26,72.6L201.1,77.6C201.372828,78.255882,202.107263,78.588126,202.78,78.36L204.4,77.83C205.124941,78.995369,205.999001,80.061051,207,81L206.32,82.29C206.159876,82.590363,206.131377,82.943651,206.241285,83.265797C206.351194,83.587942,206.589682,83.850141,206.9,83.99L211.9,86.39C212.545095,86.702999,213.322335,86.457092,213.67,85.83L214.2,84.83C215.892069,85.253026,217.639425,85.41157,219.38,85.3L219.71,86.21C219.962703,86.879914,220.706447,87.222838,221.38,86.98L226.68,85.23C227.003492,85.134154,227.273411,84.909633,227.426562,84.609003C227.579713,84.308373,227.602649,83.958031,227.49,83.64L227.2,82.86C228.545902,82.045195,229.762642,81.034054,230.81,79.86L231.56,80.22C232.208401,80.536692,232.991296,80.296138,233.35,79.67L235.89,75C236.046458,74.702067,236.072906,74.352741,235.963088,74.034648C235.85327,73.716556,235.616941,73.45795,235.31,73.32L234.42,72.88C234.772572,71.257383,234.840247,69.585808,234.62,67.94L235.72,67.58C236.040944,67.484268,236.30842,67.260805,236.45971,66.962005C236.611001,66.663206,236.632802,66.31535,236.52,66L234.68,61C234.415079,60.341587,233.68274,60.003921,233.01,60.23L231.6,60.7C230.757462,59.600762,229.772112,58.618775,228.67,57.78L229.43,56.36C229.589823,56.061127,229.618115,55.709239,229.508098,55.388671C229.39808,55.068102,229.159668,54.807746,228.85,54.67L223.85,52.27C223.199457,51.949589,222.411944,52.195962,222.06,52.83L221.16,54.54C219.702175,54.304558,218.220453,54.254159,216.75,54.39L216.04,52.39C215.790862,51.715972,215.051378,51.361728,214.37,51.59ZM215.48,61.89C219.992009,60.347954,224.920131,62.61841,226.68,67.05C227.424726,69.179772,227.265831,71.521488,226.24023,73.531137C225.214629,75.540786,223.411597,77.043435,221.25,77.69C216.737712,79.237521,211.805889,76.96536,210.05,72.53C209.308266,70.400139,209.468558,68.059739,210.493749,66.050893C211.51894,64.042048,213.320087,62.539039,215.48,61.89Z" fill="rgb(76,33,12)" stroke="none" stroke-width="1"/></g><path id="e4Nn2JR3c8T209" d="M152.41,96.3L144.75,103.3C144.278064,103.722971,144.003467,104.323284,143.992084,104.956924C143.980701,105.590563,144.23356,106.200351,144.69,106.64L147.75,109.64C146.568518,111.544232,145.608936,113.577471,144.89,115.7L140.5,115.54C139.1552,115.454436,137.995643,116.475206,137.91,117.82L137.52,127.91C137.511995,128.555276,137.762047,129.177023,138.21459,129.637077C138.667133,130.097131,139.28468,130.357383,139.93,130.36L144.09,130.5C144.64614,133.102248,145.565122,135.613457,146.82,137.96L144.02,140.52C143.543489,140.941757,143.264918,141.543464,143.251624,142.179676C143.23833,142.815887,143.491523,143.428706,143.95,143.87L151.32,151.14C152.298662,152.083101,153.839852,152.109297,154.85,151.2L157.19,149.06C159.41765,150.483782,161.816764,151.619497,164.33,152.44L164.22,155.18C164.212,155.826206,164.461739,156.44898,164.913994,156.910619C165.36625,157.372258,165.983766,157.634731,166.63,157.64L177.25,158C178.589281,158.085575,179.744368,157.069277,179.83,155.73L179.91,153.61C183.149712,153.066762,186.286463,152.027924,189.21,150.53L190.53,151.84C191.508014,152.781164,193.045442,152.811651,194.06,151.91L201.72,144.91C202.191936,144.487029,202.466533,143.886716,202.477916,143.253076C202.489299,142.619437,202.23644,142.009649,201.78,141.57L200.64,140.45C202.266933,138.036236,203.517861,135.389393,204.35,132.6L205.98,132.66C207.320969,132.734424,208.473793,131.719583,208.57,130.38L209,120.3C209.005326,119.655517,208.754403,119.035318,208.302436,118.575849C207.850469,118.11638,207.234483,117.855283,206.59,117.85L204.72,117.78C203.952969,114.703751,202.671595,111.779243,200.93,109.13L202.51,107.69C202.982466,107.265236,203.257232,106.663281,203.26861,106.02805C203.279987,105.392818,203.026952,104.78141,202.57,104.34L195.2,97.07C194.224691,96.128227,192.686839,96.102014,191.68,97.01L189.68,98.87C187.318063,97.620567,184.808372,96.673133,182.21,96.05L182.32,93.05C182.328,92.406446,182.079315,91.786215,181.628935,91.326452C181.178554,90.866688,180.563582,90.605269,179.92,90.6L169.3,90.24C167.960719,90.154425,166.805632,91.170723,166.72,92.51L166.59,96.17C163.8973,96.830483,161.302125,97.83897,158.87,99.17L156.01,96.35C155.019668,95.365639,153.427288,95.343523,152.41,96.3ZM165.41,115.67C170.705879,110.913282,178.777231,111.057335,183.9,116C186.291807,118.318093,187.612538,121.526013,187.546162,124.856162C187.479787,128.186311,186.032278,131.339056,183.55,133.56C178.254121,138.316718,170.182769,138.172665,165.06,133.23C162.669447,130.91054,161.350501,127.701822,161.418773,124.371661C161.487045,121.041499,162.936392,117.889534,165.42,115.67Z" fill="rgb(173,201,201)" stroke="none" stroke-width="1"/><path id="e4Nn2JR3c8T210" d="M187.27,137.18L178.74,143.18C178.216704,143.538947,177.865812,144.098941,177.771031,144.726394C177.676249,145.353848,177.846076,145.9925,178.24,146.49L180.87,149.84C179.442017,151.583265,178.220559,153.48592,177.23,155.51L172.89,154.82C171.54855,154.594899,170.273286,155.483585,170.02,156.82L168.3,166.82C168.206356,167.455286,168.373399,168.101456,168.763194,168.611767C169.152989,169.122078,169.732455,169.453223,170.37,169.53L174.47,170.18C174.679529,172.8211,175.258503,175.419753,176.19,177.9L173.07,180.11C172.545156,180.467363,172.192248,181.026598,172.095556,181.654149C171.998864,182.2817,172.167068,182.921227,172.56,183.42L178.91,191.52C179.768633,192.568357,181.290229,192.77763,182.4,192L185,190.16C187.028396,191.835724,189.259178,193.250121,191.64,194.37L191.17,197.07C191.073311,197.705309,191.237642,198.352719,191.625624,198.865005C192.013605,199.377292,192.59226,199.710912,193.23,199.79L203.72,201.43C205.044328,201.662819,206.312947,200.797852,206.58,199.48L206.94,197.39C210.230408,197.232868,213.477668,196.575323,216.57,195.44L217.71,196.9C218.565757,197.951637,220.087735,198.165324,221.2,197.39L229.73,191.39C230.253296,191.031053,230.604188,190.471059,230.698969,189.843606C230.793751,189.216152,230.623924,188.5775,230.23,188.08L229.23,186.83C231.163822,184.634861,232.755093,182.160299,233.95,179.49L235.56,179.75C236.900191,179.969528,238.171922,179.083305,238.43,177.75L240.15,167.75C240.243836,167.115131,240.078403,166.469199,239.69094,165.957597C239.303477,165.445995,238.726543,165.111715,238.09,165.03L236.24,164.74C235.885149,161.614003,235.002632,158.570841,233.63,155.74L235.38,154.5C235.907323,154.144575,236.262248,153.585072,236.359087,152.956566C236.455926,152.328061,236.285879,151.687671,235.89,151.19L229.54,143.09C228.687464,142.038431,227.165375,141.828488,226.06,142.61L223.8,144.21C221.630828,142.691013,219.278989,141.451258,216.8,140.52L217.31,137.52C217.410287,136.893393,217.255096,136.25274,216.879176,135.741488C216.503256,135.230236,215.93801,134.891095,215.31,134.8L204.82,133.17C203.495672,132.937181,202.227053,133.802148,201.96,135.12L201.34,138.73C198.574869,139.072711,195.867721,139.782287,193.29,140.84L190.82,137.69C189.967608,136.590853,188.397344,136.365265,187.27,137.18ZM195.45,155.18C202.874208,149.965444,213.066888,151.380366,218.79,158.42C221.424349,161.757433,222.553222,166.039556,221.906554,170.241945C221.259887,174.444334,218.89585,178.188965,215.38,180.58C207.956909,185.831992,197.732931,184.428272,192,177.37C189.366653,174.028564,188.242426,169.742066,188.896888,165.538331C189.551351,161.334596,191.925479,157.592742,195.45,155.21Z" fill="rgb(223,239,239)" stroke="none" stroke-width="1"/><path id="e4Nn2JR3c8T211" d="M213.37,48.59L208.07,50.33C207.748191,50.428316,207.480157,50.653195,207.327415,50.953022C207.174672,51.25285,207.150339,51.601879,207.26,51.92L208,54C206.989859,54.65565,206.060166,55.427598,205.23,56.3L203.17,55.3C202.521248,54.996447,201.748097,55.239685,201.39,55.86L198.85,60.6C198.693843,60.900675,198.668626,61.252448,198.780298,61.572322C198.89197,61.892196,199.130641,62.151842,199.44,62.29L201.44,63.22C201.099759,64.579094,200.958289,65.980325,201.02,67.38L199.08,68.02C198.755387,68.11138,198.483078,68.333049,198.327735,68.632369C198.172392,68.931688,198.147873,69.281957,198.26,69.6L200.1,74.6C200.372828,75.255882,201.107263,75.588126,201.78,75.36L203.4,74.83C204.124941,75.995369,204.999001,77.061051,206,78L205.32,79.29C205.159876,79.590363,205.131377,79.943651,205.241285,80.265797C205.351194,80.587942,205.589682,80.850141,205.9,80.99L210.9,83.39C211.545095,83.702999,212.322335,83.457092,212.67,82.83L213.2,81.83C214.892069,82.253026,216.639425,82.41157,218.38,82.3L218.71,83.21C218.962703,83.879914,219.706447,84.222838,220.38,83.98L225.68,82.23C226.003492,82.134154,226.273411,81.909633,226.426562,81.609003C226.579713,81.308373,226.602649,80.958031,226.49,80.64L226.2,79.86C227.545902,79.045195,228.762642,78.034054,229.81,76.86L230.56,77.22C231.208401,77.536692,231.991296,77.296138,232.35,76.67L234.89,72C235.046458,71.702067,235.072906,71.352741,234.963088,71.034648C234.85327,70.716556,234.616941,70.45795,234.31,70.32L233.42,69.88C233.772572,68.257383,233.840247,66.585808,233.62,64.94L234.72,64.58C235.040944,64.484268,235.30842,64.260805,235.45971,63.962005C235.611001,63.663206,235.632802,63.31535,235.52,63L233.68,58C233.415079,57.341587,232.68274,57.003921,232.01,57.23L230.6,57.7C229.757462,56.600762,228.772112,55.618775,227.67,54.78L228.43,53.36C228.589823,53.061127,228.618115,52.709239,228.508098,52.388671C228.39808,52.068102,228.159668,51.807746,227.85,51.67L222.85,49.27C222.199457,48.949589,221.411944,49.195962,221.06,49.83L220.16,51.54C218.702175,51.304558,217.220453,51.254159,215.75,51.39L215.04,49.39C214.790862,48.715972,214.051378,48.361728,213.37,48.59ZM214.48,58.89C218.992009,57.347954,223.920131,59.61841,225.68,64.05C226.424726,66.179772,226.265831,68.521488,225.24023,70.531137C224.214629,72.540786,222.411597,74.043435,220.25,74.69C215.737712,76.237521,210.805889,73.96536,209.05,69.53C208.308266,67.400139,208.468558,65.059739,209.493749,63.050893C210.51894,61.042048,212.320087,59.539039,214.48,58.89Z" fill="rgb(223,239,239)" stroke="none" stroke-width="1"/><ellipse id="e4Nn2JR3c8T212" rx="12.44" ry="11.81" transform="matrix(1 0 0 1 175.33 124.87)" fill="rgb(223,239,239)" stroke="none" stroke-width="1"/><ellipse id="e4Nn2JR3c8T213" rx="6.86" ry="6.52" transform="matrix(1 0 0 1 174.69 124.88)" fill="rgb(71,178,186)" stroke="none" stroke-width="1"/><path id="e4Nn2JR3c8T214" d="M222.83,167.39C222.989371,172.852425,220.34982,178.018403,215.83,181.09C211.920392,183.739955,207.119896,184.732417,202.48,183.85C197.625828,182.850128,193.322763,180.067051,190.42,176.05L165.34,137.34C161.94,132.78,160.1,128.18,160.07,124.12C160.012635,119.937586,162.153504,116.031639,165.71,113.83C169.417294,111.2499,174.125094,110.571532,178.41,112C182.47,113.3,186.31,116.28,189.54,120.6L218.68,155.6C221.287378,158.985717,222.74176,163.117564,222.83,167.39ZM162.62,124.1C162.62,127.66,164.32,131.77,167.47,135.99L192.54,174.7C195.058839,178.179981,198.791337,180.58862,203,181.45C206.945257,182.200976,211.027291,181.355797,214.35,179.1C218.193081,176.470488,220.43193,172.064402,220.29,167.41C220.212473,163.636621,218.926067,159.987717,216.62,157L187.48,122C184.53,118,181.13,115.38,177.59,114.25C174.073968,113.06261,170.201645,113.63546,167.18,115.79C164.283317,117.54524,162.54458,120.713859,162.62,124.1Z" fill="rgb(75,138,140)" stroke="none" stroke-width="1"/><path id="e4Nn2JR3c8T215" d="M227.73,66.15C227.73,69.38,226.38,72.97,223.73,76.52L186.32,132.26C181.40464,138.559344,172.486141,140.049381,165.79,135.69L165.55,135.57C162.4,133.57,160.41,129.42,160.38,124.88C160.329294,121.664233,161.333895,118.520462,163.24,115.93L204.68,64.66C209.75,57.76,216.8,55.25,223.03,58.16L223.24,58.29L223.97,58.82C226.360224,60.489589,227.768335,63.234657,227.73,66.15ZM167,133.5L167.25,133.63C172.765575,137.329368,180.206167,136.108236,184.25,130.84L221.62,75.17C223.92,72.03,225.16,68.85,225.14,66.17C225.198891,64.031914,224.185803,62.005739,222.44,60.77L221.81,60.31C216.81,58.02,211.15,60.19,206.81,66.12L165.36,117.38C163.788498,119.557992,162.96091,122.184532,163,124.87C163,128.52,164.58,131.9,167,133.5Z" fill="rgb(75,138,140)" stroke="none" stroke-width="1"/><path id="e4Nn2JR3c8T216" d="M283.6,100L283.6,100C283.632829,99.931294,283.669556,99.864518,283.71,99.8L283.8,99.66L283.89,99.52C284.85691,97.869481,286.324557,96.569965,288.08,95.81L288.55,95.63L288.55,95.63L345,74.22L401.43,52.84L401.43,52.84L401.89,52.66C403.309146,52.042549,404.950396,52.233392,406.19,53.16L406.29,53.23L406.38,53.3L412.55,58.3L408.35,59.3L410.25,133.63C410.243543,135.632369,409.660278,137.590472,408.57,139.27L408.48,139.42L408.39,139.55C407.424735,141.204245,405.956911,142.50742,404.2,143.27L291.63,186L291.84,190.67L286,185.87L285.9,185.79C284.636837,184.737231,283.925641,183.163756,283.97,181.52L282,105.41C282.011377,103.491702,282.566143,101.615901,283.6,100Z" fill="rgb(255,255,255)" stroke="rgb(37,115,186)" stroke-width="1" stroke-miterlimit="10"/><path id="e4Nn2JR3c8T217" d="M296.45,191.39L410.24,148.27C413.69,146.96,416.39,142.41,416.24,138.09L414.33,63.09C414.22,58.77,411.33,56.33,407.9,57.63L294.15,100.73C290.7,102.03,288,106.59,288.15,110.91L290.06,185.91C290.13,190.25,293,192.69,296.45,191.39Z" fill="url(#e4Nn2JR3c8T217-fill)" stroke="rgb(89,189,239)" stroke-width="1" stroke-miterlimit="10"/><path id="e4Nn2JR3c8T218" d="M294.61,100.55L351,79.17L353.25,167.36L296.88,191.21C293.18,192.61,290.1,190.49,290,186.47L288.06,110.36C288.13001,106.08827,290.691386,102.252071,294.61,100.55Z" fill="rgb(0,188,212)" stroke="rgb(89,189,239)" stroke-width="1" stroke-miterlimit="10"/><path id="e4Nn2JR3c8T219" d="M407.47,57.79L351,79.17L353.23,166.81L409.74,148.44C413.644664,146.727975,416.189539,142.893071,416.25,138.63L414.31,62.52C414.25,58.51,411.17,56.39,407.47,57.79Z" fill="rgb(0,188,212)" stroke="rgb(89,189,239)" stroke-width="1" stroke-miterlimit="10"/><path id="e4Nn2JR3c8T220" d="M414.73,144.08C413.592135,146.046922,411.833497,147.580455,409.73,148.44L296.92,191.21C295.250176,191.96539,293.300892,191.746671,291.84,190.64L351.9,113.11Z" fill="rgb(0,188,212)" stroke="rgb(89,189,239)" stroke-width="1" stroke-miterlimit="10"/><path id="e4Nn2JR3c8T221" d="M289.66,104.92C290.785146,102.959117,292.524747,101.423348,294.61,100.55L407.47,57.79C409.13803,57.03177,411.087185,57.246637,412.55,58.35L352.48,135.89Z" fill="rgb(0,188,212)" stroke="rgb(89,189,239)" stroke-width="1" stroke-miterlimit="10"/><path id="e4Nn2JR3c8T222" d="M308.65,116.27L308.65,116.27L308.77,116.08L308.86,115.94L308.95,115.8C309.915265,114.145755,311.383089,112.84258,313.14,112.08L313.6,111.91L313.6,111.91L370,90.52L426.43,69.14L426.43,69.14L426.89,68.97C428.306737,68.345407,429.950109,68.532675,431.19,69.46L431.28,69.53L431.38,69.61L437.55,74.61L433.35,75.61L435.28,150C435.279362,152.001779,434.699359,153.96059,433.61,155.64L433.52,155.78L433.43,155.92C432.46309,157.570519,430.995443,158.870035,429.24,159.63L316.69,202.27L316.9,206.95L311.05,202.17L310.96,202.1C309.696837,201.047231,308.985641,199.473756,309.03,197.83L307.09,121.72C307.092131,119.793479,307.632439,117.905866,308.65,116.27Z" fill="rgb(255,255,255)" stroke="rgb(37,115,186)" stroke-width="1" stroke-miterlimit="10"/><path id="e4Nn2JR3c8T223" d="M321.51,207.69L435.3,164.57C438.74,163.27,441.44,158.71,441.3,154.39L439.39,79.39C439.28,75.08,436.39,72.63,432.96,73.94L319.2,117C315.76,118.31,313.06,122.87,313.2,127.18L315.11,202.18C315.19,206.55,318.07,209,321.51,207.69Z" fill="url(#e4Nn2JR3c8T223-fill)" stroke="rgb(89,189,239)" stroke-width="1" stroke-miterlimit="10"/><path id="e4Nn2JR3c8T224" d="M319.67,116.86L376.1,95.48L378.34,183.67L322,207.51C318.3,208.92,315.22,206.79,315.12,202.78L313.18,126.67C313.23693,122.411636,315.773154,118.577991,319.67,116.86Z" fill="rgb(0,188,212)" stroke="rgb(89,189,239)" stroke-width="1" stroke-miterlimit="10"/><path id="e4Nn2JR3c8T225" d="M432.53,74.09L376.1,95.48L378.33,183.11L434.84,164.75C438.742975,163.035967,441.287032,159.202295,441.35,154.94L439.41,78.83C439.31,74.81,436.23,72.69,432.53,74.09Z" fill="rgb(0,188,212)" stroke="rgb(89,189,239)" stroke-width="1" stroke-miterlimit="10"/><path id="e4Nn2JR3c8T226" d="M439.79,160.38C438.65207,162.3492,436.893807,163.885923,434.79,164.75L322,207.51C320.33197,208.26823,318.382815,208.053363,316.92,206.95L377,129.41Z" fill="rgb(0,188,212)" stroke="rgb(89,189,239)" stroke-width="1" stroke-miterlimit="10"/><path id="e4Nn2JR3c8T227" d="M314.72,121.22C315.845678,119.261896,317.585457,117.729484,319.67,116.86L432.53,74.09C434.199824,73.33461,436.149108,73.553329,437.61,74.66L377.54,152.2Z" fill="rgb(0,188,212)" stroke="rgb(89,189,239)" stroke-width="1" stroke-miterlimit="10"/><path id="e4Nn2JR3c8T228" d="M338.24,132.64L338.24,132.64L338.36,132.45C338.382855,132.401256,338.409608,132.354437,338.44,132.31L338.53,132.17C339.490852,130.512144,340.960026,129.20777,342.72,128.45L343.19,128.28L343.19,128.28L399.62,106.89L456.05,85.51L456.05,85.51L456.51,85.33C457.929146,84.712549,459.570396,84.903392,460.81,85.83L460.91,85.9L461,86L467.17,91L463,92L464.89,166.32C464.888104,168.323038,464.304463,170.282407,463.21,171.96L463.12,172.11L463.03,172.24C462.071954,173.900146,460.601915,175.205287,458.84,175.96L346.27,218.64L346.48,223.32L340.64,218.54L340.55,218.47C339.281588,217.4169,338.56953,215.837829,338.62,214.19L336.68,138.09C336.677307,136.162803,337.217987,134.273887,338.24,132.64Z" fill="rgb(255,255,255)" stroke="rgb(37,115,186)" stroke-width="1" stroke-miterlimit="10"/><path id="e4Nn2JR3c8T229" d="M351.1,224.06L464.89,180.94C468.33,179.64,471.03,175.08,470.89,170.76L468.98,95.76C468.87,91.44,465.98,89,462.55,90.3L348.79,133.4C345.35,134.71,342.65,139.26,342.79,143.58L344.7,218.58C344.78,222.92,347.65,225.36,351.1,224.06Z" fill="url(#e4Nn2JR3c8T229-fill)" stroke="rgb(89,189,239)" stroke-width="1" stroke-miterlimit="10"/><path id="e4Nn2JR3c8T230" d="M349.25,133.23L405.68,111.84L407.93,200L351.56,223.85C347.86,225.25,344.78,223.13,344.68,219.12L342.74,143C342.81599,138.75151,345.35835,134.936018,349.25,133.23Z" fill="rgb(0,188,212)" stroke="rgb(89,189,239)" stroke-width="1" stroke-miterlimit="10"/><path id="e4Nn2JR3c8T231" d="M462.11,90.46L405.68,111.84L407.91,199.48L464.42,181.12C468.326234,179.404468,470.870922,175.565938,470.93,171.3L469,95.2C468.89,91.18,465.81,89.06,462.11,90.46Z" fill="rgb(0,188,212)" stroke="rgb(89,189,239)" stroke-width="1" stroke-miterlimit="10"/><path id="e4Nn2JR3c8T232" d="M469.37,176.75C468.244854,178.710883,466.505253,180.246652,464.42,181.12L351.56,223.88C349.89197,224.63823,347.942815,224.423363,346.48,223.32L406.55,145.78Z" fill="rgb(0,188,212)" stroke="rgb(89,189,239)" stroke-width="1" stroke-miterlimit="10"/><path id="e4Nn2JR3c8T233" d="M344.3,137.59C345.425092,135.631418,347.165056,134.098843,349.25,133.23L462.11,90.46C463.779824,89.70461,465.729108,89.923329,467.19,91.03L407.13,168.56Z" fill="rgb(0,188,212)" stroke="rgb(89,189,239)" stroke-width="1" stroke-miterlimit="10"/></g></g></g><script><![CDATA[!function(t,n){"object"==typeof exports&&"undefined"!=typeof module?module.exports=n():"function"==typeof define&&define.amd?define(n):(t="undefined"!=typeof globalThis?globalThis:t||self).__SVGATOR_PLAYER__=n()}(this,(function(){"use strict";function t(n){return(t="function"==typeof Symbol&&"symbol"==typeof Symbol.iterator?function(t){return typeof t}:function(t){return t&&"function"==typeof Symbol&&t.constructor===Symbol&&t!==Symbol.prototype?"symbol":typeof t})(n)}function n(t,n){if(!(t instanceof n))throw new TypeError("Cannot call a class as a function")}function r(t,n){for(var r=0;r<n.length;r++){var e=n[r];e.enumerable=e.enumerable||!1,e.configurable=!0,"value"in e&&(e.writable=!0),Object.defineProperty(t,e.key,e)}}function e(t,n,e){return n&&r(t.prototype,n),e&&r(t,e),t}function i(t){return(i=Object.setPrototypeOf?Object.getPrototypeOf:function(t){return t.__proto__||Object.getPrototypeOf(t)})(t)}function o(t,n){return(o=Object.setPrototypeOf||function(t,n){return t.__proto__=n,t})(t,n)}function u(t,n){return!n||"object"!=typeof n&&"function"!=typeof n?function(t){if(void 0===t)throw new ReferenceError("this hasn't been initialised - super() hasn't been called");return t}(t):n}function a(t){var n=function(){if("undefined"==typeof Reflect||!Reflect.construct)return!1;if(Reflect.construct.sham)return!1;if("function"==typeof Proxy)return!0;try{return Boolean.prototype.valueOf.call(Reflect.construct(Boolean,[],(function(){}))),!0}catch(t){return!1}}();return function(){var r,e=i(t);if(n){var o=i(this).constructor;r=Reflect.construct(e,arguments,o)}else r=e.apply(this,arguments);return u(this,r)}}function l(t,n,r){return(l="undefined"!=typeof Reflect&&Reflect.get?Reflect.get:function(t,n,r){var e=function(t,n){for(;!Object.prototype.hasOwnProperty.call(t,n)&&null!==(t=i(t)););return t}(t,n);if(e){var o=Object.getOwnPropertyDescriptor(e,n);return o.get?o.get.call(r):o.value}})(t,n,r||t)}var f=s(Math.pow(10,-6));function s(t){var n=arguments.length>1&&void 0!==arguments[1]?arguments[1]:6;if(Number.isInteger(t))return t;var r=Math.pow(10,n);return Math.round((+t+Number.EPSILON)*r)/r}function c(t,n){var r=arguments.length>2&&void 0!==arguments[2]?arguments[2]:f;return Math.abs(t-n)<r}var h=Math.PI/180;function v(t){return t}function y(t,n,r){var e=1-r;return 3*r*e*(t*e+n*r)+r*r*r}function d(){var t=arguments.length>0&&void 0!==arguments[0]?arguments[0]:0,n=arguments.length>1&&void 0!==arguments[1]?arguments[1]:0,r=arguments.length>2&&void 0!==arguments[2]?arguments[2]:1,e=arguments.length>3&&void 0!==arguments[3]?arguments[3]:1;return t<0||t>1||r<0||r>1?null:c(t,n)&&c(r,e)?v:function(i){if(i<=0)return t>0?i*n/t:0===n&&r>0?i*e/r:0;if(i>=1)return r<1?1+(i-1)*(e-1)/(r-1):1===r&&t<1?1+(i-1)*(n-1)/(t-1):1;for(var o,u=0,a=1;u<a;){var l=y(t,r,o=(u+a)/2);if(c(i,l))break;l<i?u=o:a=o}return y(n,e,o)}}function g(){return 1}function p(t){return 1===t?1:0}function m(){var t=arguments.length>0&&void 0!==arguments[0]?arguments[0]:1,n=arguments.length>1&&void 0!==arguments[1]?arguments[1]:0;if(1===t){if(0===n)return p;if(1===n)return g}var r=1/t;return function(t){return t>=1?1:(t+=n*r)-t%r}}function b(t,n,r){return t>=.5?r:n}function w(t,n,r){return 0===t||n===r?n:t*(r-n)+n}function x(t,n,r){var e=w(t,n,r);return e<=0?0:e}function k(t,n,r){return 0===t?n:1===t?r:{x:w(t,n.x,r.x),y:w(t,n.y,r.y)}}function A(t,n,r){var e=function(t,n,r){return Math.round(w(t,n,r))}(t,n,r);return e<=0?0:e>=255?255:e}function S(t,n,r){return 0===t?n:1===t?r:{r:A(t,n.r,r.r),g:A(t,n.g,r.g),b:A(t,n.b,r.b),a:w(t,null==n.a?1:n.a,null==r.a?1:r.a)}}function _(t,n,r){if(0===t)return n;if(1===t)return r;var e=n.length;if(e!==r.length)return b(t,n,r);for(var i=[],o=0;o<e;o++)i.push(S(t,n[o],r[o]));return i}function O(t,n){for(var r=[],e=0;e<t;e++)r.push(n);return r}function M(t,n){if(--n<=0)return t;var r=(t=Object.assign([],t)).length;do{for(var e=0;e<r;e++)t.push(t[e])}while(--n>0);return t}var j,P=function(){function t(r){n(this,t),this.list=r,this.length=r.length}return e(t,[{key:"setAttribute",value:function(t,n){for(var r=this.list,e=0;e<this.length;e++)r[e].setAttribute(t,n)}},{key:"removeAttribute",value:function(t){for(var n=this.list,r=0;r<this.length;r++)n[r].removeAttribute(t)}},{key:"style",value:function(t,n){for(var r=this.list,e=0;e<this.length;e++)r[e].style[t]=n}}]),t}(),I=/-./g,E=function(t,n){return n.toUpperCase()};function F(t){return"function"==typeof t?t:b}function N(t){return t?"function"==typeof t?t:Array.isArray(t)?function(t){var n=arguments.length>1&&void 0!==arguments[1]?arguments[1]:v;if(!Array.isArray(t))return n;switch(t.length){case 1:return m(t[0])||n;case 2:return m(t[0],t[1])||n;case 4:return d(t[0],t[1],t[2],t[3])||n}return n}(t,null):function(t,n){var r=arguments.length>2&&void 0!==arguments[2]?arguments[2]:v;switch(t){case"linear":return v;case"steps":return m(n.steps||1,n.jump||0)||r;case"bezier":case"cubic-bezier":return d(n.x1||0,n.y1||0,n.x2||0,n.y2||0)||r}return r}(t.type,t.value,null):null}function B(t,n,r){var e=arguments.length>3&&void 0!==arguments[3]&&arguments[3],i=n.length-1;if(t<=n[0].t)return e?[0,0,n[0].v]:n[0].v;if(t>=n[i].t)return e?[i,1,n[i].v]:n[i].v;var o,u=n[0],a=null;for(o=1;o<=i;o++){if(!(t>n[o].t)){a=n[o];break}u=n[o]}return null==a?e?[i,1,n[i].v]:n[i].v:u.t===a.t?e?[o,1,a.v]:a.v:(t=(t-u.t)/(a.t-u.t),u.e&&(t=u.e(t)),e?[o,t,r(t,u.v,a.v)]:r(t,u.v,a.v))}function R(t,n){var r=arguments.length>2&&void 0!==arguments[2]?arguments[2]:null;return t&&t.length?"function"!=typeof n?null:("function"!=typeof r&&(r=null),function(e){var i=B(e,t,n);return null!=i&&r&&(i=r(i)),i}):null}function q(t,n){return t.t-n.t}function T(n,r,e,i,o){var u,a="@"===e[0],l="#"===e[0],f=j[e],s=b;switch(a?(u=e.substr(1),e=u.replace(I,E)):l&&(e=e.substr(1)),t(f)){case"function":if(s=f(i,o,B,N,e,a,r,n),l)return s;break;case"string":s=R(i,F(f));break;case"object":if((s=R(i,F(f.i),f.f))&&"function"==typeof f.u)return f.u(r,s,e,a,n)}return s?function(t,n,r){var e=arguments.length>3&&void 0!==arguments[3]&&arguments[3];if(e)return t instanceof P?function(e){return t.style(n,r(e))}:function(e){return t.style[n]=r(e)};if(Array.isArray(n)){var i=n.length;return function(e){var o=r(e);if(null==o)for(var u=0;u<i;u++)t[u].removeAttribute(n);else for(var a=0;a<i;a++)t[a].setAttribute(n,o)}}return function(e){var i=r(e);null==i?t.removeAttribute(n):t.setAttribute(n,i)}}(r,e,s,a):null}function L(n,r,e,i){if(!i||"object"!==t(i))return null;var o=null,u=null;return Array.isArray(i)?u=function(t){if(!t||!t.length)return null;for(var n=0;n<t.length;n++)t[n].e&&(t[n].e=N(t[n].e));return t.sort(q)}(i):(u=i.keys,o=i.data||null),u?T(n,r,e,u,o):null}function C(t,n,r){if(!r)return null;var e=[];for(var i in r)if(r.hasOwnProperty(i)){var o=L(t,n,i,r[i]);o&&e.push(o)}return e.length?e:null}function z(t,n){if(!n.duration||n.duration<0)return null;var r=function(t,n){if(!n)return null;var r=[];if(Array.isArray(n))for(var e=n.length,i=0;i<e;i++){var o=n[i];if(2===o.length){var u=null;if("string"==typeof o[0])u=t.getElementById(o[0]);else if(Array.isArray(o[0])){u=[];for(var a=0;a<o[0].length;a++)if("string"==typeof o[0][a]){var l=t.getElementById(o[0][a]);l&&u.push(l)}u=u.length?1===u.length?u[0]:new P(u):null}if(u){var f=C(t,u,o[1]);f&&(r=r.concat(f))}}}else for(var s in n)if(n.hasOwnProperty(s)){var c=t.getElementById(s);if(c){var h=C(t,c,n[s]);h&&(r=r.concat(h))}}return r.length?r:null}(t,n.elements);return r?function(t,n){var r=arguments.length>2&&void 0!==arguments[2]?arguments[2]:1/0,e=arguments.length>3&&void 0!==arguments[3]?arguments[3]:1,i=arguments.length>4&&void 0!==arguments[4]&&arguments[4],o=arguments.length>5&&void 0!==arguments[5]?arguments[5]:1,u=t.length,a=e>0?n:0;i&&r%2==0&&(a=n-a);var l=null;return function(f,s){var c=f%n,h=1+(f-c)/n;s*=e,i&&h%2==0&&(s=-s);var v=!1;if(h>r)c=a,v=!0,-1===o&&(c=e>0?0:n);else if(s<0&&(c=n-c),c===l)return!1;l=c;for(var y=0;y<u;y++)t[y](c);return v}}(r,n.duration,n.iterations||1/0,n.direction||1,!!n.alternate,n.fill||1):null}Number.isInteger||(Number.isInteger=function(t){return"number"==typeof t&&isFinite(t)&&Math.floor(t)===t}),Number.EPSILON||(Number.EPSILON=2220446049250313e-31);var D=function(){function t(r,e){var i=arguments.length>2&&void 0!==arguments[2]?arguments[2]:{};n(this,t),this._id=0,this._running=!1,this._rollingBack=!1,this._animations=r,this.duration=e.duration,this.alternate=e.alternate,this.fill=e.fill,this.iterations=e.iterations,this.direction=i.direction||1,this.speed=i.speed||1,this.fps=i.fps||100,this.offset=i.offset||0,this.rollbackStartOffset=0}return e(t,[{key:"_rollback",value:function(){var t=this,n=1/0,r=null;this.rollbackStartOffset=this.offset,this._rollingBack||(this._rollingBack=!0,this._running=!0);this._id=window.requestAnimationFrame((function e(i){if(t._rollingBack){null==r&&(r=i);var o=i-r,u=t.rollbackStartOffset-o,a=Math.round(u*t.speed);if(a>t.duration&&n!=1/0){var l=!!t.alternate&&a/t.duration%2>1,f=a%t.duration;a=(f+=l?t.duration:0)||t.duration}var s=t.fps?1e3/t.fps:0,c=Math.max(0,a);if(c<n-s){t.offset=c,n=c;for(var h=t._animations,v=h.length,y=0;y<v;y++)h[y](c,t.direction)}var d=!1;if(t.iterations>0&&-1===t.fill){var g=t.iterations*t.duration,p=g==a;a=p?0:a,t.offset=p?0:t.offset,d=a>g}a>0&&t.offset>=a&&!d?t._id=window.requestAnimationFrame(e):t.stop()}}))}},{key:"_start",value:function(){var t=this,n=arguments.length>0&&void 0!==arguments[0]?arguments[0]:0,r=-1/0,e=null,i={},o=function o(u){t._running=!0,null==e&&(e=u);var a=Math.round((u-e+n)*t.speed),l=t.fps?1e3/t.fps:0;if(a>r+l&&!t._rollingBack){t.offset=a,r=a;for(var f=t._animations,s=f.length,c=0,h=0;h<s;h++)i[h]?c++:(i[h]=f[h](a,t.direction),i[h]&&c++);if(c===s)return void t._stop()}t._id=window.requestAnimationFrame(o)};this._id=window.requestAnimationFrame(o)}},{key:"_stop",value:function(){this._id&&window.cancelAnimationFrame(this._id),this._running=!1,this._rollingBack=!1}},{key:"play",value:function(){!this._rollingBack&&this._running||(this._rollingBack=!1,this.rollbackStartOffset>this.duration&&(this.offset=this.rollbackStartOffset-(this.rollbackStartOffset-this.offset)%this.duration,this.rollbackStartOffset=0),this._start(this.offset))}},{key:"stop",value:function(){this._stop(),this.offset=0,this.rollbackStartOffset=0;var t=this.direction,n=this._animations;window.requestAnimationFrame((function(){for(var r=0;r<n.length;r++)n[r](0,t)}))}},{key:"reachedToEnd",value:function(){return this.iterations>0&&this.offset>=this.iterations*this.duration}},{key:"restart",value:function(){this._stop(),this.offset=0,this._start()}},{key:"pause",value:function(){this._stop()}},{key:"reverse",value:function(){this.direction=-this.direction}}],[{key:"build",value:function(n,r){return(n=function(t,n){if(j=n,!t||!t.root||!Array.isArray(t.animations))return null;for(var r=document.getElementsByTagName("svg"),e=!1,i=0;i<r.length;i++)if(r[i].id===t.root&&!r[i].svgatorAnimation){(e=r[i]).svgatorAnimation=!0;break}if(!e)return null;var o=t.animations.map((function(t){return z(e,t)})).filter((function(t){return!!t}));return o.length?{element:e,animations:o,animationSettings:t.animationSettings,options:t.options||void 0}:null}(n,r))?{el:n.element,options:n.options||{},player:new t(n.animations,n.animationSettings,n.options)}:null}}]),t}();function Q(t){return s(t)+""}function U(t){var n=arguments.length>1&&void 0!==arguments[1]?arguments[1]:" ";return t&&t.length?t.map(Q).join(n):""}function V(t){return t?null==t.a||t.a>=1?"rgb("+t.r+","+t.g+","+t.b+")":"rgba("+t.r+","+t.g+","+t.b+","+t.a+")":"transparent"}!function(){for(var t=0,n=["ms","moz","webkit","o"],r=0;r<n.length&&!window.requestAnimationFrame;++r)window.requestAnimationFrame=window[n[r]+"RequestAnimationFrame"],window.cancelAnimationFrame=window[n[r]+"CancelAnimationFrame"]||window[n[r]+"CancelRequestAnimationFrame"];window.requestAnimationFrame||(window.requestAnimationFrame=function(n){var r=Date.now(),e=Math.max(0,16-(r-t)),i=window.setTimeout((function(){n(r+e)}),e);return t=r+e,i},window.cancelAnimationFrame=window.clearTimeout)}();var G={f:null,i:function(t,n,r){return 0===t?n:1===t?r:{x:x(t,n.x,r.x),y:x(t,n.y,r.y)}},u:function(t,n){return function(r){var e=n(r);t.setAttribute("rx",Q(e.x)),t.setAttribute("ry",Q(e.y))}}},H={f:null,i:function(t,n,r){return 0===t?n:1===t?r:{width:x(t,n.width,r.width),height:x(t,n.height,r.height)}},u:function(t,n){return function(r){var e=n(r);t.setAttribute("width",Q(e.width)),t.setAttribute("height",Q(e.height))}}},Y=Math.sin,Z=Math.cos,J=Math.acos,K=Math.asin,W=Math.tan,X=Math.atan2,$=Math.PI/180,tt=180/Math.PI,nt=Math.sqrt,rt=function(){function t(){var r=arguments.length>0&&void 0!==arguments[0]?arguments[0]:1,e=arguments.length>1&&void 0!==arguments[1]?arguments[1]:0,i=arguments.length>2&&void 0!==arguments[2]?arguments[2]:0,o=arguments.length>3&&void 0!==arguments[3]?arguments[3]:1,u=arguments.length>4&&void 0!==arguments[4]?arguments[4]:0,a=arguments.length>5&&void 0!==arguments[5]?arguments[5]:0;n(this,t),this.m=[r,e,i,o,u,a],this.i=null,this.w=null,this.s=null}return e(t,[{key:"determinant",get:function(){var t=this.m;return t[0]*t[3]-t[1]*t[2]}},{key:"isIdentity",get:function(){if(null===this.i){var t=this.m;this.i=1===t[0]&&0===t[1]&&0===t[2]&&1===t[3]&&0===t[4]&&0===t[5]}return this.i}},{key:"point",value:function(t,n){var r=this.m;return{x:r[0]*t+r[2]*n+r[4],y:r[1]*t+r[3]*n+r[5]}}},{key:"translateSelf",value:function(){var t=arguments.length>0&&void 0!==arguments[0]?arguments[0]:0,n=arguments.length>1&&void 0!==arguments[1]?arguments[1]:0;if(!t&&!n)return this;var r=this.m;return r[4]+=r[0]*t+r[2]*n,r[5]+=r[1]*t+r[3]*n,this.w=this.s=this.i=null,this}},{key:"rotateSelf",value:function(){var t=arguments.length>0&&void 0!==arguments[0]?arguments[0]:0;if(t%=360){var n=Y(t*=$),r=Z(t),e=this.m,i=e[0],o=e[1];e[0]=i*r+e[2]*n,e[1]=o*r+e[3]*n,e[2]=e[2]*r-i*n,e[3]=e[3]*r-o*n,this.w=this.s=this.i=null}return this}},{key:"scaleSelf",value:function(){var t=arguments.length>0&&void 0!==arguments[0]?arguments[0]:1,n=arguments.length>1&&void 0!==arguments[1]?arguments[1]:1;if(1!==t||1!==n){var r=this.m;r[0]*=t,r[1]*=t,r[2]*=n,r[3]*=n,this.w=this.s=this.i=null}return this}},{key:"skewSelf",value:function(t,n){if(n%=360,(t%=360)||n){var r=this.m,e=r[0],i=r[1],o=r[2],u=r[3];t&&(t=W(t*$),r[2]+=e*t,r[3]+=i*t),n&&(n=W(n*$),r[0]+=o*n,r[1]+=u*n),this.w=this.s=this.i=null}return this}},{key:"resetSelf",value:function(){var t=arguments.length>0&&void 0!==arguments[0]?arguments[0]:1,n=arguments.length>1&&void 0!==arguments[1]?arguments[1]:0,r=arguments.length>2&&void 0!==arguments[2]?arguments[2]:0,e=arguments.length>3&&void 0!==arguments[3]?arguments[3]:1,i=arguments.length>4&&void 0!==arguments[4]?arguments[4]:0,o=arguments.length>5&&void 0!==arguments[5]?arguments[5]:0,u=this.m;return u[0]=t,u[1]=n,u[2]=r,u[3]=e,u[4]=i,u[5]=o,this.w=this.s=this.i=null,this}},{key:"recomposeSelf",value:function(){var t=arguments.length>0&&void 0!==arguments[0]?arguments[0]:null,n=arguments.length>1&&void 0!==arguments[1]?arguments[1]:null,r=arguments.length>2&&void 0!==arguments[2]?arguments[2]:null,e=arguments.length>3&&void 0!==arguments[3]?arguments[3]:null,i=arguments.length>4&&void 0!==arguments[4]?arguments[4]:null;return this.isIdentity||this.resetSelf(),t&&(t.x||t.y)&&this.translateSelf(t.x,t.y),n&&this.rotateSelf(n),r&&(r.x&&this.skewSelf(r.x,0),r.y&&this.skewSelf(0,r.y)),!e||1===e.x&&1===e.y||this.scaleSelf(e.x,e.y),i&&(i.x||i.y)&&this.translateSelf(i.x,i.y),this}},{key:"decompose",value:function(){var t=arguments.length>0&&void 0!==arguments[0]?arguments[0]:0,n=arguments.length>1&&void 0!==arguments[1]?arguments[1]:0,r=this.m,e=r[0]*r[0]+r[1]*r[1],i=[[r[0],r[1]],[r[2],r[3]]],o=nt(e);if(0===o)return{origin:{x:s(r[4]),y:s(r[5])},translate:{x:s(t),y:s(n)},scale:{x:0,y:0},skew:{x:0,y:0},rotate:0};i[0][0]/=o,i[0][1]/=o;var u=r[0]*r[3]-r[1]*r[2]<0;u&&(o=-o);var a=i[0][0]*i[1][0]+i[0][1]*i[1][1];i[1][0]-=i[0][0]*a,i[1][1]-=i[0][1]*a;var l=nt(i[1][0]*i[1][0]+i[1][1]*i[1][1]);if(0===l)return{origin:{x:s(r[4]),y:s(r[5])},translate:{x:s(t),y:s(n)},scale:{x:s(o),y:0},skew:{x:0,y:0},rotate:0};i[1][0]/=l,i[1][1]/=l,a/=l;var f=0;return i[1][1]<0?(f=J(i[1][1])*tt,i[0][1]<0&&(f=360-f)):f=K(i[0][1])*tt,u&&(f=-f),a=X(a,nt(i[0][0]*i[0][0]+i[0][1]*i[0][1]))*tt,u&&(a=-a),{origin:{x:s(r[4]),y:s(r[5])},translate:{x:s(t),y:s(n)},scale:{x:s(o),y:s(l)},skew:{x:s(a),y:0},rotate:s(f)}}},{key:"toString",value:function(){return null===this.s&&(this.s="matrix("+this.m.map((function(t){return s(t)})).join(" ")+")"),this.s}}]),t}();Object.freeze({M:2,L:2,Z:0,H:1,V:1,C:6,Q:4,T:2,S:4,A:7});var et={},it=null;function ot(n){var r=function(){if(it)return it;if("object"!==("undefined"==typeof document?"undefined":t(document))||!document.createElementNS)return{};var n=document.createElementNS("http://www.w3.org/2000/svg","svg");return n&&n.style?(n.style.position="absolute",n.style.opacity="0.01",n.style.zIndex="-9999",n.style.left="-9999px",n.style.width="1px",n.style.height="1px",it={svg:n}):{}}().svg;if(!r)return function(t){return null};var e=document.createElementNS(r.namespaceURI,"path");e.setAttributeNS(null,"d",n),e.setAttributeNS(null,"fill","none"),e.setAttributeNS(null,"stroke","none"),r.appendChild(e);var i=e.getTotalLength();return function(t){var n=e.getPointAtLength(i*t);return{x:n.x,y:n.y}}}function ut(t){return et[t]?et[t]:et[t]=ot(t)}function at(t,n,r,e){if(!t||!e)return!1;var i=["M",t.x,t.y];if(n&&r&&(i.push("C"),i.push(n.x),i.push(n.y),i.push(r.x),i.push(r.y)),n?!r:r){var o=n||r;i.push("Q"),i.push(o.x),i.push(o.y)}return n||r||i.push("L"),i.push(e.x),i.push(e.y),i.join(" ")}function lt(t,n,r,e){var i=arguments.length>4&&void 0!==arguments[4]?arguments[4]:1,o=at(t,n,r,e),u=ut(o);try{return u(i)}catch(t){return null}}function ft(t,n,r,e){var i=1-e;return i*i*t+2*i*e*n+e*e*r}function st(t,n,r,e){return 2*(1-e)*(n-t)+2*e*(r-n)}function ct(t,n,r,e){var i=arguments.length>4&&void 0!==arguments[4]&&arguments[4],o=lt(t,n,null,r,e);return o||(o={x:ft(t.x,n.x,r.x,e),y:ft(t.y,n.y,r.y,e)}),i&&(o.a=ht(t,n,r,e)),o}function ht(t,n,r,e){return Math.atan2(st(t.y,n.y,r.y,e),st(t.x,n.x,r.x,e))}function vt(t,n,r,e,i){var o=i*i;return i*o*(e-t+3*(n-r))+3*o*(t+r-2*n)+3*i*(n-t)+t}function yt(t,n,r,e,i){var o=1-i;return 3*(o*o*(n-t)+2*o*i*(r-n)+i*i*(e-r))}function dt(t,n,r,e,i){var o=arguments.length>5&&void 0!==arguments[5]&&arguments[5],u=lt(t,n,r,e,i);return u||(u={x:vt(t.x,n.x,r.x,e.x,i),y:vt(t.y,n.y,r.y,e.y,i)}),o&&(u.a=gt(t,n,r,e,i)),u}function gt(t,n,r,e,i){return Math.atan2(yt(t.y,n.y,r.y,e.y,i),yt(t.x,n.x,r.x,e.x,i))}function pt(t,n,r){return t+(n-t)*r}function mt(t,n,r){var e=arguments.length>3&&void 0!==arguments[3]&&arguments[3],i={x:pt(t.x,n.x,r),y:pt(t.y,n.y,r)};return e&&(i.a=bt(t,n)),i}function bt(t,n){return Math.atan2(n.y-t.y,n.x-t.x)}function wt(t,n,r){var e=arguments.length>3&&void 0!==arguments[3]&&arguments[3];if(kt(n)){if(At(r))return ct(n,r.start,r,t,e)}else if(kt(r)){if(n.end)return ct(n,n.end,r,t,e)}else{if(n.end)return r.start?dt(n,n.end,r.start,r,t,e):ct(n,n.end,r,t,e);if(r.start)return ct(n,r.start,r,t,e)}return mt(n,r,t,e)}function xt(t,n,r){var e=wt(t,n,r,!0);return e.a=function(t){var n=arguments.length>1&&void 0!==arguments[1]&&arguments[1];return n?t+Math.PI:t}(e.a)/h,e}function kt(t){return!t.type||"corner"===t.type}function At(t){return null!=t.start&&!kt(t)}var St=new rt;var _t={f:Q,i:w},Ot={f:Q,i:function(t,n,r){var e=w(t,n,r);return e<=0?0:e>=1?1:e}};function Mt(t,n,r,e,i,o,u,a){return n=function(t,n,r){for(var e,i,o,u=t.length-1,a={},l=0;l<=u;l++)(e=t[l]).e&&(e.e=n(e.e)),e.v&&"g"===(i=e.v).t&&i.r&&(o=r.getElementById(i.r))&&(a[i.r]=o.querySelectorAll("stop"));return a}(t,e,a),function(e){var i,o=r(e,t,jt);return o?"c"===o.t?V(o.v):"g"===o.t?(n[o.r]&&function(t,n){for(var r=0,e=t.length;r<e;r++)t[r].setAttribute("stop-color",V(n[r]))}(n[o.r],o.v),(i=o.r)?"url(#"+i+")":"none"):"none":"none"}}function jt(t,n,r){if(0===t)return n;if(1===t)return r;if(n&&r){var e=n.t;if(e===r.t)switch(n.t){case"c":return{t:e,v:S(t,n.v,r.v)};case"g":if(n.r===r.r)return{t:e,v:_(t,n.v,r.v),r:n.r}}}return b(t,n,r)}var Pt={fill:Mt,"fill-opacity":Ot,stroke:Mt,"stroke-opacity":Ot,"stroke-width":_t,"stroke-dashoffset":{f:Q,i:w},"stroke-dasharray":{f:function(t){var n=arguments.length>1&&void 0!==arguments[1]?arguments[1]:" ";return t&&t.length>0&&(t=t.map((function(t){return s(t,4)}))),U(t,n)},i:function(t,n,r){var e,i,o,u=n.length,a=r.length;if(u!==a)if(0===u)n=O(u=a,0);else if(0===a)a=u,r=O(u,0);else{var l=(o=(e=u)*(i=a)/function(t,n){for(var r;n;)r=n,n=t%n,t=r;return t||1}(e,i))<0?-o:o;n=M(n,Math.floor(l/u)),r=M(r,Math.floor(l/a)),u=a=l}for(var f=[],c=0;c<u;c++)f.push(s(x(t,n[c],r[c])));return f}},opacity:Ot,transform:function(n,r,e,i){if(!(n=function(n,r){if(!n||"object"!==t(n))return null;var e=!1;for(var i in n)n.hasOwnProperty(i)&&(n[i]&&n[i].length?(n[i].forEach((function(t){t.e&&(t.e=r(t.e))})),e=!0):delete n[i]);return e?n:null}(n,i)))return null;var o=function(t,i,o){var u=arguments.length>3&&void 0!==arguments[3]?arguments[3]:null;return n[t]?e(i,n[t],o):r&&r[t]?r[t]:u};return r&&r.a&&n.o?function(t){var r=e(t,n.o,xt);return St.recomposeSelf(r,o("r",t,w,0)+r.a,o("k",t,k),o("s",t,k),o("t",t,k)).toString()}:function(t){return St.recomposeSelf(o("o",t,wt,null),o("r",t,w,0),o("k",t,k),o("s",t,k),o("t",t,k)).toString()}},r:_t,"#size":H,"#radius":G,_:function(t,n){if(Array.isArray(t))for(var r=0;r<t.length;r++)this[t[r]]=n;else this[t]=n}};return function(t){!function(t,n){if("function"!=typeof n&&null!==n)throw new TypeError("Super expression must either be null or a function");t.prototype=Object.create(n&&n.prototype,{constructor:{value:t,writable:!0,configurable:!0}}),n&&o(t,n)}(u,t);var r=a(u);function u(){return n(this,u),r.apply(this,arguments)}return e(u,null,[{key:"build",value:function(t){var n=l(i(u),"build",this).call(this,t,Pt);if(!n)return null;n.el,n.options;var r=n.player;return function(t,n,r){t.play()}(r),r}}]),u}(D)}));
__SVGATOR_PLAYER__.build({"root":"e4Nn2JR3c8T1","animations":[{"duration":6000,"direction":1,"iterations":0,"fill":1,"alternate":false,"speed":1,"elements":{"e4Nn2JR3c8T206":{"transform":{"data":{"o":{"x":174.259949,"y":127.120014,"type":"corner"},"t":{"x":-174.259949,"y":-127.120014}},"keys":{"r":[{"t":0,"v":0},{"t":6000,"v":-360.01}]}}},"e4Nn2JR3c8T207":{"transform":{"data":{"o":{"x":205.225166,"y":170.300011,"type":"corner"},"t":{"x":-205.225166,"y":-170.300011}},"keys":{"r":[{"t":0,"v":0},{"t":6000,"v":-360.01}]}}},"e4Nn2JR3c8T208":{"transform":{"data":{"o":{"x":217.890938,"y":69.289381,"type":"corner"},"t":{"x":-217.890938,"y":-69.289381}},"keys":{"r":[{"t":0,"v":0},{"t":6000,"v":-360.01}]}}},"e4Nn2JR3c8T209":{"transform":{"data":{"o":{"x":173.259949,"y":124.120022,"type":"corner"},"t":{"x":-173.259949,"y":-124.120022}},"keys":{"r":[{"t":0,"v":0},{"t":6000,"v":-360.01}]}}},"e4Nn2JR3c8T210":{"transform":{"data":{"o":{"x":204.225166,"y":167.300018,"type":"corner"},"t":{"x":-204.225166,"y":-167.300018}},"keys":{"r":[{"t":0,"v":0},{"t":6000,"v":-360.01}]}}},"e4Nn2JR3c8T211":{"transform":{"data":{"o":{"x":216.890938,"y":66.289381,"type":"corner"},"t":{"x":-216.890938,"y":-66.289381}},"keys":{"r":[{"t":0,"v":0},{"t":6000,"v":-360.01}]}}},"e4Nn2JR3c8T216":{"transform":{"data":{"t":{"x":-347.274994,"y":-121.486065}},"keys":{"o":[{"t":0,"v":{"x":347.274994,"y":121.486065,"type":"corner"}},{"t":3000,"v":{"x":347.274994,"y":92.603872,"type":"corner"}},{"t":6000,"v":{"x":347.274994,"y":121.486065,"type":"corner"}}]}}},"e4Nn2JR3c8T217":{"transform":{"data":{"t":{"x":-352.195007,"y":-124.509937}},"keys":{"o":[{"t":0,"v":{"x":352.195007,"y":124.509937,"type":"corner"}},{"t":3000,"v":{"x":352.195007,"y":95.627744,"type":"corner"}},{"t":6000,"v":{"x":352.195007,"y":124.509937,"type":"corner"}}]}}},"e4Nn2JR3c8T218":{"transform":{"data":{"t":{"x":-320.654999,"y":-135.405663}},"keys":{"o":[{"t":0,"v":{"x":320.654999,"y":135.405663,"type":"corner"}},{"t":3000,"v":{"x":320.654999,"y":106.523469,"type":"corner"}},{"t":6000,"v":{"x":320.654999,"y":135.405663,"type":"corner"}}]}}},"e4Nn2JR3c8T219":{"transform":{"data":{"t":{"x":-383.625015,"y":-112.084293}},"keys":{"o":[{"t":0,"v":{"x":383.625015,"y":112.084293,"type":"corner"}},{"t":3000,"v":{"x":383.625015,"y":83.2021,"type":"corner"}},{"t":6000,"v":{"x":383.625015,"y":112.084293,"type":"corner"}}]}}},"e4Nn2JR3c8T220":{"transform":{"data":{"t":{"x":-353.285019,"y":-152.382225}},"keys":{"o":[{"t":0,"v":{"x":353.285019,"y":152.382225,"type":"corner"}},{"t":3000,"v":{"x":353.285019,"y":123.50003,"type":"corner"}},{"t":6000,"v":{"x":353.285019,"y":152.382225,"type":"corner"}}]}}},"e4Nn2JR3c8T221":{"transform":{"data":{"t":{"x":-351.104996,"y":-96.615902}},"keys":{"o":[{"t":0,"v":{"x":351.104996,"y":96.615902,"type":"corner"}},{"t":3000,"v":{"x":351.104996,"y":67.733709,"type":"corner"}},{"t":6000,"v":{"x":351.104996,"y":96.615902,"type":"corner"}}]}}},"e4Nn2JR3c8T222":{"transform":{"data":{"t":{"x":-372.319992,"y":-137.777725}},"keys":{"o":[{"t":0,"v":{"x":372.319992,"y":137.777725,"type":"corner"}},{"t":3000,"v":{"x":370.344992,"y":164.372294,"type":"corner"}},{"t":6000,"v":{"x":372.319992,"y":137.777725,"type":"corner"}}]}}},"e4Nn2JR3c8T223":{"transform":{"data":{"t":{"x":-377.25,"y":-140.814827}},"keys":{"o":[{"t":0,"v":{"x":377.25,"y":140.814827,"type":"corner"}},{"t":3000,"v":{"x":375.275,"y":167.409396,"type":"corner"}},{"t":6000,"v":{"x":377.25,"y":140.814827,"type":"corner"}}]}}},"e4Nn2JR3c8T224":{"transform":{"data":{"t":{"x":-345.759995,"y":-151.712666}},"keys":{"o":[{"t":0,"v":{"x":345.759995,"y":151.712666,"type":"corner"}},{"t":3000,"v":{"x":343.784995,"y":178.307235,"type":"corner"}},{"t":6000,"v":{"x":345.759995,"y":151.712666,"type":"corner"}}]}}},"e4Nn2JR3c8T225":{"transform":{"data":{"t":{"x":-408.725021,"y":-128.384342}},"keys":{"o":[{"t":0,"v":{"x":408.725021,"y":128.384342,"type":"corner"}},{"t":3000,"v":{"x":406.750021,"y":154.978911,"type":"corner"}},{"t":6000,"v":{"x":408.725021,"y":128.384342,"type":"corner"}}]}}},"e4Nn2JR3c8T226":{"transform":{"data":{"t":{"x":-378.355011,"y":-168.684105}},"keys":{"o":[{"t":0,"v":{"x":378.355011,"y":168.684105,"type":"corner"}},{"t":3000,"v":{"x":376.380011,"y":195.278674,"type":"corner"}},{"t":6000,"v":{"x":378.355011,"y":168.684105,"type":"corner"}}]}}},"e4Nn2JR3c8T227":{"transform":{"data":{"t":{"x":-376.164993,"y":-112.922779}},"keys":{"o":[{"t":0,"v":{"x":376.164993,"y":112.922779,"type":"corner"}},{"t":3000,"v":{"x":374.189993,"y":139.517348,"type":"corner"}},{"t":6000,"v":{"x":376.164993,"y":112.922779,"type":"corner"}}]}}},"e4Nn2JR3c8T228":{"transform":{"data":{"t":{"x":-401.924988,"y":-154.146065}},"keys":{"o":[{"t":0,"v":{"x":401.924988,"y":154.146065,"type":"corner"}},{"t":3000,"v":{"x":400.899988,"y":109.253882,"type":"corner"}},{"t":6000,"v":{"x":401.924988,"y":154.146065,"type":"corner"}}]}}},"e4Nn2JR3c8T229":{"transform":{"data":{"t":{"x":-406.840012,"y":-157.179939}},"keys":{"o":[{"t":0,"v":{"x":406.840012,"y":157.179939,"type":"corner"}},{"t":3000,"v":{"x":405.815012,"y":112.287755,"type":"corner"}},{"t":6000,"v":{"x":406.840012,"y":157.179939,"type":"corner"}}]}}},"e4Nn2JR3c8T230":{"transform":{"data":{"t":{"x":-375.334991,"y":-168.060707}},"keys":{"o":[{"t":0,"v":{"x":375.334991,"y":168.060707,"type":"corner"}},{"t":3000,"v":{"x":374.309991,"y":123.168524,"type":"corner"}},{"t":6000,"v":{"x":375.334991,"y":168.060707,"type":"corner"}}]}}},"e4Nn2JR3c8T231":{"transform":{"data":{"t":{"x":-438.305008,"y":-144.754337}},"keys":{"o":[{"t":0,"v":{"x":438.305008,"y":144.754337,"type":"corner"}},{"t":3000,"v":{"x":437.280008,"y":99.862154,"type":"corner"}},{"t":6000,"v":{"x":438.305008,"y":144.754337,"type":"corner"}}]}}},"e4Nn2JR3c8T232":{"transform":{"data":{"t":{"x":-407.925003,"y":-185.054108}},"keys":{"o":[{"t":0,"v":{"x":407.925003,"y":185.054108,"type":"corner"}},{"t":3000,"v":{"x":406.900003,"y":140.161926,"type":"corner"}},{"t":6000,"v":{"x":407.925003,"y":185.054108,"type":"corner"}}]}}},"e4Nn2JR3c8T233":{"transform":{"data":{"t":{"x":-405.74498,"y":-129.287777}},"keys":{"o":[{"t":0,"v":{"x":405.74498,"y":129.287777,"type":"corner"}},{"t":3000,"v":{"x":404.71998,"y":84.395593,"type":"corner"}},{"t":6000,"v":{"x":405.74498,"y":129.287777,"type":"corner"}}]}}}}}],"options":{"start":"load","hover":null,"click":null,"scroll":null,"font":"embed","exportedIds":"unique","svgFormat":"animated","title":"Recurso 1ewq312"},"animationSettings":{"duration":6000,"direction":1,"iterations":0,"fill":1,"alternate":false,"speed":1}})]]></script></svg>